<svg width="100%" viewBox="0 0 200 200" version="1.1" xmlns="http://www.w3.org/2000/svg" xmlns:xlink="http://www.w3.org/1999/xlink"><path d="M82.72251,0c-5.2356,7.32984 -3.14136,17.80105 5.2356,20.94241c6.28272,-6.28272 3.14136,-16.75393 -5.2356,-20.94241zM182.19895,77.48691c-1.04712,8.37696 -11.51832,13.61257 -18.84817,10.4712c1.04712,-8.37696 10.4712,-13.61257 18.84817,-10.4712zM120.41885,200c-2.09424,-3.14136 -5.2356,-6.28272 -7.32984,-9.42408c-2.09424,-3.14136 -2.09424,-4.18848 -6.28272,-7.32984c-1.04712,-1.04712 -2.09424,-1.04712 -3.14136,-3.14136c0,-1.04712 -1.04712,-4.18848 -2.09424,-5.2356v-1.04712c-1.72335,-4.30785 -0.61047,-5.7801 1.00471,-7.91728c0.34764,-0.45969 0.71864,-0.95079 1.08953,-1.50681c1.04712,-1.04712 2.09424,-2.09424 4.18848,-2.09424c3.14136,-1.04712 6.28272,1.04712 8.37696,3.14136c4.18848,4.18848 5.2356,6.28272 5.2356,10.4712c1.04712,5.2356 2.09424,5.2356 4.18848,9.42408c1.04712,3.14136 1.04712,6.28272 2.09424,9.42408c1.04712,1.04712 1.04712,-1.04712 1.04712,-1.04712c0,-3.14136 -1.04712,-6.28272 -2.09424,-9.42408c0,-0.33403 -0.21257,-0.88063 -0.46911,-1.53822c-0.5466,-1.40524 -1.2911,-3.31728 -0.57801,-4.7445c1.04712,-1.04712 2.09424,0 3.14136,1.04712c1.04712,1.04712 2.09424,2.09424 4.18848,3.14136c1.04712,1.04712 3.14136,2.09424 5.2356,3.14136c3.14136,2.09424 4.18848,5.2356 5.2356,8.37696c0,1.04712 1.04712,4.18848 2.09424,4.18848c0.69843,-0.69843 0.46492,-1.39581 0.23246,-2.09424c-0.11623,-0.34869 -0.23246,-0.69843 -0.23246,-1.04712c-1.04712,-3.14136 -1.04712,-6.28272 -4.18848,-9.42408c-2.09424,-2.09424 -6.28272,-5.2356 -8.37696,-7.32984c-4.18848,-4.18848 -7.32984,-6.28272 -8.37696,-11.51832c0,-3.14136 1.04712,-3.14136 3.14136,-4.18848c3.14136,-1.04712 5.2356,1.04712 7.32984,3.14136c3.14136,4.18848 6.28272,7.32984 11.51832,8.37696c2.09424,1.04712 3.14136,1.04712 5.2356,2.09424c2.09424,0 -1.04712,-1.04712 -1.04712,-1.04712c-3.14136,-2.09424 -6.28272,-2.09424 -8.37696,-5.2356c-1.04712,-1.04712 -1.04712,-3.14136 1.04712,-3.14136h7.32984c6.28272,1.04712 8.37696,1.04712 13.61257,-3.14136c3.14136,-1.04712 4.18848,-2.09424 7.32984,-2.09424h3.14136c1.04712,0 1.04712,0 1.04712,-1.04712h-5.2356c-2.8555,0 -4.62932,1.08168 -6.40419,2.16335c-2.1288,1.29843 -4.25759,2.59581 -8.2555,2.02513c-3.14136,0 -5.2356,-1.04712 -8.37696,-1.04712c-2.09424,-1.04712 -5.2356,-1.04712 -8.37696,-2.09424c-4.18848,-1.04712 -4.18848,-3.14136 -7.32984,-4.18848c-3.14136,-2.09424 -6.28272,0 -8.37696,-2.09424l-3.14136,-3.14136c-2.09424,-2.09424 -4.18848,-7.32984 -5.2356,-10.4712c-0.78534,-0.78534 -0.39267,-3.9267 -0.14723,-5.89005c0.08178,-0.65445 0.14723,-1.17801 0.14723,-1.43979v-7.32984c1.04712,-2.09424 1.04712,-5.2356 0,-7.32984c-1.87812,-1.87853 -1.22974,-3.75602 -0.32073,-6.38953c0.10461,-0.30262 0.21267,-0.61571 0.32073,-0.94031c0,-2.09424 1.04712,-7.32984 3.14136,-9.42408c3.14136,-5.2356 8.37696,-8.37696 13.61257,-9.42408c1.04712,-1.04712 1.04712,-1.04712 2.09424,-1.04712c2.09424,-1.04712 5.2356,-1.04712 7.32984,-1.04712c4.18848,-1.04712 8.37696,-1.04712 12.56545,-1.04712c2.09424,1.04712 3.14136,1.04712 5.2356,0c0,0 1.04712,1.04712 0,-1.04712c-1.04712,-1.04712 -3.14136,-1.04712 -4.18848,-1.04712c-4.18848,-1.04712 -7.32984,-1.04712 -11.51832,-1.04712c-2.09424,0 -3.14136,0 -3.14136,-3.14136c2.09424,-5.2356 8.37696,-5.2356 10.4712,-8.37696c0.57277,-0.57236 0.83141,-0.83183 0.77801,-0.94953c-0.04398,-0.09759 -0.30366,-0.09759 -0.77801,-0.09759c-2.09424,1.04712 -5.2356,2.09424 -7.32984,2.09424c-5.2356,2.09424 -6.28272,3.14136 -9.42408,6.28272c-3.14136,2.09424 -5.2356,4.18848 -8.37696,4.18848c-2.09424,0 -4.18848,0 -6.28272,1.04712c0,-7.32984 3.14136,-16.75393 7.32984,-24.08377c1.04712,-3.14136 2.09424,-5.2356 4.18848,-8.37696c1.04712,-1.04712 1.04712,-2.09424 1.04712,-4.18848c-2.09424,0 -3.14136,3.14136 -4.18848,4.18848c-2.09424,2.09424 -3.14136,4.18848 -4.18848,6.28272c-4.18848,6.28272 -5.2356,-8.37696 -5.2356,-10.4712c0,-0.26178 0.06545,-0.78534 0.14723,-1.43979c0.24545,-1.96335 0.63812,-5.10471 -0.14723,-5.89005c-1.04712,1.04712 -1.04712,4.18848 -1.04712,4.18848c-1.04712,3.14136 -1.04712,5.2356 -1.04712,7.32984c-1.04712,4.18848 -1.04712,8.37696 -1.04712,11.51832c-1.04712,6.28272 -1.04712,8.37696 -3.14136,13.61257c-6.28272,11.51832 -8.37696,25.13089 -9.42408,37.69634c-1.04712,-7.32984 -2.09424,-14.65969 -3.14136,-23.03665c-1.04712,-2.09424 -1.04712,-4.18848 -1.04712,-7.32984c-1.04712,-2.09424 0,-6.28272 1.04712,-9.42408c1.04712,-5.2356 3.14136,-10.4712 3.14136,-16.75393c0,-1.04712 1.04712,-9.42408 1.04712,-10.4712c-1.04712,-1.04712 -2.09424,2.09424 -2.09424,2.09424c-1.04712,4.18848 -1.04712,8.37696 -2.09424,12.56545c-1.04712,2.09424 -4.18848,10.4712 -7.32984,10.4712c-1.04712,0 -2.09424,-2.09424 -3.14136,-3.14136c-1.04712,-2.09424 -2.09424,-4.18848 -3.14136,-5.2356c-3.14136,-4.18848 -4.18848,-6.28272 -7.32984,-9.42408c-1.04712,-2.09424 -2.09424,-3.14136 -3.14136,-4.18848c-1.04712,-1.04712 -2.09424,0 -2.09424,0c0,3.14136 2.09424,5.2356 4.18848,7.32984c3.14136,3.14136 5.2356,9.42408 7.32984,12.56545c2.09424,7.32984 2.09424,13.61257 2.09424,20.94241c-8.37696,-1.04712 -12.56545,-1.04712 -19.89529,0c-4.18848,0 -8.37696,2.09424 -12.56545,3.14136c0,0 -1.04712,1.04712 -1.04712,2.09424c3.14136,0 6.28272,-1.04712 9.42408,-2.09424c6.28272,-1.04712 14.65969,1.04712 19.89529,5.2356c3.14136,3.14136 6.28272,7.32984 8.37696,11.51832c2.09424,6.28272 1.04712,5.2356 2.09424,11.51832c0,3.14136 0,5.2356 -1.04712,8.37696c0,2.09424 0,4.18848 -1.04712,7.32984c-1.04712,2.09424 -2.09424,3.14136 -2.09424,5.2356c-1.04712,3.14136 -3.14136,5.2356 -6.28272,6.28272c-3.81529,1.52565 -4.29424,1.38429 -6.29937,0.78953c-0.74639,-0.22094 -1.7044,-0.50576 -3.12471,-0.78953c-3.27414,-0.54555 -4.55759,0.61466 -5.92524,1.85131c-1.25675,1.13613 -2.5845,2.33717 -5.59309,2.33717h-1.04712c-5.2356,-1.04712 -8.37696,-1.04712 -12.56545,1.04712c-3.14136,1.04712 -5.2356,1.04712 -8.37696,0h-7.32984l3.14136,1.04712c1.19581,0 2.69518,0.30366 4.26691,0.62199c2.55707,0.51728 5.30586,1.0733 7.25141,0.42513c0.68869,-0.22932 1.27665,-0.45864 1.80817,-0.66702c1.89298,-0.73822 3.06901,-1.19791 5.52168,-0.3801c1.04712,0 5.2356,1.04712 6.28272,1.04712c1.04712,2.09424 -1.04712,6.28272 -2.09424,7.32984c-2.09424,3.14136 -4.18848,3.14136 -7.32984,5.2356c0,1.04712 -2.09424,3.14136 -2.09424,3.14136c0,0 3.14136,-2.09424 4.18848,-3.14136c2.09424,-1.04712 4.18848,-2.09424 6.28272,-4.18848c4.18848,-3.14136 5.2356,-7.32984 9.42408,-10.4712c1.04712,0 1.04712,-1.04712 2.09424,-1.04712c2.09424,0 3.14136,3.14136 8.37696,3.14136h2.09424c1.04712,-1.04712 2.09424,-1.04712 4.18848,-1.04712c0.20942,0.20942 0.46073,0.41885 0.71204,0.62827c1.00524,0.8377 2.01047,1.67539 0.33508,2.51309c-1.04712,1.04712 -4.18848,3.14136 -5.2356,4.18848c-4.18848,3.14136 -4.18848,3.14136 -8.37696,4.18848c-6.28272,2.09424 -9.42408,6.28272 -13.61257,9.42408c-3.14136,2.09424 -5.2356,1.04712 -7.32984,2.09424c-1.04712,1.04712 0,1.04712 1.04712,1.04712c5.2356,-1.04712 5.2356,-1.04712 9.42408,-4.18848c0.48084,-0.24084 1.12723,-0.64607 1.87592,-1.11623c2.51215,-1.57801 6.17518,-3.87853 8.59529,-3.07225c2.09424,1.04712 1.04712,3.14136 0,4.18848c-1.04712,2.09424 -1.04712,4.18848 -3.14136,6.28272c-2.09424,1.04712 -3.14136,2.09424 -5.2356,4.18848l-3.14136,3.14136c0,0 -3.14136,2.09424 -2.09424,3.14136l2.09424,-1.04712c2.09424,-1.04712 2.09424,-2.09424 4.18848,-3.14136c1.04712,-1.04712 2.09424,-2.09424 4.18848,-3.14136c5.2356,-4.18848 6.28272,-6.28272 8.37696,-12.56545c2.09424,-3.14136 3.14136,-4.18848 5.2356,-6.28272c2.09424,-1.04712 5.2356,-2.09424 7.32984,-2.09424h1.04712c1.04712,1.04712 2.09424,4.18848 3.14136,5.2356c2.09424,3.14136 4.18848,5.2356 5.2356,9.42408c0,2.09424 -1.04712,5.2356 -1.04712,8.37696v5.2356c0,0 0,3.14136 1.04712,2.09424c1.04712,0 1.04712,-4.18848 1.04712,-5.2356c0,-1.04712 0,-7.32984 3.14136,-8.37696c2.09424,0 5.2356,2.09424 6.28272,4.18848c1.04712,2.09424 2.09424,3.14136 3.14136,5.2356c1.04712,0 5.2356,5.2356 6.28272,5.2356zM17.80105,85.86387c6.28272,6.28272 16.75393,5.2356 21.98953,-3.14136c-6.28272,-6.28272 -17.80105,-4.18848 -21.98953,3.14136zM99.47644,4.18848c-7.32984,4.18848 -9.42408,14.65969 -4.18848,20.94241c8.37696,-3.14136 10.4712,-14.65969 4.18848,-20.94241zM108.90052,7.32984c-4.18848,7.32984 1.04712,17.80105 9.42408,19.89529c4.18848,-8.37696 0,-17.80105 -9.42408,-19.89529zM148.6911,10.4712c-8.37696,0 -14.65969,9.42408 -11.51832,17.80105c8.37696,-1.04712 14.65969,-9.42408 11.51832,-17.80105zM69.10995,26.17801c0,-8.37696 -9.42408,-14.65969 -17.80105,-12.56545c0,9.42408 9.42408,15.70681 17.80105,12.56545zM82.72251,30.36649c2.09424,-8.37696 -5.2356,-16.75393 -14.65969,-16.75393c-1.04712,8.37696 5.2356,16.75393 14.65969,16.75393zM130.89005,15.70681c5.2356,7.32984 2.09424,17.80105 -6.28272,20.94241c-5.2356,-7.32984 -2.09424,-17.80105 6.28272,-20.94241zM143.4555,38.74346c-2.09424,-8.37696 4.18848,-17.80105 13.61257,-17.80105c2.09424,9.42408 -4.18848,17.80105 -13.61257,17.80105zM96.33508,43.97906c-4.18848,-7.32984 1.04712,-17.80105 9.42408,-19.89529c4.18848,8.37696 0,17.80105 -9.42408,19.89529zM52.35602,26.17801c9.42408,0 15.70681,8.37696 13.61257,17.80105c-9.42408,0 -15.70681,-9.42408 -13.61257,-17.80105zM89.00524,28.27225c-7.32984,4.18848 -8.37696,15.70681 -2.09424,21.98953c8.37696,-5.2356 8.37696,-16.75393 2.09424,-21.98953zM73.29843,29.31937c-7.32984,6.28272 -6.28272,16.75393 2.09424,21.98953c6.28272,-6.28272 5.2356,-17.80105 -2.09424,-21.98953zM118.32461,32.46073c-9.42408,0 -15.70681,8.37696 -14.65969,17.80105c9.42408,0 16.75393,-8.37696 14.65969,-17.80105zM124.60733,49.21466c9.42408,1.04712 16.75393,-6.28272 15.70681,-15.70681c-8.37696,-1.04712 -15.70681,6.28272 -15.70681,15.70681zM54.45026,43.97906c-3.14136,-8.37696 -12.56545,-12.56545 -20.94241,-8.37696c3.14136,8.37696 12.56545,12.56545 20.94241,8.37696zM159.1623,56.5445c-2.09424,-8.37696 4.18848,-16.75393 13.61257,-16.75393c2.09424,8.37696 -4.18848,16.75393 -13.61257,16.75393zM154.97382,41.88482c-2.09424,8.37696 -11.51832,13.61257 -19.89529,10.4712c2.09424,-9.42408 11.51832,-14.65969 19.89529,-10.4712zM50.26178,47.12042c8.37696,-4.18848 17.80105,0 20.94241,8.37696c-8.37696,4.18848 -17.80105,1.04712 -20.94241,-8.37696zM152.87958,51.3089c7.32984,5.2356 6.28272,16.75393 -1.04712,21.98953c-6.28272,-6.28272 -6.28272,-16.75393 1.04712,-21.98953zM82.72251,53.40314c8.37696,-2.09424 15.70681,4.18848 15.70681,12.56545c-7.32984,2.09424 -15.70681,-4.18848 -15.70681,-12.56545zM36.64921,61.7801c6.28272,6.28272 16.75393,5.2356 21.98953,-2.09424c-6.28272,-6.28272 -17.80105,-5.2356 -21.98953,2.09424zM77.48691,65.96859c-6.28272,-6.28272 -16.75393,-6.28272 -21.98953,1.04712c5.2356,7.32984 16.75393,6.28272 21.98953,-1.04712zM169.63351,62.82723c-8.37696,1.04712 -14.65969,9.42408 -11.51832,17.80105c8.37696,0 14.65969,-9.42408 11.51832,-17.80105zM124.60733,72.25131c7.32984,5.2356 17.80105,2.09424 20.94241,-6.28272c-7.32984,-5.2356 -17.80105,-2.09424 -20.94241,6.28272zM52.35602,79.58115c-2.09424,-8.37696 -12.56545,-12.56545 -19.89529,-8.37696c2.09424,8.37696 12.56545,12.56545 19.89529,8.37696zM77.48691,87.95812c-3.14136,-9.42408 -12.56545,-12.56545 -20.94241,-8.37696c3.14136,8.37696 13.61257,12.56545 20.94241,8.37696zM39.79058,86.91099c7.32984,-5.2356 17.80105,-1.04712 20.94241,7.32984c-8.37696,5.2356 -18.84817,1.04712 -20.94241,-7.32984zM178.01047,105.75916c-8.37696,2.09424 -16.75393,-4.18848 -16.75393,-13.61257c8.37696,-2.09424 16.75393,5.2356 16.75393,13.61257zM144.50262,92.1466c-1.04712,9.42408 7.32984,16.75393 16.75393,14.65969c0,-8.37696 -8.37696,-15.70681 -16.75393,-14.65969zM28.27225,103.66492c7.32984,6.28272 17.80105,4.18848 21.98953,-3.14136c-6.28272,-6.28272 -16.75393,-5.2356 -21.98953,3.14136zM48.16754,118.32461c8.37696,1.04712 16.75393,-7.32984 15.70681,-15.70681c-9.42408,-1.04712 -16.75393,6.28272 -15.70681,15.70681z" fill-rule="evenodd"></path></svg>