<svg width="100%" viewBox="0 0 200 200" version="1.1" xmlns="http://www.w3.org/2000/svg" xmlns:xlink="http://www.w3.org/1999/xlink"><path d="M72.10118,4.66587c-0.26222,1.25331 -0.47555,2.49994 -0.57776,3.77769c-0.19333,2.40217 -3.57548,2.41772 -3.74214,0c-0.16444,-2.41772 -0.15111,-4.78212 0.63332,-7.0754c0.54665,-1.59996 3.39992,-2.03551 3.68881,0c0.16666,1.17109 0.24222,2.13106 -0.00222,3.2977zM120.16234,15.90339c-3.50437,3.97547 -7.63316,7.28206 -11.49308,10.90643c-0.56221,0.52888 -1.34886,-0.27111 -0.8422,-0.8422c3.51548,-3.96213 7.07095,-7.8576 11.07309,-11.32642c0.86887,-0.75332 2.02662,0.39555 1.26219,1.26219zM18.19793,14.94119c1.8444,1.99551 6.31097,5.69765 8.43981,7.38873c1.20442,0.95553 -0.18444,2.79105 -1.43775,1.89774c-2.48439,-1.76663 -6.94207,-5.47766 -8.67314,-7.97316c-0.78665,-1.13331 0.74443,-2.31773 1.67107,-1.3133zM68.95459,19.43665c0.22444,-1.78885 2.66216,-1.84218 2.82438,0c0.36666,4.16235 0.05978,8.3287 -0.24666,12.48995c-0.09111,1.23708 -0.18222,2.47372 -0.25555,3.7097c-0.05778,0.9622 -1.54885,1.27553 -1.75996,0.23777c-1.09553,-5.43988 -1.24886,-10.92865 -0.56221,-16.43741zM98.72059,37.11181c-0.76443,0.28444 -1.21553,0.45555 -1.83551,1.01553c-0.58221,0.5311 -1.6133,-0.16666 -1.13331,-0.87554c0.89331,-1.31997 1.21331,-2.6755 2.44439,-3.76436c1.31553,-1.1622 2.64883,-2.25551 4.01991,-3.34659c1.42219,-1.13109 3.11993,0.56221 1.9844,1.9844c-1.11109,1.39108 -2.3355,2.52661 -3.65992,3.70658c-0.57332,0.5111 -1.08664,1.00664 -1.81996,1.27997zM36.29309,31.08306c4.6999,2.99549 8.51537,7.06429 12.49306,10.91531c0.94665,0.91554 -0.24888,2.25995 -1.33997,1.73552c-5.01544,-2.42217 -9.50423,-5.79765 -13.26637,-9.91311c-1.29553,-1.41775 0.38444,-3.83991 2.11329,-2.73772zM81.47431,59.37577c-0.49554,-0.5111 -1.07775,-1.02664 -1.65107,-1.65774c-3.01327,-3.32437 -6.02876,-6.64874 -9.04202,-9.97089l10.06644,-3.25104l14.2108,9.67534c-0.08222,0.00444 -0.16444,0.00667 -0.25555,0.04444c-4.41324,1.74885 -8.85536,3.48659 -13.32859,5.15989zM79.55657,60.07575c-6.90874,2.55105 -13.89303,4.92656 -20.95954,6.9754c-0.48021,-3.1426 0.05711,-6.53697 0.60821,-10.01889c0.25711,-1.62463 0.51732,-3.26815 0.67843,-4.91411c0.03778,-0.36888 -0.13333,-0.60443 -0.3711,-0.73554l9.40424,-3.03549c2.49772,2.75327 4.99767,5.50877 7.49539,8.26204c1.04887,1.15553 2.09551,2.31106 3.14437,3.46659zM47.04618,55.40919l11.14864,-3.59992c-0.04444,0.09333 -0.08222,0.19111 -0.09333,0.3111c-0.11666,1.19286 -0.41488,2.74616 -0.74421,4.46123c-0.69332,3.61148 -1.52441,7.94071 -1.08909,11.1362c-5.14655,1.4333 -10.3331,2.69327 -15.56854,3.67992zM193.91182,138.67623c-0.92887,-5.031 -2.74883,-9.90645 -5.04433,-14.54857c-2.40217,-4.60656 -5.50877,-8.84425 -9.05536,-12.67972c-3.53548,-3.70658 -8.21093,-7.17095 -12.19529,-9.48646l-3.65103,-1.8444c-1.14664,-0.62665 -2.3755,-1.0622 -3.59548,-1.51774c-2.40217,-1.01776 -4.94433,-1.61108 -7.44872,-2.26884c-2.07107,-0.41777 -4.15991,-0.6911 -6.25097,-0.87998c-0.2911,-0.04667 -0.5711,-0.11778 -0.86665,-0.15555c-4.20435,-0.77332 -8.54648,-0.79332 -13.47526,-0.26888c-1.21775,0.12444 -2.04884,0.35333 -3.10215,0.52443l-1.50886,0.27999l-0.75776,0.14l-0.42221,0.10444l-0.10444,0.03111l-0.06444,0.02c-0.48888,-0.51554 -1.01553,-0.98664 -1.55997,-1.43997c-4.00213,-4.24879 -9.27979,-8.56203 -16.13298,-11.44641c-3.58881,-1.41997 -7.50206,-2.70438 -11.7153,-3.14882c-1.04887,-0.11778 -2.11106,-0.27555 -3.18437,-0.35333c-1.07775,-0.00889 -2.1644,-0.01778 -3.25993,-0.02889c-1.70218,-0.08311 -3.58814,0.13 -5.46966,0.34266c-0.48621,0.05489 -0.9722,0.10978 -1.45463,0.15955c-0.98442,0.11555 -1.74218,0.30444 -2.55772,0.47555l13.01082,-24.41501c-3.80214,1.57108 -7.64872,3.11549 -11.53752,4.59768c0.20222,0.52443 0.27111,1.11331 0.09778,1.85996c-2.06884,8.88869 -4.13991,17.77738 -6.20875,26.66608c-0.25555,1.09775 -0.5111,2.19328 -0.76665,3.29104c-0.19333,0.82887 -1.2022,0.7822 -1.63107,0.21333c-0.39777,-0.52888 -0.79776,-1.05998 -1.19775,-1.58885c-5.16877,-6.86429 -10.33977,-13.73081 -15.50855,-20.5951c-0.29333,-0.38888 -0.48443,-0.8822 -0.66221,-1.38886c-5.26211,1.38886 -10.55754,2.5755 -15.87743,3.43548l24.35946,14.09747c-2.37773,1.45775 -4.6599,3.11771 -6.82207,4.94656c-3.75769,3.2066 -6.9954,7.06873 -9.77312,11.25975c-2.69772,4.25768 -4.79101,8.92202 -6.24653,13.79969c-1.39997,4.90656 -1.92885,10.042 -1.78885,15.12411c0.22888,2.53994 0.41332,5.04655 1.02442,7.63761c0.4511,2.75772 1.23553,4.54657 1.97996,7.15095c0.5511,1.40441 1.15331,2.77772 1.78663,4.13324c0.63554,1.66885 1.29553,3.24437 1.95329,4.63545c0.93331,1.86885 1.78218,3.52659 2.70438,4.87767c0.85109,1.39108 1.59552,2.56217 2.3155,3.40215c1.36219,1.75329 2.09106,2.68661 2.09106,2.68661l0.01333,0.01778c0,0 0.81109,0.87776 2.33106,2.52661c0.72665,0.8622 1.75996,1.78218 2.99327,2.84883c1.1822,1.13331 2.69327,2.23773 4.39768,3.48659c3.44881,2.38217 7.9176,5.09544 13.62414,6.92429c5.65987,1.85774 12.53972,3.08882 20.07956,2.34217c0.46443,-0.05333 0.9422,-0.12222 1.4133,-0.18222c1.42219,-0.05333 2.64883,-0.2 3.81992,-0.37333c1.30664,1.34219 2.65327,2.6355 4.0888,3.81992c3.95325,3.13993 8.22648,5.77543 12.75083,7.7065c4.55768,1.8244 9.23757,3.18215 13.96414,3.70881c1.56885,0.15777 3.11326,0.24888 4.64879,0.30222c1.89329,0.22222 3.85769,0.38221 5.97542,0.35555c6.12653,-0.03111 13.23971,-1.07331 20.35066,-4.25768c3.50214,-1.64219 7.1954,-3.50437 10.46421,-6.21986c3.4177,-2.52661 6.42652,-5.73987 9.36646,-9.52646c0.5911,-0.87109 1.18664,-1.74663 1.7844,-2.62883l0.89109,-1.32442l0.22444,-0.33333l0.22,-0.37333l0.10222,-0.19111l0.40221,-0.77332c1.0822,-2.06884 2.20217,-4.15324 2.99993,-6.41764c1.8644,-4.4199 2.86883,-9.27091 3.41992,-14.20413c0.51554,-4.96656 0.09111,-10.04644 -0.75109,-15.07078zM5.85154,63.75789c6.53319,-1.29108 13.07304,-2.4555 19.55957,-3.99324c1.11775,-0.26666 1.59108,1.4333 0.47555,1.71996c-6.44208,1.66441 -12.93082,3.13549 -19.4929,4.23991c-1.27775,0.21555 -1.84218,-1.70885 -0.54221,-1.96662zM80.84543,61.49572c0,0 0,0.00222 0.00222,0.00222c0.14422,0.15933 0.22044,0.15622 0.23711,0.18622c0.00956,0.01756 -0.00111,0.04622 -0.03044,0.12533c-0.05511,0.14777 -0.17577,0.47199 -0.3511,1.22842c-2.1244,9.1198 -4.24879,18.2396 -6.37319,27.36162c-1.10664,-1.46886 -2.21328,-2.93771 -3.3177,-4.40657c-3.40215,-4.51546 -6.80207,-9.03313 -10.20422,-13.54859c-0.89331,-1.18664 -1.47552,-2.44217 -1.85107,-3.74658c7.39317,-2.04662 14.70634,-4.50434 21.8884,-7.20206zM96.36509,117.67892c-2.81549,4.3199 -4.89322,9.12424 -6.41541,14.09747c-1.42886,5.01767 -2.07995,10.24422 -2.13551,15.46632c0.11555,2.61105 0.17555,5.191 0.69332,7.95316c0.20444,1.36664 0.41332,2.75549 0.73776,3.79992l0.94442,3.65992c1.59774,4.851 3.72658,9.51534 6.51541,13.74858c-3.2977,0.72221 -7.05318,0.97998 -10.74198,0.87998c-4.13324,-0.16 -8.3287,-1.08442 -12.38639,-2.59772c-4.06213,-1.53552 -7.83538,-3.93325 -11.21753,-6.80429c-3.35326,-2.92882 -6.14875,-6.47763 -8.42204,-10.30866c-2.16217,-3.91769 -3.59548,-8.16649 -4.50657,-12.46195c-0.06622,-0.64799 -0.17444,-1.37597 -0.28644,-2.12951c-0.22955,-1.54352 -0.47488,-3.19437 -0.4091,-4.4859c-0.12222,-1.67196 -0.00178,-3.43837 0.118,-5.19077c0.026,-0.3811 0.052,-0.76154 0.07533,-1.1402c0.4911,-4.23324 1.41108,-8.33759 2.83105,-12.21973c1.53108,-3.83547 3.41104,-7.47317 5.79543,-10.69754c2.47106,-3.14437 5.12878,-6.07098 8.20648,-8.39981c3.09326,-2.27106 6.26653,-4.34213 9.68867,-5.73543c1.63996,-0.85776 3.41992,-1.31553 5.11322,-1.93996l0.31777,-0.11555l0.15777,-0.05778l0.08,-0.02889l0.54221,-0.13333l1.48886,-0.36666c0.95109,-0.20888 2.05995,-0.55777 2.86216,-0.64887c3.11326,-0.48666 6.66207,-0.92442 9.98867,-0.68887c3.35104,0.06444 6.57541,0.56665 9.70867,1.13997c3.13771,0.69554 6.12431,1.65996 8.90203,2.83105c1.57997,1.05331 3.11771,2.24217 4.56434,3.51326c-0.03555,0.01778 -0.07333,0.02444 -0.10666,0.04222c-4.51546,1.74441 -8.67314,4.53546 -12.60639,7.63539c-3.86658,3.21771 -7.23762,7.11095 -10.09755,11.38419zM185.53423,152.86258c-0.42444,4.12658 -1.29553,8.14871 -2.7155,11.89307c-0.59999,1.91774 -1.50663,3.68436 -2.35773,5.45321l-0.31555,0.66443l-0.07555,0.16666l-0.03778,0.08444c-0.01733,0.03489 0.02911,-0.03889 0.06444,-0.09844l-0.20222,0.34066l-0.81109,1.37553c-0.53999,0.90665 -1.07553,1.80885 -1.60885,2.70438c-1.02442,1.39552 -2.08884,2.83549 -3.21993,4.23102c-4.46879,4.13769 -9.962,7.63983 -16.23297,9.96645c-1.73329,0.57999 -3.73325,1.16442 -5.36433,1.5533c-2.00218,0.37333 -4.16435,0.9222 -5.95765,0.97109c-3.69103,0.46666 -7.85094,0.19333 -11.77974,-0.42444c-3.98658,-0.65332 -7.87316,-2.03551 -11.61085,-3.75325c-3.56214,-1.75329 -6.86651,-4.04435 -9.89534,-6.6643c7.78649,-3.19548 14.23302,-8.4087 18.59292,-14.27524c2.83105,-3.84658 4.811,-7.8776 6.19097,-11.78418c0.02,-0.04444 0.04222,-0.08666 0.06444,-0.13111c1.99996,-4.4199 3.17326,-9.23757 3.94436,-14.1308c0.69332,-4.92434 0.51554,-9.982 -0.17111,-14.97078c-0.79776,-4.98878 -2.3555,-9.85312 -4.44435,-14.4819c-0.63776,-1.35775 -1.39775,-2.7155 -2.19995,-4.05769c1.4333,-0.23999 2.77994,-0.60443 4.3799,-0.68221c0.85554,-0.09555 1.69996,-0.19111 2.53994,-0.28444c0.84665,-0.00889 1.68663,-0.02 2.51994,-0.02889c3.35104,-0.03333 6.61985,0.32444 9.76645,0.90665c6.27764,1.24886 11.88196,3.81992 16.34853,6.91762c1.48663,1.01776 2.79105,2.11329 4.01324,3.22437c2.58217,3.15549 4.811,6.56208 6.49541,10.21311c1.76663,4.03769 3.04438,8.22648 3.75992,12.46417c0.5911,4.24435 0.85109,8.50648 0.31999,12.6375zM106.54487,173.43991c-0.47777,-0.6911 -0.94665,-1.38441 -1.39108,-2.09773c-2.12884,-3.60436 -3.64881,-7.5265 -4.75989,-11.54197c-0.08422,-0.55488 -0.22155,-1.23931 -0.36733,-1.96707c-0.30377,-1.51663 -0.64554,-3.22171 -0.62599,-4.33724c-0.20133,-1.55219 -0.17533,-3.26415 -0.14933,-4.97478c0.00511,-0.34666 0.01044,-0.69332 0.01378,-1.03842c0.29555,-4.09102 1.09331,-8.10649 2.48439,-11.87529c1.46441,-3.73992 3.3577,-7.23762 5.62432,-10.39977c2.39106,-3.06215 4.91545,-5.95987 7.87983,-8.27759c2.91327,-2.34884 6.01764,-4.38657 9.31979,-5.87987c1.16886,-0.64443 2.41106,-1.08442 3.64659,-1.52441c0.95776,1.61996 1.81996,3.26437 2.6155,5.071c1.63552,4.03547 2.77549,8.24204 3.24659,12.50639c0.38444,4.26879 0.27333,8.52426 -0.3711,12.65528c-0.76665,4.09546 -1.83774,8.10649 -3.59992,11.75307c-1.66219,3.67547 -3.70436,7.11762 -6.16875,10.13089c-0.71998,0.99553 -1.53997,1.89329 -2.3755,2.76883c-3.80214,3.14882 -8.15315,5.96431 -13.08193,8.23315c-0.61332,0.31999 -1.27997,0.54665 -1.93996,0.79554zM62.4814,172.52882c-0.75332,-0.50888 -1.38886,-1.0822 -2.01996,-1.56663c-1.25331,-0.97776 -2.31106,-1.82663 -3.05771,-2.6355c-1.57108,-1.53997 -2.40884,-2.36217 -2.40884,-2.36217c-0.03555,-0.04667 -0.75998,-0.95109 -2.11329,-2.63994c-0.66665,-0.75776 -1.33997,-1.77774 -2.0844,-2.94882c1.32886,1.76218 2.60883,3.5577 4.18213,5.08878c1.56885,1.83551 3.36215,3.42881 5.13766,5.02656c1.53552,1.25331 3.13549,2.39995 4.75101,3.5177c-0.83998,-0.51999 -1.63996,-1.01553 -2.38661,-1.47997z" fill-rule="evenodd"></path></svg>