<svg width="100%" viewBox="0 0 200 200" version="1.1" xmlns="http://www.w3.org/2000/svg" xmlns:xlink="http://www.w3.org/1999/xlink"><path d="M165.81249,80.03422c1.25113,0.56445 2.85114,0.84445 3.66671,1.7978c1.09779,1.26668 0.40889,2.87559 -0.56001,4.18005c-3.09559,4.17338 -6.18451,8.35565 -9.27121,12.53569c-24.20916,32.78703 -48.40943,65.57184 -72.65192,98.33443c-0.87112,1.17557 -2.10669,2.08669 -3.17559,3.11781h-1.24446c-2.61781,-1.4089 -3.05781,-2.44003 -2.33114,-5.60895c4.16005,-18.23798 8.32231,-36.46707 12.48236,-54.70283c0.97334,-4.24671 1.93113,-8.49121 2.96226,-13.05126h-60.93401c-0.10889,0 -0.22267,0.01067 -0.33623,0.02156c-0.24845,0.02333 -0.49667,0.04689 -0.6949,-0.04156c-1.25113,-0.56667 -3.03781,-0.91112 -3.54004,-1.89558c-0.50223,-0.99112 -0.1,-2.90448 0.58667,-3.96449c2.9667,-4.59561 6.17785,-9.03343 9.30677,-13.52237c24.21582,-34.70927 48.4272,-69.42522 72.68747,-104.1056c0.86223,-1.23335 2.26225,-2.09336 3.4067,-3.12892h1.25113c2.25336,1.29335 2.57781,3.18004 2.06002,5.62451c-5.07561,24.00916 -10.07789,48.03609 -15.09795,72.05636c-0.14,0.67556 -0.25111,1.35113 -0.43334,2.35114h61.44513c0.04511,0 0.09289,-0.00511 0.14067,-0.01c0.09822,-0.01022 0.19711,-0.02067 0.27489,0.01222zM90.06721,180.96646c0.13333,0.06222 0.26445,0.11778 0.39778,0.18c23.15359,-31.3559 46.30274,-62.70736 69.783,-94.50772h-3.21337c-5.58028,0.00133 -11.16035,0.00333 -16.74041,0.00511c-13.01059,0.00467 -26.02096,0.00911 -39.03354,0.006c-3.70449,-0.00222 -5.1445,-1.58891 -4.44672,-4.95561c2.79781,-13.43793 5.62895,-26.8603 8.43787,-40.29378c1.53779,-7.35119 3.07115,-14.70461 4.60227,-22.0558c-0.10889,-0.05111 -0.22222,-0.09778 -0.33111,-0.14889c-23.35804,33.49148 -46.71385,66.98519 -70.323,100.83668h3.25559c6.22007,0 12.44014,-0.00044 18.66021,-0.00089c12.44014,-0.00111 24.88028,-0.002 37.32041,0.00089c3.82893,0 5.14895,1.64446 4.29338,5.38673c-3.20226,14.05127 -6.43118,28.09809 -9.63566,42.14936c-1.02446,4.46449 -2.02002,8.93343 -3.0267,13.39793z" fill-rule="evenodd"></path></svg>