<svg width="100%" viewBox="0 0 200 200" version="1.1" xmlns="http://www.w3.org/2000/svg" xmlns:xlink="http://www.w3.org/1999/xlink"><path d="M99.99956,46.875c12.94406,-0.00094 23.43656,-10.49453 23.43594,-23.43859c-0.00047,-12.94392 -10.49406,-23.43669 -23.43797,-23.43641c-12.94391,0.00029 -23.43703,10.49353 -23.43703,23.4375c0.00156,12.94406 10.495,23.43687 23.43906,23.4375zM63.45503,200c6.47891,-0.03281 12.3025,-3.98281 14.72437,-10.00312c4.18094,-10.37031 8.42891,-23.33125 12.17812,-34.76609c2.38641,-7.28469 4.64172,-14.16641 6.59937,-19.53281c0.04219,-0.17375 0.20703,-0.28875 0.38453,-0.26859c0.19234,-0.01625 0.36859,0.10797 0.41812,0.29453c1.99125,5.45187 4.2175,12.23906 6.575,19.42437c3.52937,10.76266 7.53172,22.95797 11.45016,32.70172c2.38344,5.93125 8.14797,9.80469 14.54016,9.77031h0.64078c4.85531,0 10.70094,-4.02656 13.31641,-6.89844l21.52437,-23.99062c2.525,-2.575 3.90625,-6.05937 3.83281,-9.66719c-0.08281,-3.29328 -1.50781,-6.41078 -3.94531,-8.62812l-1.76719,-1.61281c-5.4625,-4.67875 -13.63781,-4.23719 -18.56437,1.0025l-6.26219,7.24187l-6.67578,-33.47484c2.00656,-1.77266 3.15109,-4.32469 3.14031,-7.00219v-39.95672c1.23297,-3.305 14.59344,-14.62547 24.38234,-22.92172c8.27969,-7.01453 16.83906,-14.26844 22.69219,-20.13391c7.36406,-7.37922 11.91719,-12.78531 8.25781,-20.39189c-1.65781,-3.80714 -4.94687,-6.66077 -8.95,-7.76367c-2.725,-0.63323 -7.07031,-0.54473 -12.28594,3.52783l-43.78578,34.17961h-2.09375c-1.77828,2.38547 -3.90266,4.49203 -6.30312,6.25h10.54844l45.47953,-35.50256c2.62344,-2.04773 4.98437,-2.84881 7.01562,-2.36816c2.13594,0.7163 3.8625,2.31334 4.74219,4.38691c1.43125,2.97397 1.19531,5.00647 -7.05,13.266c-5.66875,5.68234 -14.12812,12.84937 -22.30812,19.78297c-18.47828,15.65703 -26.05578,22.48234 -26.57156,26.98219l-0.01984,40.66312c-0.00594,0.35344 -0.07234,0.70328 -0.19594,1.03453h-11.93328c-1.72594,0 -3.125,1.39906 -3.125,3.125c0,1.72594 1.39906,3.125 3.125,3.125h8.93375c0.00766,0.04516 0.00797,0.09062 0.01703,0.13578l7.46,37.41422c0.35078,1.75625 1.67078,3.15781 3.40187,3.61562c1.73125,0.45625 3.57109,-0.11406 4.74172,-1.46875l8.16656,-9.45391c2.57516,-2.78562 6.875,-3.0825 9.80781,-0.6775l1.76875,1.61281c1.18281,1.08172 1.87344,2.59984 1.90937,4.20297c0.02812,1.95937 -0.75156,3.84375 -2.15469,5.21094l-21.59281,24.06406c-1.98203,2.17656 -6.37656,4.83906 -8.67922,4.83906h-0.64078c-3.83875,0.02656 -7.30437,-2.29375 -8.74187,-5.85469c-3.84219,-9.55156 -7.80937,-21.64531 -11.30969,-32.31578c-2.37437,-7.23578 -4.61578,-14.07016 -6.64234,-19.61828c-0.94812,-2.65469 -3.47062,-4.42016 -6.28953,-4.40219h-0.00156c-2.80312,-0.01766 -5.31156,1.73797 -6.25453,4.37781c-1.99281,5.4625 -4.26344,12.39156 -6.66812,19.72656c-3.71703,11.34281 -7.93156,24.19906 -12.03312,34.37562c-1.49781,3.70469 -5.10578,6.11875 -9.10187,6.09062c-2.49172,0 -6.98687,-2.73594 -9.03469,-4.98437l-21.67516,-24.15469c-1.35984,-1.35312 -2.10844,-3.20312 -2.07203,-5.12187c0.03641,-1.60312 0.72594,-3.12187 1.90875,-4.20344l1.76859,-1.61281c1.19766,-1.07281 2.75469,-1.65656 4.3625,-1.63578c2.05062,0.01656 4.01016,0.84891 5.44578,2.31328l8.16656,9.45437c1.17062,1.35469 3.01062,1.92344 4.74172,1.46719c1.73109,-0.45625 3.05125,-1.85781 3.40187,-3.61406l7.93406,-39.78281h3.655c1.72594,0 3.125,-1.39906 3.125,-3.125c0,-1.72594 -1.39906,-3.125 -3.125,-3.125h-4.60359c-0.06984,-0.34078 -0.11062,-0.68687 -0.12203,-1.03453v-38.74516l-0.01984,-0.35703c-0.60125,-5.21391 -10.78953,-15.27406 -32.27547,-35.41875c-4.66297,-4.37328 -9.48641,-8.89437 -13.66875,-12.94406c-8.09631,-7.84141 -7.78352,-10.27062 -6.30647,-13.3422c0.76772,-1.57097 2.17959,-2.73125 3.86959,-3.17994c2.51844,-0.60239 5.17437,-0.1053 7.30437,1.36719l45.35828,35.40948h11.0975c-2.40062,-1.75797 -4.52547,-3.86453 -6.30391,-6.25h-2.64203l-43.78516,-34.17962l-0.23656,-0.16784c-3.65219,-2.5058 -8.21156,-3.30511 -12.49844,-2.19116c-3.40673,0.94641 -6.24509,3.30652 -7.79719,6.48345c-3.63769,7.56377 -0.13886,13.05392 7.59125,20.53986c4.21906,4.08625 9.06062,8.62422 13.74359,13.01422c11.66844,10.94062 29.26031,27.43375 30.31922,31.48797v38.47344c0.095,1.985 0.51562,3.94078 1.24516,5.78922l-7.36234,36.92047l-6.14016,-7.10922l-0.12203,-0.13281c-4.92609,-5.24047 -13.10203,-5.68203 -18.56391,-1.0025l-1.76844,1.61281c-2.43734,2.21875 -3.86219,5.33703 -3.94437,8.63172c-0.08,3.56406 1.27078,7.0125 3.75062,9.57344l21.60641,24.08125c2.66266,2.925 8.66391,7.04531 13.68094,7.04531zM99.99956,6.25c9.49219,0.00086 17.18656,7.69634 17.18594,17.18859c-0.00047,9.49219 -7.69578,17.18672 -17.18797,17.18641c-9.49219,-0.00031 -17.18703,-7.69531 -17.18703,-17.1875c0.01031,-9.48872 7.70031,-17.17803 17.18906,-17.1875z" fill-rule="evenodd"></path></svg>