<svg width="100%" viewBox="0 0 200 200" version="1.1" xmlns="http://www.w3.org/2000/svg" xmlns:xlink="http://www.w3.org/1999/xlink"><path d="M7.16271,32.38687l17.36832,16.9299l-4.10002,23.90543l21.46834,-11.2866l21.46834,11.2866l-4.10002,-23.90543l17.36832,-16.9299l-24.00247,-3.48761l-10.73417,-21.75005l-10.73417,21.75005zM123.364,32.38687l17.36832,16.9299l-4.10002,23.90543l21.46834,-11.2866l21.46834,11.2866l-4.10002,-23.90543l17.36832,-16.9299l-24.00247,-3.48761l-10.73417,-21.75005l-10.73417,21.75005zM0,117.47699h200l-6.91806,9.88308c-30.5624,43.66049 -61.58972,65.49073 -93.08194,65.49073c-31.49222,0 -62.51954,-21.83024 -93.08194,-65.49073zM100,180.28849c-24.80217,0 -49.99283,-16.74973 -75.57198,-50.2492h151.14395c-25.57915,33.49947 -50.76981,50.2492 -75.57198,50.2492z" fill-rule="evenodd"></path></svg>