<svg width="100%" viewBox="0 0 200 200" version="1.1" xmlns="http://www.w3.org/2000/svg" xmlns:xlink="http://www.w3.org/1999/xlink"><path d="M109.00901,120.27027c3.15315,-25.22523 23.1982,-53.6036 49.32432,-53.37838c28.15315,0.22523 36.71171,17.79279 36.71171,40.76577c0,1.8018 -2.25225,2.47748 -3.37838,1.12613c-9.68468,-11.93694 -23.1982,-19.14414 -37.83784,-17.56757c-18.46847,2.02703 -30.63063,20.72072 -32.88288,34.23423h6.30631c2.7027,0 4.95495,2.25225 4.95495,4.95495c0,2.7027 -2.25225,4.95495 -4.95495,4.95495h-6.75676c1.12613,17.34234 11.48649,29.72973 25,32.20721c5.63063,0.9009 11.93694,-1.12613 16.66667,-3.6036c1.8018,-0.9009 3.6036,1.12613 2.47748,2.7027c-4.95495,7.65766 -13.96396,14.41441 -25.45045,11.93694c-15.76577,-3.6036 -27.25225,-23.42342 -29.95495,-43.24324h-3.82883c2.02703,16.89189 8.78378,30.63063 14.18919,39.63964c-6.75676,8.33333 -13.28829,16.66667 -19.81982,25c-6.75676,-8.33333 -13.28829,-16.66667 -19.81982,-25c5.63063,-9.00901 12.38739,-22.74775 14.18919,-39.63964h-3.37838c-2.7027,20.04505 -14.18919,39.86486 -29.95495,43.24324c-11.48649,2.47748 -20.4955,-4.27928 -25.45045,-11.93694c-0.9009,-1.57658 0.67568,-3.6036 2.47748,-2.7027c4.72973,2.47748 11.03604,4.72973 16.66667,3.6036c13.73874,-2.47748 23.87387,-15.09009 25,-32.20721h-6.75676c-2.7027,0 -4.95495,-2.25225 -4.95495,-4.95495c0,-2.7027 2.25225,-4.95495 4.95495,-4.95495h6.30631c-2.25225,-13.51351 -14.18919,-32.20721 -32.88288,-34.23423c-14.63964,-1.57658 -27.92793,5.63063 -37.83784,17.56757c-1.12613,1.35135 -3.37838,0.67568 -3.37838,-1.12613c0.45045,-22.97297 9.00901,-40.54054 37.16216,-40.54054c26.12613,-0.22523 46.17117,28.15315 49.32432,53.15315c0.22523,1.8018 0.45045,3.6036 0.45045,5.40541h3.15315c-0.45045,-24.32432 -11.71171,-35.58559 -14.18919,-58.78378c-1.57658,-14.86486 1.35135,-37.38739 19.36937,-66.89189c18.01802,29.5045 20.94595,52.02703 19.36937,66.89189c-2.7027,23.1982 -13.96396,34.45946 -14.18919,58.78378h3.15315c0.22523,-1.8018 0.22523,-3.6036 0.45045,-5.40541z" fill-rule="evenodd"></path></svg>