<svg width="100%" viewBox="0 0 200 200" version="1.1" xmlns="http://www.w3.org/2000/svg" xmlns:xlink="http://www.w3.org/1999/xlink"><path d="M99.44704,59.19149c-13.92957,0 -24.32969,-14.72958 -24.32969,-27.88268c0,-13.0825 10.44718,-22.91791 24.32969,-22.91791c13.88251,0 24.32969,9.76482 24.32969,22.91791c0,13.15309 -10.40012,27.88268 -24.32969,27.88268zM116.71783,31.30881c0,-9.18575 -7.24808,-15.8383 -17.2242,-15.85901c-9.97588,0.02047 -17.31738,6.46196 -17.31738,15.85901c0,9.41187 7.69421,20.82377 17.27079,20.82377c9.57658,0 17.27079,-11.62366 17.27079,-20.82377zM139.35339,92.69776c-0.01176,0.14094 -0.01176,0.28259 0,0.42353l4.32946,35.92983c0.21318,1.76449 1.7052,3.09509 3.48239,3.10592h0.44706c1.92661,-0.23318 3.30333,-1.97791 3.08239,-3.90593l-4.2824,-35.76512c0.39506,-15.57265 -10.84013,-29.01445 -26.2356,-31.3886c-6.74078,-0.89625 -13.5298,-1.38355 -20.32965,-1.45884c-6.99255,0.12165 -13.97428,0.60071 -20.91789,1.43531c-15.17665,2.07061 -26.21207,15.27077 -26.28266,31.43566l-4.00005,35.74159c-0.21436,1.9492 1.19201,3.70334 3.14121,3.91769c1.9492,0.21436 3.70334,-1.19201 3.91769,-3.14121l3.92946,-35.95336v-0.37647c0,-12.87074 8.28245,-23.01203 20.18847,-24.61205c6.62267,-0.8073 13.28251,-1.2706 19.95317,-1.38825c6.44431,0.08988 12.87827,0.54542 19.27081,1.36472c12.02414,1.89602 20.74024,12.4705 20.30612,24.63558zM68.38786,128.34523l2.35297,-35.29453h0.11765c0.08824,-1.26096 0.8426,-2.37909 1.97861,-2.93298c1.13625,-0.55412 2.48168,-0.46001 3.52945,0.24706c1.04801,0.70683 1.63908,1.91908 1.55084,3.18004l-2.49415,35.29453c-0.124,1.84379 -1.6579,3.27486 -3.50592,3.27063h-0.25883c-0.93507,-0.06024 -1.80708,-0.49201 -2.42144,-1.19931c-0.6146,-0.7073 -0.92025,-1.63131 -0.84919,-2.56544zM121.25906,93.54483c-0.12165,-1.93767 1.33484,-3.61416 3.27063,-3.76475c1.94214,-0.13459 3.62663,1.32872 3.76475,3.27063l2.49415,35.29453c0.13459,1.94214 -1.32872,3.62663 -3.27063,3.76475h-0.25883c-1.84802,0.00424 -3.38192,-1.42684 -3.50592,-3.27063zM139.16515,147.63957l-16.98843,16.47078l4.00005,23.29439c0.2113,1.3259 -0.33295,2.65933 -1.41178,3.45886c-0.60307,0.43342 -1.32802,0.66401 -2.07061,0.65883c-0.57389,0.00729 -1.14048,-0.13035 -1.64708,-0.4l-20.98848,-11.03542l-20.96495,11.03542c-1.18919,0.62942 -2.63297,0.52801 -3.7224,-0.26165c-1.08942,-0.78966 -1.63508,-2.12991 -1.40708,-3.45604l4.00005,-23.36498l-16.9649,-16.47078c-0.9186,-0.92166 -1.25531,-2.27414 -0.87648,-3.51886c0.37883,-1.24496 1.41202,-2.1805 2.68827,-2.43415l23.52969,-3.4118l10.49424,-21.17672c0.5946,-1.20448 1.82143,-1.96685 3.16474,-1.96685c1.34331,0 2.57015,0.76236 3.16474,1.96685l10.49424,21.17672l23.52969,3.4118c1.3346,0.18565 2.44685,1.11507 2.86686,2.39532c0.42,1.28025 0.07459,2.68803 -0.89036,3.62828zM118.01196,181.61644l-3.10592,-18.14139h-0.11765c-0.17294,-1.15743 0.2313,-2.32614 1.08237,-3.12945l13.20015,-12.84721l-18.23551,-2.63532c-1.1426,-0.16965 -2.1285,-0.8913 -2.63532,-1.92943l-8.1648,-16.47078l-8.14127,16.47078c-0.51459,1.04166 -1.50896,1.76308 -2.65885,1.92943l-18.16492,2.63532l13.17662,12.84721c0.83248,0.81272 1.21084,1.98332 1.01178,3.12945l-3.10592,18.14139l16.28254,-8.56481c1.03366,-0.53177 2.2605,-0.53177 3.29416,0zM41.84637,149.71019l17.15314,2.56474h0.04706c1.33037,0.19318 2.43556,1.12542 2.85015,2.40426c0.41483,1.27884 0.06682,2.68215 -0.89719,3.61934l-12.47073,12.09426l2.94121,17.08255c0.2113,1.32613 -0.33295,2.65933 -1.41178,3.45886c-0.60307,0.43342 -1.32802,0.66401 -2.07061,0.65883c-0.57389,0.00729 -1.14048,-0.13035 -1.64708,-0.4l-15.34135,-8.07068l-15.34135,8.07068c-1.18637,0.63601 -2.63203,0.53671 -3.72028,-0.25553c-1.08825,-0.79248 -1.62684,-2.13791 -1.38566,-3.46216l2.91768,-17.08255l-12.40014,-12.09426c-0.96399,-0.93719 -1.3119,-2.3405 -0.89728,-3.61934c0.41464,-1.27884 1.51981,-2.21108 2.85024,-2.40426l17.15314,-2.56474l7.67068,-15.52959c0.58142,-1.21225 1.80849,-1.98143 3.15298,-1.97649c1.34802,0.00282 2.57838,0.76848 3.17651,1.97649zM179.77739,149.71019l17.15314,2.56474h0.04706c1.33037,0.19318 2.43556,1.12542 2.85015,2.40426c0.41483,1.27884 0.06682,2.68215 -0.89719,3.61934l-12.40014,12.09426l2.91768,17.08255c0.228,1.32613 -0.31765,2.66638 -1.40708,3.45604c-1.08942,0.78966 -2.53321,0.89107 -3.7224,0.26165l-15.34135,-8.07068l-15.31783,8.07068c-0.50659,0.26965 -1.07319,0.4073 -1.64708,0.4c-1.04213,0.00894 -2.03414,-0.44612 -2.70733,-1.2419c-0.67295,-0.79577 -0.95695,-1.84967 -0.77507,-2.8758l2.91768,-17.08255l-12.40014,-12.09426c-0.96401,-0.93719 -1.31202,-2.3405 -0.89719,-3.61934c0.41459,-1.27884 1.51978,-2.21108 2.85015,-2.40426l17.10608,-2.56474l7.67068,-15.52959c0.5946,-1.20448 1.82143,-1.96685 3.16474,-1.96685c1.34331,0 2.57015,0.76236 3.16474,1.96685zM41.16401,169.75748c-0.19083,-1.14566 0.18636,-2.3125 1.01178,-3.12945l8.75304,-8.4001l-11.92955,-1.71767c-1.13954,-0.17741 -2.12214,-0.89672 -2.63532,-1.92943l-5.34124,-10.80013l-5.31771,10.80013c-0.52871,1.03978 -1.52849,1.75884 -2.68238,1.92943l-11.90602,1.71767l8.54128,8.49422c0.82542,0.81695 1.2026,1.98402 1.01178,3.12945l-2.02355,11.76484l10.82366,-5.60007c1.03366,-0.53177 2.2605,-0.53177 3.29416,0l10.44718,5.50595zM179.21268,169.75748c-0.212,-1.14707 0.16847,-2.32356 1.01178,-3.12945l8.61186,-8.4001l-11.90602,-1.71767c-1.14519,-0.17765 -2.13485,-0.89578 -2.65885,-1.92943l-5.34124,-10.80013l-5.31771,10.80013c-0.52401,1.03366 -1.51366,1.75179 -2.65885,1.92943l-11.90602,1.71767l8.61186,8.4001c0.8433,0.80589 1.22378,1.98238 1.01178,3.12945l-2.02355,11.76484l10.65895,-5.60007c0.50142,-0.26141 1.05813,-0.39859 1.62355,-0.4c0.57271,0.00376 1.13648,0.14071 1.64708,0.4l10.65895,5.60007z" fill-rule="evenodd"></path></svg>