<svg width="100%" viewBox="0 0 200 200" version="1.1" xmlns="http://www.w3.org/2000/svg" xmlns:xlink="http://www.w3.org/1999/xlink"><path d="M1.289,26.5625l5.5225,3.0615c5.09775,2.82475 9.26525,7.04825 12.05325,12.212l3.0225,5.6005c0.437,0.8105 1.28175,1.3135 2.19975,1.3135c0.92025,0 1.765,-0.5055 2.1995,-1.3135l3.02,-5.6005c2.78825,-5.16375 6.95575,-9.38725 12.051,-12.212l5.52475,-3.0615c0.796,-0.442 1.289,-1.27925 1.289,-2.1875c0,-0.90825 -0.493,-1.7455 -1.289,-2.1875l-5.5225,-3.0615c-5.0975,-2.82475 -9.265,-7.0485 -12.05325,-12.212l-3.02,-5.6005c-0.4345,-0.808 -1.27925,-1.3135 -2.1995,-1.3135c-0.918,0 -1.76275,0.503 -2.19975,1.3135l-3.0225,5.6005c-2.788,5.1635 -6.9555,9.38725 -12.05075,12.212l-5.525,3.0615c-0.79575,0.442 -1.289,1.27925 -1.289,2.1875c0,0.90825 0.49325,1.7455 1.289,2.1875zM163.86,16.875c0,-1.38175 -1.11825,-2.5 -2.5,-2.5h-5.4225v-5.4225c0,-1.38175 -1.11825,-2.5 -2.5,-2.5c-1.38175,0 -2.5,1.11825 -2.5,2.5v5.4225h-5.4225c-1.38175,0 -2.5,1.11825 -2.5,2.5c0,1.38175 1.11825,2.5 2.5,2.5h5.4225v5.42225c0,1.382 1.11825,2.5 2.5,2.5c1.38175,0 2.5,-1.118 2.5,-2.5v-5.42225h5.4225c1.38175,0 2.5,-1.11825 2.5,-2.5zM9.23825,23.501c5.93275,-3.291 10.78375,-8.2055 14.026,-14.214l0.82275,-1.521l0.82025,1.521c3.24225,6.0085 8.09325,10.923 14.02825,14.214l1.57725,0.874l-1.57975,0.874c-5.9325,3.291 -10.7835,8.2055 -14.02575,14.214l-0.82025,1.521l-0.82275,-1.521c-3.24225,-6.0085 -8.09325,-10.923 -14.0285,-14.214l-1.577,-0.874zM100,158.4375c32.22175,0 58.4375,-26.21575 58.4375,-58.4375c0,-32.22175 -26.21575,-58.4375 -58.4375,-58.4375c-32.22175,0 -58.4375,26.21575 -58.4375,58.4375c0,32.22175 26.21575,58.4375 58.4375,58.4375zM97.5,46.68925v21.953c-9.6985,0.76775 -18.17075,5.93 -23.40925,13.5115l-19.01625,-10.9795c9.0905,-14.11725 24.62425,-23.6555 42.4255,-24.485zM144.9255,71.17425l-19.0165,10.9795c-5.23825,-7.5815 -13.7105,-12.74375 -23.409,-13.5115v-21.953c17.80125,0.8295 33.335,10.36775 42.4255,24.485zM180.9375,76.87025c1.38175,0 2.5,-1.11825 2.5,-2.5v-5.4225h5.4225c1.38175,0 2.5,-1.11825 2.5,-2.5c0,-1.38175 -1.11825,-2.5 -2.5,-2.5h-5.4225v-5.42225c0,-1.382 -1.11825,-2.5 -2.5,-2.5c-1.38175,0 -2.5,1.118 -2.5,2.5v5.42225h-5.4225c-1.38175,0 -2.5,1.11825 -2.5,2.5c0,1.38175 1.11825,2.5 2.5,2.5h5.4225v5.4225c0,1.38175 1.11825,2.5 2.5,2.5zM100,73.5155c14.6045,0 26.4845,11.88 26.4845,26.4845c0,14.6045 -11.88,26.4845 -26.4845,26.4845c-14.6045,0 -26.4845,-11.88 -26.4845,-26.4845c0,-14.6045 11.88,-26.4845 26.4845,-26.4845zM52.5635,75.499l19.04025,10.99325c-1.95875,4.1 -3.08825,8.669 -3.08825,13.50775c0,4.83875 1.1295,9.40775 3.08825,13.50775l-19.04025,10.99325c-3.811,-7.34825 -6.001,-15.66725 -6.001,-24.501c0,-8.83375 2.19,-17.15275 6.001,-24.501zM147.4365,124.501l-19.04025,-10.99325c1.95875,-4.1 3.08825,-8.669 3.08825,-13.50775c0,-4.83875 -1.1295,-9.40775 -3.08825,-13.50775l19.04025,-10.99325c3.811,7.34825 6.001,15.66725 6.001,24.501c0,8.83375 -2.19,17.15275 -6.001,24.501zM17.5,99.7925c1.38175,0 2.5,-1.11825 2.5,-2.5v-5.4225h5.42225c1.382,0 2.5,-1.118 2.5,-2.5c0,-1.38175 -1.118,-2.5 -2.5,-2.5h-5.42225v-5.42225c0,-1.38175 -1.11825,-2.5 -2.5,-2.5c-1.38175,0 -2.5,1.11825 -2.5,2.5v5.4225h-5.4225c-1.38175,0 -2.5,1.118 -2.5,2.5c0,1.38175 1.11825,2.5 2.5,2.5h5.4225v5.42225c0,1.38175 1.11825,2.5 2.5,2.5zM55.0745,128.82575l19.0165,-10.9795c5.23825,7.5815 13.7105,12.74375 23.409,13.5115v21.953c-17.80125,-0.8295 -33.335,-10.36775 -42.4255,-24.485zM102.5,153.31075v-21.953c9.6985,-0.76775 18.17075,-5.93 23.40925,-13.5115l19.01625,10.9795c-9.0905,14.11725 -24.62425,23.6555 -42.4255,24.485zM198.7135,157.8735l-6.6555,-3.689c-6.21825,-3.44475 -11.306,-8.601 -14.71175,-14.9095l-3.63775,-6.74075c-0.437,-0.80825 -1.28175,-1.3135 -2.19975,-1.3135c-0.918,0 -1.76275,0.50275 -2.19975,1.311l-3.64,6.74325c-3.40575,6.3085 -8.49375,11.46475 -14.7145,14.9095l-6.65275,3.689c-0.7935,0.442 -1.2865,1.27925 -1.2865,2.1875c0,0.90825 0.493,1.74575 1.289,2.1875l6.65275,3.6865c6.22075,3.44725 11.30625,8.6035 14.712,14.90975l3.64,6.74325c0.437,0.8105 1.28175,1.3135 2.19975,1.3135c0.9205,0 1.76525,-0.5055 2.19975,-1.3135l3.63775,-6.74325c3.40575,-6.30625 8.491,-11.4625 14.71175,-14.90975l6.653,-3.6865c0.79575,-0.44175 1.289,-1.27925 1.289,-2.1875c0,-0.90825 -0.49325,-1.7455 -1.2865,-2.1875zM189.63625,161.56c-7.0605,3.91375 -12.82975,9.76075 -16.6895,16.91175l-1.438,2.666l-1.4405,-2.666c-3.85975,-7.151 -9.62875,-12.998 -16.68925,-16.91175l-2.70775,-1.499l2.70775,-1.5015c7.058,-3.90875 12.827,-9.75825 16.68925,-16.909l1.4405,-2.66625l1.438,2.66375c3.86225,7.15325 9.63125,13.00275 16.687,16.9115l2.71,1.5015zM1.289,174.98525l6.23775,3.45725c5.80825,3.21775 10.55925,8.032 13.7355,13.92075l3.413,6.32325c0.437,0.8105 1.28175,1.3135 2.19975,1.3135c0.918,0 1.76275,-0.503 2.19975,-1.3135l3.413,-6.32325c3.17625,-5.88875 7.92725,-10.703 13.733,-13.92075l6.24025,-3.45725c0.79575,-0.44175 1.289,-1.27925 1.289,-2.1875c0,-0.908 -0.49325,-1.7455 -1.289,-2.1875l-6.24025,-3.45925c-5.80575,-3.2155 -10.55425,-8.03 -13.733,-13.9185l-3.413,-6.32325c-0.874,-1.62125 -3.5255,-1.62125 -4.3995,0l-3.413,6.32325c-3.17875,5.8885 -7.92725,10.703 -13.733,13.9185l-6.24025,3.45925c-0.79575,0.442 -1.289,1.2795 -1.289,2.1875c0,0.90825 0.49325,1.74575 1.289,2.1875zM9.95125,171.526c6.6455,-3.68175 12.0775,-9.187 15.7105,-15.9205l1.21325,-2.246l1.21325,2.246c3.633,6.7335 9.065,12.23875 15.7105,15.9205l2.2925,1.27175l-2.29475,1.26975c-6.6455,3.6865 -12.07775,9.19175 -15.70825,15.92275l-1.21325,2.246l-1.21325,-2.246c-3.6305,-6.731 -9.0625,-12.23625 -15.7105,-15.92275l-2.2925,-1.26975z" fill-rule="evenodd"></path></svg>