<svg width="100%" viewBox="0 0 200 200" version="1.1" xmlns="http://www.w3.org/2000/svg" xmlns:xlink="http://www.w3.org/1999/xlink"><path d="M119.01333,77.7973c14.14889,-5.40667 40.48222,-15.47556 69.17778,-17.45778c3.06889,-0.20444 6.09556,0.86222 8.32667,2.94667c2.24444,2.09556 3.48222,4.94222 3.48222,8.01333v57.4c0,3.07111 -1.23778,5.91778 -3.47778,8.01333c-2.04889,1.91111 -4.77111,2.97333 -7.56667,2.97333c-0.25333,0 -0.50444,-0.00889 -0.76,-0.02667c-28.69556,-1.98222 -55.03111,-12.04889 -69.17778,-17.45778c-3.7,-1.41556 -6.62,-2.52222 -8.24667,-2.96444c-1.92444,1.27111 -4.10889,1.97333 -6.42,1.97333h-8.69556c-2.28667,0 -4.51333,-0.71778 -6.42,-1.97333c-1.62,0.43778 -4.54444,1.54667 -8.24889,2.96444c-14.14889,5.40667 -40.48222,15.47556 -69.17778,17.45778c-0.25333,0.01778 -0.50667,0.02667 -0.76,0.02667c-2.79556,0 -5.51778,-1.06222 -7.56667,-2.97333c-2.24444,-2.09778 -3.48222,-4.94222 -3.48222,-8.01333v-57.4c0,-3.07111 1.23778,-5.91778 3.48,-8.01333c2.23333,-2.08444 5.26222,-3.15556 8.32667,-2.94667c28.69556,1.98222 55.03111,12.05111 69.17778,17.45778c3.70444,1.41778 6.62667,2.52444 8.25111,2.96667c1.89778,-1.25778 4.12444,-1.97778 6.41778,-1.97778h8.69556c2.31778,0 4.50667,0.70889 6.42444,1.98444c1.50444,-0.40444 4.47111,-1.53111 8.24,-2.97333zM11.51778,135.44619c28.06667,-1.93778 54.01778,-11.86 67.96,-17.18889c2.60667,-0.99778 4.72444,-1.8 6.43556,-2.39556c-1.20667,-1.84444 -1.92,-3.97778 -1.94222,-6.24222l-23.91333,5.74222c-0.16667,0.04 -0.33333,0.06 -0.49556,0.06c-0.95333,0 -1.81778,-0.65111 -2.05111,-1.62c-0.27333,-1.13333 0.42667,-2.27556 1.56,-2.54667l24.88667,-5.97556v-10.56667l-24.88667,-5.97556c-1.13333,-0.27111 -1.83111,-1.41111 -1.56,-2.54444c0.27333,-1.13333 1.41333,-1.83111 2.54667,-1.56l23.91111,5.74222c0.02,-2.26889 0.73556,-4.40222 1.94444,-6.24667c-1.73333,-0.59778 -3.84444,-1.39778 -6.43778,-2.38889c-13.94,-5.32889 -39.89333,-15.24889 -67.96,-17.18889c-1.92,-0.13333 -3.75333,0.51556 -5.15333,1.82222c-1.38,1.28889 -2.14,3.03778 -2.14,4.92667v57.4c0,1.88889 0.76,3.63778 2.14222,4.92444c1.4,1.30889 3.23111,1.96 5.15333,1.82222zM193.63778,133.62397c1.38,-1.28667 2.14,-3.03778 2.14,-4.92444v-57.39556c0,-1.88889 -0.76,-3.63778 -2.14,-4.92667c-1.40222,-1.30889 -3.23778,-1.95778 -5.15333,-1.82222c-28.06667,1.93778 -54.01778,11.86 -67.96,17.18889c-2.60667,0.99556 -4.72222,1.79778 -6.43333,2.39111c1.20667,1.84222 1.92222,3.97556 1.94222,6.24222l23.90889,-5.74222c1.14222,-0.27778 2.27333,0.42667 2.54667,1.56c0.27333,1.13111 -0.42667,2.27333 -1.56,2.54444l-24.88444,5.97556v10.56889l24.88667,5.97556c1.13333,0.27333 1.83111,1.41333 1.56,2.54667c-0.23333,0.96889 -1.09778,1.62 -2.05111,1.62c-0.16444,0 -0.32889,-0.02 -0.49556,-0.06l-23.91111,-5.74222c-0.02222,2.26444 -0.73778,4.39778 -1.94222,6.24222c1.71111,0.59333 3.82889,1.39556 6.43333,2.39111c13.94,5.32889 39.89333,15.24889 67.96,17.18889c1.91556,0.13778 3.75333,-0.51556 5.15333,-1.82222zM95.65333,116.98841h8.69556c1.71333,0 3.34,-0.57556 4.70222,-1.66667c1.75778,-1.42444 2.77111,-3.54667 2.77111,-5.81778v-19.02222c0,-2.26667 -1.01111,-4.38 -2.77556,-5.8c-1.35778,-1.09778 -2.98222,-1.67556 -4.69778,-1.67556h-8.69556c-1.7,0 -3.36667,0.59333 -4.68889,1.66889c-1.77333,1.42667 -2.78444,3.54 -2.78444,5.80667v19.02222c0,2.27111 1.01333,4.39556 2.78,5.82444c1.32667,1.06889 2.99333,1.66 4.69333,1.66z" fill-rule="evenodd"></path></svg>