<svg width="100%" viewBox="0 0 200 200" version="1.1" xmlns="http://www.w3.org/2000/svg" xmlns:xlink="http://www.w3.org/1999/xlink"><path d="M134.93435,141.72826c-0.78873,0 -1.58838,-0.08958 -2.38802,-0.26655c4.28883,21.38735 14.92898,40.60734 30.90231,55.70892l2.99541,2.82936h-94.50941v-1.63863c0,-14.52697 3.07625,-25.39652 6.63753,-37.98554c3.33843,-11.80466 7.12038,-25.18022 8.92068,-44.29316l-1.52938,-4.10312c-7.80205,3.21171 -15.40527,5.63687 -22.56498,7.13349c-5.5036,1.14922 -10.56368,1.71947 -15.11469,1.71947c-10.70788,0 -18.59076,-3.14835 -22.79438,-9.27681c-5.98645,-8.72842 -3.64212,-22.25473 6.60039,-38.08604c9.97814,-15.41838 26.32726,-31.35457 46.03884,-44.87433c41.77186,-28.6563 84.08993,-37.1138 96.35123,-19.24184c8.4138,12.26348 0.15512,33.27722 -19.35545,54.51819c0.17916,1.05746 0.30588,2.15206 0.33428,3.35809l0.14201,7.4197c1.31964,0.71881 2.44483,1.79593 3.19423,3.17894l0.6489,1.19729l-3.49792,-1.13174l-0.28184,0.06336l0.05025,2.61088v4.76731l2.4929,0.9504l-2.4929,0.00655v6.17871c0,3.7317 -0.52436,7.46558 -1.55779,11.09678l-8.71312,30.23593c-1.36552,4.77605 -5.72864,7.9244 -10.50906,7.9244zM28.19641,109.70295c5.19117,7.56608 17.45465,9.77495 34.53569,6.20056c17.55952,-3.67052 37.89378,-13.00851 57.25797,-26.29012c39.58484,-27.15532 62.81619,-62.32897 51.78715,-78.40936c-3.70548,-5.40091 -10.81712,-7.97028 -20.1267,-7.97028c-18.39631,0 -45.38121,10.03058 -71.66478,28.06202c-19.36419,13.28161 -35.39433,28.89007 -45.14088,43.95451c-9.48,14.64932 -11.83962,26.88221 -6.64845,34.45266zM133.4421,65.50374l2.11929,2.50164c23.41051,-19.83612 34.20796,-39.39913 27.50926,-49.84483l-2.75945,1.7719c5.58225,8.69783 -5.46864,27.43716 -26.8691,45.57129zM80.29599,71.32414c0,3.47389 -2.82499,6.29888 -6.29669,6.29888c-3.4717,0 -6.29669,-2.82499 -6.29669,-6.29888c0,-3.4717 2.82499,-6.29669 6.29669,-6.29669c3.4717,0 6.29669,2.82499 6.29669,6.29669zM152.15959,67.00909c-8.40069,8.66069 -18.6279,17.2886 -30.31677,25.30694c-10.84771,7.44155 -22.01221,13.66177 -32.85992,18.38757l4.27791,11.47912c1.7719,4.75639 5.7767,8.26305 10.71662,9.38387l29.22872,6.69215c3.97858,0.91326 7.96154,-1.44199 9.08017,-5.35503l2.56281,-8.89009l-3.70767,3.42364h-6.97836l-9.77058,-4.69521h2.28315l9.77058,-6.34476l2.91894,1.01595l2.53878,-1.01595l3.55691,5.49705l5.54074,-19.22436c0.94822,-3.33406 1.43107,-6.76643 1.43107,-10.19444v-6.17216l-1.86803,0.00437l-1.48569,0.30151c0.42604,0.88486 0.5047,1.95761 0.10269,2.97356c-0.73629,1.86585 -2.75945,2.81625 -4.52042,2.12147c-1.49006,-0.58991 -2.30282,-2.16954 -2.07122,-3.77321l-1.93358,0.39327l1.73039,-3.43456l7.62726,-1.72383l2.4208,0.922v-3.487l-0.03714,-1.90736l-10.19007,2.29626c-0.09176,-0.36924 2.04064,-2.83592 3.70985,-4.69521c1.22788,-1.36771 2.89928,-2.2613 4.71706,-2.53441c0.55932,-0.08521 1.11645,-0.08739 1.66703,-0.05244l-0.12235,-6.40594c-0.00218,-0.10269 -0.01529,-0.19227 -0.01966,-0.29277zM77.01874,71.32414c0,-1.66484 -1.3546,-3.01944 -3.01944,-3.01944c-1.66484,0 -3.01944,1.35678 -3.01944,3.01944c0,1.66703 1.3546,3.02163 3.01944,3.02163c1.66484,0 3.01944,-1.3546 3.01944,-3.02163zM79.85247,84.09013c0,-5.49923 4.47454,-9.97596 9.97596,-9.97596c5.49923,0 9.97596,4.47673 9.97596,9.97596c0,5.49923 -4.47454,9.97596 -9.97596,9.97596c-5.50141,0 -9.97596,-4.47673 -9.97596,-9.97596zM83.12972,84.09013c0,3.69237 3.00415,6.6987 6.6987,6.6987c3.69237,0 6.6987,-3.00633 6.6987,-6.6987c0,-3.69237 -3.00633,-6.6987 -6.6987,-6.6987c-3.69456,0 -6.6987,3.00633 -6.6987,6.6987zM54.42317,90.14431c0,-6.86038 5.58444,-12.44482 12.44701,-12.44482c6.86257,0 12.44701,5.58444 12.44701,12.44482c0,6.86257 -5.58444,12.44701 -12.44701,12.44701c-6.86257,0 -12.44701,-5.58225 -12.44701,-12.44701zM89.82624,87.64704c1.96417,0 3.55691,-1.59274 3.55691,-3.55691c0,-1.96417 -1.59274,-3.55691 -3.55691,-3.55691c-1.96417,0 -3.55691,1.59274 -3.55691,3.55691c0,1.96417 1.59274,3.55691 3.55691,3.55691zM57.70043,90.14649c0,5.05571 4.11404,9.16975 9.16975,9.16975c5.05571,0 9.16975,-4.11404 9.16975,-9.16975c0,-5.05352 -4.11404,-9.16757 -9.16975,-9.16757c-5.05571,0 -9.16975,4.11404 -9.16975,9.16757zM66.87018,94.75649c2.54533,0 4.61,-2.06467 4.61,-4.61c0,-2.54752 -2.06248,-4.61 -4.61,-4.61c-2.54533,0 -4.61,2.06467 -4.61,4.61c0,2.54533 2.06467,4.61 4.61,4.61zM81.72924,161.26506c-3.35809,11.87021 -6.27703,22.18482 -6.49988,35.4555h83.08491c-15.21738,-15.45989 -25.2851,-34.74325 -29.26587,-56.05631l-25.79416,-5.90561c-6.01704,-1.36552 -10.90233,-5.64124 -13.05876,-11.43543l-0.15949,-0.42604c-1.99475,15.99955 -5.32226,27.81514 -8.30674,38.36789z" fill-rule="evenodd"></path></svg>