<svg width="100%" viewBox="0 0 200 200" version="1.1" xmlns="http://www.w3.org/2000/svg" xmlns:xlink="http://www.w3.org/1999/xlink"><path d="M105.3492,136.89324h33.59684c2.95193,0 5.34803,2.39377 5.35037,5.3457c0,2.95426 -2.3961,5.34803 -5.34803,5.34803h-33.59684v47.058c0,2.95893 -2.3961,5.35504 -5.35037,5.35504c-2.95426,0 -5.35037,-2.3961 -5.35037,-5.35504v-47.058h-33.59217c-2.95426,0 -5.35037,-2.39377 -5.35037,-5.34803c0,-2.95193 2.39844,-5.3457 5.35037,-5.3457h33.59217v-32.53891c-26.3408,-2.68803 -46.96692,-25.00263 -46.96692,-52.04171c0,-28.84433 23.46828,-52.31261 52.31495,-52.31261c28.84901,0 52.31729,23.46828 52.31729,52.31261c0,27.03908 -20.62378,49.35368 -46.96692,52.04171zM100.00117,10.69139c-22.94749,0 -41.61889,18.6714 -41.61889,41.62122c0,22.95216 18.6714,41.62122 41.61889,41.62122c22.94749,0 41.61655,-18.6714 41.61655,-41.62122c0,-22.94982 -18.66906,-41.62122 -41.61655,-41.62122z" fill-rule="evenodd"></path></svg>