<svg width="100%" viewBox="0 0 200 200" version="1.1" xmlns="http://www.w3.org/2000/svg" xmlns:xlink="http://www.w3.org/1999/xlink"><path d="M173.79921,126.3019c-2.22851,20.74317 -9.95419,38.02218 -23.17702,51.83702c-13.94949,14.57405 -30.92772,21.86107 -50.93469,21.86107c-20.4722,0 -37.94637,-7.23779 -52.42252,-21.71338c-14.47643,-14.47587 -21.71465,-31.94976 -21.71465,-52.42168c0,-10.59375 2.88463,-21.29879 8.65388,-32.11512c3.22951,-6.05509 8.43361,-13.63735 15.61229,-22.74678c3.53036,-4.47989 5.73089,-7.48717 6.6016,-9.02184c1.80382,-3.17748 1.2921,-9.7877 -1.53516,-19.83067c-0.9233,-3.2793 -1.48264,-5.5635 -1.67801,-6.85258c-0.26733,-1.76609 0.29594,-3.1685 1.68979,-4.20723c0.96369,-0.71839 2.08244,-0.99602 3.35623,-0.8329c0.79567,0.10197 1.75922,0.42939 2.89066,0.98228c1.47254,0.71951 3.61318,1.98917 6.42193,3.80898c3.38464,2.19289 9.63447,6.48596 18.74951,12.87921c6.86899,4.81776 12.15647,8.47562 15.86243,10.97356c-5.01622,-5.31946 -13.04127,-12.717 -24.07514,-22.19264c-10.97524,-9.42542 -22.04544,-18.38858 -33.21059,-26.88947l-12.89751,-9.81972l16.01222,2.52501c5.70207,0.89918 12.73166,2.53863 21.08876,4.91837c16.6926,4.75336 31.82227,10.85687 45.38901,18.31055c44.14193,24.25179 63.91425,57.76778 59.31697,100.54797zM165.6654,125.42797c4.20906,-39.16736 -14.16499,-70.00216 -55.12215,-92.50441c-13.02675,-7.15694 -27.59021,-13.02774 -43.69038,-17.61242c-0.80829,-0.23017 -1.60319,-0.45306 -2.38469,-0.66866c36.32425,28.70425 53.64435,47.10076 51.96031,55.18956c-0.37434,1.79849 -1.45851,2.92053 -3.25252,3.36612c-0.75948,0.18864 -1.571,0.18415 -2.43455,-0.01346c-0.76593,-0.17518 -1.70845,-0.54531 -2.82754,-1.1104c-1.62668,-0.82119 -3.92469,-2.19513 -6.89403,-4.12182c-3.59404,-2.33202 -10.06211,-6.77432 -19.40422,-13.3269c-8.83916,-6.1997 -14.9338,-10.38989 -18.28394,-12.57057c2.88911,11.12279 2.9563,19.1106 0.20155,23.96343c-1.07477,1.894 -3.50526,5.24337 -7.29144,10.04809c-6.87839,8.72836 -11.81825,15.90605 -14.81956,21.53309c-5.12759,9.61337 -7.69138,19.03514 -7.69138,28.26533c0,18.21297 6.43946,33.75863 19.31839,46.637c12.87893,12.87836 28.42501,19.31755 46.63826,19.31755c17.67761,0 32.68596,-6.4457 45.02504,-19.33711c11.93851,-12.47303 18.9228,-28.15783 20.95285,-47.0544zM58.75335,104.22077c0,13.22676 10.7232,23.93523 23.95207,23.93523c13.22676,0 23.94996,-5.8802 23.94996,-20.60698h7.08358c0,14.72679 10.7232,20.60698 23.94996,20.60698c13.22886,0 23.95207,-10.71689 23.95207,-23.94575zM145.41838,153.83321c0,12.62296 -19.27736,23.9731 -43.06112,23.9731c-23.78376,0 -43.06112,-11.35014 -43.06112,-23.9731c0,-12.62296 86.12224,-12.62296 86.12224,0zM66.99193,153.83321c0,0.98627 1.21685,1.95361 2.41035,2.90223c1.35255,1.07527 2.67523,2.12655 2.16336,3.15469c-3.06738,6.16421 14.92034,14.00097 30.7895,14.00097c16.09427,0 35.06448,-7.62006 33.95997,-14.15034c-0.47631,-2.81787 0.8956,-3.61479 2.04261,-4.28108c0.73781,-0.42855 1.38242,-0.80303 1.38242,-1.62647c0,-10.51913 -72.74822,-10.51913 -72.74822,0z" fill-rule="evenodd"></path></svg>