<svg width="100%" viewBox="0 0 200 200" version="1.1" xmlns="http://www.w3.org/2000/svg" xmlns:xlink="http://www.w3.org/1999/xlink"><path d="M80.59728,54.82833c0,-5.75823 1.00143,-11.51645 2.75393,-16.77396c2.25322,-6.5093 5.50787,-11.01574 6.25894,-11.26609c2.50358,-4.00572 5.25751,-7.51073 8.76252,-10.76538c10.51502,-10.26466 25.03577,-16.02289 39.30615,-16.02289c14.27039,0 28.79113,6.00858 39.30615,16.02289c11.01574,10.51502 17.02432,24.28469 17.02432,38.80544c0,14.52074 -6.25894,31.04435 -16.52361,44.06295c-7.51073,9.51359 -16.77396,16.52361 -26.28755,19.77825l2.00286,7.26037c0.50072,2.25322 0.25036,4.7568 -1.25179,6.5093c-1.25179,2.00286 -3.50501,3.25465 -5.75823,3.25465h-2.25322l4.25608,7.76109c1.7525,3.75536 1.00143,8.01144 -2.00286,10.76538l-10.01431,9.26323c-0.25036,0.25036 -0.25036,0.25036 -0.25036,0.50072c0,0.25036 0,0.50072 0.25036,0.50072l6.00858,4.7568c1.7525,1.50215 2.25322,4.50644 1.00143,6.5093c-1.50215,2.00286 -4.25608,2.25322 -6.00858,0.75107l-6.5093,-5.25751c-2.25322,-1.50215 -3.50501,-4.00572 -3.50501,-6.75966c0,-2.75393 1.00143,-5.25751 3.00429,-7.01001l10.01431,-9.26323c0.25036,-0.25036 0.50072,-0.50072 0.25036,-0.75107l-6.25894,-11.76681h-4.25608c-2.25322,0 -4.25608,-1.50215 -5.75823,-3.25465c-1.50215,-1.7525 -2.00286,-4.25608 -1.25179,-6.5093l2.00286,-7.01001c-5.50787,-2.00286 -10.51502,-4.7568 -15.52217,-8.51216c-2.25322,3.75536 -4.50644,7.26037 -7.26037,10.76538c-7.51073,9.26323 -17.02432,16.27325 -26.53791,19.77825l2.25322,7.76109c1.00143,3.25465 -0.25036,6.75966 -3.25465,8.51216c-1.25179,0.75107 -2.50358,1.00143 -4.00572,1.00143h-3.50501l4.00572,7.51073c1.7525,3.75536 1.00143,8.2618 -2.00286,11.01574l-10.01431,9.26323c-0.25036,0.25036 -0.25036,0.25036 -0.25036,0.50072c0,0.25036 0,0.50072 0.25036,0.50072l6.5093,5.25751c1.7525,1.50215 2.00286,4.25608 0.75107,6.00858c-1.7525,2.00286 -4.50644,2.25322 -6.25894,0.75107l-6.75966,-5.25751c-2.75393,-2.25322 -4.00572,-5.50787 -3.25465,-9.01288c0.50072,-2.00286 1.50215,-3.75536 3.00429,-5.00715l10.01431,-9.26323c0.25036,-0.25036 0.50072,-0.50072 0.25036,-0.75107l-6.25894,-11.51645h-2.75393c-2.25322,0 -4.25608,-1.00143 -5.75823,-3.00429c-1.25179,-1.7525 -1.7525,-4.25608 -1.00143,-6.5093l2.25322,-7.51073c-10.01431,-3.25465 -19.5279,-10.26466 -27.28898,-20.02861c-10.26466,-13.0186 -16.52361,-29.5422 -16.52361,-44.06295c0,-14.52074 6.00858,-28.04006 17.02432,-38.55508c10.51502,-10.26466 24.78541,-16.02289 39.30615,-16.02289c4.25608,0 8.76252,0.50072 13.0186,1.50215c2.50358,0.75107 4.00572,3.50501 2.75393,6.00858c-1.00143,1.7525 -3.00429,2.75393 -5.00715,2.25322c-3.50501,-0.75107 -7.26037,-1.25179 -11.01574,-1.25179c-26.0372,0 -47.81831,21.03004 -47.81831,46.06581c0,22.03147 16.77396,48.81974 37.55365,55.82976c3.25465,1.25179 6.5093,1.7525 10.01431,1.7525c3.75536,0 7.26037,-0.50072 10.76538,-1.7525c12.01717,-4.25608 22.78255,-15.52217 29.5422,-28.29041c-1.7525,-1.7525 -3.50501,-3.75536 -5.00715,-5.75823c-10.26466,-13.0186 -16.52361,-29.5422 -16.52361,-44.06295zM89.10944,54.82833c0,13.76967 6.75966,29.5422 16.77396,41.05866c3.00429,3.00429 6.75966,6.75966 7.01001,6.75966c4.25608,3.50501 9.01288,6.25894 14.02003,8.01144c3.25465,1.25179 6.75966,1.7525 10.26466,1.7525c3.75536,0 7.26037,-0.75107 10.76538,-2.00286c20.52933,-7.26037 36.80258,-34.04864 36.80258,-55.5794c0,-25.03577 -22.03147,-46.06581 -47.81831,-46.06581c-18.02575,0 -33.79828,10.01431 -42.06009,24.53505c0,0 -2.25322,3.50501 -3.50501,8.01144c-1.50215,4.25608 -2.25322,8.76252 -2.25322,13.51931zM132.67167,120.67239l-1.7525,6.00858h12.76824l-1.7525,-6.00858c-1.7525,0.25036 -3.50501,0.25036 -5.00715,0.25036c-1.50215,0 -2.75393,0 -4.25608,-0.25036zM57.81474,143.20458l-2.00286,6.25894v0.25036h13.0186l-2.00286,-6.5093c-1.50215,0.25036 -3.25465,0.25036 -4.7568,0.25036c-1.50215,0 -2.75393,0 -4.25608,-0.25036z" fill-rule="evenodd"></path></svg>