<svg width="100%" viewBox="0 0 200 200" version="1.1" xmlns="http://www.w3.org/2000/svg" xmlns:xlink="http://www.w3.org/1999/xlink"><path d="M130.51991,104.84991h-61.03483c-11.13397,0 -20.15788,-9.02391 -20.15788,-20.15788v-34.19008c0,-11.13148 9.02391,-20.15788 20.15788,-20.15788h28.022v-23.15338c-0.93282,-0.73827 -1.54389,-1.86813 -1.54389,-3.15263c0,-2.22979 1.81077,-4.03806 4.03806,-4.03806c2.22729,0 4.03806,1.80827 4.03806,4.03806c0,1.282 -0.61107,2.41436 -1.54389,3.15263v23.15088h28.02449c11.12649,0 20.15788,9.0264 20.15788,20.15788v34.19008c0,11.13647 -9.03139,20.16038 -20.15788,20.16038zM130.51991,35.32992h-61.03483c-8.36545,0 -15.16954,6.80659 -15.16954,15.16954v2.70617h91.37391v-2.70617c0,-8.36295 -6.8041,-15.16954 -15.16954,-15.16954zM100.00125,75.32892c4.27251,0 7.73193,-3.4644 7.73193,-7.73193c0,-4.27251 -3.45941,-7.73193 -7.73193,-7.73193c-4.27251,0 -7.73193,3.45941 -7.73193,7.73193c0,4.26752 3.45941,7.73193 7.73193,7.73193zM145.68945,81.98835h-91.37391v2.70368c0,8.36545 6.8041,15.17204 15.16954,15.17204h61.03483c8.36295,0 15.16954,-6.80659 15.16954,-15.17204zM157.30979,131.57744v12.34864c3.97072,1.10242 6.91384,4.71149 6.91134,9.02889c0,5.18787 -4.22014,9.40551 -9.40801,9.40551c-5.18787,0 -9.40551,-4.21764 -9.40551,-9.40551c0,-4.31741 2.93813,-7.92897 6.91134,-9.02889v-12.34864c0,-9.73973 -7.92398,-17.66621 -17.66122,-17.66621h-1.01014c4.31741,3.89839 4.8786,10.44309 0.61606,17.82334l-21.79156,37.74427c-3.42948,5.93862 -7.95141,8.90917 -12.47085,8.90917c-4.51944,0 -9.04137,-2.97056 -12.47085,-8.90917l-21.79406,-37.74427c-4.26004,-7.37775 -3.70135,-13.92495 0.61855,-17.82334h-1.01014c-9.73973,0 -17.66371,7.92647 -17.66371,17.66621v12.34864c3.97072,1.09993 6.91134,4.71149 6.91134,9.02889c0,5.18787 -4.21764,9.40551 -9.40551,9.40551c-5.18787,0 -9.40801,-4.21764 -9.40801,-9.40551c0,-4.31741 2.94063,-7.92897 6.91384,-9.02889v-12.34864c0,-12.4933 10.16125,-22.65455 22.65205,-22.65455h69.31548c12.48831,0 22.64956,10.16125 22.64956,22.65455zM108.15219,166.98717l21.79156,-37.74427c2.3545,-4.07797 2.89324,-7.81673 1.48154,-10.266c-1.4117,-2.44927 -4.921,-3.851 -9.62999,-3.851h-43.58562c-4.70899,0 -8.21829,1.40422 -9.63248,3.851c-1.4117,2.44678 -0.87296,6.18804 1.48154,10.266l21.79156,37.74427c2.3545,4.07547 5.32505,6.415 8.15095,6.415c2.82589,0 5.79645,-2.33953 8.15095,-6.415zM45.18937,157.37214c2.43431,0 4.41717,-1.98037 4.41717,-4.41717c0,-2.43431 -1.98287,-4.41717 -4.41717,-4.41717c-2.4368,0 -4.41967,1.98287 -4.41967,4.41717c0,2.43431 1.98037,4.41717 4.41967,4.41717zM150.39844,152.95746c0,2.43431 1.98037,4.41717 4.41717,4.41717c2.4368,0 4.41967,-1.98287 4.41967,-4.41717c0,-2.43431 -1.98037,-4.41717 -4.41967,-4.41717c-2.43431,0 -4.41717,1.98287 -4.41717,4.41717zM90.59573,190.59199c0,-5.18787 4.21764,-9.40551 9.40551,-9.40551c5.18787,0 9.40551,4.22014 9.40551,9.40801c0,5.18787 -4.21764,9.40551 -9.40551,9.40551c-5.18787,0 -9.40551,-4.22014 -9.40551,-9.40801zM95.58407,190.59449c0,2.43431 1.98037,4.41717 4.41717,4.41717c2.4368,0 4.41717,-1.98287 4.41717,-4.41717c0,-2.43431 -1.98287,-4.41717 -4.41717,-4.41717c-2.43431,0 -4.41717,1.98287 -4.41717,4.41717z" fill-rule="evenodd"></path></svg>