<svg width="100%" viewBox="0 0 200 200" version="1.1" xmlns="http://www.w3.org/2000/svg" xmlns:xlink="http://www.w3.org/1999/xlink"><path d="M153.85999,20.62845c20.97044,0 38.83756,14.95911 44.46533,37.22533c5.14422,20.36067 -0.51178,48.13689 -31.80711,65.03244c-50.36155,27.18978 -62.77155,53.86778 -62.89311,54.134c-0.63822,1.42622 -2.06067,2.35133 -3.62244,2.35133h-0.02844c-1.57356,-0.01044 -2.99467,-0.94311 -3.61867,-2.38756c-0.07844,-0.17667 -6.17667,-13.42689 -27.466,-30.78556c-6.06844,4.90289 -12.78222,14.64178 -16.454,21.30289c-0.482,0.876 -1.38756,1.36956 -2.32044,1.36956c-0.43133,0 -0.86933,-0.106 -1.27378,-0.32822c-1.28022,-0.70533 -1.74533,-2.31511 -1.04133,-3.594c0.05089,-0.09222 0.148,-0.26422 0.22689,-0.40511c2.15622,-3.85178 14.58578,-25.19844 26.08578,-26.61933l2.15222,-0.26356l0.01333,-0.00156c11.59867,-1.414 35.70511,-4.35289 34.70044,-12.65911c-0.22467,-1.86311 -0.97156,-3.13178 -2.35378,-3.99467c-4.806,-3.00511 -15.34933,-0.36689 -19.00289,0.89911c-1.23756,0.43667 -2.60844,-0.11378 -3.21422,-1.27889c-0.606,-1.16289 -0.26622,-2.59689 0.79844,-3.36422c10.49289,-7.57578 27.408,-22.32178 28.13133,-29.64822c0.11378,-1.14844 -0.25311,-1.708 -0.58644,-2.06578c-0.08267,-0.08778 -0.27133,-0.29333 -0.92756,-0.29844h-0.03356c-5.02822,0 -16.31044,9.43622 -23.82956,16.822c-1.15489,1.19378 -2.08111,2.11889 -2.65622,2.68467c-1.03333,1.01289 -2.68711,1.01289 -3.71556,-0.00267c-1.02956,-1.018 -1.05156,-2.67156 -0.04889,-3.71556c0.54889,-0.57356 1.46756,-1.51667 2.66133,-2.69489c7.878,-8.18044 18.03111,-20.49489 17.858,-25.62c-0.02067,-0.58 -0.19378,-0.73 -0.27889,-0.80222l-0.00756,-0.00644c-0.10667,-0.09267 -0.34067,-0.29533 -1.07511,-0.21711c-4.39,0.46244 -12.58067,8.30178 -19.49244,16.14778c-3.25689,4.24644 -6.23089,7.68156 -7.45044,9.06533c-0.94311,1.06578 -2.562,1.19756 -3.66133,0.29578c-1.102,-0.90311 -1.29067,-2.51533 -0.42889,-3.64844c0.72089,-0.94689 3.47,-4.51511 7.18178,-8.76822c5.91689,-7.73844 11.27444,-16.16444 10.93333,-19.65133c-0.00511,-0.05422 -0.036,-0.332 -0.11622,-0.394l-0.00111,-0.00089c-0.12444,-0.09578 -0.38222,-0.29467 -1.12933,-0.16822c-4.45311,0.77378 -12.28089,9.58467 -18.66956,18.14089c-2.60444,4.306 -5.39244,7.90533 -6.39489,9.16244c-0.87711,1.10067 -2.46756,1.32156 -3.61222,0.49867c-1.14467,-0.82289 -1.44422,-2.39911 -0.67956,-3.58378c0.62022,-0.96 2.912,-4.46356 6.076,-8.74244c2.90667,-4.80467 5.10956,-9.66867 4.58244,-12.16089c-0.11889,-0.56067 -0.354,-0.78289 -0.69511,-0.96111c-0.31267,-0.16289 -0.97933,-0.04 -1.77,0.332c-8.72422,4.11222 -24.80222,31.16356 -27.51133,43.92644c-2.84578,13.40644 -18.50467,27.30222 -21.26556,29.66644c-0.20467,0.17533 -0.354,0.30133 -0.40644,0.34489c-1.12133,0.93022 -2.79178,0.77778 -3.72444,-0.34111c-0.93422,-1.124 -0.78178,-2.79044 0.34089,-3.726c0.124,-0.10422 8.99222,-7.57111 14.94533,-16.44711c-27.95062,-17.01889 -33.00704,-43.278 -28.0866,-62.76155c5.63404,-22.30622 23.50771,-37.29378 44.47549,-37.29378c23.13044,0 37.53156,9.72689 45.53889,17.88667c3.59933,3.66778 6.25533,7.342 8.14289,10.41667c1.78422,-3.076 4.32022,-6.73467 7.81867,-10.38311c7.83689,-8.17533 22.21844,-17.92022 46.22222,-17.92022zM100.01154,167.50667c6.70133,-10.06156 23.97667,-30.678 62.73422,-51.60711c27.288,-14.72911 32.29533,-38.63867 27.88222,-56.10133c-4.72067,-18.68133 -19.49511,-31.23222 -36.768,-31.23222c-40.11911,0 -49.71289,29.34333 -50.10311,30.59267c-0.50911,1.63289 -2.00889,2.76467 -3.72067,2.79444c-1.77267,0.01667 -3.244,-1.02844 -3.81378,-2.63556c-0.44822,-1.25578 -11.44133,-30.75156 -50.08511,-30.75156c-17.27022,0 -32.05111,12.57822 -36.77953,31.30067c-4.19324,16.60178 0.19684,39.024 24.16931,53.83889c0.48556,-1.21267 0.90222,-2.42378 1.15622,-3.61956c2.81111,-13.25 19.22889,-42.33222 30.43111,-47.61222c3.01,-1.416 5.17911,-0.90956 6.47244,-0.23778c1.81,0.94311 2.99333,2.51911 3.42489,4.55778c0.08644,0.40956 0.13956,0.83467 0.16267,1.274c4.28667,-4.474 8.74889,-8.06289 12.45289,-8.70756c1.974,-0.34378 3.79311,0.06444 5.25289,1.182c0.87067,0.66667 1.95467,1.91733 2.16667,4.08244c0.15356,1.57867 -0.24556,3.492 -1.02578,5.59022c2.91956,-2.09156 5.72444,-3.52822 8.12089,-3.78156c1.96111,-0.20022 3.72578,0.30378 5.09022,1.47422c1.32022,1.13556 2.05156,2.73889 2.116,4.63667c0.09311,2.80222 -1.39778,6.37178 -3.65867,10.11822c2.95844,-1.64844 5.76978,-2.70533 8.11333,-2.70533h0.06444c1.92,0.01689 3.56844,0.70422 4.75956,1.98844c1.53222,1.64844 2.21422,3.78778 1.97667,6.18822c-0.79067,7.99956 -12.49556,19.10222 -21.18889,26.32156c4.17422,-0.34378 8.68311,-0.01822 12.01622,2.06178c2.72844,1.70533 4.38733,4.41844 4.80333,7.84711c1.62356,13.43844 -22.57067,16.50689 -38.88422,18.49489c12.03489,10.29289 18.97511,19.08356 22.66156,24.64756z" fill-rule="evenodd"></path></svg>