<svg width="100%" viewBox="0 0 200 200" version="1.1" xmlns="http://www.w3.org/2000/svg" xmlns:xlink="http://www.w3.org/1999/xlink"><path d="M0,100c0,-55.14563 44.85437,-100 100,-100c55.14563,0 100,44.85437 100,100c0,55.14563 -44.85437,100 -100,100c-55.14563,0 -100,-44.85437 -100,-100zM183.30097,108.64078c-0.67961,0 -1.35922,-0.48544 -1.45631,-1.16505c-0.09709,-0.87379 0.38835,-1.5534 1.16505,-1.84466l13.98058,-2.42718c0.09709,-1.06796 0.09709,-2.23301 0.09709,-3.30097c0,-6.79612 -0.67961,-13.49515 -2.03883,-19.90291l-8.64078,3.1068c-0.19417,0.09709 -0.29126,0.09709 -0.48544,0.09709c-0.58252,0 -1.16505,-0.38835 -1.35922,-0.97087c-0.29126,-0.7767 0.09709,-1.5534 0.87379,-1.84466l9.02913,-3.30097c-4.07767,-16.60194 -12.3301,-31.65049 -23.68932,-43.68932l-7.37864,6.21359c-0.29126,0.29126 -0.67961,0.38835 -0.97087,0.38835c-0.38835,0 -0.7767,-0.09709 -1.06796,-0.48544c-0.48544,-0.58252 -0.38835,-1.5534 0.19417,-2.03883l7.18447,-6.01942c-5.53398,-5.53398 -11.74757,-10.38835 -18.4466,-14.46602l-11.45631,13.68932c-0.29126,0.29126 -0.7767,0.48544 -1.16505,0.48544c-0.38835,0 -0.67961,-0.19417 -0.97087,-0.38835c-0.58252,-0.48544 -0.67961,-1.45631 -0.19417,-2.03883l11.16505,-13.30097c-14.07767,-7.96117 -30.38835,-12.52427 -47.6699,-12.52427c-7.96117,0 -15.72816,0.97087 -23.1068,2.81553l-1.84466,10.38835c-0.09709,0.67961 -0.7767,1.16505 -1.45631,1.16505h-0.29126c-0.7767,-0.09709 -1.35922,-0.87379 -1.26214,-1.65049l1.45631,-9.02913c-6.60194,1.84466 -12.3301,4.36893 -19.12621,7.57282v2.62136c0,0.7767 -0.67961,1.45631 -1.45631,1.45631c-0.7767,0 -1.45631,-0.67961 -1.45631,-1.45631v-1.06796c-4.85437,3.1068 -10.38835,6.69903 -15.14563,10.7767l0.97087,4.75728c4.66019,-0.7767 9.32039,-1.16505 14.17476,-1.26214v-6.21359c0,-0.7767 0.67961,-1.45631 1.45631,-1.45631c0.7767,0 1.45631,0.67961 1.45631,1.45631v6.21359c4.85437,0 10,0.48544 15.14563,1.06796l1.74757,-8.83495c0.09709,-0.7767 0.87379,-1.26214 1.65049,-1.16505c0.7767,0.09709 1.26214,0.87379 1.16505,1.65049l-1.5534,8.83495c4.75728,0.97087 9.51456,2.23301 14.07767,3.78641l1.5534,-4.36893c0.29126,-0.7767 1.06796,-1.16505 1.84466,-0.87379c0.7767,0.29126 1.16505,1.06796 0.87379,1.84466l-1.5534,4.36893c4.56311,1.74757 8.93204,3.78641 13.20388,6.21359l3.20388,-5.63107c0.38835,-0.67961 1.26214,-0.87379 1.94175,-0.48544c0.67961,0.38835 0.87379,1.26214 0.48544,1.94175l-3.20388,5.63107c6.99029,4.27184 13.59223,9.41748 19.51456,15.33981c1.65049,1.65049 3.30097,3.49515 4.85437,5.24272l4.75728,-3.98058c0.58252,-0.48544 1.5534,-0.38835 2.03883,0.19417c0.48544,0.58252 0.38835,1.5534 -0.19417,2.03883l-4.75728,3.98058c3.1068,3.78641 5.82524,7.76699 8.34951,11.94175l5.63107,-3.30097c0.67961,-0.48544 1.5534,-0.19417 1.94175,0.48544c0.48544,0.67961 0.19417,1.5534 -0.48544,1.94175l-5.63107,3.30097c2.3301,4.27184 4.36893,8.64078 6.1165,13.20388l16.01942,-5.82524c0.7767,-0.29126 1.5534,0.09709 1.84466,0.87379c0.29126,0.7767 -0.09709,1.5534 -0.87379,1.84466l-16.01942,5.82524c1.5534,4.56311 2.81553,9.32039 3.68932,14.07767l5.53398,-0.97087c0.7767,-0.19417 1.5534,0.38835 1.65049,1.16505c0.19417,0.87379 -0.38835,1.65049 -1.16505,1.74757l-5.53398,0.97087c0.7767,4.95146 1.26214,10.09709 1.26214,14.95146h5.82524c0.7767,0 1.45631,0.67961 1.45631,1.45631c0,0.7767 -0.67961,1.45631 -1.45631,1.45631h-5.82524c-0.09709,4.85437 -0.48544,9.51456 -1.26214,14.07767l7.18447,1.16505c0.7767,0.09709 1.26214,0.87379 1.16505,1.65049c-0.19417,0.67961 -0.7767,1.16505 -1.45631,1.16505h-0.29126l-7.18447,-1.26214c-0.97087,4.75728 -2.23301,9.41748 -3.78641,13.98058l4.66019,1.65049c0.7767,0.29126 1.16505,1.06796 0.87379,1.84466c-0.19417,0.58252 -0.7767,0.97087 -1.35922,0.97087c-0.19417,0 -0.29126,0 -0.48544,-0.09709l-4.66019,-1.65049c-3.68932,9.41748 -8.73786,18.15534 -14.85437,26.01942c4.95146,-1.74757 9.70874,-3.8835 14.27184,-6.31068l-4.07767,-2.3301c-0.67961,-0.38835 -0.87379,-1.26214 -0.48544,-1.94175c0.38835,-0.67961 1.26214,-0.87379 1.94175,-0.48544l5.53398,3.20388c5.63107,-3.30097 10.87379,-7.08738 15.72816,-11.45631l-6.60194,-2.42718c-0.7767,-0.29126 -1.16505,-1.06796 -0.87379,-1.84466c0.29126,-0.7767 1.06796,-1.16505 1.84466,-0.87379l7.96117,2.91262c5.04854,-4.75728 9.51456,-10.09709 13.39806,-15.92233l-4.46602,-0.7767c-0.7767,-0.09709 -1.26214,-0.87379 -1.16505,-1.65049c0.09709,-0.7767 0.87379,-1.26214 1.65049,-1.16505l5.63107,0.97087c8.34951,-13.20388 13.49515,-28.54369 14.56311,-45.04854l-13.30097,2.3301zM92.52427,24.07767c0.58252,0 1.16505,-0.38835 1.35922,-0.97087l4.27184,-11.65049c0.29126,-0.7767 -0.09709,-1.65049 -0.87379,-1.84466c-0.7767,-0.29126 -1.5534,0.09709 -1.84466,0.87379l-4.27184,11.65049c-0.29126,0.7767 0.09709,1.5534 0.87379,1.84466c0.19417,0.09709 0.29126,0.09709 0.48544,0.09709zM115.82524,24.85437l5.04854,-8.83495c0.48544,-0.67961 0.19417,-1.5534 -0.48544,-1.94175c-0.67961,-0.48544 -1.5534,-0.19417 -1.94175,0.48544l-5.04854,8.93204c-0.48544,0.67961 -0.19417,1.5534 0.48544,1.94175c0.19417,0.09709 0.38835,0.19417 0.67961,0.19417c0.48544,0 0.97087,-0.29126 1.26214,-0.7767zM34.56311,31.84466l-0.48544,-3.00971c-1.45631,1.26214 -2.81553,2.62136 -4.07767,3.98058c1.45631,-0.29126 3.00971,-0.67961 4.56311,-0.97087zM20.19417,155.24272c17.57282,25.24272 46.79612,41.84466 79.80583,41.84466c9.41748,0 18.4466,-1.35922 26.99029,-3.78641c14.56311,-16.8932 23.30097,-38.93204 23.39806,-62.91262c0.09709,-25.92233 -10,-50.38835 -28.25243,-68.73786c-18.25243,-18.4466 -42.62136,-28.64078 -68.54369,-28.64078h-0.19417c-9.41748,0 -18.4466,1.35922 -26.99029,3.78641c-14.66019,16.99029 -23.49515,39.02913 -23.49515,63.20388c0,9.90291 1.45631,19.41748 4.27184,28.34951l98.64078,-49.70874c0.67961,-0.29126 1.5534,0 1.94175,0.67961c14.85437,29.51456 2.91262,65.43689 -26.50485,80.29126c-8.64078,4.36893 -17.76699,6.40777 -26.79612,6.40777c-12.23301,0 -24.27184,-3.78641 -34.27184,-10.7767zM132.91262,37.6699c0.48544,-0.58252 0.38835,-1.5534 -0.19417,-2.03883c-0.67961,-0.48544 -1.5534,-0.48544 -2.03883,0.09709l-8.64078,10.29126c-0.48544,0.58252 -0.38835,1.5534 0.19417,2.03883c0.29126,0.29126 0.67961,0.38835 0.97087,0.38835c0.38835,0 0.7767,-0.09709 1.06796,-0.48544zM141.26214,58.25243l16.50485,-13.8835c0.67961,-0.48544 0.67961,-1.45631 0.19417,-1.94175c-0.48544,-0.58252 -1.45631,-0.67961 -2.03883,-0.19417l-16.50485,13.8835c-0.58252,0.48544 -0.67961,1.45631 -0.19417,2.03883c0.19417,0.29126 0.67961,0.48544 1.06796,0.48544c0.38835,0 0.67961,-0.19417 0.97087,-0.38835zM176.1165,57.57282c-0.67961,0.38835 -0.87379,1.26214 -0.48544,1.94175c0.29126,0.48544 0.7767,0.7767 1.26214,0.67961c0.19417,0 0.48544,-0.09709 0.67961,-0.19417l2.42718,-1.45631c0.67961,-0.38835 0.87379,-1.26214 0.48544,-1.94175c-0.38835,-0.67961 -1.26214,-0.87379 -1.94175,-0.48544zM155.63107,72.71845l14.95146,-8.64078c0.67961,-0.38835 0.97087,-1.26214 0.48544,-2.03883c-0.38835,-0.67961 -1.26214,-0.87379 -1.94175,-0.48544l-14.95146,8.64078c-0.67961,0.38835 -0.87379,1.26214 -0.48544,1.94175c0.29126,0.48544 0.7767,0.7767 1.26214,0.7767c0.19417,0 0.48544,-0.09709 0.67961,-0.19417zM78.64078,73.8835c2.23301,0 3.98058,-1.74757 3.98058,-3.98058c0,-2.23301 -1.74757,-3.98058 -3.98058,-3.98058c-2.23301,0 -3.98058,1.74757 -3.98058,3.98058c0,2.23301 1.74757,3.98058 3.98058,3.98058zM105.82524,82.03883l-97.76699,49.12621c1.94175,5.72816 4.46602,11.26214 7.37864,16.50485c16.8932,15.92233 42.52427,20.38835 64.46602,9.41748c27.57282,-13.8835 39.02913,-47.28155 25.92233,-75.04854zM179.2233,85.82524c0.7767,-0.29126 1.16505,-1.06796 0.87379,-1.84466c-0.19417,-0.7767 -1.06796,-1.16505 -1.84466,-0.87379l-7.57282,2.71845c-0.7767,0.29126 -1.16505,1.06796 -0.87379,1.84466c0.19417,0.58252 0.7767,0.97087 1.35922,0.97087c0.19417,0 0.29126,0 0.48544,-0.09709zM21.65049,100.38835c2.23301,0 3.98058,-1.74757 3.98058,-3.98058c0,-2.13592 -1.74757,-3.98058 -3.98058,-3.98058c-2.23301,0 -3.98058,1.74757 -3.98058,3.98058c0,2.23301 1.74757,3.98058 3.98058,3.98058zM164.17476,112.03883l11.45631,-2.03883c0.7767,-0.09709 1.26214,-0.87379 1.06796,-1.65049c-0.09709,-0.7767 -0.87379,-1.26214 -1.65049,-1.16505l-11.45631,2.03883c-0.7767,0.09709 -1.26214,0.87379 -1.16505,1.65049c0.19417,0.67961 0.7767,1.16505 1.45631,1.16505zM185.63107,129.12621h-16.50485c-0.7767,0 -1.45631,0.67961 -1.45631,1.45631c0,0.7767 0.67961,1.45631 1.45631,1.45631h16.50485c0.7767,0 1.45631,-0.67961 1.45631,-1.45631c0,-0.7767 -0.67961,-1.45631 -1.45631,-1.45631zM171.16505,152.3301c0.67961,0 1.35922,-0.48544 1.45631,-1.16505c0.19417,-0.87379 -0.38835,-1.5534 -1.26214,-1.65049l-5.04854,-0.87379c-0.7767,-0.19417 -1.45631,0.38835 -1.65049,1.16505c-0.19417,0.7767 0.38835,1.5534 1.16505,1.65049l5.04854,0.87379z" fill-rule="evenodd"></path></svg>