<svg width="100%" viewBox="0 0 200 200" version="1.1" xmlns="http://www.w3.org/2000/svg" xmlns:xlink="http://www.w3.org/1999/xlink"><path d="M171.81833,37.79825c11.98917,11.98908 16.37917,28.69967 13.17083,44.14633h-8.55083c3.36,-13.25167 -0.14417,-27.88508 -10.5125,-38.25375c-15.66167,-15.66167 -41.05417,-15.66167 -56.71583,0c-2.17667,2.17592 -4.07333,4.56233 -5.675,7.12267c-1.63167,2.60992 -5.43333,2.60992 -7.065,0c-1.60167,-2.56033 -3.49833,-4.94675 -5.675,-7.12267c-15.66167,-15.66167 -41.05383,-15.66167 -56.7155,0c-10.36867,10.36867 -13.87283,25.00208 -10.5125,38.25375h-8.551c-3.2085,-15.44667 1.18183,-32.15725 13.17092,-44.14633c18.91608,-18.916 49.58475,-18.916 68.50142,0c1.23083,1.2315 3.31417,3.77267 3.31417,3.77267c0,0 0.6925,-1.1505 3.31417,-3.77267c18.91667,-18.916 49.585,-18.916 68.50167,0zM61.66167,97.10542l5.005,-10.01083l17.10917,34.2175c2.08917,4.18 5.37833,4.14167 7.41833,0.06167l25.4725,-50.94583l13.33417,26.66833c0.40917,0.81833 1.5325,1.515 2.48917,1.515h63.28667c2.27583,0 4.22333,-1.86583 4.22333,-4.16667c0,-2.23417 -1.8825,-4.16667 -4.205,-4.16667h-59.88667l-15.53167,-31.06333c-2.06917,-4.13917 -5.36417,-4.11258 -7.40417,-0.0325l-25.4725,50.94583l-17.10917,-34.2175c-2.08917,-4.18 -5.3775,-4.1425 -7.4175,-0.06333l-7.21517,14.43083h-51.56725c-2.33575,0 -4.19092,1.86583 -4.19092,4.16667c0,2.23417 1.86583,4.16667 4.1675,4.16667h55.09833c0.96083,0 1.98,-0.67417 2.39583,-1.50583zM97.05583,175.16875l-68.2235,-68.22417h11.78208l59.37308,59.4l59.4,-59.4h11.785l-68.22333,68.22417c-1.6275,1.62667 -4.26583,1.62667 -5.89333,0z" fill-rule="evenodd"></path></svg>