<svg width="100%" viewBox="0 0 200 200" version="1.1" xmlns="http://www.w3.org/2000/svg" xmlns:xlink="http://www.w3.org/1999/xlink"><path d="M142.14098,10.65165l-0.35937,0.00202c-19.91284,0.11104 -33.64166,9.67882 -41.778,17.91611c-8.1424,-8.23729 -21.87122,-17.80506 -41.78608,-17.91611l-0.35937,-0.00202c-21.98428,0 -40.34859,11.36463 -50.3888,31.18057c-12.38016,24.43729 -9.14783,56.59907 8.04145,80.02891c18.1604,24.76033 39.57332,38.5275 66.68773,55.95503c3.88243,2.49945 7.92032,5.0938 12.12174,7.8335l5.68535,3.6987l5.67727,-3.6987c4.20344,-2.73769 8.23931,-5.33405 12.12174,-7.82946c27.11038,-17.43156 48.51926,-31.19874 66.68773,-55.96108c17.18727,-23.4258 20.41758,-55.58354 8.03741,-80.02285c-10.04223,-19.81795 -28.40452,-31.1846 -50.3888,-31.1846zM142.14098,21.0593c45.17185,0 61.64441,56.912 33.96065,94.64203c-19.46666,26.53498 -42.42205,39.28663 -76.09803,61.22851c-33.68204,-21.94188 -56.64147,-34.69353 -76.10005,-61.22851c-27.68578,-37.73204 -11.22533,-94.64404 33.9546,-94.64203c0.09893,0 0.19988,0.00202 0.29678,0.00202c28.58017,0.1595 41.84867,24.23338 41.84867,24.23338c0,0 13.26648,-24.07389 41.83857,-24.23338c0.10095,0 0.19786,-0.00202 0.2988,-0.00202zM169.48758,85.8997c-3.30703,-0.55117 -5.53392,-3.67852 -4.98679,-6.98151c2.75788,-16.53919 -8.46139,-32.23647 -25.0026,-34.99233c-3.30703,-0.55117 -5.53594,-3.67852 -4.98679,-6.98353c0.54713,-3.30501 3.67044,-5.53998 6.98555,-4.99083c23.13911,3.85416 38.82833,25.81825 34.97618,48.95939c-0.54915,3.30501 -3.67044,5.542 -6.98555,4.98881z" fill-rule="evenodd"></path></svg>