<svg width="100%" viewBox="0 0 200 200" version="1.1" xmlns="http://www.w3.org/2000/svg" xmlns:xlink="http://www.w3.org/1999/xlink"><path d="M174.23111,105.34222c6.87111,4.24444 11.72222,7.26889 12.24889,7.66444c4.27111,3.21556 6.88667,9.24222 3.09778,15.45333c-3.99333,6.55111 -11.34,6.44 -15.27778,4.25778c-0.15333,-0.08 -0.53556,-0.27111 -1.12222,-0.55333c1.63111,1.53778 2.75333,3.37778 3.3,5.42444c0.81111,3.04 0.26444,6.24222 -1.57556,9.26c-3.83111,6.28444 -10.61556,6.81778 -15.30889,4.64444c-0.33333,-0.15556 -1.48,-0.66222 -3.20444,-1.41778c0.85111,2.63778 0.60889,5.74667 -1.39333,9.02889c-3.34444,5.48889 -9.04222,5.86222 -12.95778,4.65778c-1.31111,-0.12444 -3.48222,-1 -7.52,-2.62444c-4.08222,-1.64 -9.84,-4.01111 -16.61556,-6.80222c-0.17556,-0.07111 -0.35333,-0.14667 -0.53111,-0.21778c4.43556,2.49111 7.64222,4.30444 8.19111,4.64c2.24667,1.36667 3.90444,2.95111 4.92889,4.70444c1.24,2.12889 2.16889,5.57333 -0.46667,9.89556c-1.02,1.67333 -3.49111,4.68444 -8.04889,4.68444c-1.85333,0 -4.05333,-0.5 -6.63778,-1.78667c-0.48222,-0.23556 -3.04444,-1.37111 -6.92,-3.08889c-1.56667,-0.69556 -3.34667,-1.48444 -5.25111,-2.33111c-0.12667,0.29778 -0.25556,0.60222 -0.37333,0.88l-0.28667,0.68l-0.61556,0.40889c-0.2,0.13333 -4.97556,3.25556 -10.36,3.25556c-4.51778,0 -10.30222,-2.11778 -12.97778,-11.83556c-1.63778,0.55556 -3.57111,0.99333 -5.58889,0.99333c-4.38222,0 -9.94667,-2.00889 -12.72,-10.98889c-1.62889,0.54889 -3.54,0.98 -5.54,0.98c-4.57778,0 -10.44889,-2.18889 -13.07556,-12.23778c-1.42222,0.41111 -2.99333,0.71778 -4.64222,0.71778c-4.79778,0 -11.02444,-2.38 -13.44,-13.71556l-0.20444,-0.96444l0.51778,-0.83778c0.17111,-0.27556 1.71778,-2.77333 3.69333,-5.95333c-3.49778,-6.7 -4.78,-12.88667 -5.11778,-17.57778l-22.43556,-13.25556l2.49556,-4.22444l24.72444,14.59556l0.05333,1.33778c0.20222,5.21111 1.44,9.93111 3.33778,14.21556c2.92667,-4.7 5.83556,-9.34667 6.47111,-10.27333c2.28889,-3.34222 5.87333,-5.33556 9.59333,-5.33556c1.92222,0 3.84222,0.52 5.70667,1.54444c5.19778,2.86 6.49778,7.88667 5.9,11.88667c1.84222,-1.22 3.95111,-1.91111 6.11111,-1.91111c1.92222,0 3.84222,0.52 5.70667,1.54444c4.66889,2.56889 6.19556,6.88889 6.02667,10.64c1.93556,-1.39778 4.20444,-2.17556 6.52667,-2.17556c1.92222,0 3.84222,0.52222 5.70889,1.54667c5.16667,2.84222 6.48222,7.82889 5.91111,11.81778c2.02444,-1.60222 4.45111,-2.52 6.94889,-2.52c1.92,0 3.84,0.52222 5.70667,1.54667c4.96444,2.73111 6.37333,7.44222 5.97111,11.34444c2.38,0.97778 4.71111,1.93556 6.88222,2.83111c11.08222,4.56222 22.57556,8.81111 22.57556,8.81111c0.05556,0.02889 5.54444,2.72222 8.46,-2.06c2.94889,-4.83778 -0.75556,-7.66 -1.96,-8.41111c-1.56,-0.95111 -23.03333,-11.01556 -36.2,-17.13556l2.01111,-4.47556c1.81778,0.79333 44.55778,19.38444 46.99778,20.51333c2.65111,1.23333 6.62,1.24889 9.05556,-2.74667c1.12444,-1.84667 1.48,-3.72889 1.02444,-5.44222c-0.45556,-1.70667 -1.68444,-3.21111 -3.56,-4.35333c-1.25778,-0.76667 -28.60444,-16.44444 -42.88889,-24.62667l2.24889,-4.35778c4.78667,2.21111 46.83778,21.64222 49.13556,22.91111c1.75333,0.96889 6.18667,1.63111 8.71556,-2.51778c3.01333,-4.94222 -1.02444,-8.34889 -1.86444,-8.98222c-1.51111,-1.08444 -31.63333,-19.59111 -56.43778,-34.78667c-15.42667,-4.44444 -29,-16.94889 -30.72667,-18.58667c-2.44222,-1.63333 -7.92444,-4.37778 -10.34889,-3.04c-2.50222,1.38667 -7.06667,3.15333 -11.48222,4.86222c-3.71556,1.43778 -7.55778,2.92667 -9.54,3.95778c-5.18222,2.69778 -17.80889,2.85556 -21.46222,-4.01556c-1.27556,-2.4 -1.53111,-4.95111 -0.73556,-7.38c0.95333,-2.90889 3.20222,-5.13778 5.16222,-6.62222l-20.54222,-12.03556l2.48,-4.23333l22.86222,13.39556c6.80889,-3.66 35.34667,-18.99111 40.78222,-21.70667c7.14667,-3.57111 19.88667,-0.54222 21.31778,-0.18667l0.40889,0.10222l22.01778,14.58667l32.81333,-19.27556l2.48444,4.23333l-35.42444,20.79333l-23.89111,-15.77778c-3.71778,-0.86667 -13.02222,-2.34667 -17.53556,-0.08889c-5.99111,2.99556 -41.82,22.26889 -42.18222,22.46222c-1.45111,0.71111 -5.17556,3.04889 -6.1,5.89333c-0.38222,1.17333 -0.25333,2.29778 0.40667,3.53778c1.86,3.49778 11.19333,3.87556 14.86444,1.96889c2.22,-1.15778 6.01556,-2.62667 10.03333,-4.18222c4.26,-1.65111 8.66667,-3.35778 10.87333,-4.58c5.78889,-3.20889 14.67333,2.71333 15.66667,3.39778l0.31111,0.25333c0.19556,0.18889 19.71333,18.80667 37.56889,18.94l-0.02889,3.74c10.24444,6.28 22.91778,14.05778 32.86444,20.19111c1.62667,-4.10222 2.55333,-8.36444 2.72222,-12.72444l0.05333,-1.33778l24.71333,-14.60222l2.49778,4.22444l-22.43333,13.25556c-0.33333,4.73556 -1.47556,9.34889 -3.33556,13.78667zM41.12,109.81333c-0.97778,1.42444 -8.35333,13.29333 -12.55778,20.08222c2.2,8.88889 6.85778,8.88889 8.42222,8.88667c2.39111,0 4.71333,-0.91556 6.16222,-1.62667c0.61778,-0.99556 1.37111,-2.21111 2.20889,-3.56c2.40444,-5.65778 6.7,-15.72444 7.55778,-17.45333c0.89111,-1.79111 1.35111,-6.25333 -2.90667,-8.59333c-1.13111,-0.62222 -2.25556,-0.93778 -3.34222,-0.93778c-2.47111,0 -4.48444,1.65333 -5.54444,3.20222zM46.62,140.87333c-0.11111,0.18 -0.22889,0.37111 -0.33778,0.54444c2.2,8.88667 6.85778,8.88667 8.42222,8.88667c2.09778,0 4.15333,-0.71333 5.60889,-1.36889c0.68222,-1.10222 2.02667,-3.26889 3.62444,-5.84222c2.45333,-5.76222 5.93111,-13.89111 6.69556,-15.42889c0.88889,-1.79111 1.34889,-6.25333 -2.90889,-8.59333c-1.13111,-0.62222 -2.25556,-0.93778 -3.34222,-0.93778c-2.46889,0 -4.48444,1.65556 -5.54444,3.20222c-0.74,1.08444 -5.17778,8.19778 -9.11111,14.53111c-0.54,1.26667 -1.04444,2.45778 -1.47778,3.48222l-0.28667,0.68l-0.61556,0.40889c-0.04222,0.02667 -0.32222,0.20222 -0.72667,0.43556zM65.06444,151.95556c-0.02667,0.01778 -0.14222,0.09333 -0.31778,0.2c2.26889,8.13333 6.69778,8.15778 8.21778,8.15111c2.77111,0 5.46667,-1.23556 6.79333,-1.94667c0.2,-0.32222 0.42,-0.67556 0.65333,-1.05333c1.98,-4.66667 7.49778,-17.65111 8.48444,-19.63556c0.88889,-1.79111 1.34889,-6.25333 -2.90667,-8.59333c-1.13333,-0.62444 -2.26,-0.94 -3.34444,-0.94c-2.47333,0 -4.48444,1.65556 -5.54444,3.20444c-0.72222,1.05556 -4.94444,7.82 -8.79556,14.01778c-0.86667,2.03556 -1.68,3.95333 -2.33778,5.50667l-0.28667,0.68zM83.11111,162.27111c2.2,8.88444 6.85556,8.88444 8.42222,8.88444c2.95556,0 5.84889,-1.41778 7.05556,-2.09333c1.50889,-3.56 7.81111,-18.41111 8.87111,-20.54667c0.88889,-1.79111 1.35111,-6.25333 -2.90667,-8.59333c-1.13111,-0.62444 -2.25778,-0.93778 -3.34222,-0.93778c-2.47111,0 -4.48444,1.65333 -5.54444,3.20222c-0.85778,1.25111 -6.64444,10.54667 -10.88889,17.39111c-0.19111,0.45333 -0.37556,0.88889 -0.54889,1.29778l-0.28667,0.68l-0.61556,0.40889c-0.00222,0.00222 -0.03556,0.02222 -0.04222,0.02667c-0.05778,0.09111 -0.11778,0.19111 -0.17333,0.28zM126.25556,165.93556c-0.60667,-1.04222 -1.7,-2.04889 -3.24222,-2.98889c-0.68222,-0.41556 -6.15111,-3.49556 -13.27333,-7.48667c-1.34667,3.10444 -3.08889,7.18222 -4.65556,10.86222c1.98,0.87778 3.78,1.67778 5.32444,2.36222c4.69556,2.08444 6.61556,2.93556 6.95111,3.09778c5.38,2.68 7.34889,0.87778 8.47778,-0.97778c1.49111,-2.44667 0.95333,-3.95111 0.41778,-4.86889z" fill-rule="evenodd"></path></svg>