<svg width="100%" viewBox="0 0 200 200" version="1.1" xmlns="http://www.w3.org/2000/svg" xmlns:xlink="http://www.w3.org/1999/xlink"><path d="M22.17283,61.8021c2.32486,-7.15461 4.64083,-14.28476 6.84566,-21.0593l6.83455,21.07708c4.48946,0.00156 9.53925,0.00089 14.60326,0.00044c2.53734,-0.00022 5.07824,-0.00044 7.55401,-0.00044c-5.61878,4.09184 -12.01991,8.74155 -17.93652,13.02676c2.32486,7.17239 4.62304,14.25587 6.84566,21.07486c-5.86104,-4.26298 -11.48204,-8.34593 -17.9143,-13.01342c-6.0833,4.42079 -12.19106,8.82157 -17.93652,13.01342c2.14483,-6.59895 4.59637,-14.1314 6.84566,-21.07486c-5.74324,-4.1763 -11.91101,-8.66376 -17.9143,-13.02676c2.62756,-0.00089 5.39298,-0.00556 8.21135,-0.01022c4.63649,-0.00778 9.41645,-0.01578 13.96148,-0.00756zM93.16323,61.8021c2.32486,-7.15461 4.64083,-14.28476 6.84566,-21.0593l6.83455,21.07708c4.48946,0.00156 9.53925,0.00089 14.60326,0.00044c2.53734,-0.00022 5.07824,-0.00044 7.55401,-0.00044c-5.61878,4.09184 -12.01991,8.74155 -17.93652,13.02676c2.32486,7.17239 4.62304,14.25587 6.84566,21.07486c-5.86104,-4.26298 -11.48204,-8.34593 -17.9143,-13.01342c-6.0833,4.42079 -12.19106,8.82157 -17.93652,13.01342c2.14483,-6.59895 4.59637,-14.1314 6.84566,-21.07486c-5.74324,-4.1763 -11.91101,-8.66376 -17.9143,-13.02676c2.62758,-0.00089 5.39296,-0.00556 8.21146,-0.01022c4.63638,-0.00778 9.41634,-0.01578 13.96137,-0.00756zM164.16252,61.8021c2.32486,-7.15461 4.64083,-14.28476 6.84566,-21.0593l6.83455,21.07708c4.48946,0.00156 9.53925,0.00089 14.60326,0.00044c2.53734,-0.00022 5.07824,-0.00044 7.55401,-0.00044c-5.61878,4.09184 -12.01991,8.74155 -17.93652,13.02676c2.32486,7.17239 4.62304,14.25587 6.84566,21.07486c-5.86104,-4.26298 -11.48204,-8.34593 -17.9143,-13.01342c-6.0833,4.42079 -12.19106,8.82157 -17.93652,13.01342c2.14483,-6.59895 4.59637,-14.1314 6.84566,-21.07486c-5.74324,-4.1763 -11.91101,-8.66376 -17.9143,-13.02676c2.62758,-0.00089 5.39296,-0.00556 8.21146,-0.01022c4.63638,-0.00778 9.41634,-0.01578 13.96137,-0.00756zM57.66803,125.1378c2.32486,-7.15461 4.64083,-14.28476 6.84566,-21.0593l6.83455,21.07708c4.48946,0.00156 9.53925,0.00089 14.60326,0.00044c2.53734,-0.00022 5.07824,-0.00044 7.55401,-0.00044c-5.61878,4.09184 -12.01991,8.74155 -17.93652,13.02676c2.32486,7.17239 4.62304,14.25587 6.84566,21.07486c-5.86104,-4.26298 -11.48204,-8.34593 -17.9143,-13.01342c-6.0833,4.42079 -12.19106,8.82157 -17.93652,13.01342c2.14483,-6.59895 4.59637,-14.1314 6.84566,-21.07486c-5.74324,-4.1763 -11.91101,-8.66376 -17.9143,-13.02676c2.62758,-0.00089 5.39296,-0.00556 8.21146,-0.01022c4.63638,-0.00778 9.41634,-0.01578 13.96137,-0.00756zM128.66287,125.1378c2.32486,-7.15461 4.64083,-14.28476 6.84566,-21.0593l6.83455,21.07708c4.48946,0.00156 9.53925,0.00089 14.60326,0.00044c2.53734,-0.00022 5.07824,-0.00044 7.55401,-0.00044c-5.61878,4.09184 -12.01991,8.74155 -17.93652,13.02676c2.32486,7.17239 4.62304,14.25587 6.84566,21.07486c-5.86104,-4.26298 -11.48204,-8.34593 -17.9143,-13.01342c-6.0833,4.42079 -12.19106,8.82157 -17.93652,13.01342c2.14483,-6.59895 4.59637,-14.1314 6.84566,-21.07486c-5.74324,-4.1763 -11.91101,-8.66376 -17.9143,-13.02676c2.62758,-0.00089 5.39296,-0.00556 8.21146,-0.01022c4.63638,-0.00778 9.41634,-0.01578 13.96137,-0.00756z" fill-rule="evenodd"></path></svg>