<svg width="100%" viewBox="0 0 200 200" version="1.1" xmlns="http://www.w3.org/2000/svg" xmlns:xlink="http://www.w3.org/1999/xlink"><path d="M200,45.88391c-0.195,6.19292 -2.19577,12.19331 -5.84615,17.32638c0,0.03846 -0.03846,0.03846 -0.03846,0.07692c-0.07692,0.42308 -0.26923,0.84615 -0.5,1.23077c-2.57692,4.07692 -6.73077,7.07692 -11.80769,9.19231c-2.34615,1.15385 -4.88462,1.92308 -7.5,2.46154c0.84615,2.76923 1.61538,5.53846 2.19231,8.34615c6.92308,3.76923 11.96154,11.96154 11.96154,19.96154c0,8.26923 -4.88462,15.73077 -12.34615,19.15385c-9.57692,37.5 -43,63.53846 -81.88462,63.53846c-38.88462,0 -72.26923,-26.03846 -81.88462,-63.53846c-7.46154,-3.42308 -12.34615,-10.88462 -12.34615,-19.15385c0,-8.46154 5.34615,-17.46154 12.23077,-21.23077c0.07692,-0.57692 11.84615,-58.30769 67.96154,-68.30769c15.76923,-3 44.5,-1.80769 57.80769,18.73077c3.84615,-10.26923 12.92308,-18.34615 24.5,-20.34615c8.46154,-1.5 16.92308,0.42308 23.92308,5.34615c7,4.92308 11.65385,12.26923 13.11538,20.69231c0.26115,1.50588 0.41423,3.01423 0.46154,4.51562zM187.88462,58.82568c-2.46154,3.5 -5.73077,6.23077 -9.5,8c-2.76923,1.11538 -6.03846,1.92308 -9.61538,2.53846h-0.15385c-5.11538,0.84615 -11.07692,1.30769 -17.80769,1.30769c-2.76923,0 -5.5,-0.07692 -8.15385,-0.19231h-0.15385c-1.19231,-0.03846 -2.38462,-0.11538 -3.53846,-0.19231c-0.19231,0 -0.38462,-0.03846 -0.57692,-0.03846c-1,-0.07692 -1.96154,-0.15385 -2.92308,-0.23077c-0.38462,-0.03846 -0.73077,-0.07692 -1.11538,-0.07692l-2.30769,-0.23077c-0.53846,-0.03846 -1.11538,-0.11538 -1.65385,-0.15385c-0.61538,-0.07692 -1.19231,-0.11538 -1.76923,-0.19231c-0.73077,-0.07692 -1.5,-0.15385 -2.23077,-0.26923c-0.42308,-0.03846 -0.84615,-0.11538 -1.23077,-0.15385c-1.15385,-0.15385 -2.30769,-0.30769 -3.42308,-0.46154c-7.80769,-1.11538 -16.19231,-3.38462 -26.34615,-7.19231c-1.46154,-0.53846 -2.96154,-1 -4.5,-1.42308c-25.84615,-6.96154 -54.30769,6.84615 -68.38462,15.23077c5.61538,-15.73077 21.11538,-45.84615 59.07692,-52.61538c0.07692,0 5.11538,-0.96154 12.19231,-0.96154c3.92308,0 8.42308,0.26923 13.03846,1.15385c16.65385,3.19231 26.65385,12.53846 29.65385,27.69231c0.42308,2.07692 2.38462,3.42308 4.46154,3.03846c2.07692,-0.38462 3.46154,-2.38462 3.07692,-4.42308c-2.30769,-13.19231 6.57692,-25.80769 19.80769,-28.11538c6.42308,-1.11538 12.84615,0.34615 18.15385,4.07692c5.30769,3.73077 8.84615,9.30769 9.96154,15.73077c1.11538,6.42308 -0.30769,12.84615 -4.03846,18.15385zM180.76923,104.47953c0,5.73077 -3.69231,10.80769 -9.15385,12.69231c-1.26923,0.42308 -2.19231,1.46154 -2.5,2.76923c-8.11538,35.07692 -38.88462,59.53846 -74.88462,59.53846c-35.96154,0 -66.76923,-24.5 -74.88462,-59.53846c-0.30769,-1.30769 -1.23077,-2.34615 -2.5,-2.76923c-5.46154,-1.88462 -9.15385,-7 -9.15385,-12.69231c0,-5.96154 4.34615,-13.07692 9.11538,-14.96154c0.65385,-0.26923 1.19231,-0.65385 1.57692,-1.19231c3.07692,-2.73077 31.84615,-22.42308 58.73077,-22.42308c5.65385,0 10.88462,0.88462 15.57692,2.61538c10.69231,4 19.57692,6.38462 27.96154,7.57692c1.38462,0.19231 2.92308,0.38462 4.57692,0.61538c1.23077,0.15385 2.46154,0.30769 3.76923,0.42308c0.5,0.03846 0.96154,0.11538 1.46154,0.15385c11.26923,1.19231 24.5,1.80769 36.23077,0.23077c1.11538,3.38462 1.96154,6.84615 2.57692,10.30769c0.23077,1.30769 1.11538,2.42308 2.38462,2.88462c5.03846,2.03846 9.11538,8.19231 9.11538,13.76923zM76.92308,105.13337c0,0.25205 -0.01231,0.50333 -0.03692,0.75385c-0.02487,0.25077 -0.06179,0.49974 -0.11077,0.74692c-0.04923,0.24692 -0.11038,0.49103 -0.18346,0.73231c-0.07308,0.24103 -0.15782,0.47795 -0.25423,0.71077c-0.09641,0.23256 -0.2041,0.46 -0.32308,0.68231c-0.11872,0.22205 -0.24808,0.43782 -0.38808,0.64731c-0.13974,0.20949 -0.28962,0.41167 -0.44962,0.60654c-0.15974,0.19462 -0.32872,0.38103 -0.50692,0.55923c-0.17821,0.17821 -0.36462,0.34718 -0.55923,0.50692c-0.19487,0.16 -0.39705,0.30987 -0.60654,0.44962c-0.20949,0.14 -0.42526,0.26936 -0.64731,0.38808c-0.22231,0.11897 -0.44974,0.22667 -0.68231,0.32308c-0.23282,0.09641 -0.46974,0.18115 -0.71077,0.25423c-0.24128,0.07308 -0.48538,0.13423 -0.73231,0.18346c-0.24718,0.04897 -0.49615,0.0859 -0.74692,0.11077c-0.25051,0.02462 -0.50179,0.03692 -0.75385,0.03692c-0.25205,0 -0.50333,-0.01231 -0.75385,-0.03692c-0.25077,-0.02487 -0.49974,-0.06179 -0.74692,-0.11077c-0.24692,-0.04923 -0.49103,-0.11038 -0.73231,-0.18346c-0.24103,-0.07308 -0.47795,-0.15782 -0.71077,-0.25423c-0.23256,-0.09641 -0.46,-0.2041 -0.68231,-0.32308c-0.22205,-0.11872 -0.43782,-0.24808 -0.64731,-0.38808c-0.20949,-0.13974 -0.41167,-0.28962 -0.60654,-0.44962c-0.19462,-0.15974 -0.38103,-0.32872 -0.55923,-0.50692c-0.17821,-0.17821 -0.34718,-0.36462 -0.50692,-0.55923c-0.16,-0.19487 -0.30987,-0.39705 -0.44962,-0.60654c-0.14,-0.20949 -0.26936,-0.42526 -0.38808,-0.64731c-0.11897,-0.22231 -0.22667,-0.44974 -0.32308,-0.68231c-0.09641,-0.23282 -0.18115,-0.46974 -0.25423,-0.71077c-0.07308,-0.24128 -0.13423,-0.48538 -0.18346,-0.73231c-0.04897,-0.24718 -0.0859,-0.49615 -0.11077,-0.74692c-0.02462,-0.25051 -0.03692,-0.50179 -0.03692,-0.75385c0,-0.25205 0.01231,-0.50333 0.03692,-0.75385c0.02487,-0.25077 0.06179,-0.49974 0.11077,-0.74692c0.04923,-0.24692 0.11038,-0.49103 0.18346,-0.73231c0.07308,-0.24103 0.15782,-0.47795 0.25423,-0.71077c0.09641,-0.23256 0.2041,-0.46 0.32308,-0.68231c0.11872,-0.22205 0.24808,-0.43782 0.38808,-0.64731c0.13974,-0.20949 0.28962,-0.41167 0.44962,-0.60654c0.15974,-0.19462 0.32872,-0.38103 0.50692,-0.55923c0.17821,-0.17821 0.36462,-0.34718 0.55923,-0.50692c0.19487,-0.16 0.39705,-0.30987 0.60654,-0.44962c0.20949,-0.14 0.42526,-0.26936 0.64731,-0.38808c0.22231,-0.11897 0.44974,-0.22667 0.68231,-0.32308c0.23282,-0.09641 0.46974,-0.18115 0.71077,-0.25423c0.24128,-0.07308 0.48538,-0.13423 0.73231,-0.18346c0.24718,-0.04897 0.49615,-0.0859 0.74692,-0.11077c0.25051,-0.02462 0.50179,-0.03692 0.75385,-0.03692c0.25205,0 0.50333,0.01231 0.75385,0.03692c0.25077,0.02487 0.49974,0.06179 0.74692,0.11077c0.24692,0.04923 0.49103,0.11038 0.73231,0.18346c0.24103,0.07308 0.47795,0.15782 0.71077,0.25423c0.23256,0.09641 0.46,0.2041 0.68231,0.32308c0.22205,0.11872 0.43782,0.24808 0.64731,0.38808c0.20949,0.13974 0.41167,0.28962 0.60654,0.44962c0.19462,0.15974 0.38103,0.32872 0.55923,0.50692c0.17821,0.17821 0.34718,0.36462 0.50692,0.55923c0.16,0.19487 0.30987,0.39705 0.44962,0.60654c0.14,0.20949 0.26936,0.42526 0.38808,0.64731c0.11897,0.22231 0.22667,0.44974 0.32308,0.68231c0.09641,0.23282 0.18115,0.46974 0.25423,0.71077c0.07308,0.24128 0.13423,0.48538 0.18346,0.73231c0.04897,0.24718 0.0859,0.49615 0.11077,0.74692c0.02462,0.25051 0.03692,0.50179 0.03692,0.75385zM130.76923,105.13337c0,0.25205 -0.01231,0.50333 -0.03692,0.75385c-0.02487,0.25077 -0.06179,0.49974 -0.11077,0.74692c-0.04923,0.24692 -0.11038,0.49103 -0.18346,0.73231c-0.07308,0.24103 -0.15782,0.47795 -0.25423,0.71077c-0.09641,0.23256 -0.2041,0.46 -0.32308,0.68231c-0.11872,0.22205 -0.24808,0.43782 -0.38808,0.64731c-0.13974,0.20949 -0.28962,0.41167 -0.44962,0.60654c-0.15974,0.19462 -0.32872,0.38103 -0.50692,0.55923c-0.17821,0.17821 -0.36462,0.34718 -0.55923,0.50692c-0.19487,0.16 -0.39705,0.30987 -0.60654,0.44962c-0.20949,0.14 -0.42526,0.26936 -0.64731,0.38808c-0.22231,0.11897 -0.44974,0.22667 -0.68231,0.32308c-0.23282,0.09641 -0.46974,0.18115 -0.71077,0.25423c-0.24128,0.07308 -0.48538,0.13423 -0.73231,0.18346c-0.24718,0.04897 -0.49615,0.0859 -0.74692,0.11077c-0.25051,0.02462 -0.50179,0.03692 -0.75385,0.03692c-0.25205,0 -0.50333,-0.01231 -0.75385,-0.03692c-0.25077,-0.02487 -0.49974,-0.06179 -0.74692,-0.11077c-0.24692,-0.04923 -0.49103,-0.11038 -0.73231,-0.18346c-0.24103,-0.07308 -0.47795,-0.15782 -0.71077,-0.25423c-0.23256,-0.09641 -0.46,-0.2041 -0.68231,-0.32308c-0.22205,-0.11872 -0.43782,-0.24808 -0.64731,-0.38808c-0.20949,-0.13974 -0.41167,-0.28962 -0.60654,-0.44962c-0.19462,-0.15974 -0.38103,-0.32872 -0.55923,-0.50692c-0.17821,-0.17821 -0.34718,-0.36462 -0.50692,-0.55923c-0.16,-0.19487 -0.30987,-0.39705 -0.44962,-0.60654c-0.14,-0.20949 -0.26936,-0.42526 -0.38808,-0.64731c-0.11897,-0.22231 -0.22667,-0.44974 -0.32308,-0.68231c-0.09641,-0.23282 -0.18115,-0.46974 -0.25423,-0.71077c-0.07308,-0.24128 -0.13423,-0.48538 -0.18346,-0.73231c-0.04897,-0.24718 -0.0859,-0.49615 -0.11077,-0.74692c-0.02462,-0.25051 -0.03692,-0.50179 -0.03692,-0.75385c0,-0.25205 0.01231,-0.50333 0.03692,-0.75385c0.02487,-0.25077 0.06179,-0.49974 0.11077,-0.74692c0.04923,-0.24692 0.11038,-0.49103 0.18346,-0.73231c0.07308,-0.24103 0.15782,-0.47795 0.25423,-0.71077c0.09641,-0.23256 0.2041,-0.46 0.32308,-0.68231c0.11872,-0.22205 0.24808,-0.43782 0.38808,-0.64731c0.13974,-0.20949 0.28962,-0.41167 0.44962,-0.60654c0.15974,-0.19462 0.32872,-0.38103 0.50692,-0.55923c0.17821,-0.17821 0.36462,-0.34718 0.55923,-0.50692c0.19487,-0.16 0.39705,-0.30987 0.60654,-0.44962c0.20949,-0.14 0.42526,-0.26936 0.64731,-0.38808c0.22231,-0.11897 0.44974,-0.22667 0.68231,-0.32308c0.23282,-0.09641 0.46974,-0.18115 0.71077,-0.25423c0.24128,-0.07308 0.48538,-0.13423 0.73231,-0.18346c0.24718,-0.04897 0.49615,-0.0859 0.74692,-0.11077c0.25051,-0.02462 0.50179,-0.03692 0.75385,-0.03692c0.25205,0 0.50333,0.01231 0.75385,0.03692c0.25077,0.02487 0.49974,0.06179 0.74692,0.11077c0.24692,0.04923 0.49103,0.11038 0.73231,0.18346c0.24103,0.07308 0.47795,0.15782 0.71077,0.25423c0.23256,0.09641 0.46,0.2041 0.68231,0.32308c0.22205,0.11872 0.43782,0.24808 0.64731,0.38808c0.20949,0.13974 0.41167,0.28962 0.60654,0.44962c0.19462,0.15974 0.38103,0.32872 0.55923,0.50692c0.17821,0.17821 0.34718,0.36462 0.50692,0.55923c0.16,0.19487 0.30987,0.39705 0.44962,0.60654c0.14,0.20949 0.26936,0.42526 0.38808,0.64731c0.11897,0.22231 0.22667,0.44974 0.32308,0.68231c0.09641,0.23282 0.18115,0.46974 0.25423,0.71077c0.07308,0.24128 0.13423,0.48538 0.18346,0.73231c0.04897,0.24718 0.0859,0.49615 0.11077,0.74692c0.02462,0.25051 0.03692,0.50179 0.03692,0.75385zM133.84615,128.97953c-1.69231,-1.26923 -4.11538,-0.92308 -5.38462,0.76923c-1.26923,1.69231 -0.92308,4.11538 0.76923,5.38462l2.84615,2.11538c-4,4.80769 -14.26923,15.5 -27.88462,17.53846c-8.69231,1.26923 -17.5,-1.23077 -26.11538,-7.46154l1.92308,-1.46154c1.69231,-1.26923 2.03846,-3.69231 0.76923,-5.38462c-1.26923,-1.69231 -3.69231,-2.03846 -5.38462,-0.76923l-10.76923,8.07692c-1.69231,1.26923 -2.03846,3.69231 -0.76923,5.38462c0.76923,1 1.92308,1.53846 3.07692,1.53846c0.80769,0 1.61538,-0.26923 2.30769,-0.76923l2.42308,-1.80769c9.07692,7.07692 18.46154,10.65385 28,10.65385c1.92308,0 3.84615,-0.15385 5.76923,-0.42308c16.53846,-2.5 28.34615,-15 32.84615,-20.5l1.76923,1.30769c0.69231,0.5 1.5,0.76923 2.30769,0.76923c1.15385,0 2.30769,-0.53846 3.07692,-1.53846c1.26923,-1.69231 0.92308,-4.11538 -0.76923,-5.38462z" fill-rule="evenodd"></path></svg>