<svg width="100%" viewBox="0 0 200 200" version="1.1" xmlns="http://www.w3.org/2000/svg" xmlns:xlink="http://www.w3.org/1999/xlink"><path d="M118.64144,119.778l5.10595,-5.81231l32.59334,-37.07366c0.9889,-1.13017 0.88799,-2.86579 -0.24218,-3.85469l-3.43088,-3.00706c-7.3663,-6.4783 -18.64783,-5.75177 -25.12614,1.61453l-3.10797,3.53179v-50.83754c0,-6.74067 -5.4894,-12.23007 -12.23007,-12.23007c-2.50252,0 -4.82341,0.7669 -6.76085,2.05853v-1.93744c0,-6.74067 -5.4894,-12.23007 -12.23007,-12.23007c-6.74067,0 -12.23007,5.4894 -12.23007,12.23007v1.93744c-1.93744,-1.29162 -4.25832,-2.05853 -6.76085,-2.05853c-6.74067,0 -12.23007,5.4894 -12.23007,12.23007v2.54289c-1.93744,-1.29162 -4.25832,-2.05853 -6.76085,-2.05853c-6.74067,0 -12.23007,5.4894 -12.23007,12.23007v64.68214c0,10.03027 4.86377,19.19273 13.0777,24.82341v15.21695h-5.54995c-1.51362,0 -2.72452,1.23108 -2.72452,2.72452v10.67608h-2.09889c-1.51362,0 -2.72452,1.23108 -2.72452,2.72452v39.37437c0,1.51362 1.23108,2.72452 2.72452,2.72452h76.00404c1.51362,0 2.72452,-1.23108 2.72452,-2.72452v-39.37437c0,-1.51362 -1.23108,-2.72452 -2.72452,-2.72452h-2.05853v-10.67608c0,-1.51362 -1.23108,-2.72452 -2.72452,-2.72452h-5.54995v-15.68113c2.64379,-1.7558 5.10595,-3.87487 7.26539,-6.31685zM105.88665,141.77598h-44.35923v-16.75076c0,-0.10091 -0.02018,-0.18163 -0.02018,-0.28254c-0.02018,-0.08073 -0.02018,-0.18163 -0.04036,-0.26236c-0.02018,-0.08073 -0.04036,-0.16145 -0.08073,-0.222c-0.02018,-0.10091 -0.06054,-0.18163 -0.10091,-0.28254c-0.04036,-0.08073 -0.08073,-0.14127 -0.12109,-0.20182c-0.04036,-0.08073 -0.08073,-0.16145 -0.14127,-0.24218c-0.04036,-0.06054 -0.10091,-0.12109 -0.16145,-0.18163c-0.06054,-0.08073 -0.12109,-0.14127 -0.18163,-0.222c-0.06054,-0.06054 -0.12109,-0.10091 -0.18163,-0.14127c-0.08073,-0.06054 -0.16145,-0.14127 -0.24218,-0.18163c-0.02018,0 -0.02018,-0.02018 -0.04036,-0.04036c-7.3663,-4.52069 -11.78607,-12.39152 -11.78607,-21.02926v-64.68214c0,-3.7336 3.02725,-6.76085 6.76085,-6.76085c3.7336,0 6.76085,3.02725 6.76085,6.76085v22.09889h-0.06054c-1.51362,0 -2.72452,1.23108 -2.72452,2.72452c0,1.51362 1.23108,2.72452 2.72452,2.72452h5.57013c1.51362,0 2.72452,-1.23108 2.72452,-2.72452c0,-1.51362 -1.23108,-2.72452 -2.72452,-2.72452h-0.04036v-34.8335c0,-3.7336 3.02725,-6.76085 6.76085,-6.76085c3.7336,0 6.76085,3.02725 6.76085,6.76085v34.8335h-0.04036c-1.51362,0 -2.72452,1.23108 -2.72452,2.72452c0,1.51362 1.23108,2.72452 2.72452,2.72452h5.57013c1.51362,0 2.72452,-1.23108 2.72452,-2.72452c0,-1.51362 -1.23108,-2.72452 -2.72452,-2.72452h-0.06054v-46.9223c0,-3.7336 3.02725,-6.76085 6.76085,-6.76085c3.7336,0 6.76085,3.02725 6.76085,6.76085v46.94248h-0.04036c-1.51362,0 -2.72452,1.23108 -2.72452,2.72452c0,1.51362 1.23108,2.72452 2.72452,2.72452h5.57013c1.51362,0 2.72452,-1.23108 2.72452,-2.72452c0,-1.51362 -1.23108,-2.72452 -2.72452,-2.72452h-0.06054v-34.8335c0,-3.7336 3.02725,-6.76085 6.76085,-6.76085c3.7336,0 6.76085,3.02725 6.76085,6.76085v57.05348l-2.98688,3.43088c-2.11907,-0.5449 -4.31887,-0.80727 -6.51867,-0.80727c-9.80827,0 -18.7891,5.36831 -23.45106,14.00605c-0.72654,1.33199 -0.222,2.98688 1.10999,3.69324c0.40363,0.222 0.86781,0.32291 1.29162,0.32291c0.96872,0 1.91726,-0.52472 2.40161,-1.4329c3.71342,-6.86176 10.85772,-11.12008 18.64783,-11.12008c2.24016,0 4.43996,0.34309 6.53885,1.02926c0.36327,0.12109 0.74672,0.16145 1.10999,0.14127c0.02018,0 0.04036,0 0.08073,-0.02018c0.14127,-0.02018 0.30272,-0.04036 0.444,-0.08073c0.02018,0 0.04036,-0.02018 0.08073,-0.02018c0.14127,-0.04036 0.28254,-0.10091 0.42381,-0.16145c0.02018,-0.02018 0.04036,-0.02018 0.08073,-0.04036c0.12109,-0.06054 0.26236,-0.14127 0.36327,-0.24218l0.12109,-0.12109c0.08073,-0.08073 0.18163,-0.14127 0.24218,-0.222l12.75479,-14.5106c4.5005,-5.10595 12.3108,-5.61049 17.41675,-1.13017l1.37235,1.2109l-30.79717,35.03532l-5.12614,5.81231c-5.69122,6.4783 -13.92533,10.21191 -22.54289,10.21191c-1.51362,0 -2.72452,1.23108 -2.72452,2.72452c0,1.51362 1.23108,2.72452 2.72452,2.72452c4.82341,0 9.54591,-0.9889 13.90515,-2.84561zM114.14094,155.17659h-60.92836v-7.93138h60.92836zM118.96435,194.55096h-70.53481v-33.90515h70.53481zM61.66869,164.74268c-5.04541,0 -9.14228,4.09687 -9.14228,9.14228c0,5.04541 4.09687,9.14228 9.14228,9.14228c5.04541,0 9.14228,-4.09687 9.14228,-9.14228c0,-5.04541 -4.09687,-9.14228 -9.14228,-9.14228zM61.66869,177.53784c-2.01816,0 -3.67306,-1.65489 -3.67306,-3.67306c0,-2.01816 1.65489,-3.67306 3.67306,-3.67306c2.01816,0 3.67306,1.65489 3.67306,3.67306c0,2.03835 -1.65489,3.67306 -3.67306,3.67306z" fill-rule="evenodd"></path></svg>