<svg width="100%" viewBox="0 0 200 200" version="1.1" xmlns="http://www.w3.org/2000/svg" xmlns:xlink="http://www.w3.org/1999/xlink"><path d="M164.43894,3.22091c-1.78098,0.02097 -3.20792,1.48472 -3.18744,3.26961v3.14428c-0.01634,1.16566 0.59472,2.24991 1.59933,2.83755c1.00461,0.58765 2.24696,0.58765 3.25157,0c1.00461,-0.58765 1.61566,-1.67189 1.59933,-2.83755v-3.14428c0.01,-0.87028 -0.33064,-1.70783 -0.94462,-2.32321c-0.61423,-0.61537 -1.44985,-0.95657 -2.31816,-0.9464zM12.85959,9.68527c-1.78096,0.02097 -3.20785,1.48472 -3.18729,3.26961v3.14428c-0.01646,1.16566 0.59462,2.24988 1.59923,2.83753c1.00461,0.58762 2.2471,0.58762 3.25171,0c1.00461,-0.58765 1.61569,-1.67187 1.59923,-2.83753v-3.14428c0.01002,-0.87028 -0.33052,-1.70783 -0.94465,-2.32321c-0.6141,-0.61537 -1.44988,-0.95657 -2.31823,-0.9464zM154.85176,12.91733c-1.1614,-0.01365 -2.24013,0.5994 -2.82485,1.60511c-0.58448,1.00568 -0.58448,2.24871 0,3.25439c0.58472,1.00571 1.66346,1.61876 2.82485,1.60511h3.13696c1.16115,0.01365 2.24013,-0.5994 2.82485,-1.60511c0.58448,-1.00568 0.58448,-2.24871 0,-3.25439c-0.58472,-1.00571 -1.6637,-1.61876 -2.82485,-1.60511zM170.97719,12.91733c-1.1614,-0.01365 -2.24013,0.5994 -2.82485,1.60511c-0.58448,1.00568 -0.58448,2.24871 0,3.25439c0.58472,1.00571 1.66346,1.61876 2.82485,1.60511h3.13696c1.16115,0.01365 2.24013,-0.5994 2.82485,-1.60511c0.58448,-1.00568 0.58448,-2.24871 0,-3.25439c-0.58472,-1.00571 -1.6637,-1.61876 -2.82485,-1.60511zM80.40567,34.2416c0.32601,-0.55668 0.61593,-1.0485 0.86465,-1.46619h-0.01292c2.6332,-4.66606 1.52959,-10.90561 -2.80315,-13.96527c-2.80242,-1.97996 -6.10421,-2.26281 -8.75594,-1.58494c-2.65173,0.67762 -4.79213,2.11163 -6.1898,4.12572c-10.46768,15.08839 -31.06141,45.39878 -31.06141,45.39878c-6.19907,9.16924 -12.63127,22.85045 -14.39518,37.22975c-1.22192,9.96318 1.37219,19.66008 3.86972,28.9966c1.62005,6.05545 3.19938,11.95923 3.67072,17.68549c0.43281,5.25298 0.15289,15.78869 0.15289,15.78869c-0.29821,4.44539 6.50459,4.65607 6.46582,0.19507c0,0 0.33601,-10.37941 -0.16776,-16.50435c-0.57838,-7.02909 -2.35327,-13.85335 -4.06379,-20.42988c-2.28695,-8.79252 -4.45856,-17.14198 -3.5015,-24.94501c1.59104,-12.97139 7.65867,-26.01472 13.33593,-34.41197c0,0 20.60178,-30.30698 31.02362,-45.32904c0.28797,-0.41696 1.35866,-1.26795 2.50104,-1.55812c1.14164,-0.28773 2.21282,-0.22677 3.38836,0.60228c1.06898,0.75492 2.20794,3.24644 0.96633,5.41659c-4.67606,7.86008 -22.53078,39.39454 -22.53078,39.39454c-2.10943,3.74582 3.54051,6.90595 5.6497,3.16305c0,0 11.14408,-19.67447 18.07173,-31.71904c0.84319,-0.05023 1.66175,0.168 2.4391,0.68469c1.78513,1.64273 2.40179,3.79898 1.31111,5.49365c-1.11263,1.72661 -2.47885,3.79288 -3.95382,5.99473c-0.37356,0.33406 -0.63763,0.74492 -0.7993,1.19139c-5.80624,8.635 -12.83728,18.7457 -12.83728,18.7457c-2.45519,3.53271 2.87386,7.20977 5.32906,3.67901c0,0 6.60993,-9.50428 12.36692,-18.05174c0.63105,0.09315 1.24966,0.3404 1.81683,0.74882l0.05803,0.07315c1.7588,1.27941 2.15991,3.54222 1.0246,5.45146c-4.2374,7.12126 -13.056,18.05052 -13.056,18.05052c-2.70366,3.34227 2.34327,7.39143 5.04718,4.0494c0,0 8.83275,-10.84587 13.57318,-18.81202l0.00122,-0.03828c3.14891,-5.78625 0.76516,-11.25698 -2.75926,-13.93211c-0.63154,-0.46402 -1.30063,-0.85002 -1.99361,-1.15847c0.58399,-0.88732 1.13287,-1.7288 1.63468,-2.50738c1.47009,-2.32523 1.81342,-4.93745 1.30111,-7.39655l0.02414,0.00366c-0.70957,-3.32594 -2.285,-5.0189 -3.79166,-6.45022c-0.96438,-0.9139 -2.0236,-1.53812 -3.2145,-1.90217zM107.43743,34.2416c-0.32577,-0.55668 -0.61569,-1.0485 -0.8644,-1.46619h0.01292c-2.63344,-4.66606 -1.52959,-10.90561 2.80315,-13.96527c2.80242,-1.97996 6.10421,-2.26281 8.75594,-1.58494c2.65173,0.67762 4.79213,2.11163 6.1898,4.12572c10.46768,15.08839 31.06141,45.39878 31.06141,45.39878c6.19907,9.16924 12.63124,22.85045 14.39516,37.22975c1.22187,9.96293 -1.37207,19.66008 -3.86994,28.9966c-1.61981,6.05545 -3.19914,11.95923 -3.67048,17.68549c-0.43281,5.25298 -0.15289,15.78869 -0.15289,15.78869c0.29797,4.44539 -6.50484,4.65607 -6.46607,0.19507c0,0 -0.33601,-10.37941 0.16776,-16.50435c0.57863,-7.02909 2.35351,-13.85335 4.06403,-20.42988c2.28695,-8.79252 4.45856,-17.14198 3.50125,-24.94501c-1.59079,-12.97139 -7.65843,-26.01472 -13.33593,-34.41197c0,0 -20.60154,-30.30698 -31.02337,-45.32904c-0.28797,-0.41696 -1.35866,-1.26795 -2.50104,-1.55812c-1.14164,-0.28773 -2.21282,-0.22677 -3.38836,0.60228c-1.06898,0.75492 -2.20794,3.24644 -0.96633,5.41659c4.67606,7.86008 22.53078,39.39454 22.53078,39.39454c2.10943,3.74582 -3.54051,6.90595 -5.64995,3.16305c0,0 -11.14384,-19.67447 -18.07149,-31.71904c-0.84343,-0.05023 -1.66199,0.168 -2.4391,0.68469c-1.78513,1.64273 -2.40179,3.79898 -1.31111,5.49365c1.11263,1.72661 2.47885,3.79288 3.95382,5.99473c0.37356,0.33406 0.63763,0.74492 0.7993,1.19139c5.80624,8.635 12.83728,18.7457 12.83728,18.7457c2.45519,3.53271 -2.87386,7.20977 -5.32906,3.67901c0,0 -6.60993,-9.50428 -12.36692,-18.05174c-0.63105,0.09315 -1.24966,0.3404 -1.81683,0.74882l-0.05803,0.07315c-1.7588,1.27941 -2.15991,3.54222 -1.02485,5.45146c4.23764,7.12126 13.056,18.05052 13.056,18.05052c2.70391,3.34227 -2.34327,7.39143 -5.04694,4.0494c0,0 -8.83275,-10.84587 -13.57318,-18.81202l-0.00122,-0.03828c-3.14891,-5.78625 -0.76516,-11.25698 2.75901,-13.93211c0.63178,-0.46402 1.30087,-0.85002 1.99361,-1.15847c-0.58375,-0.88732 -1.13262,-1.7288 -1.63444,-2.50738c-1.47009,-2.32523 -1.81342,-4.93745 -1.30111,-7.39655l-0.02438,0.00366c0.70981,-3.32594 2.285,-5.0189 3.79191,-6.45022c0.96438,-0.91366 2.0236,-1.53812 3.21426,-1.90217zM3.27249,19.38194c-1.16342,-0.01702 -2.24581,0.59528 -2.83248,1.60233c-0.58667,1.00697 -0.58667,2.25274 0,3.25978c0.58667,1.00705 1.66906,1.61932 2.83248,1.60225h3.13694c1.16342,0.01707 2.24581,-0.59521 2.83248,-1.60225c0.58667,-1.00705 0.58667,-2.25281 0,-3.25978c-0.58667,-1.00705 -1.66906,-1.61935 -2.83248,-1.60233zM19.39796,19.38194c-1.16344,-0.01702 -2.24584,0.59528 -2.83251,1.60233c-0.58667,1.00697 -0.58667,2.25274 0,3.25978c0.58667,1.00705 1.66906,1.61932 2.83251,1.60225h3.13691c1.16335,0.01707 2.24574,-0.59521 2.83241,-1.60225c0.58667,-1.00705 0.58667,-2.25281 0,-3.25978c-0.58667,-1.00705 -1.66906,-1.61935 -2.83241,-1.60233zM164.43894,19.38194c-1.78098,0.02099 -3.20792,1.48472 -3.18744,3.26961v3.14428c-0.01634,1.16554 0.59472,2.24988 1.59933,2.83753c1.00461,0.58765 2.24696,0.58765 3.25157,0c1.00461,-0.58765 1.61566,-1.67199 1.59933,-2.83753v-3.14428c0.01,-0.87025 -0.33064,-1.70783 -0.94462,-2.32321c-0.61423,-0.61537 -1.44985,-0.95657 -2.31816,-0.9464zM12.85959,25.8463c-1.78096,0.02097 -3.20785,1.48472 -3.18729,3.26961v3.14428c-0.01646,1.16554 0.59462,2.24988 1.59923,2.83753c1.00461,0.58765 2.2471,0.58765 3.25171,0c1.00461,-0.58765 1.61569,-1.67199 1.59923,-2.83753v-3.14428c0.01002,-0.87025 -0.33052,-1.70783 -0.94465,-2.32328c-0.6141,-0.6152 -1.44988,-0.95657 -2.31823,-0.94633zM180.60777,38.81574c0,0.85733 -0.33966,1.6793 -0.94462,2.28548c-0.60472,0.60618 -1.42523,0.94682 -2.28036,0.94682c-0.85538,0 -1.67589,-0.34064 -2.28061,-0.94682c-0.60496,-0.60618 -0.94462,-1.42815 -0.94462,-2.28548c0,-1.78513 1.444,-3.23206 3.22523,-3.23206c1.78098,0 3.22499,1.44693 3.22499,3.23206zM6.45288,45.2801c0.00005,0.85733 -0.33974,1.6793 -0.94455,2.28548c-0.60484,0.60618 -1.42515,0.94682 -2.28053,0.94682c-0.85536,0 -1.6757,-0.34064 -2.28051,-0.94682c-0.60484,-0.60618 -0.9446,-1.42815 -0.94458,-2.28548c0.00007,-1.78513 1.44398,-3.23206 3.22508,-3.23206c1.78111,0 3.22501,1.44693 3.22508,3.23206zM187.05214,51.74129c-0.85514,0.01341 -1.67028,0.36673 -2.26573,0.98242c-0.59521,0.61569 -0.92219,1.44303 -0.90878,2.30036v3.14428c-0.01658,1.16554 0.59447,2.24988 1.59908,2.83753c1.00461,0.58765 2.2472,0.58765 3.25181,0c1.00461,-0.58765 1.61566,-1.67199 1.59933,-2.83753v-3.14428c0.01365,-0.87464 -0.32723,-1.71783 -0.94438,-2.33645c-0.61715,-0.61861 -1.45839,-0.95999 -2.33132,-0.94633zM16.08373,64.62881c0.00002,0.85733 -0.33976,1.6793 -0.94458,2.28548c-0.60484,0.60618 -1.42515,0.94682 -2.28053,0.94682c-0.85536,0 -1.6757,-0.34064 -2.28051,-0.94682c-0.60481,-0.60618 -0.9446,-1.42815 -0.94458,-2.28548c-0.00002,-0.85733 0.33976,-1.6793 0.94458,-2.28548c0.60481,-0.60618 1.42515,-0.94682 2.28051,-0.94682c0.85538,0 1.6757,0.34064 2.28053,0.94682c0.60481,0.60618 0.9446,1.42815 0.94458,2.28548zM177.47764,61.43796c-1.16335,-0.01707 -2.24574,0.59521 -2.83241,1.60225c-0.58667,1.00705 -0.58667,2.25281 0,3.25986c0.58667,1.00705 1.66906,1.61932 2.83241,1.60225h3.12453c1.16335,0.01707 2.24574,-0.59521 2.83241,-1.60225c0.58667,-1.00705 0.58667,-2.25281 0,-3.25986c-0.58667,-1.00705 -1.66906,-1.61932 -2.83241,-1.60225zM193.6033,61.43796c-1.16359,-0.01707 -2.24598,0.59521 -2.83265,1.60225c-0.58667,1.00705 -0.58667,2.25281 0,3.25986c0.58667,1.00705 1.66906,1.61932 2.83265,1.60225h3.12428c1.16335,0.01707 2.24574,-0.59521 2.83241,-1.60225c0.58667,-1.00705 0.58667,-2.25281 0,-3.25986c-0.58667,-1.00705 -1.66906,-1.61932 -2.83241,-1.60225zM187.05214,67.90232c-0.85514,0.01341 -1.67028,0.36673 -2.26573,0.98242c-0.59521,0.61569 -0.92219,1.44303 -0.90878,2.30036v3.14428c-0.01658,1.16554 0.59447,2.24988 1.59908,2.83753c1.00461,0.58765 2.2472,0.58765 3.25181,0c1.00461,-0.58765 1.61566,-1.67199 1.59933,-2.83753v-3.14428c0.01365,-0.87464 -0.32723,-1.71783 -0.94438,-2.33645c-0.61715,-0.61861 -1.45839,-0.95999 -2.33132,-0.94633zM77.33942,148.00153c-0.03389,0.0968 -0.07242,0.19214 -0.11558,0.28529c0,0 -8.1227,19.24654 -10.48572,28.61353c-1.27624,5.05645 -2.43154,16.94886 -2.43154,16.94886c-0.10192,1.1492 -0.81368,2.15454 -1.86584,2.63612c-1.0524,0.48158 -2.28451,0.36551 -3.23011,-0.30431c-0.94584,-0.66958 -1.46058,-1.79074 -1.34988,-2.93897c0,0 0.99656,-11.6003 2.59272,-17.9386c2.66148,-10.55058 10.54814,-28.90248 10.70273,-29.26311h0.00219c1.36549,-4.29763 1.2187,-8.97515 -0.33918,-13.27521l-6.0613,-16.75647c-0.05608,-0.16069 -0.09924,-0.32528 -0.12899,-0.49255l-5.08302,-26.973c-0.43281,-2.29694 -1.12116,-3.24181 -1.95874,-3.92309c-0.78857,-0.64129 -2.03409,-1.06557 -3.6678,-1.41182c-1.23918,-0.07315 -2.01678,0.1463 -2.70586,0.83392c-0.72005,0.70225 -1.45497,2.09944 -1.69857,4.56341l0.23994,35.58898c0.0495,1.18017 -0.55375,2.29109 -1.57202,2.89508c-1.01826,0.60374 -2.28841,0.60374 -3.3096,0c-1.02143,-0.60398 -1.63029,-1.71491 -1.58665,-2.89508l-0.23725,-35.89353c-0.0078,-0.10948 -0.01,-0.21945 -0.00634,-0.32918c0.33918,-3.531 1.51033,-6.49923 3.60391,-8.55502c2.09456,-2.05555 5.05255,-2.93994 7.9108,-2.7022c0.11826,0.0178 0.23579,0.04243 0.35137,0.07315c2.24598,0.43891 4.65997,1.14603 6.75501,2.84899c2.09505,1.70442 3.59489,4.35883 4.23106,7.73719l5.03767,26.72258l5.96376,16.5102c2.0197,5.58508 2.23672,11.69905 0.4194,17.40142zM110.50368,148.00153c0.03414,0.0968 0.07266,0.19214 0.11558,0.28529c0,0 8.12294,19.24654 10.48596,28.61353c1.276,5.05645 2.43154,16.94886 2.43154,16.94886c0.10192,1.1492 0.81368,2.15454 1.86584,2.63612c1.0524,0.48158 2.28451,0.36551 3.23011,-0.30431c0.94584,-0.66958 1.46058,-1.79074 1.34988,-2.93897c0,0 -0.99656,-11.6003 -2.59272,-17.9386c-2.66148,-10.55058 -10.54839,-28.90248 -10.70273,-29.26311h-0.00219c-1.36549,-4.29763 -1.2187,-8.97515 0.33918,-13.27521l6.0613,-16.75647c0.05608,-0.16069 0.09924,-0.32528 0.12899,-0.49255l5.08302,-26.97275c0.43281,-2.29694 1.12141,-3.24181 1.95874,-3.92309c0.78881,-0.64129 2.03433,-1.06557 3.6678,-1.41182c1.23918,-0.07315 2.01702,0.1463 2.70586,0.83392c0.72005,0.70225 1.45522,2.09944 1.69881,4.56341l-0.23994,35.58898c-0.04974,1.18017 0.55351,2.29109 1.57177,2.89508c1.01826,0.60398 2.28841,0.60398 3.30984,0c1.02119,-0.60398 1.63005,-1.71491 1.5864,-2.89508l0.23725,-35.89353c0.0078,-0.10948 0.01,-0.21945 0.00658,-0.32918c-0.33942,-3.531 -1.51057,-6.49923 -3.60391,-8.55502c-2.0948,-2.05555 -5.05279,-2.93994 -7.9108,-2.7022c-0.1185,0.0178 -0.23579,0.04243 -0.35161,0.07315c-2.24598,0.43891 -4.65972,1.14603 -6.75477,2.84899c-2.09505,1.70442 -3.59513,4.35883 -4.23106,7.73719l-5.03791,26.72258l-5.96376,16.5102c-2.0197,5.58508 -2.23672,11.69905 -0.41916,17.40142zM93.92179,96.99548c0,1.78513 -1.444,3.23206 -3.22499,3.23206c-1.78123,0 -3.22499,-1.44693 -3.22523,-3.23206c0,-0.85733 0.33991,-1.6793 0.94462,-2.28548c0.60496,-0.60618 1.42523,-0.94682 2.28061,-0.94682c0.85538,0 1.67565,0.34064 2.28036,0.94682c0.60496,0.60618 0.94462,1.42815 0.94462,2.28548zM193.50821,100.22753c0,0.85733 -0.33991,1.6793 -0.94462,2.28548c-0.60496,0.60618 -1.42523,0.94682 -2.28061,0.94682c-0.85538,0 -1.67565,-0.34064 -2.28036,-0.94682c-0.60496,-0.60618 -0.94462,-1.42815 -0.94462,-2.28548c0,-1.78513 1.444,-3.23206 3.22499,-3.23206c1.78123,0 3.22499,1.44693 3.22523,3.23206zM106.38625,113.11237c0,0.85733 -0.33966,1.6793 -0.94462,2.28548c-0.60472,0.60618 -1.42498,0.94682 -2.28036,0.94682c-0.85538,0 -1.67589,-0.34064 -2.28061,-0.94682c-0.60496,-0.60618 -0.94462,-1.42815 -0.94462,-2.28548c0,-1.78513 1.444,-3.23206 3.22523,-3.23206c1.78098,0 3.22499,1.44693 3.22499,3.23206z" fill-rule="evenodd"></path></svg>