<svg width="100%" viewBox="0 0 200 200" version="1.1" xmlns="http://www.w3.org/2000/svg" xmlns:xlink="http://www.w3.org/1999/xlink"><path d="M100,200c-55.2284,0 -100,-44.7716 -100,-100c0,-55.2284 44.7716,-100 100,-100c55.2284,0 100,44.7716 100,100c-0.0679,55.20025 -44.79975,99.9321 -100,100zM100,12.34568c-48.41012,0 -87.65432,39.2442 -87.65432,87.65432c0,48.41012 39.2442,87.65432 87.65432,87.65432c48.41012,0 87.65432,-39.2442 87.65432,-87.65432c-0.05432,-48.38765 -39.26667,-87.6 -87.65432,-87.65432zM64.64198,110.61728c-9.80593,0.02025 -19.21259,-3.88296 -26.12346,-10.83951l8.74074,-8.74074c9.63062,9.57333 25.1842,9.57333 34.81481,0l8.74074,8.74074c-6.92296,6.96889 -16.34988,10.87309 -26.17284,10.83951zM135.50617,110.74074c-9.79753,0.03926 -19.20716,-3.82593 -26.14815,-10.74074l8.74074,-8.74074c9.63062,9.57333 25.1842,9.57333 34.81481,0l8.81481,8.74074c-6.95901,6.93309 -16.39901,10.79975 -26.22222,10.74074zM100,162.59259c-19.99407,-0.02494 -38.79926,-9.50099 -50.71605,-25.55556l9.87654,-7.40741c9.54123,12.94074 24.66296,20.57901 40.74074,20.57901c16.07778,0 31.19951,-7.63827 40.74074,-20.57901l9.87654,7.40741c-11.87259,16.00198 -30.59309,25.4721 -50.51852,25.55556z" fill-rule="evenodd"></path></svg>