<svg width="100%" viewBox="0 0 200 200" version="1.1" xmlns="http://www.w3.org/2000/svg" xmlns:xlink="http://www.w3.org/1999/xlink"><path d="M102.36842,0h-5.26316v24.73684h5.26316zM132.91342,5.40421l-5.00632,-1.62421l-7.63368,23.52974l5.00632,1.62421zM79.47211,27.55395l-7.64605,-23.52474l-5.00526,1.62684l7.64605,23.52474zM159.99921,19.97816l-4.25684,-3.09526l-14.54789,20.00737l4.25684,3.09526zM58.55474,37.47053l-14.54026,-20.01211l-4.25789,3.09368l14.54026,20.01211zM100,37.36842c-34.73684,0 -62.89474,27.36842 -62.89474,61.31579c0,22.89474 12.89474,43.42105 33.68421,54.21053v11.57895c0,10.78947 7.36842,20 17.36842,22.89474c1.05263,7.10526 7.10526,12.63158 14.73684,12.63158c7.63158,0 14.21053,-6.05263 14.73684,-13.68421c8.68421,-3.68421 14.47368,-12.10526 14.47368,-21.84211v-12.89474c19.21053,-11.05263 31.05263,-31.31579 31.05263,-52.89474c0,-33.68421 -28.42105,-61.31579 -63.15789,-61.31579zM161.19974,56.90447l20.01211,-14.54053l-3.09368,-4.25789l-20.01211,14.54053zM41.53079,53.22342l-20.01211,-14.54026l-3.09368,4.25789l20.01211,14.54026zM128.15789,147.63158l-1.31579,0.78947v15.78947c0,10.26316 -8.15789,18.42105 -18.42105,18.42105h-13.94737c-10.26316,0 -18.42105,-8.15789 -18.42105,-18.42105v-14.73684l-1.57895,-0.78947c-19.73684,-9.47368 -32.10526,-28.68421 -32.10526,-50c0,-30.78947 25.78947,-56.05263 57.63158,-56.05263c31.84211,0 57.89474,25.26316 57.89474,56.05263c0,20.26316 -11.31579,38.94737 -29.73684,48.94737zM99.21053,56.57895v-5.26316c26.31579,0 47.89474,21.57895 47.89474,47.89474h-5.26316c0,-23.42105 -19.21053,-42.63158 -42.63158,-42.63158zM193.05158,65.22684l-23.52474,7.64605l1.62684,5.00526l23.52474,-7.64605zM5.37842,70.96605l23.52737,7.64368l1.62632,-5.00579l-23.52737,-7.64368zM198.68421,95.52632h-24.73684v5.26316h24.73684zM26.05263,96.31579h-24.73684v5.26316h24.73684zM102.63158,194.47368c-4.21053,0 -7.63158,-2.63158 -8.94737,-6.57895h14.47368c1.05263,0 2.36842,0 3.42105,-0.26316c-1.05263,3.94737 -4.47368,6.84211 -8.94737,6.84211z" fill-rule="evenodd"></path></svg>