<svg width="100%" viewBox="0 0 200 200" version="1.1" xmlns="http://www.w3.org/2000/svg" xmlns:xlink="http://www.w3.org/1999/xlink"><path d="M3.34427,73.3347h16.66575v9.99945h-3.33315c-7.3634,0 -13.3326,5.96934 -13.3326,13.3326v3.33315c0,1.8409 1.49232,3.33315 3.33315,3.33315h33.3315c1.8409,0 3.33315,-1.49225 3.33315,-3.33315v-3.33315c0,-7.36326 -5.96934,-13.3326 -13.3326,-13.3326h-3.33315v-9.99945h16.66575c1.2196,0 2.34154,-0.66596 2.92584,-1.73624c0.58397,-1.07061 0.53697,-2.37454 -0.12266,-3.40015l-10.98273,-17.08573h2.79651c1.17694,-0.00033 2.26654,-0.6213 2.86651,-1.63391c0.59997,-1.01261 0.62163,-2.26654 0.05666,-3.29915l-7.03961,-12.84263h0.26999c1.10827,0 2.14422,-0.55097 2.76351,-1.46992c0.61963,-0.91895 0.74196,-2.08589 0.32632,-3.11316l-10.76941,-26.6652c-0.50937,-1.259 -1.7317,-2.08302 -3.08983,-2.08302c-1.35813,0 -2.58046,0.82402 -3.08983,2.08302l-10.76941,26.6652c-0.41561,1.02728 -0.29335,2.19421 0.32618,3.11316c0.61957,0.91895 1.65534,1.46992 2.76365,1.46992h0.26999l-7.03961,12.84263c-0.56497,1.03261 -0.54347,2.28654 0.05656,3.29915c0.6,1.01261 1.68961,1.63358 2.86661,1.63391h2.79651l-10.98273,17.08573c-0.65973,1.02561 -0.70673,2.32954 -0.12253,3.40015c0.58417,1.07027 1.70627,1.73624 2.92571,1.73624zM156.66917,73.3347h16.66575v9.99945h-3.33315c-7.36326,0 -13.3326,5.96934 -13.3326,13.3326v3.33315c0,1.8409 1.49225,3.33315 3.33315,3.33315h33.3315c1.8409,0 3.33315,-1.49225 3.33315,-3.33315v-3.33315c0,-7.36326 -5.96934,-13.3326 -13.3326,-13.3326h-3.33315v-9.99945h16.66575c1.2196,0 2.34154,-0.66596 2.92584,-1.73624c0.58397,-1.07061 0.53697,-2.37454 -0.12266,-3.40015l-10.9994,-17.08573h2.79651c1.17694,-0.00033 2.26654,-0.6213 2.86651,-1.63391c0.6003,-1.01261 0.62163,-2.26654 0.05666,-3.29915l-7.02295,-12.84263h0.26999c1.10827,0 2.14422,-0.55097 2.76351,-1.46992c0.61963,-0.91895 0.74196,-2.08589 0.32632,-3.11316l-10.76941,-26.6652c-0.50931,-1.259 -1.73157,-2.08302 -3.08983,-2.08302c-1.35826,0 -2.58052,0.82402 -3.08983,2.08302l-10.76941,26.6652c-0.41564,1.02728 -0.29332,2.19421 0.32632,3.11316c0.6193,0.91895 1.65524,1.46992 2.76351,1.46992h0.26999l-7.03961,12.84263c-0.56497,1.03261 -0.5433,2.28654 0.05666,3.29915c0.59997,1.01261 1.68957,1.63358 2.86651,1.63391h2.79651l-10.9994,17.08573c-0.6613,1.02794 -0.70696,2.33587 -0.11866,3.40748c0.5883,1.07127 1.71624,1.7349 2.93851,1.7289zM40.00892,143.33085v53.3304c0,1.8409 1.49225,3.33315 3.33315,3.33315h113.3271c1.8409,0 3.33315,-1.49225 3.33315,-3.33315v-53.3304c-0.03766,-21.44182 -15.7418,-39.63649 -36.94797,-42.80765c15.09384,-8.55153 24.183,-24.7843 23.58504,-42.12202c-0.5983,-17.33771 -10.78441,-32.90569 -26.43155,-40.39678c0.95028,-4.65518 5.04506,-7.99893 9.79613,-7.99956v-6.6663c-7.44459,0.0253 -13.96623,4.99253 -15.96912,12.16266c-9.1305,-2.88427 -18.92796,-2.88427 -28.05846,0c-2.00289,-7.17014 -8.52453,-12.13737 -15.96912,-12.16266v6.6663c4.75107,0.00063 8.84585,3.34438 9.79613,7.99956c-15.64914,7.49045 -25.83658,23.0594 -26.43455,40.39845c-0.59797,17.33871 8.4922,33.57282 23.58804,42.12368c-21.20483,3.17083 -36.90864,21.36383 -36.94797,42.80431zM20.43333,49.58267c0.65973,-1.02561 0.70673,-2.32954 0.12253,-3.40015c-0.58417,-1.07027 -1.70627,-1.73624 -2.92571,-1.73624h-3.28649l7.05295,-12.84263c0.56497,-1.03261 0.54347,-2.28654 -0.05656,-3.29915c-0.6,-1.01261 -1.68961,-1.63358 -2.86661,-1.63391h-0.95995l5.82968,-14.43254l5.82968,14.43254h-0.95995c-1.17694,0.00033 -2.26661,0.6213 -2.86661,1.63391c-0.60003,1.01261 -0.62153,2.26654 -0.05656,3.29915l7.05295,12.84263h-3.27315c-1.2196,0 -2.34154,0.66596 -2.92571,1.73624c-0.5842,1.07061 -0.5372,2.37454 0.12253,3.40015l10.9694,17.08573h-27.78514zM173.75823,49.58267c0.65963,-1.02561 0.70663,-2.32954 0.12266,-3.40015c-0.5843,-1.07027 -1.70624,-1.73624 -2.92584,-1.73624h-3.28649l7.03961,-12.84263c0.56397,-1.03061 0.54364,-2.28154 -0.053,-3.29349c-0.59697,-1.01161 -1.68224,-1.63458 -2.85684,-1.63958h-0.95995l5.82968,-14.43254l5.82968,14.43254h-0.95995c-1.17694,0.00033 -2.26654,0.6213 -2.86651,1.63391c-0.59997,1.01261 -0.62163,2.26654 -0.05666,3.29915l7.05295,12.84263h-3.27315c-1.2196,0 -2.34154,0.66596 -2.92584,1.73624c-0.58397,1.07061 -0.53697,2.37454 0.12266,3.40015l10.9694,17.08573h-27.78514zM60.00782,60.0021c0,-22.09012 17.90768,-39.9978 39.9978,-39.9978c22.09012,0 39.9978,17.90768 39.9978,39.9978c0,22.09012 -17.90768,39.9978 -39.9978,39.9978c-22.08012,-0.024 -39.9738,-17.91768 -39.9978,-39.9978zM83.33987,46.6695c3.61313,0 6.6663,4.57975 6.6663,9.99945h6.6663c0,-9.18949 -5.97967,-16.66575 -13.3326,-16.66575c-7.35293,0 -13.3326,7.47626 -13.3326,16.66575h6.6663c0,-5.4197 3.05317,-9.99945 6.6663,-9.99945zM116.67137,46.6695c3.61313,0 6.6663,4.57975 6.6663,9.99945h6.6663c0,-9.18949 -5.97967,-16.66575 -13.3326,-16.66575c-7.35293,0 -13.3326,7.47626 -13.3326,16.66575h6.6663c0,-5.4197 3.05317,-9.99945 6.6663,-9.99945zM123.33767,70.00155c0,-1.8409 -1.49225,-3.33315 -3.33315,-3.33315h-39.9978c-1.8409,0 -3.33315,1.49225 -3.33315,3.33315c0,12.88596 10.44609,23.33205 23.33205,23.33205c12.88596,0 23.33205,-10.44609 23.33205,-23.33205zM116.33806,73.3347c-1.57725,7.76724 -8.40654,13.34927 -16.33244,13.34927c-7.9259,0 -14.75519,-5.58203 -16.33244,-13.34927zM10.01057,96.66675c0,-3.6818 2.9846,-6.6663 6.6663,-6.6663h13.3326c3.6818,0 6.6663,2.9845 6.6663,6.6663zM163.33547,96.66675c0,-3.6818 2.9845,-6.6663 6.6663,-6.6663h13.3326c3.6818,0 6.6663,2.9845 6.6663,6.6663zM116.67137,106.6662c20.23955,0.024 36.64065,16.4251 36.66465,36.66465v49.99725h-106.6608v-49.99725c0.024,-20.23955 16.4251,-36.64065 36.66465,-36.66465zM97.67241,185.72185c1.2926,1.25293 3.34682,1.25293 4.63974,0l31.45494,-30.52166c3.97545,-3.81746 6.22232,-9.09083 6.22232,-14.60253c0,-5.5117 -2.24688,-10.78507 -6.22232,-14.60253c-8.33588,-7.97156 -21.46915,-7.97156 -29.80503,0l-3.95645,3.85312l-3.96978,-3.84979c-8.33588,-7.97156 -21.46915,-7.97156 -29.80503,0c-3.97545,3.81746 -6.22232,9.09083 -6.22232,14.60253c0,5.5117 2.24688,10.78507 6.22232,14.60253zM70.87389,130.78154c5.73968,-5.48936 14.78252,-5.48936 20.52221,0l6.27632,6.103c1.2926,1.25293 3.34682,1.25293 4.63974,0l6.28965,-6.103c5.73802,-5.4927 14.78419,-5.4927 20.52221,0c2.68185,2.56086 4.19944,6.10766 4.19944,9.81613c0,3.70846 -1.51758,7.25527 -4.19944,9.81613l-29.1184,28.26845l-29.13173,-28.26845c-2.68185,-2.56086 -4.19944,-6.10766 -4.19944,-9.81613c0,-3.70846 1.51758,-7.25527 4.19944,-9.81613zM33.16929,152.45702c-0.39831,-1.18727 -1.42825,-2.05122 -2.66652,-2.23654l-7.45292,-1.1366l-3.36648,-7.16961c-0.54947,-1.16894 -1.72484,-1.91523 -3.0165,-1.91523c-1.29166,0 -2.46703,0.74629 -3.0165,1.91523l-3.36648,7.16961l-7.45292,1.1366c-1.2353,0.18832 -2.26151,1.05161 -2.65832,2.23654c-0.39684,1.18493 -0.09763,2.4922 0.77509,3.38648l5.49303,5.62636l-1.30326,7.99956c-0.20546,1.25993 0.32672,2.52653 1.37042,3.26149c1.04371,0.73529 2.41557,0.80962 3.53264,0.19166l6.6363,-3.67313l6.6263,3.66647c1.11754,0.61763 2.48966,0.54264 3.53314,-0.19332c1.04294,-0.73496 1.57491,-2.00056 1.36992,-3.25982l-1.30326,-7.99956l5.49303,-5.62636c0.86962,-0.89328 1.16794,-2.19721 0.77329,-3.37981zM199.8268,152.45702c-0.39831,-1.18727 -1.42825,-2.05122 -2.66652,-2.23654l-7.45292,-1.1366l-3.36648,-7.16961c-0.54964,-1.16894 -1.72491,-1.91523 -3.0165,-1.91523c-1.2916,0 -2.46686,0.74629 -3.0165,1.91523l-3.36648,7.16961l-7.45292,1.1366c-1.23527,0.18832 -2.26154,1.05161 -2.65819,2.23654c-0.39698,1.18493 -0.09766,2.4922 0.77496,3.38648l5.49303,5.62636l-1.30326,7.99956c-0.20532,1.25993 0.32665,2.52653 1.37059,3.26149c1.04361,0.73529 2.41553,0.80962 3.53247,0.19166l6.6363,-3.67313l6.6263,3.66647c1.11761,0.61763 2.48953,0.54264 3.53314,-0.19332c1.04294,-0.73496 1.57491,-2.00056 1.36992,-3.25982l-1.30326,-7.99956l5.49303,-5.62636c0.86962,-0.89328 1.16794,-2.19721 0.77329,-3.37981zM20.95663,158.02004c-0.73923,0.75796 -1.07451,1.8219 -0.90328,2.86651l0.46997,2.86984l-2.23321,-1.23327c-1.00384,-0.5553 -2.22264,-0.5553 -3.22649,0l-2.23321,1.23327l0.46997,-2.86984c0.17122,-1.04461 -0.16406,-2.10855 -0.90328,-2.86651l-2.13655,-2.18988l2.79985,-0.42664c1.09881,-0.16832 2.04135,-0.87329 2.5132,-1.8799l1.10327,-2.33321l1.10327,2.33321c0.47184,1.00661 1.41439,1.71157 2.5132,1.8799l2.79985,0.42664zM187.61414,158.02004c-0.73929,0.75796 -1.07461,1.8219 -0.90328,2.86651l0.46997,2.86984l-2.23321,-1.23327c-1.00394,-0.5553 -2.22254,-0.5553 -3.22649,0l-2.23321,1.23327l0.46997,-2.86984c0.17132,-1.04461 -0.16399,-2.10855 -0.90328,-2.86651l-2.13655,-2.18988l2.79985,-0.42664c1.09894,-0.16832 2.04122,-0.87329 2.5132,-1.8799l1.10327,-2.33321l1.10327,2.33321c0.47197,1.00661 1.41426,1.71157 2.5132,1.8799l2.79985,0.42664z" fill-rule="evenodd"></path></svg>