<svg width="100%" viewBox="0 0 200 200" version="1.1" xmlns="http://www.w3.org/2000/svg" xmlns:xlink="http://www.w3.org/1999/xlink"><path d="M9.307,32.8141c0.48829,-5.581 1.63194,-18.65118 7.023,-18.75255h0.03047c1.73564,0 2.74972,2.73966 2.9755,4.42739c0.09156,0.81704 3.67129,35.90743 5.55116,54.34779c0.17547,1.71736 1.7083,2.95644 3.42566,2.79237c1.71736,-0.17547 2.96706,-1.70893 2.79237,-3.42566c-2.05987,-20.20429 -5.52225,-54.14857 -5.56803,-54.48967c-0.63923,-4.79293 -3.7766,-9.9023 -9.16526,-9.9023c-0.05188,0 -0.10531,0 -0.1586,0.00153c-11.01017,0.20599 -12.39111,15.98146 -13.13269,24.45624c-0.0763,0.86907 -0.1442,1.65252 -0.21592,2.31862c-0.60501,5.65428 -2.6871,32.83583 -2.85037,43.40955c-0.25559,16.43534 2.91446,29.24142 9.69096,39.15215c4.04362,5.91428 9.02493,11.14966 13.84217,16.21112c5.77319,6.06694 11.22606,11.79669 15.22079,18.60521c1.30158,2.21409 2.75128,5.56037 2.31549,8.98166l-0.25782,1.20783h-0.60657c-6.67195,0 -12.08201,5.70319 -12.08513,12.73764l-0.00984,17.29551h65.61589l0.00984,-17.26269c0.00313,-7.03914 -5.40553,-12.74389 -12.07982,-12.74702h-0.42954l-0.04266,-22.36978c0.01141,-0.78126 0.12891,-19.30256 -13.37827,-33.08896l-0.63938,-0.65313c-4.13442,-4.22208 -8.40916,-8.58853 -12.6878,-12.81983c-0.35938,-0.35625 -0.82095,-0.8461 -1.36564,-1.42439c-3.96051,-4.19848 -11.36419,-12.02935 -18.31989,-11.68076c-2.66425,0.12672 -5.01115,1.40158 -6.78726,3.68504c-4.63865,5.96319 3.13957,18.22692 12.99155,32.45583c1.48533,2.14534 2.76862,3.99942 3.27535,4.89209c0.85063,1.49986 2.758,2.02784 4.25942,1.17486c1.50158,-0.85142 2.02799,-2.75878 1.17579,-4.26036c-0.64391,-1.13517 -1.87236,-2.90988 -3.57223,-5.3635c-12.39561,-17.90332 -14.01078,-23.52167 -13.19671,-25.06122c0.84313,-1.08345 1.59236,-1.25361 2.15159,-1.28033c4.08708,-0.16703 10.67434,6.7582 13.47593,9.72761c0.60423,0.64016 1.11689,1.18267 1.51674,1.57783c4.24348,4.19692 8.49994,8.54494 12.61686,12.7503l0.64016,0.65313c11.64107,11.8806 11.59607,28.46407 11.59372,28.6761l0.04266,22.40634l-27.77422,-0.01719l0.00531,-0.02344c0.01516,-0.075 0.02891,-0.15 0.03891,-0.225c0.57438,-4.14426 -0.49907,-8.67916 -3.103,-13.1089c-4.35864,-7.42805 -10.31886,-13.69187 -16.08284,-19.7496c-4.64646,-4.8813 -9.45073,-9.93058 -13.21051,-15.42986c-6.02194,-8.80744 -8.83569,-20.42804 -8.60147,-35.52743c0.16174,-10.42043 2.21865,-37.25401 2.8168,-42.8411c0.07478,-0.7011 0.14725,-1.52517 0.22736,-2.43909zM197.13561,34.58787c0.60469,5.65428 2.68753,32.83583 2.85003,43.41017c0.25625,16.43471 -2.91409,29.24079 -9.69073,39.15153c-4.0438,5.91428 -9.0251,11.14966 -13.84234,16.21112c-5.7735,6.06694 -11.22513,11.79669 -15.21892,18.60224c-1.30314,2.21706 -2.75316,5.56334 -2.31721,8.98463l0.25782,1.20783h0.60626c6.67195,0 12.08295,5.70319 12.08607,12.73764l0.00938,17.29551h-65.61589l-0.00984,-17.26269c-0.00313,-7.03914 5.40553,-12.74389 12.07982,-12.74702h0.42954l0.04266,-22.42166c-0.01141,-0.72938 -0.12891,-19.25068 13.37906,-33.03709l0.6386,-0.65313c4.13442,-4.22208 8.40916,-8.58853 12.68858,-12.82061c0.3586,-0.35547 0.82017,-0.84532 1.36486,-1.42361c3.96129,-4.19848 11.34622,-12.00732 18.31974,-11.68076c2.66409,0.12672 5.01099,1.40158 6.78758,3.68504c4.63911,5.96319 -3.1391,18.22692 -12.99233,32.45583c-1.48439,2.14534 -2.768,3.99942 -3.27457,4.89209c-0.85157,1.50142 -2.75737,2.02784 -4.25958,1.17486c-1.50158,-0.85142 -2.02799,-2.75878 -1.17579,-4.26036c0.64391,-1.13517 1.87236,-2.90988 3.57223,-5.3635c12.39561,-17.90332 14.01125,-23.52167 13.18155,-25.08184c-0.82813,-1.06282 -1.57658,-1.23298 -2.13596,-1.2597c-4.10317,-0.16625 -10.67559,6.7582 -13.4764,9.72761c-0.60423,0.64016 -1.11689,1.18267 -1.51595,1.57705c-4.24427,4.1977 -8.50072,8.54572 -12.61764,12.75108l-0.63938,0.65313c-11.70591,11.94623 -11.59747,28.45797 -11.5945,28.62423l-0.04266,22.45822l27.77437,-0.01719l-0.00547,-0.02344c-0.01516,-0.075 -0.02891,-0.15 -0.03891,-0.225c-0.57438,-4.14426 0.49907,-8.67916 3.10441,-13.11186c4.35677,-7.42508 10.31777,-13.6889 16.0819,-19.74663c4.64536,-4.8813 9.45011,-9.93058 13.20952,-15.42986c6.02194,-8.80744 8.83604,-20.42804 8.60166,-35.52665c-0.16094,-10.42121 -2.21877,-37.25479 -2.81722,-42.84188c-0.07344,-0.7011 -0.14688,-1.52517 -0.22657,-2.43909c-0.48907,-5.581 -1.63283,-18.65118 -7.02352,-18.75255c-1.77189,0.02431 -2.77972,2.73059 -3.01097,4.47927c-0.08594,0.76516 -3.66567,35.85556 -5.54537,54.29592c-0.175,1.71736 -1.71877,2.95644 -3.4266,2.79237c-1.71721,-0.17547 -2.96722,-1.70893 -2.79222,-3.42566c2.06096,-20.20429 5.5235,-54.14857 5.56881,-54.48889c0.63907,-4.79371 3.7766,-9.90308 9.16416,-9.90308c0.05313,0 0.10469,0 0.15938,0.00153c11.0095,0.20599 12.39076,15.98146 13.13296,24.45624c0.07656,0.86907 0.14375,1.65252 0.21563,2.31862zM138.6298,25.38526c10.92997,6.03788 17.18082,18.02848 15.89221,30.50034c-1.43064,13.83219 -12.61155,25.93638 -23.0876,34.17851c-8.57713,6.75211 -25.15747,18.52661 -30.04565,21.98134c-0.38297,0.27157 -0.88579,0.40735 -1.38861,0.40735c-0.50204,0 -1.00564,-0.13578 -1.38861,-0.40735c-4.88818,-3.45473 -21.46852,-15.22923 -30.04565,-21.98134c-10.47605,-8.24212 -21.65696,-20.34632 -23.0876,-34.17851c-1.28861,-12.47186 4.96224,-24.46246 15.89158,-30.50034c3.65442,-2.01799 8.33369,-3.51113 13.3989,-3.51113c8.32291,0.00078 17.68582,4.03364 25.23137,16.39659c7.54633,-12.36358 16.90769,-16.39659 25.23137,-16.39659c5.06459,0 9.74526,1.49314 13.39827,3.51113zM72.43031,85.15233c7.47305,5.88225 21.10227,15.62892 27.56984,20.21882c6.47507,-4.59599 20.09835,-14.33735 27.56843,-20.21819c7.1732,-5.6435 19.40475,-17.03269 20.73617,-29.91049c1.03142,-9.98324 -3.95208,-19.556 -12.69702,-24.38621c-3.1891,-1.76158 -6.87492,-2.73206 -10.37621,-2.73206c-7.77431,0 -14.46844,4.50974 -19.89678,13.40265c-1.13454,1.8594 -3.15644,2.99394 -5.33459,2.99394c-2.17815,0 -4.20005,-1.13454 -5.33459,-2.99394c-5.42834,-8.89291 -12.12248,-13.40187 -19.89678,-13.40265c-3.50129,0 -7.18711,0.97048 -10.37777,2.73206c-8.74338,4.83099 -13.72687,14.40297 -12.69545,24.38699c1.33142,12.87702 13.56296,24.26621 20.73476,29.90908zM62.55614,41.98701c2.46972,-3.48066 6.22944,-5.62381 10.58668,-6.03647c1.70752,-0.1625 3.24254,1.09861 3.40582,2.81675c0.1625,1.71814 -1.09861,3.24332 -2.81675,3.40582c-2.59175,0.24485 -4.63724,1.39923 -6.07851,3.43098c-2.00424,2.82363 -2.55956,7.10758 -1.4847,11.45872c0.4136,1.67549 -0.60954,3.36926 -2.28503,3.78348c-0.25172,0.06172 -0.50344,0.09156 -0.75141,0.09156c-1.40392,0 -2.68019,-0.95298 -3.03191,-2.37659c-1.52674,-6.18288 -0.6311,-12.22389 2.45581,-16.57425zM68.7498,70.31217c0.1024,0 0.20448,-0.005 0.30625,-0.015c0.10188,-0.0101 0.20302,-0.0251 0.30344,-0.045c0.10031,-0.02 0.19948,-0.04484 0.2975,-0.07453c0.09792,-0.02969 0.19417,-0.06412 0.28875,-0.10328c0.09448,-0.03917 0.18688,-0.08292 0.27719,-0.13125c0.09021,-0.04823 0.17787,-0.10078 0.26297,-0.15766c0.08511,-0.05677 0.16724,-0.11766 0.24641,-0.18266c0.07906,-0.0649 0.15479,-0.13354 0.22719,-0.20594c0.0724,-0.0724 0.14104,-0.14813 0.20594,-0.22719c0.065,-0.07917 0.12589,-0.1613 0.18266,-0.24641c0.05688,-0.08511 0.10943,-0.17276 0.15766,-0.26297c0.04833,-0.09031 0.09208,-0.18271 0.13125,-0.27719c0.03917,-0.09458 0.07359,-0.19084 0.10328,-0.28875c0.02969,-0.09802 0.05453,-0.19719 0.07453,-0.2975c0.0199,-0.10042 0.0349,-0.20156 0.045,-0.30344c0.01,-0.10177 0.015,-0.20386 0.015,-0.30625c0,-0.1024 -0.005,-0.20448 -0.015,-0.30625c-0.0101,-0.10188 -0.0251,-0.20302 -0.045,-0.30344c-0.02,-0.10031 -0.04484,-0.19948 -0.07453,-0.2975c-0.02969,-0.09792 -0.06412,-0.19417 -0.10328,-0.28875c-0.03917,-0.09448 -0.08292,-0.18688 -0.13125,-0.27719c-0.04823,-0.09021 -0.10078,-0.17787 -0.15766,-0.26297c-0.05677,-0.08511 -0.11766,-0.16724 -0.18266,-0.24641c-0.0649,-0.07906 -0.13354,-0.15479 -0.20594,-0.22719c-0.0724,-0.0724 -0.14813,-0.14104 -0.22719,-0.20594c-0.07917,-0.065 -0.1613,-0.12589 -0.24641,-0.18266c-0.08511,-0.05688 -0.17276,-0.10943 -0.26297,-0.15766c-0.09031,-0.04833 -0.18271,-0.09208 -0.27719,-0.13125c-0.09458,-0.03917 -0.19084,-0.07359 -0.28875,-0.10328c-0.09802,-0.02969 -0.19719,-0.05453 -0.2975,-0.07453c-0.10042,-0.0199 -0.20156,-0.0349 -0.30344,-0.045c-0.10177,-0.01 -0.20386,-0.015 -0.30625,-0.015c-0.1024,0 -0.20448,0.005 -0.30625,0.015c-0.10188,0.0101 -0.20302,0.0251 -0.30344,0.045c-0.10031,0.02 -0.19948,0.04484 -0.2975,0.07453c-0.09792,0.02969 -0.19417,0.06412 -0.28875,0.10328c-0.09448,0.03917 -0.18688,0.08292 -0.27719,0.13125c-0.09021,0.04823 -0.17787,0.10078 -0.26297,0.15766c-0.08511,0.05677 -0.16724,0.11766 -0.24641,0.18266c-0.07906,0.0649 -0.15479,0.13354 -0.22719,0.20594c-0.0724,0.0724 -0.14104,0.14813 -0.20594,0.22719c-0.065,0.07917 -0.12589,0.1613 -0.18266,0.24641c-0.05688,0.08511 -0.10943,0.17276 -0.15766,0.26297c-0.04833,0.09031 -0.09208,0.18271 -0.13125,0.27719c-0.03917,0.09458 -0.07359,0.19084 -0.10328,0.28875c-0.02969,0.09802 -0.05453,0.19719 -0.07453,0.2975c-0.0199,0.10042 -0.0349,0.20156 -0.045,0.30344c-0.01,0.10177 -0.015,0.20386 -0.015,0.30625c0,0.1024 0.005,0.20448 0.015,0.30625c0.0101,0.10188 0.0251,0.20302 0.045,0.30344c0.02,0.10031 0.04484,0.19948 0.07453,0.2975c0.02969,0.09792 0.06412,0.19417 0.10328,0.28875c0.03917,0.09448 0.08292,0.18688 0.13125,0.27719c0.04823,0.09021 0.10078,0.17787 0.15766,0.26297c0.05677,0.08511 0.11766,0.16724 0.18266,0.24641c0.0649,0.07906 0.13354,0.15479 0.20594,0.22719c0.0724,0.0724 0.14813,0.14104 0.22719,0.20594c0.07917,0.065 0.1613,0.12589 0.24641,0.18266c0.08511,0.05688 0.17276,0.10943 0.26297,0.15766c0.09031,0.04833 0.18271,0.09208 0.27719,0.13125c0.09458,0.03917 0.19084,0.07359 0.28875,0.10328c0.09802,0.02969 0.19719,0.05453 0.2975,0.07453c0.10042,0.0199 0.20156,0.0349 0.30344,0.045c0.10177,0.01 0.20386,0.015 0.30625,0.015zM81.66729,168.42889c3.21816,0.00156 5.83428,2.91409 5.83272,6.49382l-0.00609,11.01575h-53.11575l0.00609,-11.04231c0.00156,-3.57816 2.61925,-6.4907 5.83507,-6.4907h0.00156zM159.78206,168.40545h-0.00625l-41.44202,0.02344c-3.21894,0.00156 -5.83507,2.91409 -5.8335,6.49382l0.00609,11.01575h53.11637l-0.00625,-11.04231c-0.00156,-3.57816 -2.62034,-6.4907 -5.83444,-6.4907z" fill-rule="evenodd"></path></svg>