<svg width="100%" viewBox="0 0 200 200" version="1.1" xmlns="http://www.w3.org/2000/svg" xmlns:xlink="http://www.w3.org/1999/xlink"><path d="M96.55172,0h6.89655v13.7931h-6.89655zM158.51897,36.6031l9.7531,-9.7531l4.8769,4.87655l-9.75345,9.75345zM26.84931,31.72724l4.8769,-4.87655l9.7531,9.7531l-4.87655,4.87655zM160.77931,74.9931c0.81552,-0.65448 1.29,-1.64379 1.28966,-2.68966v-17.13103c-0.00034,-1.17241 -0.59621,-2.26414 -1.58207,-2.89862c-0.98586,-0.63448 -2.22655,-0.72483 -3.29379,-0.23931l-37.25172,16.93103h-8.52759c7.61586,-5.03724 11.02931,-14.47172 8.39897,-23.21586c-2.63,-8.74414 -10.68172,-14.73034 -19.81276,-14.73034c-9.13103,0 -17.18276,5.98621 -19.81276,14.73034c-2.63034,8.74414 0.7831,18.17862 8.39897,23.21586h-8.52759l-37.24138,-16.93103c-1.06828,-0.49 -2.31241,-0.40241 -3.30138,0.23276c-0.98862,0.63483 -1.58621,1.73 -1.58483,2.90517v17.13103c-0.00034,1.04586 0.47414,2.03517 1.28966,2.68966l33.1931,26.66207v18.92414l-10.25517,44.15862c-0.23759,1.02414 0.00517,2.10103 0.65897,2.92414c0.65414,0.82345 1.64828,1.30345 2.69966,1.30345h20.68966c1.48172,0 2.79793,-0.9469 3.26897,-2.35172l10.52414,-31.37241l10.52414,31.37931c0.47345,1.40207 1.78897,2.34586 3.26897,2.34483h20.68966c1.05138,0 2.04552,-0.48 2.69966,-1.30345c0.65379,-0.8231 0.89655,-1.9 0.65897,-2.92414l-10.25517,-44.15862v-18.92414zM100,37.93103c7.61759,0 13.7931,6.17552 13.7931,13.7931c0,7.61759 -6.17552,13.7931 -13.7931,13.7931c-7.61759,0 -13.7931,-6.17552 -13.7931,-13.7931c0,-7.61759 6.17552,-13.7931 13.7931,-13.7931zM120.77931,121.75517l9.36207,40.31379h-13.86897l-13.00345,-38.76552c-0.46517,-1.41517 -1.78621,-2.37138 -3.27586,-2.37138c-1.48966,0 -2.81069,0.95621 -3.27586,2.37138l-12.98966,38.76552h-13.86897l9.36207,-40.31379c0.05897,-0.25552 0.08897,-0.5169 0.08966,-0.77931v-20.97586c-0.00069,-1.04448 -0.47517,-2.03241 -1.28966,-2.68621l-33.1931,-26.66207v-10.12414l33.05517,15.02414c0.44828,0.20414 0.93517,0.31 1.42759,0.31034h41.37931c0.49241,-0.00034 0.97931,-0.10621 1.42759,-0.31034l33.05517,-15.02414v10.12414l-33.1931,26.66207c-0.81448,0.65379 -1.28862,1.64172 -1.28966,2.68621v20.97586c0.00069,0.26241 0.03069,0.52379 0.08966,0.77931zM0,96.55172h13.7931v6.89655h-13.7931zM186.2069,96.55172h13.7931v6.89655h-13.7931zM158.51966,163.39621l4.87655,-4.87655l9.7531,9.7531l-4.87655,4.87655zM26.85,168.27345l9.7531,-9.75345l4.8769,4.8769l-9.75345,9.7531zM103.44828,186.2069v13.7931h-6.89655v-13.7931z" fill-rule="evenodd"></path></svg>