<svg width="100%" viewBox="0 0 200 200" version="1.1" xmlns="http://www.w3.org/2000/svg" xmlns:xlink="http://www.w3.org/1999/xlink"><path d="M181.11308,46.38806l18.78717,51.65258c0.36425,1.38819 -0.29342,2.84317 -1.57639,3.48263l-33.39964,16.70083c0.16189,4.72715 -1.14131,8.40404 -3.91973,10.90724c-2.90792,2.6226 -6.72242,3.22361 -9.42596,3.26408c-0.53423,3.32276 -1.93862,6.0344 -4.19089,8.09241c-3.02934,2.76627 -6.88634,3.59595 -9.45429,3.81855c-0.88229,3.29241 -2.60236,5.84216 -5.12782,7.5946c-3.32479,2.31096 -7.26677,2.58212 -9.84687,2.45059c-1.27487,2.87959 -3.23372,4.27791 -4.81619,4.95784c-1.3113,0.56661 -2.69342,0.78516 -4.04924,0.78516c-4.52681,0 -8.78246,-2.45464 -9.3774,-2.81281l-0.18212,-0.11737l-6.76087,-4.74131c-0.24283,1.35177 -0.82563,3.12647 -2.20776,4.56324c-1.01383,1.0543 -2.84519,2.30894 -5.80978,2.30894c-0.45126,0 -0.93491,-0.02833 -1.44688,-0.09309c-4.89511,-0.61113 -8.26037,-3.42394 -10.15244,-5.54064c-1.15953,0.49376 -2.61652,0.90658 -4.24958,0.90658h-0.00202c-3.17504,0.00202 -7.40033,-1.52175 -10.4661,-8.30893c-0.87825,0.20641 -1.886,0.35615 -2.96256,0.35615c-3.21147,0 -8.70556,-1.35177 -10.85261,-10.01888c-2.79865,-1.14739 -8.08027,-3.86914 -10.19696,-8.68735c-1.23238,-2.8027 -1.16357,-5.89882 0.15987,-8.98077l-38.31499,-27.36525c-1.32749,-0.94907 -1.66745,-2.77639 -0.77099,-4.13828l30.36625,-46.15039c0.45936,-0.69814 1.18786,-1.17774 2.01349,-1.32142c0.82158,-0.14975 1.6715,0.05868 2.34334,0.56054c0.09106,0.06678 8.92006,6.6516 20.0236,12.37436c12.74468,-6.37234 31.67553,-8.83507 35.25327,-9.25598c1.54199,-0.61315 7.35581,-2.75818 13.41247,-2.75818c1.28297,0 2.51939,0.09713 3.67082,0.28938c6.96728,1.15953 29.18649,13.41449 35.05293,16.69881l34.60571,-13.59257c0.79325,-0.25497 1.66138,-0.17605 2.39393,0.22462c0.73052,0.40067 1.26678,1.08668 1.47723,1.8941zM138.38056,90.59175l22.74535,22.74333l32.27654,-16.13625l-17.34839,-46.16456l-32.81684,13.0118c-0.8054,0.26105 -1.68971,0.17403 -2.42833,-0.24688c-11.04283,-6.24081 -29.27148,-15.82664 -34.2273,-16.65227c-0.82361,-0.13761 -1.72209,-0.20641 -2.67319,-0.20641c-5.68229,0 -11.36458,2.40607 -11.42124,2.43035c-0.06476,0.02833 -0.12951,0.05464 -0.19629,0.0769c0.00162,0.00364 -4.34651,1.89855 -14.59628,12.59493c-5.62361,5.86846 -4.7919,8.93423 -4.57942,9.47048c1.27285,1.3801 2.83305,2.02361 4.88701,2.02361c6.26509,0 14.65092,-6.19426 17.35244,-8.5801c0.46948,-0.41282 1.05632,-0.67386 1.67757,-0.74266l10.93153,-1.21416c0.11535,-0.01214 0.22664,-0.01821 0.33794,-0.01821c1.44486,0 2.70961,1.02799 2.9828,2.4769c3.26408,17.41314 25.59661,24.30353 25.82123,24.37233c0.48162,0.14368 0.91872,0.40472 1.27487,0.76088zM150.58089,126.31652c1.80101,0.09106 4.63406,-0.12951 6.37436,-1.70792c1.19393,-1.08668 1.81315,-2.81889 1.89005,-5.12377c-0.15582,-0.1032 -0.33187,-0.17403 -0.46948,-0.31164l-23.77537,-23.77334c-4.1747,-1.40438 -23.63169,-8.81281 -28.63202,-26.07014l-7.34772,0.81551c-2.71163,2.24216 -12.10927,9.46239 -20.61854,9.46239c-3.87926,0.00202 -7.21821,-1.49342 -9.65666,-4.32243c-0.63137,-0.81147 -4.95177,-7.0887 4.96593,-17.44147c2.42833,-2.53356 4.54502,-4.59764 6.40269,-6.31163c-7.28701,1.46307 -16.41753,3.84081 -22.9983,7.43069c-0.87217,0.47757 -1.92243,0.49578 -2.81079,0.05059c-8.62462,-4.31028 -15.97031,-9.16492 -19.70589,-11.76728l-27.02326,41.07519l35.48194,25.34569c2.53558,-3.33086 5.47588,-5.09544 8.68128,-5.09544c2.95851,0 5.85834,1.51973 8.64283,4.52479c1.97302,-1.35784 4.84654,-2.87757 7.82124,-2.87757c2.49511,0 6.61113,1.08263 8.62664,7.64317c0.686,-0.13153 1.44283,-0.21653 2.2462,-0.21653c2.81281,0 7.85362,1.12108 11.31197,8.28667c3.18516,0.85396 7.27487,3.65868 9.06981,10.44586l0.13558,0.51804l-0.77909,8.56795l9.50488,6.66374c1.36796,0.78718 5.46576,2.63676 7.83339,1.60472c0.38246,-0.16391 1.53997,-0.66577 2.13693,-3.34907l0.05666,-0.26105l-16.52883,-15.68094c-1.21619,-1.15346 -1.26678,-3.07386 -0.11332,-4.29005c1.15548,-1.21821 3.07791,-1.26475 4.29207,-0.11332l18.92478,17.95345c0.09106,0.08702 0.13153,0.20236 0.21046,0.29949c1.47521,-0.07083 3.20539,-0.39056 4.63609,-1.39224c1.45902,-1.02395 2.36964,-2.65497 2.83305,-4.88499l-21.03742,-20.09442c-1.21214,-1.1575 -1.25666,-3.07791 -0.09916,-4.29207c1.15953,-1.21214 3.07791,-1.25464 4.29207,-0.09916l21.73355,20.75817c1.61484,-0.09511 4.30624,-0.53019 6.22866,-2.30084c1.44688,-1.33153 2.21585,-3.33895 2.36964,-5.90691l-22.32039,-20.24822c-1.2425,-1.12513 -1.3376,-3.04755 -0.21046,-4.28802c1.12715,-1.2425 3.04958,-1.33153 4.28802,-0.21046zM45.27235,121.04906c-0.78718,1.66543 -0.88027,3.06577 -0.29342,4.40742c0.75076,1.72007 2.50927,3.1285 4.26172,4.16661c0.7973,-5.14199 3.772,-9.71534 6.09511,-12.60505c-1.47521,-1.54199 -2.85733,-2.37976 -3.99865,-2.37976c-1.90219,0 -4.16863,2.39798 -6.06475,6.41079zM55.23053,133.7816l0.00202,0.01821c1.18988,6.74468 4.23946,6.74468 5.24114,6.74266c0.58685,0 1.14739,-0.09309 1.64317,-0.2145c0.07285,-8.08431 6.25699,-16.30218 8.84519,-19.38009c-0.49781,-2.35953 -1.42057,-4.66239 -3.15885,-4.66239c-2.00337,0 -4.85463,1.98718 -6.18212,3.2398l-2.08027,1.96492c-2.3312,3.03744 -5.13187,7.7747 -4.31028,12.29139zM68.26661,141.98936c1.09477,3.09005 2.91399,6.51197 5.63777,6.50995c0.61113,0 1.20405,-0.17201 1.73018,-0.37841c-0.90253,-7.00573 0.71838,-14.29476 4.24958,-18.52815c1.0543,-1.26273 2.25025,-2.23204 3.55345,-2.89781c-1.34772,-1.96492 -2.93828,-2.98077 -4.76357,-2.98077c-1.13322,0 -2.1005,0.35818 -2.57605,0.57066c-2.8371,3.23575 -8.90792,11.67217 -7.81113,17.7005zM91.27705,152.79137c0.54233,-0.55244 0.7973,-1.71602 0.7973,-2.19359v-0.16189l-0.08499,-0.19831l1.06239,-12.80539c-1.60877,-5.4091 -4.77369,-5.71872 -5.18044,-5.73693c-1.23642,0.00202 -2.32108,0.58482 -3.32074,1.78482c-2.60843,3.12445 -3.75582,9.44215 -2.73996,15.02529c0.66779,0.96931 3.16492,4.16256 7.27285,4.67656c0.24486,0.02833 0.50185,0.04452 0.71838,0.04452c0.99359,0 1.36796,-0.32782 1.47521,-0.43508z" fill-rule="evenodd"></path></svg>