<svg width="100%" viewBox="0 0 200 200" version="1.1" xmlns="http://www.w3.org/2000/svg" xmlns:xlink="http://www.w3.org/1999/xlink"><path d="M53.84261,194.5885c4.50958,3.60767 9.6956,5.4115 14.88162,5.4115c7.21533,0 14.20519,-3.60767 19.61669,-10.14656c9.01917,-10.823 15.55806,-38.33145 19.16573,-60.87937c14.20519,25.02818 25.9301,40.36077 34.94927,45.54679c4.50958,2.48027 9.24464,3.83315 13.75423,3.83315c8.34273,0 15.33258,-4.2841 19.39121,-11.72492c0.90192,-1.35287 1.57835,-3.60767 2.70575,-6.76437c1.1274,-3.60767 2.70575,-8.34273 4.96054,-12.40135c2.93123,-4.50958 6.5389,-8.79369 9.24464,-11.72492c1.57835,-1.57835 2.70575,-2.93123 3.38219,-4.05862c3.15671,-5.63698 4.2841,-11.72492 2.70575,-17.36189c-1.80383,-6.31342 -6.08794,-11.72492 -12.85231,-15.55806c-7.44081,-4.05862 -21.87148,-6.5389 -43.06652,-7.21533c20.96956,-10.59752 34.04735,-19.84216 39.23337,-27.50846c4.2841,-6.5389 6.08794,-13.30327 4.96054,-19.61669c-0.90192,-6.31342 -4.73506,-11.95039 -10.59752,-15.78354c-1.1274,-0.90192 -3.38219,-1.80383 -6.08794,-2.93123c-3.83315,-1.57835 -9.24464,-3.83315 -13.52875,-6.76437c-4.73506,-3.38219 -8.56821,-7.44081 -11.49944,-10.37204c-1.80383,-1.80383 -3.15671,-3.15671 -4.2841,-4.05862c-4.50958,-2.93123 -9.24464,-4.50958 -13.97971,-4.50958c-8.11725,0 -15.55806,4.2841 -21.19504,12.17587c-5.4115,8.11725 -9.24464,24.80271 -11.49944,50.05637c-11.04848,-23.67531 -20.5186,-38.55693 -28.63585,-44.19391c-4.96054,-3.60767 -10.59752,-5.63698 -16.00902,-5.63698c-7.44081,0 -14.43067,3.60767 -19.39121,10.37204c-0.90192,1.1274 -1.57835,2.93123 -2.70575,5.4115c-1.80383,3.83315 -4.05862,9.24464 -7.21533,13.75423c-2.93123,4.05862 -6.76437,7.66629 -9.92108,10.37204c-2.25479,2.02931 -3.83315,3.38219 -4.73506,4.73506c-8.56821,11.95039 -5.63698,25.9301 6.76437,34.94927c8.79369,6.31342 26.83202,10.823 54.79143,13.52875c-18.48929,7.44081 -39.68433,18.26381 -48.02706,28.86133c-4.73506,5.86246 -6.98985,12.40135 -6.31342,18.94025c0.67644,6.08794 3.83315,11.49944 9.01917,15.55806c1.1274,0.90192 3.15671,1.80383 5.63698,3.15671c3.83315,2.02931 8.34273,4.50958 12.40135,7.66629c4.2841,3.38219 7.89177,7.66629 10.37204,10.823c1.35287,1.80383 2.48027,3.15671 3.60767,4.05862zM33.77496,25.02818c4.05862,-5.4115 9.6956,-8.34273 15.78354,-8.34273c4.50958,0 9.24464,1.80383 13.52875,4.96054c8.11725,5.86246 18.71477,23.22435 30.66516,50.28185c0.45096,0.90192 1.57835,1.57835 2.48027,1.35287c0.90192,-0.22548 1.80383,-0.90192 1.80383,-2.02931c2.02931,-28.86133 6.08794,-48.25254 11.49944,-56.36979c4.73506,-6.76437 11.04848,-10.37204 17.58737,-10.37204c3.83315,0 7.66629,1.1274 11.27396,3.60767c0.90192,0.45096 2.02931,1.80383 3.60767,3.38219c2.93123,3.15671 7.21533,7.44081 12.17587,10.823c4.73506,3.15671 10.14656,5.63698 14.20519,7.21533c2.25479,0.90192 4.2841,1.80383 5.18602,2.48027c4.96054,3.15671 7.89177,7.66629 8.79369,12.85231c0.90192,5.18602 -0.67644,10.823 -4.2841,16.2345c-5.18602,7.89177 -21.19504,18.26381 -45.77227,30.21421c-0.90192,0.45096 -1.35287,1.35287 -1.1274,2.48027c0.22548,1.1274 1.1274,1.80383 2.25479,1.80383c25.25366,0.22548 42.61556,2.48027 50.05637,6.76437c5.63698,3.15671 9.24464,7.66629 10.59752,12.62683c1.1274,4.50958 0.22548,9.24464 -2.25479,13.75423c-0.45096,0.67644 -1.57835,2.02931 -2.93123,3.38219c-2.70575,3.15671 -6.5389,7.66629 -9.6956,12.62683c-2.48027,4.50958 -4.05862,9.47012 -5.4115,13.30327c-0.67644,2.48027 -1.57835,4.73506 -2.25479,5.86246c-3.38219,6.31342 -9.01917,9.6956 -15.55806,9.6956c-3.60767,0 -7.66629,-1.1274 -11.49944,-3.38219c-8.79369,-5.18602 -21.19504,-21.87148 -36.30214,-49.37993c-0.45096,-0.90192 -1.57835,-1.35287 -2.48027,-1.1274c-0.90192,0.22548 -1.57835,1.1274 -1.80383,2.02931c-3.15671,25.02818 -10.37204,55.24239 -18.94025,65.61443c-4.50958,5.4115 -10.14656,8.56821 -16.00902,8.56821c-4.05862,0 -8.34273,-1.57835 -11.95039,-4.50958c-0.67644,-0.67644 -1.80383,-2.02931 -3.15671,-3.60767c-2.70575,-3.38219 -6.5389,-7.89177 -11.04848,-11.49944c-4.2841,-3.60767 -9.47012,-6.08794 -13.07779,-8.11725c-2.25479,-1.1274 -4.05862,-2.02931 -4.96054,-2.70575c-4.2841,-3.38219 -6.98985,-7.89177 -7.44081,-12.62683c-0.45096,-5.4115 1.35287,-10.823 5.4115,-15.78354c8.56821,-10.823 34.04735,-23.22435 55.24239,-30.89064c1.1274,-0.45096 1.80383,-1.35287 1.57835,-2.48027c0,-1.1274 -0.90192,-2.02931 -2.02931,-2.02931c-32.24352,-2.48027 -53.21308,-6.98985 -62.23224,-13.52875c-10.37204,-7.44081 -12.62683,-18.71477 -6.08794,-29.08681c0.45096,-0.90192 2.25479,-2.48027 4.05862,-4.05862c3.15671,-2.70575 7.21533,-6.5389 10.59752,-11.04848c3.38219,-4.96054 5.86246,-10.37204 7.66629,-14.43067c0.90192,-2.02931 1.80383,-3.83315 2.25479,-4.50958z" fill-rule="evenodd"></path></svg>