<svg width="100%" viewBox="0 0 200 200" version="1.1" xmlns="http://www.w3.org/2000/svg" xmlns:xlink="http://www.w3.org/1999/xlink"><path d="M102.14087,0h-3.63908v50.17559h3.63908zM128.39935,55.13601l6.67261,2.90617l15.22699,-34.96133l-6.67261,-2.90617zM50.03621,23.04627l14.73244,34.96243l6.70682,-2.82611l-14.73244,-34.96243zM13.51517,58.32421l25.35454,24.95606l2.55281,-2.59357l-25.35454,-24.95606zM158.92356,80.72636l2.57319,2.57319l24.98808,-24.98845l-2.57319,-2.57319zM100.51784,200c-1.22273,0 -2.36176,-0.61136 -3.03499,-1.63031l-63.2144,-95.61309c-0.9498,-1.43744 -0.76421,-3.34067 0.44761,-4.5634l30.8157,-31.21236c0.68415,-0.69142 1.61575,-1.08081 2.58738,-1.08081h63.61106c0.9498,0 1.86321,0.37119 2.54008,1.0335l32.00204,31.21236c1.25184,1.21909 1.45563,3.15508 0.49491,4.61435l-63.2144,95.60945c-0.67323,1.01894 -1.81226,1.63031 -3.03499,1.63031zM78.63607,96.73029l-7.45647,-23.55574h24.3043zM118.56766,98.92829l-17.93009,-25.75374h-0.67796l-18.42173,25.75374zM105.07287,73.17455h23.62598l-7.28179,23.47932zM124.52192,98.92829h32.13159l-24.67003,-24.06194zM75.5152,98.92829h-31.29751l23.70021,-24.00553zM94.69969,180.96326l-18.20448,-78.3959h-33.62652zM80.23108,102.56737l20.09607,86.54051l19.40428,-86.54051zM123.46113,102.56737h34.70806l-52.51915,79.43376z" fill-rule="evenodd"></path></svg>