<svg width="100%" viewBox="0 0 200 200" version="1.1" xmlns="http://www.w3.org/2000/svg" xmlns:xlink="http://www.w3.org/1999/xlink"><path d="M195.92668,0.33944h0.0038h0.26775c1.90088,0 3.80177,1.90088 3.80177,3.80177c0,0.4315 -0.09803,0.863 -0.27155,1.27223v51.95248c0,1.90088 -1.90088,3.80177 -3.80177,3.80177c-1.90088,0 -3.80177,-1.90088 -3.80177,-3.80177v-43.99185l-39.97692,39.97692c31.53456,34.37312 30.64874,87.73469 -2.65716,120.51188c-16.56483,16.56483 -38.56076,25.79769 -61.91446,25.79769c-23.3537,0 -45.07807,-8.9613 -61.91446,-25.52614c-34.21589,-34.21589 -34.21589,-89.61303 0,-123.28581c16.83639,-16.56483 38.83232,-25.79769 61.91446,-25.79769c22.07875,0 42.70115,8.0095 59.11365,22.88119l39.76945,-39.98914h-50.81792c-1.90088,0 -3.80177,-1.90088 -3.80177,-3.80177c0,-2.17244 1.35777,-3.80177 3.80177,-3.80177h60.27671zM143.78819,168.70333c-14.93551,14.93551 -35.03055,23.3537 -56.21181,23.3537c-21.18126,0 -41.27631,-8.41819 -56.21181,-23.3537c-30.95723,-30.95723 -30.95723,-81.73795 0,-112.69518c14.93551,-15.20706 35.03055,-23.3537 56.21181,-23.3537c21.18126,0 41.27631,8.41819 56.21181,23.3537c30.95723,30.95723 30.95723,81.73795 0,112.69518z" fill-rule="evenodd"></path></svg>