<svg width="100%" viewBox="0 0 200 200" version="1.1" xmlns="http://www.w3.org/2000/svg" xmlns:xlink="http://www.w3.org/1999/xlink"><path d="M9.984,200h58.79c3.088,-0.208 6.12,-1.44 8.474,-3.798c5.182,-5.178 5.182,-13.574 0,-18.754l-22.992,-22.996c-0.16,-0.158 -0.346,-0.268 -0.514,-0.416l-13.696,-13.696c-3.45,-3.452 -3.45,-9.05 0.006,-12.5c3.454,-3.456 9.048,-3.454 12.502,0l26.934,26.934c3.77,3.768 8.32,6.262 13.132,7.542h15.102c4.812,-1.28 9.368,-3.774 13.132,-7.542l26.934,-26.934c3.454,-3.456 9.046,-3.454 12.502,-0.004c3.454,3.454 3.454,9.05 0.004,12.504l-13.292,13.294c-0.332,0.276 -0.692,0.506 -1.004,0.816l-22.994,22.998c-5.18,5.18 -5.18,13.576 0,18.754c2.362,2.36 5.39,3.59 8.476,3.798h58.536l-11.2,-54.6c-6.3,-30.694 -35.782,-54.74 -67.114,-54.74h-23.406c-31.336,0 -60.816,24.046 -67.114,54.74zM100,0c-21.824,0 -39.506,17.69 -39.506,39.508c0,21.82 17.682,39.508 39.506,39.508c21.816,0 39.504,-17.688 39.504,-39.508c0,-21.818 -17.688,-39.508 -39.504,-39.508zM125.24,126.562c0,-13.85 -11.224,-25.072 -25.068,-25.072c-13.85,0 -25.074,11.222 -25.074,25.072c0,13.85 11.224,25.072 25.074,25.072c13.844,0 25.068,-11.222 25.068,-25.072z" fill-rule="evenodd"></path></svg>