<svg width="100%" viewBox="0 0 200 200" version="1.1" xmlns="http://www.w3.org/2000/svg" xmlns:xlink="http://www.w3.org/1999/xlink"><path d="M172.61455,142.30115c1.25997,-0.208 2.55595,-0.32399 3.87592,-0.32399c12.98174,0 23.50953,10.52379 23.50953,23.50553c0,12.98174 -10.52579,23.50753 -23.50753,23.50753c-12.98374,0 -23.50753,-10.52579 -23.50753,-23.50753c0,-9.64781 5.81388,-17.93364 14.12772,-21.55557l-14.7857,-49.929c-9.50581,-34.14932 -40.31319,-58.22084 -75.49249,-59.39881v6.51387c39.51921,1.50797 71.09458,34.01532 71.09458,73.90452c0,40.84918 -33.11534,73.96452 -73.96452,73.96452c-40.84918,0 -73.96452,-33.11334 -73.96452,-73.96452c0,-39.8892 31.57737,-72.39655 71.09858,-73.90452v-14.30771h1.21598v-3.00394c0,-1.62797 -1.01398,-2.63995 -2.64195,-2.63995h-8.40783c-2.57795,0 -4.67591,-2.09796 -4.67591,-4.67591c0,-2.57595 2.09796,-4.67391 4.67591,-4.67391h8.85982c0.194,-0.46799 0.65399,-0.80198 1.18998,-0.80198h18.75962c0.70799,0 1.28797,0.57999 1.28797,1.28797v2.43195c0,0.70799 -0.57999,1.28797 -1.28797,1.28797h-18.75962c-0.55799,0 -1.02998,-0.35999 -1.20798,-0.85598h-8.84182c-0.73199,0 -1.32797,0.59599 -1.32797,1.32797c0,0.73199 0.59599,1.32797 1.32797,1.32797h8.40783c3.46993,0 5.98988,2.51795 5.98988,5.98788v3.00394h1.17398v2.05396c14.63971,0.45799 28.57743,4.61791 40.75118,11.67577c0.31599,-1.29397 1.47997,-2.25595 2.87194,-2.25595h19.8236c1.63397,0 2.95794,1.32597 2.95794,2.95794c0,1.63197 -1.32397,2.95794 -2.95794,2.95794h-16.91366c16.38167,11.29577 28.88142,28.12944 34.47331,48.21704zM142.19116,115.0177c0,-18.22364 -7.09586,-35.35729 -19.9816,-48.24304c-12.20776,-12.20776 -28.22744,-19.21562 -45.37509,-19.9196v62.91274c0.28399,0.158 0.55399,0.33999 0.80798,0.53999l8.67983,-6.07788v-4.37991h10.0418v5.73989h-6.14588l-10.62179,7.43585c0.222,0.62399 0.34799,1.29397 0.34799,1.99396c0,3.30393 -2.67795,5.98188 -5.98188,5.98188c-1.44597,0 -2.77194,-0.51399 -3.80592,-1.36597l-8.58383,6.00788v4.33191h-10.0418v-5.73789h6.21388l10.52979,-7.37185c-0.19,-0.58199 -0.29399,-1.20398 -0.29399,-1.84796c0,-2.26395 1.25797,-4.23192 3.11394,-5.2499v-62.91274c-17.14766,0.70399 -33.16734,7.71185 -45.37509,19.9196c-12.88774,12.88574 -19.9836,30.0194 -19.9836,48.24304c0,18.22564 7.09786,35.35929 19.9836,48.24504c12.88774,12.88374 30.0194,19.9816 48.24504,19.9816c18.22564,0 35.35929,-7.09786 48.24504,-19.9816c12.88574,-12.88574 19.9816,-30.0194 19.9816,-48.24504zM158.24284,165.48469c0,10.0618 8.18584,18.24764 18.24764,18.24764c10.0598,0 18.24564,-8.18584 18.24564,-18.24564c0,-10.0598 -8.18584,-18.24764 -18.24564,-18.24764c-0.80398,0 -1.59197,0.058 -2.36795,0.16l4.22792,14.27571c1.40997,0.68999 2.38395,2.13396 2.38395,3.81192c0,2.34595 -1.90196,4.24592 -4.24592,4.24592c-2.34595,0 -4.24592,-1.89996 -4.24592,-4.24592c0,-0.79798 0.224,-1.54197 0.60599,-2.17796l-4.22792,-14.28371c-6.13388,2.94194 -10.37779,9.21382 -10.37779,16.45967z" fill-rule="evenodd"></path></svg>