<svg width="100%" viewBox="0 0 200 200" version="1.1" xmlns="http://www.w3.org/2000/svg" xmlns:xlink="http://www.w3.org/1999/xlink"><path d="M185.82148,27.83553c-1.75104,-0.22726 -3.35535,1.00488 -3.58792,2.75501l-1.34547,10.57156c-6.48325,-15.67032 -18.56431,-28.36824 -33.89307,-35.62296c-15.17756,-7.01071 -32.58989,-7.38216 -48.05256,-1.02512c-1.64532,0.67229 -2.43402,2.55121 -1.76193,4.19659c0.6721,1.64538 2.55127,2.43421 4.19659,1.76193c13.83081,-5.69532 29.40945,-5.37029 42.99102,0.89698c13.68985,6.4821 24.5209,17.76894 30.43329,31.71469l-7.04771,-6.40701c-1.30895,-1.20311 -3.34574,-1.11706 -4.54898,0.19221c-1.20324,1.30921 -1.11674,3.34587 0.19221,4.54898l16.9145,15.56903c0.85149,0.78781 2.06306,1.0535 3.16634,0.69465c1.10329,-0.35892 1.92595,-1.2864 2.15147,-2.42454l2.94722,-23.51372c0.20695,-0.88948 0.02435,-1.82497 -0.50167,-2.57139c-0.52666,-0.74642 -1.34611,-1.23277 -2.25334,-1.33689zM165.31906,54.42461c-0.1858,-0.44311 -0.47092,-0.83765 -0.83291,-1.15326c-14.94563,-20.7209 -38.93795,-32.99776 -64.48653,-32.99776c-25.54858,0 -49.54084,12.27685 -64.48653,32.99776c-0.36225,0.31561 -0.64717,0.71015 -0.83291,1.15326c-19.28189,27.40277 -19.28189,63.96116 0,91.36393c0.18574,0.44336 0.47066,0.8374 0.83291,1.15326c14.94569,20.7209 38.93795,32.99801 64.48653,32.99801c25.54858,0 49.54091,-12.27711 64.48653,-32.99801c0.362,-0.31587 0.64711,-0.7099 0.83291,-1.15326c19.28189,-27.40277 19.28189,-63.96116 0,-91.36393zM102.9148,52.43844v-25.62803c9.29016,1.79396 17.61927,11.3404 23.51372,25.62803zM73.25036,52.43844c5.83999,-13.90218 14.07043,-23.40166 23.25744,-25.32024v25.32024zM80.16992,29.62949c-6.18468,6.62747 -10.93933,14.45696 -13.96728,23.00116h-21.97604c9.44233,-11.05343 21.95105,-19.05803 35.94331,-23.00116zM155.70855,52.43844h-21.97604c-3.05166,-8.47583 -7.80502,-16.23792 -13.96728,-22.80895c13.9692,3.89034 26.47504,11.82631 35.94331,22.80895zM39.29321,58.84545h24.73105c-2.31677,7.58718 -3.92506,15.37297 -4.80526,23.25744h-30.30515c2.07107,-8.30028 5.58422,-16.17257 10.37935,-23.25744zM96.50779,58.84545v23.25744h-30.81771c0.96938,-7.8819 2.7076,-15.64976 5.18968,-23.19337zM134.24507,82.10289h-31.07399v-23.25744h25.62803c2.57305,7.55514 4.39777,15.34542 5.44596,23.25744zM171.02129,82.10289h-30.24108c-0.88417,-7.86268 -2.49297,-15.62669 -4.80526,-23.19337h24.73105c4.76553,7.06949 8.25671,14.91936 10.31528,23.19337zM58.06575,88.5099c0,3.78013 -0.44849,7.62434 -0.44849,11.59668c0,3.97234 0,7.81655 0.44849,11.59668h-30.49736c-0.6489,-3.83203 -0.99168,-7.71019 -1.02512,-11.59668c0.03344,-3.88649 0.37622,-7.76465 1.02512,-11.59668zM64.47275,100.10658c0,-3.97234 0,-7.81655 0.51256,-11.59668h32.03504v23.25744h-32.03504c-0.25628,-3.8442 -0.51256,-7.68841 -0.51256,-11.66075zM135.4624,100.10658c0,3.97234 0,7.81655 -0.51256,11.59668h-32.03504v-23.19337h32.03504c0.25628,3.78013 0.51256,7.62434 0.51256,11.59668zM141.10057,111.8314c0,-3.78013 0.44849,-7.62434 0.44849,-11.59668c0,-3.97234 0,-7.81655 -0.44849,-11.59668h31.2662c0.64198,3.78975 0.98476,7.62498 1.02512,11.46854c-0.03332,3.88649 -0.37609,7.76465 -1.02512,11.59668zM28.91386,118.11027h30.24108c0.88019,7.88446 2.48848,15.67026 4.80526,23.25744h-24.66698c-4.79513,-7.08487 -8.30829,-14.95716 -10.37935,-23.25744zM102.65852,141.43178v-23.32151h31.07399c-0.9649,7.90368 -2.70312,15.69332 -5.18968,23.25744zM71.13604,141.43178c-2.57049,-7.55578 -4.392,-15.34542 -5.43763,-23.25744h31.06566v23.25744zM160.64194,141.36771h-24.66698c2.31229,-7.56668 3.92109,-15.33069 4.80526,-23.19337h30.24108c-2.07779,8.27849 -5.59076,16.12836 -10.37935,23.19337zM98.87839,189.3562c-13.70651,5.97966 -29.28451,5.97966 -42.99102,0c-13.85996,-6.3487 -24.88226,-17.59941 -30.94585,-31.58655l7.17585,6.40701c0.84944,0.81561 2.07811,1.10008 3.19947,0.73937c1.12135,-0.36007 1.95446,-1.30703 2.16935,-2.46542c0.21496,-1.15775 -0.2229,-2.34048 -1.14019,-3.07921l-17.17078,-15.05647c-0.89032,-0.79895 -2.1575,-1.02256 -3.26757,-0.57663c-1.12091,0.4235 -1.91185,1.43645 -2.05024,2.62687l-2.49873,23.57779c-0.18747,1.74975 1.07112,3.32267 2.81908,3.52385h0.32035c1.65134,0.00833 3.0384,-1.23976 3.2035,-2.88315l1.15326,-10.63563c6.75754,15.56647 19.06828,28.06013 34.53377,35.04633c15.32236,6.67418 32.7302,6.67418 48.05256,0c1.09816,-0.41581 1.88046,-1.39929 2.03871,-2.5628c0.15889,-1.16351 -0.33124,-2.31998 -1.2782,-3.01514c-0.94632,-0.69452 -2.19696,-0.81625 -3.25924,-0.31651zM119.76523,170.58367c6.18468,-6.62741 10.93933,-14.45677 13.96728,-23.00116h21.97604c-9.44265,11.05337 -21.95105,19.05829 -35.94331,23.00116zM44.22661,147.77472h21.97604c3.05166,8.47583 7.80502,16.23792 13.96728,22.80895c-13.9692,-3.89034 -26.47491,-11.82606 -35.94331,-22.80895zM96.25151,147.83879v25.62803c-9.29016,-1.79396 -17.61927,-11.3404 -23.51372,-25.62803zM102.65852,173.46682v-25.62803h23.51372c-5.38189,13.96728 -13.711,23.51372 -23.00116,25.30768z" fill-rule="evenodd"></path></svg>