<svg width="100%" viewBox="0 0 200 200" version="1.1" xmlns="http://www.w3.org/2000/svg" xmlns:xlink="http://www.w3.org/1999/xlink"><path d="M131.25755,9.16832c8.67548,5.58884 15.31098,12.89989 20.22427,22.07536c4.96885,9.28881 6.15772,19.13539 6.09995,29.34197c-0.02444,4.0933 -1.16666,7.89993 -3.5733,11.25546c-3.17553,4.43107 -6.64883,8.51993 -11.80212,10.84657c-1.91776,0.86444 -3.69552,2.06443 -5.47773,3.20664c-4.73107,3.03108 -7.21105,7.2666 -6.85772,13.011c0.21333,3.51775 0.42444,7.04216 0.46666,10.56435c0.12889,10.31991 0.17778,20.64204 0.24889,30.96418v0.00089c0.00889,1.17755 0.01778,2.35265 -0.07555,3.52352c-0.47111,6.00217 -1.44221,7.27771 -7.05549,9.04881c-2.68664,0.84888 -5.43329,1.51332 -8.12882,2.33776c-2.10665,0.64444 -4.14663,0.56666 -6.59328,-0.30666c-2.97997,-8.62437 -7.87326,-16.75763 -9.43103,-26.16644c-0.30444,-1.82887 -1.26888,-3.53552 -1.81776,-5.33329c-2.53553,-8.31104 -5.07551,-16.61986 -7.52216,-24.95534c-1.17777,-4.0133 -0.16222,-8.01104 0.97332,-11.78879c0.54888,-1.82665 2.44665,-3.36219 3.97774,-4.75996c5.17329,-4.73107 8.72881,-10.37324 10.59991,-17.15985c1.27554,-4.62218 1.13332,-9.31103 0.88666,-13.96655c-0.18889,-3.57775 -1.71999,-6.82661 -4.42218,-9.36436c-0.85555,-0.80666 -1.81554,-1.51554 -2.5822,-2.39776c-3.29997,-3.79552 -7.41994,-5.62884 -13.09989,-5.3644c-3.96663,3.0822 -8.37548,5.59106 -9.89103,10.76435c-0.65333,2.23331 -1.60665,4.46441 -1.76221,6.74216c-0.53333,7.88215 0.11555,15.59542 5.75551,21.83537c3.92441,4.34663 2.08887,7.33771 -0.98221,10.37324c-4.22441,4.17107 -9.51103,6.79772 -15.1932,8.56437c-4.55329,1.41554 -7.65104,0.65111 -10.53102,-3.16664c-1.82443,-2.4222 -3.62219,-5.04218 -4.63774,-7.86215c-2.61998,-7.28216 -5.15996,-14.59765 -6.36661,-22.31758c-0.63999,-4.08441 -0.06444,-7.97771 0.87333,-11.84656c0.82222,-3.39997 2.17331,-6.66883 3.13775,-10.03991c3.12442,-10.90879 10.06658,-18.96872 19.06428,-25.41978c3.04664,-2.18443 6.33328,-4.08663 9.6688,-5.81106c8.55326,-4.41774 17.64207,-5.97995 27.2931,-5.51995c10.40658,0.49555 19.84205,3.4933 28.53309,9.09103zM140.52414,74.41887c4.47329,-3.20664 8.53326,-7.05105 8.92214,-12.89767c0.32666,-4.8844 0.21111,-9.91103 -0.60444,-14.72432c-0.65555,-3.85997 -2.44665,-7.59105 -4.09996,-11.21324c-6.39772,-14.00432 -17.79318,-22.36647 -32.10861,-26.55532c-9.59769,-2.80886 -19.52205,-2.47109 -29.27752,0.39777c-9.08437,2.67109 -16.72208,7.53993 -22.62425,14.85765c-2.92664,3.62441 -5.52884,7.60882 -6.4555,12.39767c-0.75777,3.91108 -1.91332,7.75771 -2.48887,11.69101c-1.21554,8.31993 -0.60444,16.6443 3.61997,23.96868c4.5844,7.9466 5.88662,8.56215 14.08432,5.61551c0.8111,-0.28889 1.49776,-0.91555 2.3222,-1.43554c-0.49333,-3.77997 -1.52221,-7.08661 -2.84442,-10.39102c-3.91552,-9.77325 -3.74441,-19.70872 2.38665,-28.23753c6.07328,-8.44659 12.02878,-14.68654 23.33758,-11.67101c1.34888,0.36 2.79998,0.34889 4.20441,0.49111c4.40218,0.44666 8.02215,2.5422 11.22879,5.41995c1.5711,1.40888 3.01997,2.95997 4.46441,4.50441c6.60439,7.05105 7.38882,9.48658 6.17106,19.06428c-0.17778,1.39777 -0.34222,2.80886 -0.67777,4.17774c-0.78222,3.21108 -1.95998,6.17328 -4.1333,8.83992c-4.29552,5.27329 -8.36659,10.73991 -12.34878,16.25764c-3.71997,5.15329 -5.80439,10.6088 -2.92442,17.07541c1.51776,3.40441 2.31554,7.13327 3.46219,10.70657c0.57333,1.7911 1.02221,3.64886 1.83776,5.32884c1.97776,4.07108 2.93109,8.39326 3.80441,12.79767c0.72888,3.67775 1.78887,7.32216 3.0622,10.85102c1.22888,3.40441 2.97997,4.09996 6.57105,3.25775c1.36221,-0.31555 2.71553,-0.69111 4.16663,-1.05999c2.15954,-3.21331 1.72998,-6.23795 1.31443,-9.16525c-0.08067,-0.56688 -0.16044,-1.12999 -0.22111,-1.69021c-1.35999,-12.64211 -1.92665,-25.31534 -1.98221,-38.03078c-0.01556,-3.45553 0.91555,-6.39994 2.81998,-9.24659c1.88443,-2.81775 4.24885,-5.02662 7.09549,-6.75327c2.61553,-1.58443 5.4444,-2.85331 7.91549,-4.62885zM130.44201,162.86921c6.37994,-0.41111 8.27548,1.0311 9.74214,7.4466c0.83777,3.65997 1.88221,7.30438 2.33331,11.01768c1.2511,10.21769 0.15333,12.74211 -10.83768,15.98653c-3.36219,0.99332 -6.84883,1.6111 -10.3088,2.20887c-2.05332,0.35333 -4.1733,0.32444 -6.26217,0.47111c-3.59108,-0.08 -5.88884,-1.86665 -6.88661,-5.1444l-0.04911,-0.16111c-1.75687,-5.76306 -3.50086,-11.48368 -2.43309,-17.74318c0.72444,-4.24441 3.39553,-7.07994 6.69105,-8.41104c4.94885,-2.0022 9.73325,-4.76218 15.22876,-5.27995c0.9311,-0.08889 1.84887,-0.33111 2.7822,-0.39111zM119.16655,189.3312c5.54217,-0.87777 10.75546,-1.70443 16.21764,-2.57109c0.226,-4.10463 -0.51288,-7.90749 -1.25932,-11.74834c-0.39066,-2.01065 -0.78333,-4.03152 -1.04066,-6.1115c-4.97085,-1.0631 -8.47526,0.85666 -11.8879,2.72598c-1.47376,0.80733 -2.93064,1.60532 -4.48085,2.14954c-0.13111,5.44662 0.64444,10.37324 2.45109,15.55542z" fill-rule="evenodd"></path></svg>