<svg width="100%" viewBox="0 0 200 200" version="1.1" xmlns="http://www.w3.org/2000/svg" xmlns:xlink="http://www.w3.org/1999/xlink"><path d="M97.2184,164.12912c-21.47615,-2.79913 -37.92034,-37.78011 -37.92034,-81.96478c0,-46.07232 17.87881,-82.16433 40.70059,-82.16433c22.82447,0 40.70329,36.09201 40.70329,82.16703c0,44.29793 -16.53049,79.35172 -38.09023,81.98905v33.14726c0,1.48855 -1.2081,2.69665 -2.69665,2.69665c-1.48855,0 -2.69665,-1.2081 -2.69665,-2.69665zM102.61441,158.69536c17.97589,-3.02295 32.69692,-36.8255 32.69692,-76.53102c0,-41.61476 -16.17183,-76.77103 -35.30998,-76.77912c-19.13815,0 -35.30728,35.15897 -35.30728,76.77372c0,39.58148 14.62934,73.29774 32.52703,76.50136v-25.67753l-15.00688,-15.00418c-1.05439,-1.05439 -1.05439,-2.75868 0,-3.81307c1.05439,-1.05439 2.75868,-1.05439 3.81307,0l11.19381,11.19381v-42.08128l-15.00688,-15.00418c-1.05439,-1.05439 -1.05439,-2.75868 0,-3.81307c1.05439,-1.05439 2.75868,-1.05439 3.81307,0l11.19381,11.19381v-23.57684c0,-1.48855 1.2081,-2.69665 2.69665,-2.69665c1.48855,0 2.69665,1.2081 2.69665,2.69665v44.37074l10.6329,-10.6329c1.05439,-1.05439 2.75868,-1.05439 3.81307,0c1.05439,1.05439 1.05439,2.75868 0,3.81307l-14.44597,14.44597z" fill-rule="evenodd"></path></svg>