<svg width="100%" viewBox="0 0 200 200" version="1.1" xmlns="http://www.w3.org/2000/svg" xmlns:xlink="http://www.w3.org/1999/xlink"><path d="M0,63.26062c0,3.53065 2.52347,6.44569 6.62404,8.72285c-2.44994,32.35545 1.92452,54.25121 13.12338,66.59288c9.87371,11.02181 23.8806,12.62916 34.90241,12.85878h1.14811c20.6659,0 48.9093,-8.95522 68.65672,-50.74627l0.68886,-1.60735l-16.3031,-19.97704l-2.06659,1.83697c-21.35476,18.59931 -34.44317,21.12514 -39.26521,21.12514c0.68886,-8.49598 0.68886,-18.36969 0,-29.16188c0,-0.25396 -0.03444,-0.49644 -0.09782,-0.724c4.31389,-2.30517 6.98645,-5.28657 6.98645,-8.92009c0,-9.64409 -18.59931,-14.69575 -37.19862,-14.69575c-18.59931,0 -37.19862,5.05166 -37.19862,14.69575zM6.19977,63.26062c0,-2.98507 11.71068,-8.49598 30.99885,-8.49598c19.05855,0 30.99885,5.51091 30.99885,8.49598c0,2.98507 -11.71068,8.49598 -30.99885,8.49598c-19.28817,0 -30.99885,-5.51091 -30.99885,-8.49598zM171.52698,57.52009c15.15499,0 25.94719,2.75545 26.40643,2.98507l2.06659,0.45924v8.26636h-8.26636l-3.44432,3.2147h-1.14811c-39.49483,0 -57.17566,21.12514 -57.40528,21.35476l-2.06659,2.52583l-16.07348,-19.05855l2.29621,-1.60735c19.74742,-14.92537 42.25029,-18.14007 57.6349,-18.14007zM37.19862,66.93456c0.33065,0 0.66116,-0.00145 0.9915,-0.00436c0.33035,-0.00306 0.66008,-0.0075 0.98921,-0.01332c0.32897,-0.00597 0.65702,-0.01332 0.98416,-0.02204c0.32713,-0.00888 0.65289,-0.01914 0.97727,-0.03077c0.32438,-0.01179 0.64692,-0.02503 0.96762,-0.03972c0.32086,-0.01454 0.63949,-0.03054 0.95591,-0.04799c0.31642,-0.01745 0.63031,-0.03628 0.94168,-0.05649c0.31137,-0.02036 0.61982,-0.04202 0.92537,-0.06498c0.30555,-0.02296 0.60781,-0.0473 0.90677,-0.07302c0.29897,-0.02572 0.59426,-0.05274 0.88588,-0.08106c0.29162,-0.02832 0.57926,-0.05794 0.86292,-0.08886c0.28366,-0.03092 0.56295,-0.06307 0.83789,-0.09644c0.27493,-0.03352 0.54527,-0.0682 0.81102,-0.10402c0.2656,-0.03582 0.52622,-0.07279 0.78186,-0.11091c0.25564,-0.03812 0.50593,-0.07738 0.75086,-0.1178c0.24508,-0.04041 0.4845,-0.08182 0.71825,-0.12423c0.23391,-0.04256 0.46192,-0.08611 0.68404,-0.13065c0.22197,-0.04455 0.43789,-0.09009 0.64776,-0.13662c0.20972,-0.04638 0.41309,-0.09376 0.6101,-0.14214c0.19701,-0.04822 0.38737,-0.09736 0.57107,-0.14742c0.18385,-0.0499 0.36073,-0.10065 0.53065,-0.15224c0.17007,-0.05159 0.33303,-0.10394 0.48886,-0.15706c0.15584,-0.05297 0.30448,-0.10662 0.44592,-0.16096c0.14145,-0.05434 0.27539,-0.1093 0.40184,-0.16487c0.1266,-0.05557 0.24562,-0.11167 0.35706,-0.16831c0.11144,-0.05664 0.21515,-0.11366 0.31114,-0.17107c0.09598,-0.05756 0.18416,-0.1155 0.26452,-0.17382c0.08037,-0.05832 0.15277,-0.11703 0.21722,-0.17612c0.0646,-0.05894 0.12116,-0.1181 0.16969,-0.1775c0.04853,-0.05955 0.08894,-0.11925 0.12124,-0.1791c0.03245,-0.05985 0.05679,-0.11979 0.07302,-0.17979c0.01623,-0.06001 0.02434,-0.12009 0.02434,-0.18025c0,-0.06016 -0.00811,-0.12024 -0.02434,-0.18025c-0.01623,-0.06001 -0.04057,-0.11994 -0.07302,-0.17979c-0.0323,-0.05985 -0.07271,-0.11956 -0.12124,-0.1791c-0.04853,-0.0594 -0.10509,-0.11856 -0.16969,-0.1775c-0.06445,-0.05909 -0.13685,-0.1178 -0.21722,-0.17612c-0.08037,-0.05832 -0.16854,-0.11626 -0.26452,-0.17382c-0.09598,-0.05741 -0.19969,-0.11443 -0.31114,-0.17107c-0.11144,-0.05664 -0.23046,-0.11274 -0.35706,-0.16831c-0.12644,-0.05557 -0.26039,-0.11052 -0.40184,-0.16487c-0.14145,-0.05434 -0.29009,-0.108 -0.44592,-0.16096c-0.15584,-0.05312 -0.31879,-0.10547 -0.48886,-0.15706c-0.16992,-0.05159 -0.3468,-0.10233 -0.53065,-0.15224c-0.1837,-0.05006 -0.37405,-0.0992 -0.57107,-0.14742c-0.19701,-0.04837 -0.40038,-0.09575 -0.6101,-0.14214c-0.20987,-0.04654 -0.42579,-0.09208 -0.64776,-0.13662c-0.22212,-0.04455 -0.45013,-0.0881 -0.68404,-0.13065c-0.23375,-0.0424 -0.47317,-0.08381 -0.71825,-0.12423c-0.24493,-0.04041 -0.49522,-0.07968 -0.75086,-0.1178c-0.25564,-0.03812 -0.51626,-0.07509 -0.78186,-0.11091c-0.26575,-0.03582 -0.53609,-0.07049 -0.81102,-0.10402c-0.27493,-0.03337 -0.55423,-0.06552 -0.83789,-0.09644c-0.28366,-0.03092 -0.5713,-0.06054 -0.86292,-0.08886c-0.29162,-0.02832 -0.58691,-0.05534 -0.88588,-0.08106c-0.29897,-0.02572 -0.60122,-0.05006 -0.90677,-0.07302c-0.30555,-0.02296 -0.61401,-0.04462 -0.92537,-0.06498c-0.31137,-0.02021 -0.62526,-0.03904 -0.94168,-0.05649c-0.31642,-0.01745 -0.63506,-0.03345 -0.95591,-0.04799c-0.3207,-0.0147 -0.64325,-0.02794 -0.96762,-0.03972c-0.32438,-0.01163 -0.65013,-0.02189 -0.97727,-0.03077c-0.32713,-0.00873 -0.65519,-0.01607 -0.98416,-0.02204c-0.32912,-0.00582 -0.65886,-0.01026 -0.98921,-0.01332c-0.33035,-0.00291 -0.66085,-0.00436 -0.9915,-0.00436c-0.33065,0 -0.66116,0.00145 -0.9915,0.00436c-0.33035,0.00306 -0.66008,0.0075 -0.98921,0.01332c-0.32897,0.00597 -0.65702,0.01332 -0.98416,0.02204c-0.32713,0.00888 -0.65289,0.01914 -0.97727,0.03077c-0.32438,0.01179 -0.64692,0.02503 -0.96762,0.03972c-0.32086,0.01454 -0.63949,0.03054 -0.95591,0.04799c-0.31642,0.01745 -0.63031,0.03628 -0.94168,0.05649c-0.31137,0.02036 -0.61982,0.04202 -0.92537,0.06498c-0.30555,0.02296 -0.60781,0.0473 -0.90677,0.07302c-0.29897,0.02572 -0.59426,0.05274 -0.88588,0.08106c-0.29162,0.02832 -0.57926,0.05794 -0.86292,0.08886c-0.28366,0.03092 -0.56295,0.06307 -0.83789,0.09644c-0.27493,0.03352 -0.54527,0.0682 -0.81102,0.10402c-0.2656,0.03582 -0.52622,0.07279 -0.78186,0.11091c-0.25564,0.03812 -0.50593,0.07738 -0.75086,0.1178c-0.24508,0.04041 -0.4845,0.08182 -0.71825,0.12423c-0.23391,0.04256 -0.46192,0.08611 -0.68404,0.13065c-0.22197,0.04455 -0.43789,0.09009 -0.64776,0.13662c-0.20972,0.04638 -0.41309,0.09376 -0.6101,0.14214c-0.19701,0.04822 -0.38737,0.09736 -0.57107,0.14742c-0.18385,0.0499 -0.36073,0.10065 -0.53065,0.15224c-0.17007,0.05159 -0.33303,0.10394 -0.48886,0.15706c-0.15584,0.05297 -0.30448,0.10662 -0.44592,0.16096c-0.14145,0.05434 -0.27539,0.1093 -0.40184,0.16487c-0.1266,0.05557 -0.24562,0.11167 -0.35706,0.16831c-0.11144,0.05664 -0.21515,0.11366 -0.31114,0.17107c-0.09598,0.05756 -0.18416,0.1155 -0.26452,0.17382c-0.08037,0.05832 -0.15277,0.11703 -0.21722,0.17612c-0.0646,0.05894 -0.12116,0.1181 -0.16969,0.1775c-0.04853,0.05955 -0.08894,0.11925 -0.12124,0.1791c-0.03245,0.05985 -0.05679,0.11979 -0.07302,0.17979c-0.01623,0.06001 -0.02434,0.12009 -0.02434,0.18025c0,0.06016 0.00811,0.12024 0.02434,0.18025c0.01623,0.06001 0.04057,0.11994 0.07302,0.17979c0.0323,0.05985 0.07271,0.11956 0.12124,0.1791c0.04853,0.0594 0.10509,0.11856 0.16969,0.1775c0.06445,0.05909 0.13685,0.1178 0.21722,0.17612c0.08037,0.05832 0.16854,0.11626 0.26452,0.17382c0.09598,0.05741 0.19969,0.11443 0.31114,0.17107c0.11144,0.05664 0.23046,0.11274 0.35706,0.16831c0.12644,0.05557 0.26039,0.11052 0.40184,0.16487c0.14145,0.05434 0.29009,0.108 0.44592,0.16096c0.15584,0.05312 0.31879,0.10547 0.48886,0.15706c0.16992,0.05159 0.3468,0.10233 0.53065,0.15224c0.1837,0.05006 0.37405,0.0992 0.57107,0.14742c0.19701,0.04837 0.40038,0.09575 0.6101,0.14214c0.20987,0.04654 0.42579,0.09208 0.64776,0.13662c0.22212,0.04455 0.45013,0.0881 0.68404,0.13065c0.23375,0.0424 0.47317,0.08381 0.71825,0.12423c0.24493,0.04041 0.49522,0.07968 0.75086,0.1178c0.25564,0.03812 0.51626,0.07509 0.78186,0.11091c0.26575,0.03582 0.53609,0.07049 0.81102,0.10402c0.27493,0.03337 0.55423,0.06552 0.83789,0.09644c0.28366,0.03092 0.5713,0.06054 0.86292,0.08886c0.29162,0.02832 0.58691,0.05534 0.88588,0.08106c0.29897,0.02572 0.60122,0.05006 0.90677,0.07302c0.30555,0.02296 0.61401,0.04462 0.92537,0.06498c0.31137,0.02021 0.62526,0.03904 0.94168,0.05649c0.31642,0.01745 0.63506,0.03345 0.95591,0.04799c0.3207,0.0147 0.64325,0.02794 0.96762,0.03972c0.32438,0.01163 0.65013,0.02189 0.97727,0.03077c0.32713,0.00873 0.65519,0.01607 0.98416,0.02204c0.32912,0.00582 0.65886,0.01026 0.98921,0.01332c0.33035,0.00291 0.66085,0.00436 0.9915,0.00436zM23.65098,134.90241c-9.83238,-10.94971 -13.79311,-30.81607 -11.88197,-60.65695c6.99679,2.45511 16.27026,3.71091 25.42962,3.71091c9.01561,0 18.14191,-1.21676 25.09851,-3.5961c0.61791,11.20689 0.58691,21.12331 -0.29943,29.54328l-0.22962,2.29621l2.06659,0.68886c0.45924,0.22962 15.38462,4.13318 44.31688,-20.20666l10.56257,13.0884c-18.82893,38.57635 -45.00574,46.38347 -63.83467,46.15385c-10.56257,-0.22962 -22.50287,-1.60735 -31.22847,-11.02181zM31.68772,135.59127c0.45924,0.22962 0.91848,0.45924 1.37773,0.45924c0.68886,0 1.14811,-0.22962 1.60735,-0.91848c0.91848,-0.91848 0.68886,-2.29621 -0.22962,-2.98507c-5.97015,-4.82204 -9.87371,-12.62916 -11.71068,-23.8806c-0.22962,-1.14811 -1.37773,-2.06659 -2.52583,-1.83697c-1.14811,0.22962 -2.06659,1.37773 -1.83697,2.52583c2.06659,12.39954 6.42939,21.12514 13.31803,26.63605z" fill-rule="evenodd"></path></svg>