<svg width="100%" viewBox="0 0 200 200" version="1.1" xmlns="http://www.w3.org/2000/svg" xmlns:xlink="http://www.w3.org/1999/xlink"><path d="M195.96237,148.05409c-2.52234,-0.30902 -4.80169,1.48699 -5.10807,4.00141c-0.03169,0.26148 -3.44147,26.09498 -27.74837,29.3727c-31.01024,4.17573 -37.91168,-13.00259 -42.47566,-24.37029l-0.26148,-0.64445c-4.17044,-10.36404 -7.20782,-19.72707 -9.42378,-26.56248c-2.39292,-7.37157 -3.83765,-11.82198 -5.46727,-14.20698c-1.29418,-1.89374 -31.29021,-46.78345 6.70335,-84.21443c13.26143,-13.06862 31.21362,-16.91684 48.01953,-10.2848c16.30672,6.43395 26.86357,20.81788 27.54764,37.53135c0.10565,2.53026 2.22917,4.49267 4.77528,4.39494c2.53026,-0.10301 4.49795,-2.23973 4.39759,-4.76999c-0.82669,-20.08627 -13.91909,-38.01997 -33.35034,-45.68999c-20.28172,-8.00546 -41.89988,-3.41242 -57.83156,12.28419c-16.44143,16.20108 -23.84733,36.37187 -21.41743,58.33602c2.22917,20.14702 11.70577,34.85318 13.5863,37.59474c0.88744,1.29683 2.54875,6.42602 4.31307,11.85367c2.25822,6.96483 5.35106,16.50217 9.64035,27.15674l0.25884,0.63917c4.45041,11.08244 12.3555,30.77782 41.80216,30.77782c3.20641,0 6.67165,-0.23507 10.41422,-0.73689c25.00945,-3.37016 34.24306,-25.9101 35.62969,-37.35967c0.30374,-2.51442 -1.48699,-4.79905 -4.00405,-5.10278zM26.22348,28.38957l39.69185,11.45221c0.54144,0.15847 1.08553,0.23242 1.61905,0.23242c2.5329,0 4.86508,-1.66395 5.60461,-4.21798c0.89272,-3.09812 -0.89272,-6.33094 -3.9882,-7.22366l-39.6892,-11.45485c-3.09812,-0.89272 -6.33094,0.89272 -7.22366,3.98556c-0.89801,3.09812 0.89008,6.33094 3.98556,7.2263zM176.76883,98.77472c1.51604,-0.40938 3.35431,0.39354 3.89048,0.71048c2.14729,1.34437 4.97865,0.68935 6.32037,-1.45794c1.34701,-2.14993 0.69463,-4.98129 -1.45794,-6.32302c-0.5388,-0.33543 -5.43293,-3.25131 -10.99264,-1.82771c-2.41669,0.61804 -5.83175,2.31368 -8.39107,6.88559c-4.70132,8.39371 0.82933,18.3246 4.49003,24.89588c0.90857,1.6349 2.039,3.66598 2.22653,4.38702c1.1991,4.67227 -0.32751,9.88863 -3.63164,12.41096c-3.67126,2.80495 -8.09526,1.31003 -11.16432,-0.43844c-13.56252,-7.73869 -18.08425,-21.42007 -13.44631,-40.66645c4.97072,-20.61979 20.57489,-24.67931 24.25143,-25.35809c1.42096,4.45305 1.81714,7.9764 1.82242,8.04771c0.25355,2.5197 2.50649,4.35797 5.02355,4.10441c2.52234,-0.2562 4.35797,-2.50649 4.10441,-5.02619c-0.07924,-0.82405 -2.18691,-20.30285 -15.51965,-29.77417c-6.91993,-4.91526 -15.4008,-6.22001 -25.21019,-3.87463c-14.90689,3.56561 -23.71791,15.41664 -25.47959,34.28004c-1.24664,13.35915 1.5134,25.56146 1.63226,26.0765c0.49126,2.12352 2.37443,3.55769 4.46362,3.55769c0.34071,0 0.68407,-0.03698 1.03271,-0.11621c2.46687,-0.56522 4.01197,-3.02681 3.44676,-5.49632c-0.02641,-0.11357 -2.56988,-11.44429 -1.41832,-23.35607c1.41568,-14.67183 7.62776,-23.42738 18.45666,-26.01575c7.20782,-1.72206 13.00787,-0.93498 17.73297,2.40877c2.51177,1.78016 4.50059,4.13083 6.0721,6.65845c-7.36365,1.92015 -23.7813,8.71858 -29.3278,31.73657c-7.11537,29.51533 5.76308,43.90719 17.82013,50.7875c3.74257,2.13672 7.51683,3.20113 11.08773,3.20113c3.70295,0 7.18933,-1.14628 10.18708,-3.43883c6.30189,-4.80961 9.09363,-13.64968 6.94898,-21.99321c-0.4807,-1.86468 -1.63226,-3.93802 -3.09548,-6.56072c-2.6676,-4.78848 -6.69542,-12.02799 -4.50059,-15.95016c1.16212,-2.07862 2.26086,-2.37707 2.62535,-2.4748zM64.9645,92.71318c-0.23771,-2.95285 -2.81287,-5.15561 -5.77629,-4.92054l-54.2501,4.3342c-2.95549,0.23771 -5.15825,2.82079 -4.92054,5.77365c0.2245,2.80759 2.57252,4.93903 5.34049,4.93903c0.14262,0 0.28789,-0.00528 0.43316,-0.01849l54.25274,-4.33156c2.95021,-0.23771 5.15297,-2.82079 4.92054,-5.77629zM71.82896,140.27578l-30.99176,24.05863c-2.39028,1.85676 -2.82079,5.29823 -0.96668,7.68851c1.07761,1.38927 2.69402,2.12088 4.32891,2.12088c1.17533,0 2.35859,-0.37769 3.35696,-1.1542l30.99176,-24.06127c2.39028,-1.85676 2.82079,-5.29823 0.96668,-7.68851c-1.85412,-2.38764 -5.29559,-2.82079 -7.68587,-0.96404z" fill-rule="evenodd"></path></svg>