<svg width="100%" viewBox="0 0 200 200" version="1.1" xmlns="http://www.w3.org/2000/svg" xmlns:xlink="http://www.w3.org/1999/xlink"><path d="M61.0465,0c0,0 82.92842,11.73295 111.26537,65.11449c11.35695,21.40516 15.82068,49.0793 9.96385,72.96216c-5.61099,22.85852 -25.91468,48.50084 -56.40877,58.73463c4.54326,-6.83538 8.24054,-15.17233 10.5664,-24.55531c7.17763,-28.9612 -1.40757,-56.71728 -19.15883,-61.99325c-0.56399,-0.16872 -1.14003,-0.23861 -1.70161,-0.35671c1.88479,3.43215 3.39359,7.2403 4.28778,11.45336c3.91902,18.443 -4.4348,36.34129 -18.66474,39.96626c-10.41215,2.64401 -21.02675,-3.11641 -27.53194,-13.58641c-0.56158,1.75464 -1.07014,3.54784 -1.52567,5.38925c-4.37937,17.70306 -2.85611,34.9289 3.03447,46.87154c-23.13329,-3.65148 -44.57701,-13.47313 -54.72885,-37.63316c-13.27067,-31.56182 -0.9906,-60.42179 29.95421,-82.65606c48.9395,-35.17233 10.64835,-79.71077 10.64835,-79.71077zM151.19352,164.99156c9.76862,-9.67944 16.05929,-21.00988 18.4189,-30.65076c4.73126,-19.28658 1.42203,-43.0417 -8.64305,-61.99566c-15.26392,-28.77079 -50.18559,-44.1263 -74.81562,-51.68715c1.85828,7.03302 2.81514,14.93613 1.91612,23.32128c-2.00289,18.58761 -12.25838,34.65413 -30.48204,47.75609c-26.698,19.18776 -35.19161,40.93275 -25.23259,64.62521c4.61316,10.9665 12.52591,18.78766 24.37937,23.86599c-0.73994,-9.87226 0.15907,-20.38805 2.75488,-30.85804c0.53748,-2.17161 1.13521,-4.28055 1.7932,-6.35093l8.55146,-26.96071l14.66377,23.58882c3.04893,4.89998 7.49578,7.94649 11.60521,7.94649c0.7086,0 1.43167,-0.094 2.11617,-0.26753c4.12871,-1.05086 6.4377,-4.82044 7.44276,-6.97758c2.08725,-4.46132 2.60304,-10.19523 1.42685,-15.7315c-0.5182,-2.47047 -1.45577,-4.9289 -2.75006,-7.30537l-14.06122,-26.55821c0,0 16.59436,-0.30851 30.43384,5.6375c12.29212,5.28079 22.91637,15.23018 27.91034,31.37624c3.46831,11.23644 4.33116,24.14317 2.5717,37.22584z" fill-rule="evenodd"></path></svg>