<svg width="100%" viewBox="0 0 200 200" version="1.1" xmlns="http://www.w3.org/2000/svg" xmlns:xlink="http://www.w3.org/1999/xlink"><path d="M102.22217,24.44624v-22.2217c0,-1.22782 -0.99316,-2.22335 -2.22335,-2.22335c-1.23019,0 -2.22335,0.99316 -2.22335,2.22335v22.2217c0,1.22782 0.99316,2.22335 2.22335,2.22335c1.23019,0 2.22335,-0.99553 2.22335,-2.22335zM70.92691,32.41523c0.05215,0.00474 0.10429,0.00474 0.16118,0.00474c1.15434,0 2.13091,-0.89361 2.21387,-2.06691c0.4167,-5.86937 -2.34258,-9.06384 -4.775,-11.87978l-0.0083,-0.00972l-0.00735,-0.00853c-2.22691,-2.57724 -3.98639,-4.61334 -3.71167,-8.64074c0.08296,-1.22545 -0.84146,-2.28261 -2.07165,-2.36557c-1.1022,-0.08296 -2.28261,0.84146 -2.36557,2.06691c-0.39584,5.85468 2.36083,9.04512 4.7904,11.85157c2.23521,2.58601 3.99872,4.62685 3.70954,8.67298c-0.08296,1.22308 0.84146,2.28735 2.06454,2.37505zM130.36965,31.88191c4.45382,-3.86835 4.75722,-8.07803 5.02744,-11.79705c0.24414,-3.39903 0.43851,-6.0846 3.47962,-8.74409c0.92442,-0.80591 1.02161,-2.20913 0.20859,-3.13356c-0.80591,-0.92916 -2.21387,-1.01686 -3.13356,-0.20859c-4.41827,3.86124 -4.72167,8.06381 -4.99188,11.77098c-0.24414,3.40377 -0.43851,6.09171 -3.50569,8.75357c-0.92442,0.80828 -1.02398,2.20913 -0.22044,3.1383c0.44325,0.50488 1.05953,0.76324 1.67818,0.76324c0.5191,-0.00237 1.0382,-0.17777 1.45774,-0.5428zM154.99247,48.14938l15.71518,-15.71518c0.86753,-0.86753 0.86753,-2.27313 0,-3.14304c-0.86753,-0.86991 -2.27313,-0.86753 -3.14304,0l-15.71518,15.71518c-0.86753,0.86753 -0.86753,2.27313 0,3.14304c0.43377,0.43377 1.00264,0.64947 1.57152,0.64947c0.56888,0 1.13775,-0.2157 1.57152,-0.64947zM48.14819,45.00634l-15.71518,-15.71518c-0.86753,-0.86753 -2.27313,-0.86753 -3.14304,0c-0.86991,0.86753 -0.86753,2.27313 0,3.14304l15.71518,15.71518c0.43377,0.43377 1.00264,0.64947 1.57152,0.64947c0.56888,0 1.13775,-0.2157 1.57152,-0.64947c0.86753,-0.86991 0.86753,-2.2755 0,-3.14304zM99.99881,168.88607c37.98428,0 68.88607,-30.90179 68.88607,-68.88607c0,-37.98428 -30.90179,-68.88607 -68.88607,-68.88607c-37.98428,0 -68.88607,30.90179 -68.88607,68.88607c0,37.98428 30.90179,68.88607 68.88607,68.88607zM99.99881,35.5559c35.53338,0 64.4441,28.91072 64.4441,64.4441c0,35.53338 -28.91072,64.4441 -64.4441,64.4441c-35.53338,0 -64.4441,-28.91072 -64.4441,-64.4441c0,-35.53338 28.91072,-64.4441 64.4441,-64.4441zM167.57884,70.93284c-0.0877,1.22545 0.83909,2.28735 2.06217,2.37505c0.40058,0.02607 0.78931,0.03793 1.16382,0.03793c5.15069,0 8.10173,-2.55283 10.73278,-4.82596l0.06021,-0.05191c2.54975,-2.19847 4.53678,-3.91173 8.58433,-3.66711c1.11168,0.13511 2.28261,-0.84146 2.36557,-2.07165c0.08296,-1.22545 -0.8462,-2.28261 -2.07165,-2.36557c-5.84093,-0.40201 -9.02545,2.35254 -11.82929,4.77808l-0.01991,0.01707c-2.58601,2.23521 -4.66952,4.01057 -8.67772,3.70954c-1.13301,-0.09481 -2.28261,0.83672 -2.37031,2.06454zM19.76131,69.03896c3.40377,0.24651 6.09408,0.44325 8.74883,3.50569c0.44325,0.50251 1.05953,0.76324 1.67818,0.76324c0.51673,0 1.0382,-0.17777 1.45774,-0.5428c0.92442,-0.80828 1.02398,-2.20913 0.22044,-3.1383c-3.86124,-4.44434 -8.07329,-4.75248 -11.78757,-5.0227c-3.39903,-0.24651 -6.0846,-0.44325 -8.74172,-3.48436c-0.82013,-0.92442 -2.22335,-1.00738 -3.1383,-0.21333c-0.92442,0.80591 -1.02161,2.21387 -0.21333,3.1383c3.86835,4.41827 8.06855,4.72404 11.77572,4.99425zM2.22335,102.22335h22.2217c1.22782,0 2.22335,-0.99316 2.22335,-2.22335c0,-1.23019 -0.99316,-2.22335 -2.22335,-2.22335h-22.2217c-1.22782,0 -2.22335,0.99316 -2.22335,2.22335c0,1.23019 0.99553,2.22335 2.22335,2.22335zM173.3316,100c0,1.22782 0.99316,2.22335 2.22335,2.22335h22.2217c1.22782,0 2.22335,-0.99316 2.22335,-2.22335c0,-1.23019 -0.99316,-2.22335 -2.22335,-2.22335h-22.2217c-1.23019,0 -2.22335,0.99553 -2.22335,2.22335zM73.33278,115.554h8.88868c1.22782,0 2.22335,-0.99316 2.22335,-2.22335c0,-1.23019 -0.99316,-2.22335 -2.22335,-2.22335h-8.88868c-1.22782,0 -2.22335,0.99316 -2.22335,2.22335c0,1.23019 0.99553,2.22335 2.22335,2.22335zM117.77617,115.554h8.88868c1.22782,0 2.22335,-0.99316 2.22335,-2.22335c0,-1.23019 -0.99316,-2.22335 -2.22335,-2.22335h-8.88868c-1.22782,0 -2.22335,0.99316 -2.22335,2.22335c0,1.23019 0.99553,2.22335 2.22335,2.22335zM99.99881,142.22004c8.5758,0 15.554,-6.9782 15.554,-15.554c0,-1.22782 -0.99316,-2.22335 -2.22335,-2.22335c-1.23019,0 -2.22335,0.99316 -2.22335,2.22335c0,6.12726 -4.9824,11.11203 -11.11203,11.11203c-6.12963,0 -11.11203,-4.9824 -11.11203,-11.11203c0,-1.22782 -0.99316,-2.22335 -2.22335,-2.22335c-1.23019,0 -2.22335,0.99316 -2.22335,2.22335c0.00948,8.5758 6.98769,15.554 15.56348,15.554zM18.46001,131.48251l-0.07656,0.06637c-2.54311,2.19965 -4.58087,3.96245 -8.5656,3.64791c-1.20649,-0.12563 -2.28261,0.84146 -2.37031,2.06691c-0.08296,1.22308 0.84146,2.28735 2.06691,2.37031c0.38636,0.02607 0.75376,0.0403 1.11642,0.0403c5.15069,0 8.10647,-2.55757 10.73752,-4.8307l0.04006,-0.03461c2.56207,-2.21411 4.57471,-3.95321 8.62818,-3.67494c1.11168,0.09481 2.28735,-0.83435 2.37268,-2.06217c0.0877,-1.22545 -0.83672,-2.28735 -2.06217,-2.37505c-5.89023,-0.37688 -9.07119,2.34661 -11.88713,4.78566zM188.66042,138.87789c0.43851,0.50488 1.05479,0.76087 1.67107,0.76087c0.52147,0 1.04057,-0.18251 1.46248,-0.55228c0.92442,-0.80591 1.02161,-2.20913 0.20859,-3.13356c-3.86124,-4.41827 -8.06381,-4.72167 -11.77098,-4.99188c-3.40377,-0.24414 -6.09171,-0.43851 -8.75357,-3.50569c-0.81065,-0.92442 -2.20913,-1.02398 -3.1383,-0.22044c-0.92442,0.80828 -1.02635,2.20913 -0.22281,3.1383c3.86835,4.45382 8.07803,4.75722 11.79705,5.02744c3.39903,0.24177 6.0846,0.43614 8.74646,3.47725zM154.99247,151.85062c-0.86753,-0.86753 -2.27313,-0.86753 -3.14304,0c-0.86991,0.86753 -0.86753,2.27313 0,3.14304l15.71518,15.71518c0.43377,0.43377 1.00264,0.65184 1.57152,0.65184c0.56888,0 1.13538,-0.21807 1.57152,-0.65184c0.86753,-0.86753 0.86753,-2.27313 0,-3.14304zM32.43064,170.71121l15.71518,-15.71518c0.86753,-0.86753 0.86753,-2.27313 0,-3.14304c-0.86753,-0.86991 -2.27313,-0.86753 -3.14304,0l-15.71518,15.71518c-0.86753,0.86753 -0.86753,2.27313 0,3.14304c0.43377,0.43377 1.00264,0.65184 1.57152,0.65184c0.56888,-0.00237 1.13775,-0.21807 1.57152,-0.65184zM131.12578,169.95982c0.0877,-1.22308 -0.83909,-2.28735 -2.06217,-2.37268c-1.09271,-0.07348 -2.28735,0.83435 -2.37505,2.06217c-0.41718,5.88075 2.34898,9.07593 4.78803,11.89187c2.23047,2.5789 3.98924,4.615 3.71902,8.64454c-0.08296,1.22545 0.8462,2.28261 2.07165,2.36557c0.04741,0.00474 0.09955,0.00474 0.1517,0.00474c1.15908,0 2.13565,-0.89835 2.21387,-2.07402c0.39063,-5.84377 -2.35965,-9.029 -4.78756,-11.84019l-0.00759,-0.00901c-2.23521,-2.58364 -3.99635,-4.62448 -3.71191,-8.67298zM64.04589,192.00612c4.41827,-3.85887 4.72167,-8.05907 4.99188,-11.77098c0.24651,-3.40377 0.43851,-6.09408 3.50332,-8.74883c0.92442,-0.80591 1.02398,-2.20913 0.22044,-3.1383c-0.81065,-0.91968 -2.21387,-1.02398 -3.1383,-0.22044c-4.44434,3.86124 -4.75248,8.07329 -5.01796,11.78757c-0.24651,3.40377 -0.44325,6.08934 -3.48436,8.74172c-0.92442,0.80828 -1.02161,2.21387 -0.21333,3.1383c0.43851,0.50488 1.05479,0.76087 1.67581,0.76087c0.5191,-0.00237 1.04057,-0.18488 1.46248,-0.54991zM102.22217,197.77546v-22.2217c0,-1.22782 -0.99316,-2.22335 -2.22335,-2.22335c-1.23019,0 -2.22335,0.99316 -2.22335,2.22335v22.2217c0,1.22782 0.99316,2.22335 2.22335,2.22335c1.23019,0 2.22335,-0.99553 2.22335,-2.22335z" fill-rule="evenodd"></path></svg>