<svg width="100%" viewBox="0 0 200 200" version="1.1" xmlns="http://www.w3.org/2000/svg" xmlns:xlink="http://www.w3.org/1999/xlink"><path d="M88.5381,139.71295c6.19851,1.07987 11.68812,4.64215 15.19956,9.86312c1.4214,2.17288 3.39576,3.92796 5.72033,5.08474v-84.11006h-94.91513c-1.69523,-0.02373 -3.21307,-1.05593 -3.8586,-2.62351c-0.64553,-1.56779 -0.29445,-3.36928 0.8925,-4.57987l29.02539,-28.17793l-29.02539,-27.96606c-1.18695,-1.21059 -1.53803,-3.01218 -0.8925,-4.57987c0.64553,-1.56769 2.16337,-2.5997 3.8586,-2.62351h99.15241c2.34025,0 4.23728,1.89709 4.23728,4.23728v151.69471c2.94004,-0.44428 5.67457,-1.77479 7.83897,-3.81355l57.20331,-53.1779h-37.92368c-2.34025,0 -4.23728,-1.89703 -4.23728,-4.23728c0,-2.34025 1.89703,-4.23728 4.23728,-4.23728h48.51688c2.34025,0 4.23728,1.89703 4.23728,4.23728v48.51688c0,2.34025 -1.89703,4.23728 -4.23728,4.23728c-2.34025,0 -4.23728,-1.89703 -4.23728,-4.23728v-38.55927l-57.62704,53.81349c-4.94936,4.62521 -11.67986,6.84427 -18.40951,6.06927c-6.72965,-0.775 -12.77964,-4.46567 -16.54807,-10.09469c-2.22563,-3.29449 -5.69745,-5.54046 -9.61482,-6.21991c-3.91737,-0.67966 -7.94257,0.26589 -11.14787,2.61822l-66.52534,47.88129c-1.18229,1.20635 -2.96807,1.59512 -4.54491,0.98983c-1.57684,-0.60551 -2.64351,-2.08962 -2.71474,-3.77711c-0.07125,-1.6875 0.86657,-3.25614 2.38678,-3.99237l66.31347,-48.09316c5.06991,-3.72627 11.44066,-5.22245 17.63938,-4.14279zM49.7123,38.34741l-24.57624,23.72878h84.32192v-53.60162h-84.32192l24.57624,23.72878c0.84216,0.8 1.31885,1.91059 1.31885,3.07203c0,1.16144 -0.47669,2.27203 -1.31885,3.07203z" fill-rule="evenodd"></path></svg>