<svg width="100%" viewBox="0 0 200 200" version="1.1" xmlns="http://www.w3.org/2000/svg" xmlns:xlink="http://www.w3.org/1999/xlink"><path d="M200,37.54074c0,0 -17.51639,11.8743 -31.42032,-2.01488c-13.90604,-13.88707 -19.63454,-7.23966 -19.63454,-7.23966c0,0 -0.37305,-2.94012 -2.60501,-5.26904c0,0 9.10068,-15.50151 24.42936,-8.95104l-4.02344,1.90528c0,0 14.69429,6.01513 18.74091,13.47398l-6.8097,-1.51959c0,0 14.87976,13.24847 21.32274,9.61494zM147.14102,36.79886c0,13.37282 -10.84157,24.21439 -24.21649,24.21439c-13.37282,0 -24.21228,-10.84157 -24.21228,-24.21439c0,-13.37282 10.83946,-24.21439 24.21228,-24.21439c13.37282,0 24.21649,10.84157 24.21649,24.21439zM24.21439,18.93261c13.37282,0 24.21439,10.84157 24.21439,24.21439c0,13.37492 -10.84157,24.21649 -24.21439,24.21649c-13.37282,0 -24.21439,-10.84157 -24.21439,-24.21649c0,-13.37282 10.84157,-24.21439 24.21439,-24.21439zM151.06961,66.16637c2.13923,14.79967 0.99901,22.92031 0.99901,22.92031c26.60231,2.41322 33.08323,16.94101 33.08744,16.94101c-3.39115,-0.20022 -10.36525,4.78218 -14.35075,10.16503c-3.98761,5.38074 -8.37145,7.971 -8.37145,7.971c2.19192,5.9793 4.18362,13.15152 0,22.11942c-4.18783,8.97212 -12.15883,17.73979 -12.15883,17.73979c0,0 13.75008,16.94101 4.18362,18.9327c-8.10146,1.68672 -16.06087,-8.77316 -20.00337,-13.95452c-0.71301,-0.93683 -1.2945,-1.70106 -1.72192,-2.18981c-2.46169,-2.81114 4.22872,-11.20703 10.35387,-18.89371c0.81839,-1.02683 1.62645,-2.04101 2.40142,-3.02759c6.57997,-8.37145 1.79569,-12.75739 1.79569,-12.75739c8.57167,-0.59645 10.56337,-5.28168 10.56337,-5.28168c-21.72319,10.06808 -28.89751,-10.86897 -28.89751,-10.86897h-2.99071l3.19093,4.39438c-1.39524,2.9886 -7.97311,2.78837 -7.97311,2.78837c0,0 -1.67977,-9.11754 -8.37145,-10.56337c0,0 4.78429,5.87814 8.37145,10.56337c0,0 0.99479,3.18882 4.98029,7.77288c3.9855,4.58195 -4.78429,31.28754 -15.14743,24.91201c-10.36103,-6.37764 1.79569,-22.32386 1.79569,-22.32386c-2.39004,-1.39524 -9.36624,-9.76669 -9.36624,-9.76669c0,0 -5.58096,0 -9.76669,-2.18981c-4.18572,-2.19192 2.59026,-5.9793 2.59026,-5.9793c-4.18572,-6.37764 5.18262,-9.56646 5.18262,-9.56646c6.77598,-13.15362 23.71488,-15.14532 23.71488,-15.14532l0.39834,-5.58096c9.16602,-1.59546 12.95551,-8.46207 12.95551,-8.46207c-10.76359,10.27462 -39.26486,8.46207 -41.37037,8.06373c-2.10551,-0.39834 -2.07811,3.18882 -2.07811,3.18882c-0.9969,-4.18572 -9.56646,-4.18572 -12.15672,-5.38074c-2.59237,-1.19713 -0.20233,-4.68523 -0.20233,-4.68523c0,0 -9.78566,5.00559 -9.76669,2.89165c0.00843,-0.84515 12.15883,-5.77908 12.15883,-5.77908c-1.79569,-2.79048 -3.9855,-3.38904 -3.9855,-3.38904c30.09463,2.79048 32.687,-7.77288 32.687,-7.77288c13.9503,4.38384 22.12153,-2.19192 22.12153,-2.19192c0,0 13.04614,-10.16924 15.14743,4.38595zM75.33458,100.24861c12.55717,3.18882 5.38285,36.27205 5.38285,36.27205c0,0 11.9565,-9.9627 15.54366,-3.38483c3.16648,5.80816 -2.52029,10.21561 -11.70991,17.33787c-1.22094,0.94611 -2.50385,1.94048 -3.83586,2.99218c-11.35794,8.9679 -13.75008,0 -13.75008,-10.76148v-28.10083l-15.54577,6.57787c0,0 1.79358,4.18572 5.38074,20.9244c3.58927,16.74289 -16.73657,32.28866 -16.73657,32.28866c18.2393,0 11.35794,13.15362 0,13.15362c-11.35372,0 -12.55928,-2.98649 -18.2393,-13.15362c-5.68002,-10.16713 5.9793,-14.35075 5.9793,-14.35075c12.85434,-4.78429 12.25789,-14.9472 12.25789,-14.9472c-11.96071,-13.15784 -16.14433,-20.33216 -15.54787,-36.47649c0.59856,-16.14433 -8.9679,-37.66729 -8.9679,-37.66729c20.32794,2.9886 25.70869,-4.78429 25.70869,-4.78429c19.43221,0 29.29795,8.9679 29.29795,8.9679c9.56436,-4.78429 11.36004,0 11.36004,0c0,0 -13.15573,4.78218 -11.36004,7.17432c1.79147,2.39214 9.56436,-1.79358 9.56436,-1.79358c0,0 -1.79147,2.99071 4.78429,4.78429c1.5335,0.41815 3.00188,0.64135 4.28394,0.83609c4.21776,0.64114 6.42043,0.97583 2.29393,6.93679c-5.38285,7.77288 -21.52507,0 -21.52507,0l-35.87371,-7.77288l22.26484,7.77288v7.17432c0,0 7.39984,-2.94434 18.98961,0zM85.90006,78.52331c0,0 6.13948,-0.29928 15.50572,-1.00744c9.36202,-0.70605 24.95205,-5.16998 29.338,-8.55902c0,0 -19.33315,6.17953 -28.30105,6.17953c-8.9679,0 -16.54267,3.38694 -16.54267,3.38694zM36.47017,73.94136c26.90792,5.9793 29.89652,5.9793 29.89652,5.9793c-8.97001,-7.77288 -29.89652,-5.9793 -29.89652,-5.9793zM105.22688,105.03289c0,0 6.19006,-4.76321 13.56672,1.81466c7.37244,6.57576 7.76235,5.758 7.76235,5.758c0,0 -9.36835,-18.53436 -21.32906,-7.57266z" fill-rule="evenodd"></path></svg>