<svg width="100%" viewBox="0 0 200 200" version="1.1" xmlns="http://www.w3.org/2000/svg" xmlns:xlink="http://www.w3.org/1999/xlink"><path d="M103.90625,0c-1.72578,0 -3.125,1.39922 -3.125,3.125v17.94969c0,1.72578 1.39922,3.125 3.125,3.125c1.72578,0 3.125,-1.39922 3.125,-3.125v-17.94969c0,-1.72578 -1.39922,-3.125 -3.125,-3.125zM16.23688,200c0.55391,0 1.11766,-0.0375 1.69062,-0.11562l33.53969,-4.56406c4.59812,-0.625 8.62656,-3.68594 10.78484,-7.68281c0.04344,0.00156 0.32797,-0.00938 0.75766,-0.02812h0.00234c1.65391,-0.06875 5.45187,-0.22656 5.96156,-0.0375c1.26953,0.47187 2.52906,1.31719 3.86188,2.2125c1.79141,1.2 3.82094,2.56406 6.29047,3.25625c0.27391,0.07656 0.55703,0.11562 0.84078,0.11562l64.01906,0.02344c7.54391,0 13.68141,-6.10781 13.68141,-13.61719c0,-3.02969 -0.98906,-5.82969 -2.66922,-8.09375c5.35047,-1.84844 9.20359,-6.91875 9.20359,-12.86875c0,-3.18922 -1.1,-6.11891 -2.94375,-8.43984c0.20156,-0.14797 0.38125,-0.32344 0.54219,-0.51562c4.32969,-2.28891 7.30156,-6.79937 7.30156,-12.01172c0,-3.35547 -1.63594,-6.22406 -4.07656,-8.41219c0.95937,-0.54172 1.87656,-1.22984 2.70625,-2.09969c2.425,-2.54203 3.54688,-6.06984 3.3375,-10.48734c-0.33594,-7.08469 -5.83281,-11.84391 -13.675,-11.84391l-38.43094,-0.03969c2.65891,-8.60203 6.44312,-25.24328 6.02578,-29.19609c-1.21922,-11.70344 -3.87344,-25.72016 -13.66734,-30.26422c-2.43687,-1.12844 -4.83781,-1.65484 -7.20672,-1.52219c-2.93813,0.15188 -5.85938,1.37641 -8.44797,3.54016c-5.705,4.76812 -5.36516,11.74484 -5.09203,17.35188l0.00016,0.00344c0.06016,1.22906 0.12438,10.27219 0.12438,10.27219c-0.07484,3.97875 -21.34484,38.77641 -21.95672,39.91312c-1.12297,0.85453 -4.68906,3.15562 -8.15422,5.31313c-2.27125,-2.79391 -5.49938,-4.84469 -9.07906,-5.41219l-33.62422,-5.33906c-0.66219,-0.10531 -1.31297,-0.15562 -1.94859,-0.15562c-5.91203,0 -10.4675,4.40672 -10.4675,10.54828v69.40969c0,6.23281 4.70813,10.7875 10.76813,10.7875zM163.56719,26.54109l-12.69063,12.69156c-1.22063,1.22063 -1.22063,3.19906 0,4.41891c0.61047,0.61031 1.41,0.91547 2.20953,0.91547c0.79953,0 1.59984,-0.30516 2.20953,-0.91547l12.69031,-12.69141c1.22031,-1.22078 1.22031,-3.19906 0,-4.41906c-1.22188,-1.22062 -3.2,-1.22062 -4.41875,0zM39.82547,26.54187c-1.22078,1.22 -1.22078,3.19906 0,4.41891l12.69141,12.69234c0.60969,0.61031 1.41,0.91547 2.20953,0.91547c0.79953,0 1.59984,-0.30516 2.20953,-0.91547c1.22062,-1.22 1.22062,-3.19906 0,-4.41891l-12.69156,-12.69234c-1.21922,-1.22062 -3.19828,-1.22062 -4.41891,0zM63.67031,125.60734c9.76719,-6.0425 10.04641,-6.65891 10.45922,-7.57141c0.29375,-0.63938 2.26672,-3.86656 4.17406,-6.98703c12.0925,-19.77922 18.64547,-31.39266 18.64547,-36.11141c0,0 -0.06641,-9.24766 -0.13125,-10.57891c-0.28844,-5.89906 -0.23953,-9.66734 2.85719,-12.25516c1.56328,-1.30688 3.16625,-2.01188 4.76156,-2.09422c1.33578,-0.0725 2.75031,0.25406 4.25641,0.95125c7.82922,3.63172 9.46344,19.33063 10.07984,25.245c0.39297,3.72547 -5.43203,27.00656 -6.87547,29.98047c-0.59281,0.92625 -0.65766,2.10109 -0.15797,3.09141c0.53094,1.05281 1.60828,1.71656 2.78703,1.71812l42.86422,0.04422c2.15156,0 7.18281,0.57375 7.43594,5.89c0.125,2.64422 -0.41875,4.62188 -1.61719,5.87766c-1.01562,1.06344 -2.45469,1.58078 -3.7875,1.82953c-0.00312,0 -0.00625,-0.00156 -0.00938,-0.00156h-21.99484c-1.72578,0 -3.125,1.39922 -3.125,3.125c0,1.72578 1.39922,3.125 3.125,3.125h16.82813c0.05562,0.01219 0.10672,0.03359 0.16406,0.04266c3.99328,0.62109 8.44172,3.52797 8.44172,6.70484c0,3.16766 -2.03594,5.85172 -4.86875,6.89234h-20.56516c-1.72578,0 -3.125,1.39922 -3.125,3.125c0,1.72578 1.39922,3.125 3.125,3.125h11.93c0.44094,0.27312 0.94844,0.45172 1.50297,0.47609c3.98188,0.17234 7.10094,3.39969 7.10094,7.34875c0,4.0625 -3.33344,7.36875 -7.43047,7.36875h-0.73859c-0.35859,-0.14375 -0.74766,-0.22813 -1.15734,-0.22813h-12.55562c-1.72578,0 -3.125,1.4 -3.125,3.125c0,1.72656 1.39922,3.125 3.125,3.125h7.25859c0.31281,0.12188 0.64547,0.20937 0.99938,0.225c3.97578,0.175 7.09,3.40312 7.09,7.34687c0,4.0625 -3.33406,7.36719 -7.43172,7.36719l-63.54453,-0.02344c-1.37328,-0.46719 -7.32797,-4.4625 -9.29328,-5.19375c-1.02391,-0.37969 -2.18516,-0.56406 -3.54844,-0.56406c-0.92469,0 -1.81891,0.07813 -2.68406,0.15625c-0.335,0.03125 -0.66688,0.05781 -0.99641,0.08281c0.00078,-0.04219 0.00688,-0.08594 0.00688,-0.12812v-52.17312c0,-0.85297 -0.08844,-1.70125 -0.25562,-2.53297zM16.40625,93.75h17.95047c1.72578,0 3.125,-1.39922 3.125,-3.125c0,-1.72578 -1.39922,-3.125 -3.125,-3.125h-17.95047c-1.72578,0 -3.125,1.39922 -3.125,3.125c0,1.72578 1.39922,3.125 3.125,3.125zM191.40625,87.5h-17.94844c-1.72656,0 -3.125,1.39922 -3.125,3.125c0,1.72578 1.39844,3.125 3.125,3.125h17.94844c1.725,0 3.125,-1.39922 3.125,-3.125c0,-1.72578 -1.4,-3.125 -3.125,-3.125zM29.4625,127.11797c0,-1.72578 1.39922,-3.125 3.125,-3.125c1.72562,0 3.125,1.39922 3.125,3.125v9.27422c0,1.72578 -1.39938,3.125 -3.125,3.125c-1.72578,0 -3.125,-1.39922 -3.125,-3.125zM32.5875,145.66656c1.73641,0 3.14484,1.38391 3.14484,3.09297c0,1.70594 -1.40844,3.08984 -3.14484,3.08984c-1.73656,0 -3.14406,-1.38391 -3.14406,-3.08984c0,-1.70906 1.4075,-3.09297 3.14406,-3.09297z" fill-rule="evenodd"></path></svg>