<svg width="100%" viewBox="0 0 200 200" version="1.1" xmlns="http://www.w3.org/2000/svg" xmlns:xlink="http://www.w3.org/1999/xlink"><path d="M180.98291,41.98718h-47.22222v-11.75214c0,-8.54701 -6.83761,-15.38462 -15.38462,-15.38462h-36.75214c-8.54701,0 -15.38462,6.83761 -15.38462,15.38462v11.75214h-47.22222c-10.47009,0 -19.01709,8.54701 -19.01709,19.01709v105.12821c0,10.47009 8.54701,19.01709 19.01709,19.01709h161.96581c10.47009,0 19.01709,-8.54701 19.01709,-19.01709v-105.12821c0,-10.47009 -8.54701,-19.01709 -19.01709,-19.01709zM81.62393,23.61111h36.53846c3.84615,0 6.83761,2.99145 6.83761,6.83761v11.75214h-50v-11.75214c0,-3.84615 2.99145,-6.83761 6.62393,-6.83761zM191.45299,166.13248c0,5.76923 -4.70085,10.47009 -10.47009,10.47009h-161.96581c-5.76923,0 -10.47009,-4.70085 -10.47009,-10.47009v-105.12821c0,-5.76923 4.70085,-10.47009 10.47009,-10.47009h161.75214c5.76923,0 10.47009,4.70085 10.47009,10.47009v105.12821zM179.70085,97.54274h-67.94872c-0.42735,-4.2735 -3.84615,-7.47863 -8.11966,-7.47863h-7.05128c-4.2735,0 -7.69231,3.20513 -8.11966,7.47863h-68.37607c-2.35043,0 -4.2735,1.92308 -4.2735,4.2735c0,2.35043 1.92308,4.2735 4.2735,4.2735h68.37607c0.42735,4.2735 3.84615,7.47863 8.11966,7.47863h7.05128c4.2735,0 7.69231,-3.20513 8.11966,-7.47863h68.16239c2.35043,0 4.2735,-1.92308 4.2735,-4.2735c0,-2.35043 -2.13675,-4.2735 -4.48718,-4.2735zM103.20513,105.02137h-6.41026v-6.41026h6.41026z" fill-rule="evenodd"></path></svg>