<svg width="100%" viewBox="0 0 200 200" version="1.1" xmlns="http://www.w3.org/2000/svg" xmlns:xlink="http://www.w3.org/1999/xlink"><path d="M0,110.40062v0.04167c0.00063,0.1275 0.00712,0.25542 0.01962,0.38375c0.14439,1.4825 1.06912,2.77542 2.42552,3.39083l45.81569,20.83333c0.54208,0.24375 1.13042,0.36875 1.725,0.36667h145.78833c1.5025,0.02125 2.9,-0.76833 3.6575,-2.06625c0.7575,-1.29792 0.7575,-2.90292 0,-4.20083c-0.7575,-1.29792 -2.155,-2.0875 -3.6575,-2.06625h-144.885l-27.48637,-12.50042h172.37137c1.5025,0.02125 2.9,-0.76833 3.6575,-2.06625c0.7575,-1.29792 0.7575,-2.90292 0,-4.20083c-0.7575,-1.29792 -2.155,-2.0875 -3.6575,-2.06625h-178.59883l17.49304,-12.5h52.83288c2.30083,-0.00042 4.16625,-1.86542 4.16625,-4.16667v-25c0,-2.30125 -1.86542,-4.16625 -4.16625,-4.16667h-6.185l11.66167,-8.33292h102.79625c1.5025,0.02125 2.9,-0.76833 3.6575,-2.06625c0.7575,-1.29792 0.7575,-2.90292 0,-4.20083c-0.7575,-1.29792 -2.155,-2.0875 -3.6575,-2.06625h-104.13083v-0.00042c-0.87,0.00083 -1.71833,0.27417 -2.425,0.78125l-87.47304,62.5c-1.09584,0.7825 -1.7387,2.04042 -1.7453,3.36958zM200,89.59146v-0.01667c-0.00125,-0.72292 -0.19083,-1.44583 -0.56792,-2.09208c-0.7575,-1.29792 -2.15542,-2.0875 -3.65792,-2.06625h-4.10958v-16.66667h4.10958c1.5025,0.02125 2.90042,-0.76833 3.65792,-2.06625c0.37708,-0.64625 0.56667,-1.36917 0.56792,-2.09208v-0.01667c-0.00125,-0.72292 -0.19083,-1.44583 -0.56792,-2.09208c-0.7575,-1.29792 -2.15542,-2.0875 -3.65792,-2.06625h-8.27625c-2.30083,0.00042 -4.16625,1.86542 -4.16625,4.16667v25c0,2.30125 1.86542,4.16625 4.16625,4.16667h8.27625c1.5025,0.02125 2.90042,-0.76833 3.65792,-2.06625c0.37708,-0.64625 0.56667,-1.36917 0.56792,-2.09208zM129.16667,60.41646c2.30083,0.00042 4.16625,1.86542 4.16625,4.16667v25c0,2.30125 -1.86542,4.16625 -4.16625,4.16667h-24.99958c-2.30083,-0.00042 -4.16625,-1.86542 -4.16625,-4.16667v-25c0,-2.30125 1.86542,-4.16625 4.16625,-4.16667zM170.83167,60.41646c2.30125,0.00042 4.16667,1.86542 4.16667,4.16667v25c0,2.30125 -1.86542,4.16625 -4.16667,4.16667h-24.99917c-2.30083,-0.00042 -4.16625,-1.86542 -4.16625,-4.16667v-25c0,-2.30125 1.86542,-4.16625 4.16625,-4.16667zM83.33458,85.41646h-37.00417l23.48542,-16.78208c0.335,0.08042 0.68208,0.12042 1.03542,0.11542h12.48333zM125,68.74979h-16.66625v16.66667h16.66625zM166.66542,68.74979h-16.66625v16.66667h16.66625zM4.22729,147.91646c-1.50258,-0.02125 -2.90023,0.76833 -3.65773,2.06625c-0.7575,1.29792 -0.7575,2.90292 0,4.20083c0.7575,1.29792 2.15515,2.0875 3.65773,2.06625h191.54687c1.5025,0.02125 2.9,-0.76833 3.6575,-2.06625c0.7575,-1.29792 0.7575,-2.90292 0,-4.20083c-0.7575,-1.29792 -2.155,-2.0875 -3.6575,-2.06625z" fill-rule="evenodd"></path></svg>