<svg width="100%" viewBox="0 0 200 200" version="1.1" xmlns="http://www.w3.org/2000/svg" xmlns:xlink="http://www.w3.org/1999/xlink"><path d="M183.30667,32.57556c-7.60222,0 -14.12,5.08889 -16.06444,12.30667c-38.75333,0.10444 -58.31333,22.61556 -68.13556,43.69556c-5.96222,-26.83333 -22.44,-57.12667 -65.74222,-62.91111c-0.45778,-8.79333 -7.76,-15.81111 -16.67111,-15.81111c-9.20889,0 -16.69333,7.48444 -16.69333,16.69333c0,9.20889 7.48444,16.69333 16.69333,16.69333c5.17778,0 10.07333,-2.48667 13.21556,-6.59778c22.83111,17.49778 14.96222,39.37556 7.34667,60.54222c-5.53333,15.38222 -11.19778,31.15111 -3.62444,44.07111c-4.95556,0.79111 -9.43778,3.61778 -12.04222,7.98889c-4.8,8.07556 -2.13778,18.55778 5.93333,23.35556c1.18978,0.71311 29.46911,17.32133 68.51467,17.54222h1.57067c39.04333,-0.22067 67.32489,-16.82711 68.51467,-17.54222c8.06889,-4.79778 10.73111,-15.28 5.93111,-23.35556c-1.9,-3.19556 -4.84444,-5.50889 -8.19556,-6.9c0.55556,-0.85111 1.03556,-1.72889 1.36889,-2.68444c2.78889,-7.99556 -3.20889,-17.89778 -9.56444,-28.38c-7.28444,-12.00889 -14.80667,-24.43556 -10.91556,-35.32222c2.67778,-7.5 10.53111,-13.57778 23.97778,-18.56444c2.92667,5.25111 8.47333,8.56444 14.58444,8.56444c9.11711,0 16.544,-7.33622 16.69111,-16.41867v-0.54933c-0.14711,-9.08244 -7.57622,-16.41644 -16.69333,-16.41644zM16.69333,39.45333c-7.11333,0 -12.90667,-5.79111 -12.90667,-12.90667c0,-7.11556 5.79111,-12.90667 12.90667,-12.90667c6.94444,0 12.58,5.52222 12.83111,12.56444l-0.01556,-0.00889c-0.51556,2.98222 -1.33111,5.99111 -1.85556,6.99556c-2.38222,3.91111 -6.44889,6.26222 -10.96,6.26222zM141.18,74.68667c-4.50222,12.58222 3.86,26.38222 11.24222,38.55556c5.88,9.69556 11.42889,18.86 9.23111,25.16889c-0.35556,1.02889 -0.99778,1.95333 -1.76889,2.83111c-0.82889,-0.12667 -1.64,-0.33111 -2.49111,-0.33111c-3.05556,0 -6.06444,0.82889 -8.68222,2.39556c-0.20889,0.12 -20.90222,11.84889 -48.82889,12.67778c-1.02222,0.02889 -2.02667,0.08 -3.06222,0.08c-1.28667,0 -2.53778,-0.05111 -3.79556,-0.09556c-27.39333,-0.98222 -47.28,-12.19556 -48.13111,-12.68444c-2.1,-1.23556 -4.44444,-1.87111 -6.84889,-2.12222c-8.35778,-11.60444 -3.14222,-26.26222 2.77333,-42.69778c7.75778,-21.56444 16.46222,-45.96667 -9.16222,-65.18667c0.42,-1.22889 0.78444,-2.55778 1.05778,-3.81778c44.39778,5.89556 59.26444,38.92667 63.84889,65.80889c0.14,0.83556 0.82,1.48 1.67111,1.56c0.71556,0.07333 1.63333,-0.4 1.95111,-1.18222c8.40889,-21.33111 26.84,-46.70667 66.73333,-46.95778c0.06667,1.47333 0.24444,3.36667 0.60667,5.14667c-14.6,5.40889 -23.26667,12.22889 -26.34444,20.85111zM183.30667,62.17333c-5.00667,0 -9.46667,-2.91556 -11.60444,-7.41111c-0.81333,-2.27556 -1.02,-5.84222 -1.04222,-7.77333c1.10889,-6.16 6.38889,-10.62667 12.64444,-10.62667c7.11556,0 12.90667,5.78889 12.90667,12.90667c0,7.11778 -5.78889,12.90444 -12.90444,12.90444zM62.11778,52.89778c-0.62667,-0.50222 -1.47778,-0.54667 -2.16667,-0.13333c-0.67333,0.41556 -1.02222,1.19778 -0.86667,1.98222c3.40578,17.1 -2.91756,34.67044 -7.54533,47.52956l-0.01244,0.03489c-8.54222,23.71111 -9.28889,30.56 1.54444,37.32667c11.19111,4.39333 20.76889,6.62 28.46889,6.62c1.22,0 2.38,-0.05111 3.49778,-0.16222c0.96889,-0.09556 1.70889,-0.90889 1.70889,-1.88667v-19.20889c0,-0.42667 0.02222,-0.85778 0.06667,-1.32444c0.14,-1.67111 3.18889,-41.20889 -18.6,-65.09778c-1.86444,-2.04 -3.91111,-3.95556 -6.09556,-5.68zM83.04222,123.32444c-0.06,0.55333 -0.08222,1.11556 -0.08222,1.67778v17.44222c-7.47556,0.27333 -17.06222,-1.84222 -28.18667,-6.17556c-7.57333,-4.74889 -8.45333,-8.33556 0.32444,-32.69111l0.01067,-0.03c4.31667,-11.99222 10.068,-27.97022 8.45822,-44.33c0.63556,0.62 1.25111,1.26444 1.84889,1.92222c20.68889,22.67333 17.76,60.61333 17.62667,62.18444zM168.79778,151.18444c3.73556,6.27778 1.66444,14.42889 -4.61556,18.16444c-1.16667,0.69556 -28.93778,17.00889 -67.36222,17.00889c-38.42444,0 -66.19333,-16.31556 -67.36222,-17.00889c-6.27778,-3.73556 -8.34889,-11.88667 -4.61333,-18.16444c2.34444,-3.94222 6.63333,-6.38222 11.21111,-6.45778c0.06667,0 0.12667,-0.02889 0.19333,-0.02889c2.35333,0 4.68,0.63556 6.73778,1.86444c0.08,0.04444 0.38444,0.21556 0.78889,0.42667c2.55111,1.37556 11.25556,5.75556 23.88222,9.03778c7.36,1.90667 16.03556,3.41556 25.56667,3.72889c1.19111,0.04444 2.37333,0.09556 3.59556,0.09556c0.90222,0 1.76667,-0.05111 2.65333,-0.06667c8.40889,-0.20667 16.18889,-1.34444 23.00222,-2.90667c16.95111,-3.88222 27.98667,-10.21333 28.15778,-10.31111c1.10889,-0.65778 2.31333,-1.11778 3.54889,-1.42889c1.05111,-0.26444 2.12444,-0.44222 3.21111,-0.44222c1.31556,0 2.58667,0.25111 3.81556,0.62c3.12889,0.94889 5.88667,3 7.58889,5.86889z" fill-rule="evenodd"></path></svg>