<svg width="100%" viewBox="0 0 200 200" version="1.1" xmlns="http://www.w3.org/2000/svg" xmlns:xlink="http://www.w3.org/1999/xlink"><path d="M100.35971,63.75899c-2.15827,0 -3.77698,-1.79856 -3.77698,-3.77698v-32.19424c0,-2.15827 1.79856,-3.77698 3.77698,-3.77698c1.97842,0 3.77698,1.79856 3.77698,3.77698v32.19424c0.17986,2.15827 -1.61871,3.77698 -3.77698,3.77698zM62.76978,76.16906c-1.25899,0 -2.33813,-0.53957 -3.05755,-1.61871l-19.06475,-25.89928c-1.25899,-1.79856 -0.89928,-4.13669 0.89928,-5.39568c1.79856,-1.25899 4.13669,-0.89928 5.39568,0.89928l19.06475,25.89928c1.25899,1.79856 0.89928,4.13669 -0.89928,5.39568c-0.71942,0.35971 -1.61871,0.71942 -2.33813,0.71942zM137.94964,76.16906c-0.71942,0 -1.61871,-0.17986 -2.33813,-0.71942c-1.79856,-1.25899 -2.15827,-3.59712 -0.89928,-5.39568l19.06475,-25.89928c1.25899,-1.79856 3.59712,-2.15827 5.39568,-0.89928c1.79856,1.25899 2.15827,3.59712 0.89928,5.39568l-19.06475,25.89928c-0.53957,1.07914 -1.79856,1.61871 -3.05755,1.61871zM42.26619,139.83813c5.06547,0 8.90108,-0.50881 12.08327,-1.25899h0.3268c0.1982,-0.05953 0.38975,-0.13417 0.57338,-0.22284c2.94964,-0.76475 5.34442,-1.7295 7.7,-2.65486c4.67626,-1.79856 8.99281,-3.59712 17.80576,-3.59712c8.99281,0 13.30935,1.79856 17.80576,3.59712c5.21583,1.97842 10.43165,4.13669 20.68345,4.13669c10.43165,0 15.64748,-2.15827 20.68345,-4.13669c4.67626,-1.79856 8.81295,-3.59712 17.80576,-3.59712c8.99281,0 13.30935,1.79856 17.80576,3.59712c5.21583,1.97842 10.43165,4.13669 20.68345,4.13669c2.15827,0 3.77698,-1.79856 3.77698,-3.77698c0,-1.97842 -1.61871,-3.77698 -3.77698,-3.77698c-8.99281,0 -13.30935,-1.79856 -17.80576,-3.59712c-5.21583,-1.97842 -10.43165,-4.13669 -20.68345,-4.13669c-2.1205,0 -4.02518,0.08921 -5.7554,0.24784c-0.15827,-28.28291 -23.11888,-51.14712 -51.43885,-51.14712c-28.41727,0 -51.43885,23.02158 -51.43885,51.43885c0,2.2473 0.14047,4.4946 0.42122,6.69802c-2.06259,0.31097 -4.4277,0.49622 -7.25576,0.49622c-8.99281,0 -13.30935,-1.79856 -17.80576,-3.59712c-5.21583,-1.97842 -10.43165,-4.13669 -20.68345,-4.13669c-1.97842,0 -3.77698,1.61871 -3.77698,3.77698c0,1.97842 1.61871,3.77698 3.77698,3.77698c8.99281,0 13.30935,1.79856 17.80576,3.59712c5.21583,1.97842 10.43165,4.13669 20.68345,4.13669zM60.07194,128.68705c-1.10612,0.42536 -2.19191,0.85072 -3.32212,1.25234c-0.17446,-1.61637 -0.275,-3.23291 -0.275,-4.84946c0,-24.46043 19.78417,-44.2446 44.2446,-44.2446c24.46043,0 44.2446,19.78417 44.2446,44.2446c0,0.30486 0,0.5991 -0.00252,0.88795c-3.04694,0.7732 -5.49964,1.76187 -7.91115,2.70917c-4.67626,1.79856 -8.99281,3.59712 -17.80576,3.59712c-8.99281,0 -13.30935,-1.79856 -17.80576,-3.59712c-5.21583,-1.97842 -10.43165,-4.13669 -20.68345,-4.13669c-10.43165,0 -15.64748,2.15827 -20.68345,4.13669zM160.97122,107.46403c-1.61871,0 -3.05755,-1.07914 -3.59712,-2.69784c-0.71942,-1.97842 0.35971,-4.13669 2.51799,-4.85612l30.57554,-10.2518c1.97842,-0.71942 4.13669,0.35971 4.85612,2.51799c0.71942,1.97842 -0.35971,4.13669 -2.51799,4.85612l-30.57554,10.2518c-0.53957,0 -0.89928,0.17986 -1.25899,0.17986zM39.92806,107.46403c-0.35971,0 -0.89928,0 -1.25899,-0.17986l-30.57554,-10.2518c-1.97842,-0.71942 -3.05755,-2.8777 -2.51799,-4.85612c0.71942,-1.97842 2.8777,-3.05755 4.85612,-2.51799l30.57554,10.2518c1.97842,0.71942 3.05755,2.8777 2.51799,4.85612c-0.53957,1.61871 -1.97842,2.69784 -3.59712,2.69784zM196.22302,157.82374c-10.2518,0 -15.46763,-2.15827 -20.68345,-4.13669c-4.4964,-1.79856 -8.81295,-3.59712 -17.80576,-3.59712c-8.99281,0 -13.1295,1.79856 -17.80576,3.59712c-5.03597,1.97842 -10.2518,4.13669 -20.68345,4.13669c-10.2518,0 -15.46763,-2.15827 -20.68345,-4.13669c-4.4964,-1.79856 -8.81295,-3.59712 -17.80576,-3.59712c-8.81295,0 -13.1295,1.79856 -17.80576,3.59712c-5.03597,1.97842 -10.2518,4.13669 -20.68345,4.13669c-10.2518,0 -15.46763,-2.15827 -20.68345,-4.13669c-4.4964,-1.79856 -8.81295,-3.59712 -17.80576,-3.59712c-2.15827,0 -3.77698,-1.79856 -3.77698,-3.77698c0,-1.97842 1.79856,-3.77698 3.77698,-3.77698c10.2518,0 15.46763,2.15827 20.68345,4.13669c4.4964,1.79856 8.81295,3.59712 17.80576,3.59712c8.81295,0 13.1295,-1.79856 17.80576,-3.59712c5.03597,-1.97842 10.2518,-4.13669 20.68345,-4.13669c10.2518,0 15.46763,2.15827 20.68345,4.13669c4.4964,1.79856 8.81295,3.59712 17.80576,3.59712c8.81295,0 13.1295,-1.79856 17.80576,-3.59712c5.03597,-1.97842 10.2518,-4.13669 20.68345,-4.13669c10.2518,0 15.46763,2.15827 20.68345,4.13669c4.4964,1.79856 8.81295,3.59712 17.80576,3.59712c2.15827,0 3.77698,1.79856 3.77698,3.77698c0,1.97842 -1.61871,3.77698 -3.77698,3.77698zM196.22302,175.98921c-10.2518,0 -15.46763,-2.15827 -20.68345,-4.13669c-4.4964,-1.79856 -8.81295,-3.59712 -17.80576,-3.59712c-8.99281,0 -13.1295,1.79856 -17.80576,3.59712c-5.03597,1.97842 -10.2518,4.13669 -20.68345,4.13669c-10.2518,0 -15.46763,-2.15827 -20.68345,-4.13669c-4.4964,-1.79856 -8.81295,-3.59712 -17.80576,-3.59712c-8.81295,0 -13.1295,1.79856 -17.80576,3.59712c-5.03597,1.97842 -10.2518,4.13669 -20.68345,4.13669c-10.2518,0 -15.46763,-2.15827 -20.68345,-4.13669c-4.4964,-1.79856 -8.81295,-3.59712 -17.80576,-3.59712c-2.15827,0 -3.77698,-1.79856 -3.77698,-3.77698c0,-1.97842 1.79856,-3.77698 3.77698,-3.77698c10.2518,0 15.46763,2.15827 20.68345,4.13669c4.4964,1.79856 8.81295,3.59712 17.80576,3.59712c8.81295,0 13.1295,-1.79856 17.80576,-3.59712c5.03597,-1.97842 10.2518,-4.13669 20.68345,-4.13669c10.2518,0 15.46763,2.15827 20.68345,4.13669c4.4964,1.79856 8.81295,3.59712 17.80576,3.59712c8.81295,0 13.1295,-1.79856 17.80576,-3.59712c5.03597,-1.97842 10.2518,-4.13669 20.68345,-4.13669c10.2518,0 15.46763,2.15827 20.68345,4.13669c4.4964,1.79856 8.81295,3.59712 17.80576,3.59712c2.15827,0 3.77698,1.79856 3.77698,3.77698c0,1.97842 -1.61871,3.77698 -3.77698,3.77698z" fill-rule="evenodd"></path></svg>