<svg width="100%" viewBox="0 0 200 200" version="1.1" xmlns="http://www.w3.org/2000/svg" xmlns:xlink="http://www.w3.org/1999/xlink"><path d="M95.29176,0c-1.59453,0 -3.18141,0.6775 -4.30375,1.82187c-0.33406,0.33875 -33.66922,33.86391 -75.11828,33.86391c-1.07187,0 -2.14234,-0.02297 -3.22484,-0.06875c-0.1,-0.00453 -0.20063,-0.00766 -0.29984,-0.00766c-3.17391,0 -5.83656,2.45219 -5.99141,5.56797c-0.06172,1.265 -1.44734,31.31719 8.12078,65.89359c12.85625,46.47062 39.55453,78.47125 77.20938,92.54c0.69359,0.25938 1.43281,0.38906 2.16531,0.38906c0.52188,0 1.03297,-0.0625 1.54031,-0.19531c0.86594,-0.22187 20.48641,-5.42969 41.17359,-25.27969c-2.58484,-0.33125 -5.11469,-0.83437 -7.57828,-1.50625c-18.31203,16.27187 -34.95641,20.68437 -35.11359,20.7375c-35.70016,-13.3375 -61.0725,-43.89047 -73.37328,-88.35156c-8.80672,-31.82688 -8.06438,-59.80234 -7.91859,-63.53453c1.09016,0.04266 2.19578,0.06562 3.29047,0.06562c43.17781,0 77.02875,-33.17422 79.48688,-35.64312c26.6975,29.54563 78.97453,37.89375 82.76047,38.46141c-0.20781,9.98375 -0.91094,19.29313 -2.00781,27.98766c1.97656,1.39609 3.87656,2.92047 5.68281,4.58219c1.43594,-10.09375 2.35,-21.00062 2.58125,-32.82312c0.05625,-2.945 -2.16094,-5.47797 -5.16875,-5.90375c-0.52969,-0.07312 -53.40672,-7.82313 -79.29781,-36.59047c-1.11687,-1.24063 -2.71984,-1.96531 -4.41969,-2.00344c-0.06484,-0.00312 -0.13047,-0.00312 -0.19531,-0.00312zM80.63645,38.76641c-1.02687,-1.38844 -2.98313,-1.67688 -4.37078,-0.65297c-9.36891,6.93516 -24.02813,15.19625 -40.66172,15.19625h-0.10672c-1.92875,0 -3.75219,0.73078 -5.14078,2.05984c-1.42516,1.36562 -2.21781,3.19062 -2.23078,5.13609c-0.00688,0.9125 -0.08094,22.61969 7.85062,47.09484c5.34516,16.50391 13.11875,30.42594 23.10484,41.38031c0.61641,0.67594 1.46187,1.01922 2.31016,1.01922c0.75156,0 1.50531,-0.27016 2.105,-0.81641c1.27484,-1.16266 1.36641,-3.13859 0.20375,-4.41438c-9.38187,-10.29047 -16.70922,-23.44359 -21.77734,-39.09453c-7.62406,-23.52438 -7.55391,-44.25047 -7.54703,-45.12328c0.00234,-0.32953 0.19141,-0.56 0.30438,-0.66828c0.12672,-0.12063 0.40063,-0.32344 0.83625,-0.32344c0.02281,0.00141 0.045,0.00141 0.06859,0c18.35562,0 34.27438,-8.92797 44.39922,-16.42313c1.38703,-1.02687 1.67922,-2.98312 0.65234,-4.37016zM193.74989,118.75156c0.00312,-27.61234 -22.38594,-50.00156 -49.99469,-50.00156h-0.00531c-27.61453,-0.00156 -50,22.38609 -50,50c0,27.61234 22.38078,50 50,50c27.61094,0 50,-22.38766 50,-49.99844zM176.07801,146.65687l-6.02656,-6.02266c-1.21875,-1.21625 -3.19844,-1.21766 -4.41875,0.00141c-1.22031,1.22078 -1.21875,3.19984 0.00156,4.42047l6.02656,6.02266c0.25469,0.25484 0.54844,0.44406 0.85625,0.59203c-7.00781,6.13078 -15.97813,10.06359 -25.83516,10.71984c0.1175,-0.32812 0.19297,-0.67812 0.19297,-1.04687v-8.51781c0,-1.72578 -1.39922,-3.125 -3.125,-3.125c-1.72578,0 -3.125,1.39922 -3.125,3.125v8.51781c0,0.36875 0.07547,0.71875 0.19297,1.04688c-9.85719,-0.65625 -18.82703,-4.58906 -25.83453,-10.71984c0.30813,-0.14797 0.60187,-0.33719 0.8575,-0.59344l6.02344,-6.02578c1.21984,-1.22062 1.21984,-3.19969 -0.00078,-4.41891c-1.22078,-1.21922 -3.19906,-1.21922 -4.41969,0l-6.02344,6.02562c-0.25562,0.25484 -0.44484,0.54938 -0.59281,0.85609c-6.13031,-7.00688 -10.0625,-15.97594 -10.71859,-25.83312c0.32891,0.1175 0.67828,0.19375 1.04828,0.19375h8.5175c1.72578,0 3.125,-1.39922 3.125,-3.125c0,-1.72578 -1.39922,-3.125 -3.125,-3.125h-8.5175c-0.37,0 -0.72016,0.07625 -1.04906,0.19375c0.63172,-9.61 4.36109,-18.61266 10.70875,-25.85453c0.14953,0.31594 0.34328,0.61813 0.605,0.87891l6.02484,6.02125c0.60969,0.60875 1.40922,0.91391 2.20875,0.91391c0.80031,0 1.59984,-0.30516 2.21016,-0.91547c1.22,-1.22078 1.21922,-3.19984 -0.00141,-4.42047l-6.025,-6.02109c-0.26094,-0.26094 -0.56078,-0.45328 -0.87656,-0.60281c7.24172,-6.34906 16.24594,-10.07844 25.85594,-10.71016c-0.11828,0.32969 -0.19375,0.67906 -0.19375,1.04828v8.51906c0,1.72578 1.39922,3.125 3.125,3.125c1.72578,0 3.125,-1.39922 3.125,-3.125v-8.51906c0,-0.36922 -0.07547,-0.72016 -0.19375,-1.04828c9.94688,0.65312 19.25,4.62187 26.61719,11.38469l-28.68859,26.21453l-13.61922,-11.88969c-1.30156,-1.13516 -3.27453,-1.0025 -4.40984,0.29906c-1.13453,1.30016 -1.00094,3.27453 0.29906,4.40984l15.72187,13.72531c0.58984,0.51422 1.32297,0.77063 2.05547,0.77063c0.75609,0 1.51203,-0.27328 2.10797,-0.81797l30.83641,-28.17687c5.79531,7.05266 9.19062,15.64937 9.79063,24.79094c-0.32969,-0.1175 -0.67969,-0.19375 -1.05,-0.19375h-8.51875c-1.725,0 -3.125,1.39922 -3.125,3.125c0,1.72578 1.4,3.125 3.125,3.125h8.51875c0.37031,0 0.71875,-0.07625 1.04844,-0.19375c-0.65469,9.85719 -4.5875,18.82625 -10.71875,25.83469c-0.14844,-0.30984 -0.33906,-0.60281 -0.59375,-0.85906zM73.43739,156.25c0,0.10208 -0.005,0.20417 -0.015,0.30625c-0.0101,0.10208 -0.0251,0.20312 -0.045,0.30312c-0.02,0.10104 -0.04484,0.20052 -0.07453,0.29844c-0.02969,0.09792 -0.06411,0.19375 -0.10328,0.2875c-0.03917,0.09479 -0.08292,0.1875 -0.13125,0.27812c-0.04823,0.08958 -0.10078,0.17708 -0.15766,0.2625c-0.05677,0.08542 -0.11766,0.16771 -0.18266,0.24688c-0.0649,0.07917 -0.13354,0.15469 -0.20594,0.22656c-0.0724,0.07292 -0.14812,0.14167 -0.22719,0.20625c-0.07917,0.06458 -0.1613,0.12552 -0.24641,0.18281c-0.0851,0.05729 -0.17276,0.1099 -0.26297,0.15781c-0.09031,0.04792 -0.18271,0.09167 -0.27719,0.13125c-0.09458,0.03854 -0.19083,0.07292 -0.28875,0.10313c-0.09802,0.02917 -0.19719,0.05417 -0.2975,0.075c-0.10042,0.01979 -0.20156,0.03437 -0.30344,0.04375c-0.10177,0.01042 -0.20385,0.01563 -0.30625,0.01563c-0.1024,0 -0.20448,-0.00521 -0.30625,-0.01562c-0.10188,-0.00938 -0.20302,-0.02396 -0.30344,-0.04375c-0.10031,-0.02083 -0.19948,-0.04583 -0.2975,-0.075c-0.09792,-0.03021 -0.19417,-0.06458 -0.28875,-0.10313c-0.09448,-0.03958 -0.18688,-0.08333 -0.27719,-0.13125c-0.09021,-0.04792 -0.17786,-0.10052 -0.26297,-0.15781c-0.0851,-0.05729 -0.16724,-0.11823 -0.24641,-0.18281c-0.07906,-0.06458 -0.15479,-0.13333 -0.22719,-0.20625c-0.0724,-0.07188 -0.14104,-0.1474 -0.20594,-0.22656c-0.065,-0.07917 -0.12589,-0.16146 -0.18266,-0.24688c-0.05688,-0.08542 -0.10943,-0.17292 -0.15766,-0.2625c-0.04833,-0.09062 -0.09208,-0.18333 -0.13125,-0.27812c-0.03917,-0.09375 -0.07359,-0.18958 -0.10328,-0.2875c-0.02969,-0.09792 -0.05453,-0.1974 -0.07453,-0.29844c-0.0199,-0.1 -0.0349,-0.20104 -0.045,-0.30312c-0.01,-0.10208 -0.015,-0.20417 -0.015,-0.30625c0,-0.1024 0.005,-0.20448 0.015,-0.30625c0.0101,-0.10188 0.0251,-0.20302 0.045,-0.30344c0.02,-0.10031 0.04484,-0.19948 0.07453,-0.2975c0.02969,-0.09792 0.06411,-0.19417 0.10328,-0.28875c0.03917,-0.09448 0.08292,-0.18687 0.13125,-0.27719c0.04823,-0.09021 0.10078,-0.17786 0.15766,-0.26297c0.05677,-0.0851 0.11766,-0.16724 0.18266,-0.24641c0.0649,-0.07906 0.13354,-0.15479 0.20594,-0.22719c0.0724,-0.0724 0.14812,-0.14104 0.22719,-0.20594c0.07917,-0.065 0.1613,-0.12589 0.24641,-0.18266c0.0851,-0.05688 0.17276,-0.10943 0.26297,-0.15766c0.09031,-0.04833 0.18271,-0.09208 0.27719,-0.13125c0.09458,-0.03917 0.19083,-0.07359 0.28875,-0.10328c0.09802,-0.02969 0.19719,-0.05453 0.2975,-0.07453c0.10042,-0.0199 0.20156,-0.0349 0.30344,-0.045c0.10177,-0.01 0.20385,-0.015 0.30625,-0.015c0.1024,0 0.20448,0.005 0.30625,0.015c0.10188,0.0101 0.20302,0.0251 0.30344,0.045c0.10031,0.02 0.19948,0.04484 0.2975,0.07453c0.09792,0.02969 0.19417,0.06411 0.28875,0.10328c0.09448,0.03917 0.18688,0.08292 0.27719,0.13125c0.09021,0.04823 0.17786,0.10078 0.26297,0.15766c0.0851,0.05677 0.16724,0.11766 0.24641,0.18266c0.07906,0.0649 0.15479,0.13354 0.22719,0.20594c0.0724,0.0724 0.14104,0.14812 0.20594,0.22719c0.065,0.07917 0.12589,0.1613 0.18266,0.24641c0.05688,0.0851 0.10943,0.17276 0.15766,0.26297c0.04833,0.09031 0.09208,0.18271 0.13125,0.27719c0.03917,0.09458 0.07359,0.19083 0.10328,0.28875c0.02969,0.09802 0.05453,0.19719 0.07453,0.2975c0.0199,0.10042 0.0349,0.20156 0.045,0.30344c0.01,0.10177 0.015,0.20385 0.015,0.30625z" fill-rule="evenodd"></path></svg>