<svg width="100%" viewBox="0 0 200 200" version="1.1" xmlns="http://www.w3.org/2000/svg" xmlns:xlink="http://www.w3.org/1999/xlink"><path d="M146.35702,48.31886c-0.89175,-3.26232 -1.1119,-5.33936 -0.66714,-6.22888c0.37138,-0.81391 2.186,-2.1482 5.4461,-4.01175c0.59376,-0.36915 2.26161,-1.77682 5.00356,-4.22301c1.77904,-1.78127 3.22229,-3.03994 4.3342,-3.78047c2.07481,-1.40989 3.70708,-1.18529 4.89237,0.66714c1.70566,2.37058 4.37423,5.8575 8.00792,10.45189c3.18449,4.15185 5.55951,7.74774 7.11395,10.78546c8.45269,15.56664 12.15755,30.87309 11.11903,45.92159c-0.29577,4.22523 -1.22309,7.9679 -2.77976,11.23022c-0.88952,1.70344 -0.55595,2.92653 1.00071,3.66928c1.18529,0.52037 2.335,-0.14899 3.4469,-2.00143c1.40767,-2.51957 2.26161,-5.48613 2.55738,-8.89522c1.33206,-12.15532 -0.0378,-24.31287 -4.11404,-36.47041c-4.521,-13.63638 -13.45625,-27.83315 -26.79908,-42.58366c-7.41194,-8.00792 -17.3101,-13.8254 -29.68781,-17.4591c-19.4205,-5.55951 -38.28726,-6.81819 -56.59586,-3.77825c-16.60516,2.59296 -30.35495,9.52678 -41.2516,20.79258c-12.08194,12.52892 -19.82968,26.83466 -23.23877,42.91945c-2.44396,11.11903 -3.14891,21.8311 -2.11262,32.13399c0.37138,3.92724 1.59224,8.48604 3.66928,13.67641c1.1119,2.89095 2.81756,7.22737 5.11475,13.00926c1.03852,2.66857 2.96656,4.33642 5.78412,5.00356c-2.66857,3.6337 -6.48684,9.04422 -11.4526,16.23378c-4.44761,6.07988 -8.71065,10.93445 -12.78688,14.56593c3.33571,3.55809 5.07917,5.55951 5.22594,6.00428c2.96656,4.81899 7.18956,10.11609 12.67569,15.90021c3.11333,3.26232 7.85671,8.04128 14.23236,14.34355c4.14962,4.66999 8.89522,5.04137 14.23013,1.1119c2.96656,-2.5218 5.19036,-4.37423 6.67142,-5.55951c2.96656,-2.22381 5.19036,-3.59812 6.67142,-4.11626c9.93374,-3.03772 19.05357,-4.14962 27.35503,-3.33571c15.64225,1.48328 29.61442,1.14971 41.91874,-1.00071c4.15185,-0.59153 6.30004,-0.8873 6.44904,-0.8873c2.3728,-0.59376 4.29862,-1.59447 5.78189,-3.00436c12.89807,-12.5267 28.31794,-25.72276 46.25516,-39.58374c1.48328,-1.1119 2.48621,-1.92804 3.00436,-2.44619c1.03852,-1.1119 1.55444,-2.40838 1.55444,-3.89166c-1.55444,-0.74053 -2.99991,-0.70272 -4.3342,0.11119c-0.81614,0.37138 -1.85465,1.22087 -3.11333,2.55738c-6.52465,5.04137 -16.23378,12.67347 -29.13185,22.9052c-0.44476,0.29577 -1.96584,1.85243 -4.56103,4.66999c-1.85243,1.92804 -3.59589,3.22452 -5.22594,3.89166c-0.66714,0.14899 -1.1119,-0.0378 -1.33428,-0.55595c-0.22238,-0.29577 0,-1.07632 0.66714,-2.335c0.44476,-1.03852 0.18458,-1.92582 -0.78056,-2.66857c-1.55444,0.81614 -2.96433,2.29719 -4.22301,4.44761c-1.77904,2.96656 -2.89095,4.67222 -3.33571,5.11475c-2.89095,3.04217 -4.63219,4.78341 -5.22817,5.22817c-0.81614,0.51815 -2.186,0.62934 -4.11404,0.33135c0.51815,-1.2609 2.11262,-3.33571 4.78118,-6.22666c2.3728,-2.66857 3.92946,-5.26152 4.66999,-7.78332c-2.59518,1.70566 -4.96576,3.78047 -7.11618,6.22666c-1.1119,1.18751 -2.85537,3.37351 -5.22594,6.56023c-2.29719,3.11555 -5.41052,4.44761 -9.33998,4.00285c0.37138,-2.81534 2.22381,-5.74409 5.55951,-8.78181c4.00285,-3.40909 6.41123,-6.04208 7.22737,-7.89673c-1.55666,-0.07339 -2.89095,0.33579 -4.00285,1.22532c-3.56031,3.4847 -5.6329,5.55951 -6.22666,6.22666c-2.22381,2.37058 -3.93169,4.70557 -5.11698,7.00276c-0.74053,1.18751 -1.22087,1.89023 -1.44325,2.11262c-0.59376,0.59153 -1.33651,0.88952 -2.22381,0.88952h-8.22808c-3.11555,-0.14899 -5.78189,-0.78056 -8.0057,-1.89246c0.51815,-1.55444 1.59447,-2.99991 3.22229,-4.3342c1.78127,-1.2609 3.07775,-2.29719 3.89166,-3.11333c0.81836,-0.74053 1.4477,-1.25867 1.89246,-1.55666c0.74053,-0.74053 1.29648,-1.40545 1.66785,-1.9992c0.59376,-1.18529 0.40696,-2.03923 -0.55595,-2.55738c-0.37138,-0.29354 -0.81836,-0.40696 -1.33651,-0.33357c-0.51592,0.22238 -0.85172,0.55595 -0.99849,1.00071c-0.81614,1.48328 -2.15042,3.04217 -4.00507,4.67222c-2.59296,2.29942 -4.11404,3.66928 -4.5588,4.11404c-2.51957,2.89095 -4.74338,4.5588 -6.67142,5.00356c-1.92582,0.52037 -4.74338,0.0378 -8.45046,-1.44547c0.37138,-0.96291 1.89023,-2.70415 4.5588,-5.22594c2.22381,-2.15042 3.33571,-4.37423 3.33571,-6.67142c-1.85243,0.81836 -3.48248,2.00365 -4.89237,3.55809c-0.36915,0.51815 -1.44325,1.96584 -3.22229,4.33642c-3.11333,4.44761 -7.70993,6.41123 -13.7876,5.89309c1.25867,-2.66857 3.4469,-5.74409 6.56023,-9.22879c3.85608,-4.59438 6.33785,-7.70993 7.44975,-9.33998c-1.70566,0.14899 -3.18894,0.70495 -4.44761,1.66785c-0.29577,0.2246 -1.18529,1.18751 -2.66857,2.89317c-3.78047,4.29639 -6.67142,7.9679 -8.67062,11.00561c-1.92804,2.81979 -4.7078,5.63512 -8.33927,8.45269c-2.00365,1.63005 -5.22817,3.96505 -9.67578,7.00276c-2.59296,1.92804 -5.18814,1.66785 -7.78332,-0.77833l-7.78332,-6.56023c1.55666,-2.81534 4.7456,-6.48684 9.56236,-11.00784c4.37423,-4.14962 7.11618,-7.8189 8.22808,-11.00784l-1.22309,-0.8873l-17.67926,19.78965c-1.33206,-0.96291 -2.22381,-1.70566 -2.66857,-2.22381c-1.92582,-1.85243 -2.89095,-3.14891 -2.89095,-3.89166c0,-0.74053 1.03629,-2.11262 3.11333,-4.11404l9.78252,-10.56308c1.1119,-1.1119 1.22309,-2.1482 0.33357,-3.11333l-15.90021,14.56815c-2.73973,-2.81756 -4.14962,-4.7456 -4.22301,-5.78412c0,-0.96068 1.18751,-2.96433 3.55809,-6.00428c1.1119,-1.40545 3.74489,-4.29639 7.89451,-8.67062c0.74275,-0.59153 1.22309,-1.1119 1.44547,-1.55666c0.44476,-0.59376 0.48257,-1.36986 0.11119,-2.335c-1.33206,0.37138 -2.59296,1.14971 -3.78047,2.335c-0.81391,0.74053 -1.88801,1.85243 -3.22229,3.33571c-2.5218,2.89095 -4.63441,5.52393 -6.34007,7.89451c-1.55666,2.22381 -3.26232,2.48621 -5.11475,0.78056c-1.85243,-1.40989 -1.9614,-2.96656 -0.33357,-4.67222c3.41132,-3.78269 7.34078,-8.67284 11.78839,-14.67712c4.89015,-6.81819 8.59723,-11.93517 11.11903,-15.34426c2.89095,-3.92946 7.19179,-6.15327 12.89807,-6.67142c0.29577,0 0.85172,0.07561 1.66785,0.2246c0.66714,0.22016 1.2609,0.18458 1.77904,-0.11341c2.44619,-1.18529 5.6329,-1.74124 9.56236,-1.66785c5.33936,0.2246 8.56388,0.2246 9.67578,0c1.55444,-0.22016 2.59296,0.1868 3.1111,1.22532c0.07339,0.22238 0.29799,1.33428 0.66714,3.33571c1.33651,-1.40989 2.29942,-2.37502 2.89317,-2.89317c1.03852,-1.03629 2.15042,-1.59224 3.33571,-1.66785c4.07624,-0.07339 14.00775,0.37138 29.79677,1.33651c2.5218,0.22016 4.22745,1.44325 5.11475,3.66706c0.89175,2.15042 0.55595,4.22745 -0.99849,6.22888c-1.92804,2.15042 -3.26232,3.52028 -4.00507,4.11404c-1.62783,1.33428 -3.40909,2.15042 -5.33491,2.44619l-10.00713,0.88952c-4.44761,0.29799 -7.85893,0.70495 -10.23173,1.22309c-3.77825,0.88952 -7.04057,2.29719 -9.78252,4.22523c-2.07481,1.63227 -2.92653,3.52028 -2.55738,5.6707c0.44476,2.00365 2.11262,3.00214 5.00356,3.00214c2.5218,0.2246 4.44761,0.26019 5.78412,0.11341c10.00713,-0.81614 21.6443,-1.1119 34.91153,-0.88952c10.23173,0.29799 20.23886,-3.81827 30.02138,-12.34212c7.26517,-6.37787 13.34283,-10.71207 18.23521,-13.01149c5.41274,-2.51957 9.93374,-3.89166 13.56744,-4.11404c4.96353,-0.07561 9.41115,1.70344 13.34283,5.33713l1.22309,0.77833c1.1119,0.59153 1.77682,0.88952 1.9992,0.88952c0.74275,0.22238 1.40767,0.07339 2.00143,-0.44476c0.66714,-0.59153 0.85172,-1.25867 0.55595,-2.00143c-0.59376,-0.81391 -1.00071,-1.40767 -1.22309,-1.77904c-2.07481,-3.78047 -5.55951,-6.41123 -10.45189,-7.89451c-4.96576,-1.55666 -9.71136,-1.40989 -14.23236,0.44476c-9.71136,3.85386 -16.64074,7.74552 -20.79258,11.67498c-2.44619,2.29719 -6.37565,5.4461 -11.78617,9.45117c-6.00428,4.59661 -12.49112,7.07837 -19.4583,7.44975c-11.63718,0.44698 -22.01568,1.07632 -31.13328,1.89023c-4.29862,0.51815 -8.11689,-0.07339 -11.4526,-1.77904c2.59518,-0.8873 4.40981,-1.44325 5.44832,-1.66785c4.00285,-0.59376 6.96941,-1.03852 8.89522,-1.33428c3.6337,-0.52037 6.67142,-0.78056 9.1176,-0.78056c4.22745,0.07561 8.00792,-1.03629 11.34363,-3.33571c3.33571,-2.22381 5.78189,-5.33491 7.33856,-9.33776c0.81614,-2.22381 0.77611,-4.52322 -0.11119,-6.89602c-1.85243,-5.55951 -5.96869,-7.85893 -12.34212,-6.8938c2.44396,-4.81899 3.52028,-10.11609 3.22229,-15.90021c-0.22238,-1.85243 0.07339,-3.14891 0.88952,-3.89166c0.81836,-0.74053 2.18822,-1.1119 4.11404,-1.1119c6.44904,0.2246 12.00855,-0.07339 16.67854,-0.8873c2.00143,-0.29799 4.40981,-0.44476 7.22737,-0.44476c3.26232,0 5.71073,-0.07561 7.34078,-0.2246c2.29719,-0.07339 3.4469,1.03852 3.4469,3.33571l-0.33357,21.12615l-0.44476,3.00436c-0.14677,1.33206 0.11341,2.40838 0.78056,3.22452c1.40545,-0.81614 2.25939,-2.07481 2.55515,-3.78047c1.2609,-6.37565 2.11262,-13.8254 2.55738,-22.34925c0.22016,-2.74195 0.70272,-4.40981 1.44547,-5.00356c0.66714,-0.66937 2.3728,-1.00071 5.11475,-1.00071h19.56949c2.51957,-0.14677 4.04065,-0.29799 4.5588,-0.44476c1.70566,-0.44476 3.03994,-1.51886 4.00285,-3.22452c-1.03852,-0.81391 -2.11039,-1.18529 -3.22229,-1.1119c-0.74275,0 -1.70788,0.10897 -2.89317,0.33357c-4.52322,0.59376 -12.74908,1.00071 -24.68424,1.22309c-1.55666,0 -2.63076,-0.18458 -3.22452,-0.55595c-0.81391,-0.66714 -1.33206,-1.77904 -1.55666,-3.33571c-0.88952,-9.1176 -3.37351,-21.42192 -7.44975,-36.91517zM46.61933,20.74367c13.93437,-11.26802 30.20595,-16.53177 48.81031,-15.78902c-1.40545,1.70344 -3.33571,3.4469 -5.78412,5.21927c-1.40767,0.96291 -3.40909,2.40838 -6.00428,4.33642c-9.1176,7.48755 -16.90092,17.19891 -23.34996,29.13185c-0.74053,1.40767 -1.44325,2.25939 -2.11262,2.55738c-0.81391,0.37138 -1.92582,0.26019 -3.33571,-0.33357l-19.12473,-6.33785c0.81614,1.63227 2.11262,3.00214 3.89166,4.11404c1.03852,0.59376 2.59518,1.33651 4.66999,2.22381c2.07703,1.18529 5.26375,2.89095 9.56459,5.11475c2.07481,1.1119 2.70637,2.89095 1.89023,5.33713c-3.26232,9.41559 -4.63219,20.38563 -4.11404,32.91232c0.07561,2.07703 -0.22238,3.56031 -0.88952,4.44761c-0.81614,1.03852 -2.18822,1.59447 -4.11404,1.66785c-0.81614,0 -2.48399,0.26241 -5.00356,0.78056c-2.00143,0.36915 -3.66928,0.51815 -5.00356,0.44254c-0.52037,-0.51592 -0.78056,-0.8873 -0.78056,-1.1119c0,-0.14899 0.44698,-1.1119 1.33651,-2.89095c0.59376,-1.18529 0.29577,-2.03701 -0.88952,-2.55515c-0.88952,-0.37138 -1.59447,0 -2.11262,1.1119c-0.74053,1.77904 -1.14971,2.74418 -1.22309,2.89095c-0.37138,0.52037 -2.186,2.22381 -5.44832,5.11475c-2.22381,1.92804 -3.70486,3.81827 -4.44761,5.6707c-1.18529,0.29799 -1.96362,0.44476 -2.335,0.44476c-0.81391,-0.14677 -1.36986,-0.70272 -1.66785,-1.66785c-1.33206,-4.07624 -1.1119,-7.0806 0.66714,-9.00641c2.96656,-2.59518 5.11253,-4.55658 6.44904,-5.89309l7.89451,-7.55872c0.59376,-0.59153 0.59376,-1.48328 0,-2.66857c-1.63005,0.22238 -3.22452,1.14971 -4.78118,2.77976c-2.29942,2.51957 -3.4847,3.85608 -3.55809,4.00285l-8.22808,6.8938c-1.55666,-5.33491 -0.25796,-9.56236 3.89166,-12.67347c4.81899,-3.4847 8.1547,-6.63361 10.00713,-9.45117c0.66714,-0.88952 1.00071,-1.40989 1.00071,-1.55666c0.14677,-0.44476 -0.07339,-0.92733 -0.66714,-1.44547c-0.88952,-0.81614 -1.77904,-0.52037 -2.66857,0.88952c-3.03772,4.14962 -6.89157,8.04128 -11.56379,11.67498c-0.8873,-7.41194 1.14971,-13.19606 6.11547,-17.34568c2.29719,-1.70566 4.11404,-3.03994 5.44832,-4.00507c2.29719,-1.77904 4.15185,-3.66928 5.55951,-5.6707c-2.15042,0.59376 -4.37423,1.77904 -6.67142,3.56031c-2.81534,2.00143 -4.63219,3.18671 -5.44832,3.55809c3.33571,-15.56664 11.38144,-28.5381 24.13052,-38.9166zM157.02906,22.07573c2.00365,1.63005 2.96433,2.85537 2.89095,3.66928c0,0.66714 -1.18529,1.55889 -3.55364,2.67301c-1.1119,0.51815 -2.40838,1.44325 -3.89166,2.77976c-1.70566,1.48328 -2.85314,2.44619 -3.4469,2.89095c-2.66857,1.70344 -4.29862,2.55738 -4.89237,2.55738c-0.74053,-0.15122 -1.85243,-1.48328 -3.33571,-4.00507c-5.55951,-9.78475 -13.04929,-17.45687 -22.46044,-23.01639l-2.55738,-1.55666c-2.74418,-1.63005 -4.44761,-1.55666 -5.11475,0.2246c-0.52037,0.96291 -0.37138,1.74124 0.44476,2.335c0.44254,0.44476 1.33206,0.92733 2.66634,1.44325c10.23173,5.78189 18.571,14.78831 25.01781,27.01924c-10.59866,5.26375 -19.64288,8.63726 -27.12821,10.11832c-1.40989,0.29799 -2.41061,0.26019 -3.00436,-0.11119c-0.59376,-0.52037 -0.96291,-1.48328 -1.1119,-2.89095c-0.52037,-6.37787 -0.77833,-12.19535 -0.77833,-17.4591c0.22238,-2.3728 -0.14899,-4.26081 -1.1119,-5.6707c-2.15042,3.85386 -3.03994,9.04422 -2.66857,15.56664c0,1.70566 0.33357,4.33642 1.00071,7.89451c0.29577,2.89317 -1.00071,4.56103 -3.89166,5.00356c-10.89887,1.48328 -23.01861,0.96513 -36.36145,-1.55444c1.33428,-7.41417 6.30227,-15.75344 14.8995,-25.01781c8.59946,-9.33998 16.30939,-14.82611 23.12758,-16.45616c0.44476,0.52037 0.92733,1.85243 1.44325,4.00285c0.37138,1.70344 1.18974,2.92875 2.44841,3.66928c0.74053,-1.03629 1.0741,-2.25939 1.00071,-3.66928c-0.37138,-1.55889 -0.51815,-2.74418 -0.44476,-3.55809c0.29577,-2.96433 1.85243,-4.30084 4.66999,-4.00285c18.30859,1.77904 33.69066,7.48533 46.14397,17.12108zM108.32994,75.11349v-8.11689c0,-3.33571 -0.26019,-6.11547 -0.78056,-8.3415c-0.59376,-2.74195 0.66714,-4.37423 3.78047,-4.89237c7.33856,-1.40767 15.75122,-4.3342 25.24019,-8.78181c2.89095,-1.40989 4.66999,-0.55595 5.33713,2.55515c2.51957,11.34141 4.93018,23.12758 7.22737,35.35851c0.51815,2.66857 0.48257,4.33642 -0.11119,5.00356c-0.51815,0.51815 -2.29719,1.0741 -5.33713,1.66785c-3.40909,0.74053 -8.22808,1.18751 -14.45474,1.33428c-6.81819,0.15122 -11.60159,0.40918 -14.34355,0.78056c-2.73973,0.44254 -4.521,0.29577 -5.33491,-0.44476c-0.74053,-0.59376 -1.14971,-2.29719 -1.22309,-5.11475zM102.99281,55.87757c0.66714,0.52037 1.00071,2.44841 1.00071,5.78412h0.00445v7.11618c0.07339,1.40989 0,4.33642 -0.2246,8.78403c-0.29577,3.85386 -0.18458,6.96941 0.33357,9.33998c0.66714,3.48248 -0.85172,5.30155 -4.5588,5.44832c-13.41622,0.81391 -21.34853,1.29648 -23.79472,1.44325c-6.37343,0.81614 -11.19241,1.03852 -14.45474,0.66937c-1.70344,-0.22238 -2.96433,-0.74275 -3.78047,-1.55666c-0.81391,-0.81614 -1.22309,-2.11262 -1.22309,-3.89166c0,-12.89807 0.92733,-22.53605 2.77976,-28.90947c0.81614,-2.66857 1.51886,-4.18965 2.11262,-4.5588c0.51815,-0.29799 2.29719,-0.33579 5.33491,-0.11341c6.82041,0.59598 11.97297,1.00071 15.45545,1.22532c6.07766,0.51815 11.23022,0.33135 15.45545,-0.55595c3.03994,-0.74275 4.89237,-0.81836 5.55951,-0.2246zM61.74121,97.90973c8.59723,0.14677 21.38412,-0.29799 38.36065,-1.33651c1.63005,-0.07339 2.74195,0.11341 3.34016,0.55373c0.74053,0.66937 1.1119,1.74346 1.1119,3.22452c0,2.22381 0.29354,5.55951 0.8873,10.00713c0.15122,2.29719 -0.18458,3.92724 -0.99849,4.89237c-0.81614,0.81836 -2.33722,1.2609 -4.56103,1.33428c-1.1119,0 -2.77976,-0.26019 -5.00356,-0.77833c-0.29577,-0.66714 -0.11119,-1.2609 0.55595,-1.77904c0.74275,-0.74053 1.1119,-1.29648 1.1119,-1.66785c0,-0.89175 -0.26019,-1.52108 -0.77833,-1.89246c-0.81391,-0.36915 -1.48328,-0.29354 -2.00143,0.2246c-0.81391,0.51815 -1.22309,0.81391 -1.22309,0.8873c-0.88952,2.44841 -2.44619,3.81827 -4.66999,4.11626c-0.44476,0.07561 -2.5218,-0.03558 -6.22666,-0.33357c-0.52037,-1.03852 -0.40918,-2.00143 0.33135,-2.89095c0.96513,-0.81391 1.59447,-1.48328 1.89246,-2.00143c0.66714,-1.1119 0.62934,-1.9614 -0.11341,-2.55515c-1.18529,-0.88952 -2.1482,-0.62934 -2.89095,0.77833l-2.66857,4.44761c-1.55444,2.29942 -3.77825,2.93098 -6.67142,1.89246c0.15122,-0.89175 0.74275,-2.03923 1.78127,-3.44912c0.88952,-1.33428 1.33428,-2.44619 1.33428,-3.33571c-0.81391,-0.74053 -1.55666,-0.9251 -2.22381,-0.55595c-0.59376,0.29577 -1.00071,0.77833 -1.22309,1.44547c-1.03852,3.26232 -2.77976,5.30155 -5.22817,6.11547c-1.85243,0.66714 -4.7078,0.70495 -8.56165,0.11119c0.96513,-1.77904 1.40989,-3.96505 1.33428,-6.56023c0,-1.18529 -0.26019,-3.33571 -0.77833,-6.44681c-0.59376,-3.03994 0.66714,-4.521 3.78047,-4.44761zM48.28719,99.13059c3.1111,0 4.74338,1.33428 4.89015,4.00285c0,1.48328 0.2246,3.15113 0.66937,5.00579c0.66714,2.66857 0.52037,4.7456 -0.44476,6.22666c-0.96513,1.40989 -2.89095,2.18822 -5.78412,2.33722c-0.66714,0.14677 -1.66785,0.25796 -3.00214,0.33135c-1.33428,0.07339 -2.48177,-0.18458 -3.4469,-0.77833c0.37138,-1.18529 1.74346,-3.03994 4.11404,-5.55951c2.07703,-2.37058 3.26232,-4.5588 3.56031,-6.56023c-3.33571,2.44619 -6.96718,6.04208 -10.89665,10.78546c-5.26152,6.37565 -8.55943,10.22951 -9.89594,11.56379c-2.81756,-6.67142 -5.04137,-11.52599 -6.67142,-14.56593c-1.40767,-2.74195 -0.85172,-5.11475 1.66785,-7.11618c-0.07339,0.07561 -0.11119,0.15122 -0.11119,0.2246c1.1119,0.14677 2.186,-0.11341 3.22452,-0.78056l2.22381,-2.22381c2.51957,-2.51957 6.11547,-3.33571 10.78546,-2.44619l-11.78617,14.23013c1.18529,0.37138 2.29719,0.1868 3.33571,-0.55595c0.29799,-0.22016 1.00071,-0.9251 2.11262,-2.11039l8.45046,-9.00864c2.1482,-2.07481 4.48319,-3.07552 7.00499,-3.00214zM57.96074,166.8477c-0.59153,0.81391 -3.52028,3.70708 -8.78403,8.67062c-3.70486,3.4847 -6.48462,7.00499 -8.33927,10.5653c3.92946,-2.96433 7.63655,-6.33785 11.11903,-10.11832c3.4847,-4.00285 5.48613,-7.04057 6.00428,-9.1176z" fill-rule="evenodd"></path></svg>