<svg width="100%" viewBox="0 0 200 200" version="1.1" xmlns="http://www.w3.org/2000/svg" xmlns:xlink="http://www.w3.org/1999/xlink"><path d="M196.77478,96.77415h-6.5323c-1.54904,-43.3551 -33.70246,-79.48497 -76.58466,-86.05598c-42.8822,-6.57098 -84.3789,18.27331 -98.83899,59.17517l6.08068,2.1484c13.40718,-37.94862 51.88032,-61.02363 91.67153,-54.98198c39.79089,6.04165 69.68107,39.49673 71.21979,79.71439h-6.37101c-1.16227,0.00032 -2.23485,0.62581 -2.80711,1.63743c-0.57226,1.01194 -0.55613,2.25324 0.04258,3.2497l9.67748,16.12913c0.58323,0.97001 1.63259,1.56356 2.76453,1.56356c1.13194,0 2.1813,-0.59355 2.76453,-1.56356l9.67748,-16.12913c0.59871,-0.99646 0.61484,-2.23776 0.04258,-3.2497c-0.57226,-1.01162 -1.64485,-1.63711 -2.80711,-1.63743zM103.22583,35.48346h-6.45165v12.9033h6.45165zM131.866,44.31932l-7.27037,10.65974l5.33003,3.63551l7.27037,-10.66007zM68.13368,44.32158l-5.33003,3.63518l7.27037,10.66007l5.33003,-3.63518zM73.77081,146.94543c-7.66972,-3.80325 -12.51008,-11.6362 -12.48072,-20.1969v-44.49059c-0.00032,-3.19486 1.35323,-6.24036 3.72454,-8.38134c2.37163,-2.14098 5.53907,-3.17679 8.71747,-2.85099c1.28614,0.1371 2.53614,0.51 3.68712,1.10001v-2.77098c-0.00645,-4.591 2.77195,-8.72715 7.02424,-10.45781c4.25228,-1.73098 9.12909,-0.71033 12.33072,2.58034c3.13808,-3.23099 7.90069,-4.27841 12.10491,-2.66227c4.20422,1.61582 7.03908,5.58391 7.20488,10.0849c1.51872,-0.75226 3.18905,-1.14839 4.8839,-1.15807c6.23552,0 11.29039,5.05487 11.29039,11.29039v13.03234c4.10067,3.65841 6.44746,8.89167 6.45165,14.38718v17.07107c0.02936,8.5607 -4.811,16.39365 -12.48072,20.1969l-0.42258,0.20968v20.58722h-6.45165v-22.58078c-0.00065,-1.22259 0.69,-2.34066 1.78388,-2.88711l2.20324,-1.10001c5.47907,-2.71582 8.93715,-8.3107 8.91618,-14.42589v-17.07107c0,-7.12617 -5.77713,-12.9033 -12.9033,-12.9033h-14.51622c-2.67227,0 -4.83874,2.16646 -4.83874,4.83874c0,2.67227 2.16646,4.83874 4.83874,4.83874h14.51622c1.78162,0 3.22583,1.4442 3.22583,3.22583v9.67748c0,1.78162 -1.4442,3.22583 -3.22583,3.22583c-1.97098,0 -19.35496,0.64517 -19.35496,19.35496h-6.45165c0,-18.15172 13.34847,-24.42596 22.58078,-25.59693v-3.4355h-11.29039c-2.35582,-0.00032 -4.65164,-0.74291 -6.56133,-2.12259c-1.81388,2.95711 -4.89358,4.90938 -8.34199,5.2881c-3.44841,0.37839 -6.87811,-0.85936 -9.29038,-3.3526c-3.34841,3.48389 -8.5636,4.40551 -12.9033,2.28066v14.97751c-0.01484,6.10939 3.44228,11.69652 8.91618,14.40977l2.20324,1.10001c1.09904,0.54904 1.79066,1.67485 1.78388,2.90324v19.35496h-6.45165v-17.3614zM88.70961,64.51589c-2.67227,0 -4.83874,2.16646 -4.83874,4.83874v32.25826c0,2.67227 2.16646,4.83874 4.83874,4.83874c2.67227,0 4.83874,-2.16646 4.83874,-4.83874v-32.25826c0,-2.67227 -2.16646,-4.83874 -4.83874,-4.83874zM104.83874,64.51589c-2.67227,0 -4.83874,2.16646 -4.83874,4.83874v18.87431c1.50743,-0.73581 3.16131,-1.12291 4.83874,-1.13226h4.83874v-17.74204c0,-2.67227 -2.16646,-4.83874 -4.83874,-4.83874zM45.00644,69.52366l-2.55808,5.92294l11.84265,5.11487l2.55808,-5.92262zM154.99292,69.52754l-11.84394,5.11229l2.55679,5.92326l11.84394,-5.11229zM120.96787,74.19337c-2.67227,0 -4.83874,2.16646 -4.83874,4.83874v8.06457h3.22583c2.19937,0.00548 4.38132,0.38742 6.45165,1.12904v-9.1936c0,-2.67227 -2.16646,-4.83874 -4.83874,-4.83874zM72.58048,77.4192c-2.67227,0 -4.83874,2.16646 -4.83874,4.83874v19.35496c0,2.67227 2.16646,4.83874 4.83874,4.83874c2.67227,0 4.83874,-2.16646 4.83874,-4.83874v-18.89366c0.09032,-2.5984 -1.76582,-4.85809 -4.33228,-5.27423c-0.16807,-0.01806 -0.33742,-0.02677 -0.50645,-0.02581zM9.75751,103.22581h-6.5323c-1.16239,-0.00032 -2.23479,-0.62581 -2.80711,-1.63743c-0.57233,-1.01194 -0.55606,-2.25324 0.04258,-3.2497l9.67748,-16.12913c0.62494,-0.91162 1.6592,-1.45678 2.76453,-1.45678c1.10533,0 2.13959,0.54516 2.76453,1.45678l9.67748,16.12913c0.59865,0.99646 0.61491,2.23776 0.04258,3.2497c-0.57233,1.01162 -1.64472,1.63711 -2.80711,1.63743h-6.37101c1.53882,40.21767 31.4289,73.67271 71.21979,79.71436c39.79121,6.04165 78.26435,-17.03333 91.67153,-54.98195l6.08068,2.1484c-14.46009,40.90186 -55.95679,65.74621 -98.83899,59.1752c-42.8822,-6.57101 -75.03565,-42.70091 -76.58466,-86.05601zM16.88014,96.77415l-3.97744,-6.6323l-3.97744,6.6323zM187.09731,109.85811l-3.97744,-6.6323h7.95489z" fill-rule="evenodd"></path></svg>