<svg width="100%" viewBox="0 0 200 200" version="1.1" xmlns="http://www.w3.org/2000/svg" xmlns:xlink="http://www.w3.org/1999/xlink"><path d="M121.96547,152.39342c6.16888,-2.35111 12.75109,-3.66666 19.52218,-3.66666c16.18219,0 31.4755,7.12221 41.94436,19.52218l1.74444,2.06666l-1.74444,2.06666c-10.46887,12.41331 -25.76217,19.52218 -41.94436,19.52218c-15.6133,0 -30.34216,-6.65777 -40.76659,-18.25997l-9.41776,9.4222v16.9333h-12.81553v-34.80438l-11.2622,-6.81999c-1.51333,-0.91555 -2.00222,-2.87777 -1.08222,-4.39332c0.90666,-1.51111 2.88444,-2 4.39777,-1.08666l7.94665,4.80444v-17.25774c-25.8244,-4.1311 -46.7488,-32.90216 -50.42213,-70.44431c-10.63776,-4.59332 -17.53997,-10.78887 -17.53997,-18.48441c0,-7.04443 6.0511,-13.32664 17.42663,-18.3333c-0.64889,-1.84 -1.03111,-3.74222 -1.03111,-5.70666c0.00667,-7.23332 4.72444,-14.75331 12.63331,-20.11107c9.15554,-6.20665 24.66662,-10.53776 41.04659,-4.38221c2.87999,-0.43778 5.70888,-0.65111 8.30443,-0.65111c11.84664,0 44.37103,6.30888 44.37103,26.61995c0,0.32667 -0.04889,0.68889 -0.06667,1.02666c16.76886,5.24221 26.04884,12.82886 26.04884,21.53774c0,7.05999 -6.18443,13.50442 -17.5333,18.45996c-3.67333,37.56659 -24.6044,66.33987 -50.42213,70.46875v33.56438l35.67993,-35.69327c-0.86444,-15.64219 4.84221,-30.8355 15.91108,-41.89548c11.43998,-11.45109 27.29106,-17.21997 43.45769,-15.85553l2.69777,0.22444l0.22667,2.69111c1.36889,16.18219 -4.41332,32.02216 -15.85108,43.45992c-10.3622,10.35109 -24.13995,16.05775 -38.80881,16.05775c-1.03555,0 -2.07555,-0.07778 -3.11555,-0.13778zM64.31003,6.39815c-8.53554,0 -16.01997,2.79111 -21.15107,6.25777c-6.15777,4.17999 -9.82443,9.71109 -9.82887,14.81331c0,1.61333 0.36889,3.20444 1.06889,4.74221l0.43111,0.75111c0.05778,0.11111 0.12,0.21111 0.18222,0.32444c0.75111,1.32666 1.73555,2.60444 2.91777,3.81777c0.02444,0.02667 0.06222,0.06222 0.09333,0.08889c1.03778,1.06444 2.28222,2.06444 3.61555,3.02888c0.29333,0.21111 0.55778,0.42444 0.85778,0.62444c1.15111,0.78889 2.44666,1.51555 3.77333,2.21555c0.76889,0.41333 1.55111,0.81555 2.38444,1.20222c1.06444,0.5 2.18888,0.96222 3.34222,1.41333c1.23111,0.48667 2.50222,0.93778 3.82221,1.36444c0.82,0.27333 1.65777,0.52444 2.50888,0.76222c1.51333,0.43778 3.07777,0.83778 4.68666,1.21333c1.30666,0.28667 2.62222,0.57555 3.97999,0.81333c0.86889,0.16222 1.74666,0.31333 2.64666,0.45111c2.13777,0.32444 4.33555,0.6 6.58221,0.78667c0.57555,0.05111 1.16222,0.08889 1.75111,0.12667c2.52888,0.18889 5.09999,0.31333 7.72221,0.31333c2.92222,0 5.6511,-0.16222 8.25998,-0.42444c0.33111,-0.02667 0.68222,-0.05111 1.01333,-0.08889c2.51333,-0.27556 4.87999,-0.66222 7.09554,-1.16222c0.24889,-0.05111 0.48222,-0.1 0.72444,-0.16222c2.21555,-0.51333 4.29333,-1.12666 6.20221,-1.82666c0.14222,-0.04889 0.28222,-0.11333 0.42444,-0.17556c1.74444,-0.66222 3.34666,-1.40222 4.82444,-2.18888c0.26222,-0.13778 0.53778,-0.27556 0.78667,-0.41333c1.25778,-0.71333 2.35111,-1.47777 3.4111,-2.26444c0.44222,-0.34 0.90666,-0.67778 1.32,-1.01555c0.86444,-0.73778 1.62889,-1.48889 2.32888,-2.26444c0.38889,-0.42667 0.76444,-0.85111 1.1,-1.27778c0.65111,-0.83778 1.22666,-1.68889 1.70222,-2.55111c0.16222,-0.28889 0.31333,-0.57778 0.45111,-0.86444c0.51333,-1.07555 0.94,-2.17777 1.18222,-3.26666c0.04444,-0.17333 0.08667,-0.34889 0.12,-0.52444l0.09333,-0.42444c0.08667,-0.57555 0.13333,-1.12666 0.13333,-1.66444c0,-13.26664 -24.71773,-20.21107 -37.96437,-20.21107c-12.22664,0.01333 -29.99105,5.76888 -29.99772,14.79331c0.00667,4.44221 5.85777,7.14443 10.76887,8.62221c6.69554,2.02666 14.15331,2.56444 17.18219,2.56444h0.02444c7.18443,0 17.19552,-2.57777 17.19552,-6.78221c0,-4.70444 -10.27331,-7.59554 -14.79108,-7.60887c-3.87333,0.01333 -9.91109,1.67777 -11.57553,3.74222c-0.32444,0.4 -0.28667,0.58889 -0.25556,0.73778l-6.2711,1.31333c-0.45555,-2.17777 0.08222,-4.27999 1.55333,-6.09554c3.72444,-4.5911 12.75775,-6.09332 16.55108,-6.10666c7.1711,0.02667 21.19996,4.26888 21.19996,14.01775c0,9.67331 -14.11775,13.19109 -23.6044,13.19109h-0.02444c-3.60222,0 -11.63776,-0.6 -19.0333,-2.83999c-12.66442,-3.81777 -15.31997,-10.12665 -15.32442,-14.75553c0.00444,-7.94665 6.57554,-13.55331 14.92886,-17.00663c-1.05778,-0.08889 -2.09777,-0.12667 -3.12222,-0.12667zM30.98342,38.81364c-8.96665,3.84221 -14.04886,8.40887 -14.04886,12.7022c0,10.22442 27.9155,21.63774 67.96654,21.65329l0.03111,3.20444v-3.20444h0.00667c18.64663,0 36.13104,-2.51555 49.23324,-7.09554c11.69998,-4.09333 18.68441,-9.52443 18.68441,-14.55553c0,-5.39332 -7.99332,-11.1622 -21.0644,-15.31775c-0.05778,0.12444 -0.15111,0.26222 -0.20667,0.38667c-0.40889,0.96222 -0.91333,1.92666 -1.48222,2.89111c-0.22667,0.36222 -0.42889,0.72667 -0.67778,1.10222c-0.66889,1 -1.44444,2.00222 -2.31555,2.99111c-0.34889,0.38889 -0.72444,0.77555 -1.1,1.15111c-0.82667,0.85111 -1.72889,1.66444 -2.70444,2.46444c-0.36889,0.3 -0.72444,0.60222 -1.12,0.88889c-1.17555,0.87555 -2.47777,1.71333 -3.85999,2.50222c-0.45111,0.26222 -0.89333,0.51333 -1.36444,0.76444c-1.61555,0.85111 -3.34666,1.65111 -5.2311,2.36444c-0.35778,0.13778 -0.73778,0.25111 -1.10222,0.37555c-1.81333,0.65111 -3.74666,1.21333 -5.80443,1.71555c-0.38889,0.1 -0.74667,0.19778 -1.14,0.28667c-2.31555,0.51333 -4.8111,0.91333 -7.44665,1.21333c-0.56222,0.07556 -1.15111,0.12667 -1.72666,0.17556c-2.78444,0.26444 -5.67999,0.45111 -8.80887,0.45111c-2.79111,0 -5.50666,-0.13778 -8.18443,-0.31333c-0.59555,-0.04889 -1.18889,-0.08889 -1.78444,-0.13778c-5.31332,-0.46444 -10.34442,-1.26444 -15.03775,-2.37777c-0.57555,-0.13778 -1.14,-0.27556 -1.69555,-0.42444c-2.23333,-0.57555 -4.4111,-1.20222 -6.46443,-1.91555c-0.38667,-0.13778 -0.72444,-0.28667 -1.1,-0.42444c-1.65333,-0.6 -3.22888,-1.25111 -4.74444,-1.94c-0.65778,-0.3 -1.30889,-0.6 -1.94,-0.91333c-1.63333,-0.81333 -3.20444,-1.66444 -4.64221,-2.57777c-0.50222,-0.31333 -0.94,-0.66444 -1.41555,-0.98889c-1.07111,-0.74 -2.07777,-1.50222 -3.01555,-2.29111c-0.43778,-0.37555 -0.88889,-0.73778 -1.30222,-1.11333c-1.18222,-1.11555 -2.24,-2.25333 -3.16666,-3.44222c-0.06222,-0.08889 -0.16222,-0.16222 -0.22444,-0.25111zM84.89443,79.57134c-17.78219,0 -36.08438,-2.40222 -50.09546,-7.01999c4.51777,35.70215 25.44884,62.04655 50.09324,62.04655h0.01333c24.64218,0 45.56658,-26.35551 50.08435,-62.07099c-13.6022,4.54221 -31.28661,7.04443 -50.05768,7.04443zM183.0498,86.78244c-13.37775,-0.32444 -26.16884,4.70666 -35.61549,14.16664c-9.45554,9.44443 -14.53108,22.29774 -14.16664,35.6266c13.42664,0.28667 26.15995,-4.70666 35.62882,-14.16664c9.44887,-9.44887 14.52219,-22.29774 14.15331,-35.6266zM106.28328,170.31561c9.14887,9.68665 21.82663,15.17997 35.20438,15.17997c13.36664,0 26.04439,-5.49332 35.20438,-15.17997c-9.15998,-9.67331 -21.83774,-15.17997 -35.20438,-15.17997c-13.37775,0 -26.05551,5.50443 -35.20438,15.17997z" fill-rule="evenodd"></path></svg>