<svg width="100%" viewBox="0 0 200 200" version="1.1" xmlns="http://www.w3.org/2000/svg" xmlns:xlink="http://www.w3.org/1999/xlink"><path d="M163.2449,70.66242h-15.09412v-20.63376c0,-28.52131 -20.70025,-50.02866 -48.15078,-50.02866c-27.45053,0 -48.15078,22.2021 -48.15078,51.63827v19.02414h-15.09412c-7.58489,0 -13.75737,6.17247 -13.75737,13.75737v101.82285c0,7.58489 6.17247,13.75737 13.75737,13.75737h126.48981c7.58489,0 13.75737,-6.17247 13.75737,-13.75737v-101.82285c0,-7.58489 -6.17018,-13.75737 -13.75737,-13.75737zM61.0208,51.63827c0,-24.21067 16.75876,-42.4667 38.9792,-42.4667c22.5873,0 38.9792,17.18295 38.9792,40.85708v20.63376h-77.95841zM167.83069,186.24263c0,2.53136 -2.05443,4.58579 -4.58579,4.58579h-126.48981c-2.53365,0 -4.58579,-2.05443 -4.58579,-4.58579v-101.82285c0,-2.53365 2.05214,-4.58579 4.58579,-4.58579h126.48981c2.53136,0 4.58579,2.05214 4.58579,4.58579zM100,103.59067c-12.73015,0 -23.08486,10.357 -23.08486,23.08257c0,11.29938 8.165,20.71171 18.90262,22.6859v21.33309c0,2.53136 2.05443,4.58579 4.58579,4.58579c2.53136,0 4.58579,-2.05443 4.58579,-4.58579v-21.4913c10.33407,-2.28831 18.09552,-11.51262 18.09552,-22.52769c0,-12.72786 -10.357,-23.08257 -23.08486,-23.08257zM100,140.58652c-7.67202,0 -13.91328,-6.24355 -13.91328,-13.91328c0,-7.66973 6.24355,-13.91099 13.91328,-13.91099c7.66973,0 13.91099,6.24126 13.91099,13.91099c0,7.66973 -6.23897,13.91328 -13.91099,13.91328z" fill-rule="evenodd"></path></svg>