<svg width="100%" viewBox="0 0 200 200" version="1.1" xmlns="http://www.w3.org/2000/svg" xmlns:xlink="http://www.w3.org/1999/xlink"><path d="M140.02602,32.19138c-0.24814,-3.31743 -0.58784,-8.22974 -0.58784,-9.65356c0,-2.54891 -2.09839,-4.09319 -13.57329,-5.45919c-7.30462,-0.87212 -16.62089,-1.37082 -25.55893,-1.37082c-0.106,0 -0.19996,0.04818 -0.30356,0.06023c-0.10359,-0.01205 -0.19755,-0.06023 -0.30356,-0.06023c-8.94045,0 -18.25913,0.4987 -25.56375,1.36841c-11.4749,1.366 -13.57329,2.91028 -13.57329,5.45919c0,1.42382 -0.3421,6.33372 -0.58784,9.65356l-59.97398,0.61434l0.05782,2.44049c0.01205,0.46015 1.06967,45.99836 1.21904,58.03941c0.04096,3.23793 0.41679,6.06871 1.1034,8.55016v66.39925c0,7.09261 4.93399,11.85796 12.27715,11.85796h1.84302v2.99701c0,0.66493 0.53966,1.20459 1.20459,1.20459h7.71418c0.66493,0 1.20459,-0.53966 1.20459,-1.20459v-2.99701h146.75243v2.99701c0,0.66493 0.53966,1.20459 1.20459,1.20459h7.71177c0.66493,0 1.20459,-0.53966 1.20459,-1.20459v-2.99701h1.84302c7.34557,0 12.27956,-4.76535 12.27956,-11.85796v-66.39684c0.68661,-2.48145 1.06245,-5.31464 1.1034,-8.55257c0.15178,-12.04105 1.20941,-57.57926 1.22145,-58.037l0.05541,-2.44049zM6.45659,37.55662c0.00241,0.31319 0.00482,0.64325 0.00964,0.99981c0.00723,0.66011 0.54447,1.19254 1.20459,1.19254h0.01205c0.66493,-0.00723 1.19977,-0.5517 1.19254,-1.21663c-0.00241,-0.35656 -0.00723,-0.68421 -0.00964,-0.9974l55.57001,-0.56857l0.17105,-2.19958c0.0265,-0.35415 0.60711,-7.81054 0.74203,-11.15448c3.36803,-1.34673 17.22319,-3.08374 34.3476,-3.08374c0.106,0 0.19996,-0.04818 0.30356,-0.06023c0.106,0.01205 0.19755,0.05782 0.30597,0.05782c17.11959,0 30.97234,1.73701 34.34278,3.08374c0.1325,3.34393 0.71312,10.79792 0.74203,11.15448l0.17105,2.19958l55.57001,0.56857c-0.00241,0.31319 -0.00482,0.64084 -0.00964,0.9974c-0.00723,0.66493 0.52761,1.20941 1.19254,1.21663h0.01205c0.6577,0 1.19736,-0.53243 1.20459,-1.19254c0.00482,-0.35656 0.00723,-0.68421 0.00964,-0.99981l1.52742,0.01446c-0.22164,9.66561 -1.03354,45.20574 -1.16363,55.64951c-0.14455,11.711 -4.70753,16.54139 -15.75359,16.66667c-11.76882,0.13732 -57.18898,0.03132 -66.64257,0.00482c-0.06987,-1.40455 -0.38547,-2.62118 -0.95644,-3.63303c0.19273,0.13973 0.41438,0.24092 0.66734,0.24574l6.49995,0.11564h0.02168c0.6553,0 1.19254,-0.5252 1.20459,-1.1829c0.01205,-0.66493 -0.51797,-1.21422 -1.1829,-1.22627l-6.49513,-0.11564h-0.02409c-0.6553,0 -1.19254,0.5252 -1.20459,1.1829c-0.00169,0.0783 0.01614,0.14985 0.03445,0.22285c0.0065,0.02578 0.01277,0.0518 0.01855,0.0783c-0.17587,-0.2361 -0.3421,-0.48183 -0.5517,-0.69143c-2.18753,-2.16344 -5.41582,-2.20439 -8.33092,-2.17067v-0.99499c0,-0.66493 -0.53966,-1.20459 -1.20459,-1.20459c-0.66493,0 -1.20459,0.53966 -1.20459,1.20459v0.99499c-2.9151,-0.03132 -6.14821,0.00964 -8.33815,2.17308c-0.20719,0.20478 -0.3686,0.44811 -0.54447,0.67939c0.00554,-0.02457 0.0118,-0.04891 0.01831,-0.07324c0.01831,-0.07059 0.03638,-0.1407 0.03469,-0.21586c-0.01205,-0.66493 -0.5782,-1.1564 -1.22627,-1.1829l-6.49754,0.11564c-0.66493,0.01205 -1.19495,0.55893 -1.1829,1.22627c0.01205,0.6577 0.54929,1.1829 1.20459,1.1829h0.02168l6.49995,-0.11564c0.25055,-0.00482 0.46979,-0.10359 0.6577,-0.23851c-0.56857,1.00944 -0.88176,2.22608 -0.95162,3.62581c-9.45842,0.02409 -54.87376,0.1325 -66.64257,-0.00482c-11.04365,-0.12769 -15.60904,-4.95567 -15.75359,-16.66667c-0.13491,-10.44136 -0.94681,-45.9815 -1.16845,-55.6471zM98.79782,38.44801c0,0.66493 0.53966,1.20459 1.20459,1.20459c0.66493,0 1.20459,-0.53966 1.20459,-1.20459v-1.00463h32.15766v-2.72767c0,-4.45794 0,-7.40566 -1.63583,-9.27243c-3.03797,-3.46439 -28.79927,-3.56317 -31.72641,-3.56317c-2.92715,0 -28.69085,0.10119 -31.72882,3.56799c-1.63101,1.86711 -1.63101,4.81835 -1.63101,9.28737v2.70791h32.15525zM71.80303,28.81372c2.16103,-0.79744 11.8965,-2.11525 28.19938,-2.11525c16.28602,0 26.01667,1.31541 28.19456,2.11285c0.24574,0.6553 0.32042,2.18753 0.3421,3.81372h-57.06852c0.02168,-1.63342 0.09155,-3.17047 0.33247,-3.81131zM100.00241,42.99653c-0.66493,0 -1.20459,0.53966 -1.20459,1.20459v5.75311c0,0.66493 0.53966,1.20459 1.20459,1.20459c0.66493,0 1.20459,-0.53966 1.20459,-1.20459v-5.75311c0,-0.66493 -0.53966,-1.20459 -1.20459,-1.20459zM7.83463,52.71514h0.01686c0.66493,-0.00964 1.19736,-0.55652 1.18772,-1.22145l-0.08673,-6.48791c-0.00723,-0.66011 -0.54688,-1.19013 -1.20459,-1.19013h-0.01446c-0.66493,0.00723 -1.19736,0.55411 -1.19013,1.21904l0.08673,6.49032c0.00964,0.66252 0.54688,1.19013 1.20459,1.19013zM192.1485,52.71514h0.01686c0.6577,0 1.19495,-0.52761 1.20459,-1.18772l0.08673,-6.49032c0.00964,-0.66493 -0.5252,-1.21181 -1.18772,-1.21904h-0.01686c-0.6577,0 -1.19495,0.53002 -1.20459,1.19013l-0.08673,6.4855c-0.00964,0.66493 0.52279,1.21181 1.18772,1.22145zM100.00241,54.50034c-0.66493,0 -1.20459,0.53966 -1.20459,1.20459v5.75311c0,0.66493 0.53966,1.20459 1.20459,1.20459c0.66493,0 1.20459,-0.53966 1.20459,-1.20459v-5.75311c0,-0.66493 -0.53966,-1.20459 -1.20459,-1.20459zM7.90932,56.79387c-0.66493,0.00964 -1.19736,0.55652 -1.18772,1.22145l0.09878,6.49032c0.00964,0.6577 0.54929,1.18531 1.20459,1.18531h0.01927c0.66493,-0.00964 1.19736,-0.55893 1.18531,-1.22386l-0.09878,-6.48791c-0.00964,-0.66734 -0.5517,-1.26723 -1.22145,-1.18531zM191.95336,65.69095h0.01927c0.6553,0 1.19495,-0.52761 1.20459,-1.18531l0.09878,-6.48791c0.00964,-0.66493 -0.52038,-1.21181 -1.18531,-1.22386c-0.6577,-0.01205 -1.21422,0.52038 -1.22386,1.18531l-0.09878,6.48791c-0.00964,0.66734 0.52279,1.21422 1.18531,1.22386zM100.00241,66.00414c-0.66493,0 -1.20459,0.53966 -1.20459,1.20459v5.75311c0,0.66493 0.53966,1.20459 1.20459,1.20459c0.66493,0 1.20459,-0.53966 1.20459,-1.20459v-5.75311c0,-0.66493 -0.53966,-1.20459 -1.20459,-1.20459zM191.73171,78.66435h0.02168c0.6553,0 1.19254,-0.5252 1.20459,-1.1829l0.11323,-6.49032c0.01205,-0.66493 -0.52038,-1.21181 -1.1829,-1.22386c-0.67698,-0.04818 -1.21422,0.51797 -1.22627,1.18531l-0.11323,6.4855c-0.01205,0.66493 0.51797,1.21422 1.1829,1.22627zM8.11169,69.76727c-0.66493,0.01205 -1.19495,0.55893 -1.18531,1.22386l0.11323,6.49032c0.01205,0.6577 0.54929,1.1829 1.20459,1.1829h0.02168c0.66493,-0.01205 1.19495,-0.56134 1.1829,-1.22627l-0.11323,-6.4855c-0.01205,-0.66493 -0.47943,-1.17809 -1.22386,-1.18531zM100.00241,77.51036c-0.66493,0 -1.20459,0.53966 -1.20459,1.20459v5.75311c0,0.66493 0.53966,1.20459 1.20459,1.20459c0.66493,0 1.20459,-0.53966 1.20459,-1.20459v-5.75311c0,-0.66734 -0.53966,-1.20459 -1.20459,-1.20459zM191.44502,91.64257h0.03373c0.65289,0 1.18531,-0.51797 1.20459,-1.17086c0.04577,-1.65028 0.09637,-3.87636 0.15178,-6.49754c0.01446,-0.66493 -0.51556,-1.21422 -1.17809,-1.22868h-0.0265c-0.65289,0 -1.19013,0.52279 -1.20459,1.1805c-0.053,2.61154 -0.106,4.83521 -0.15178,6.48068c-0.01686,0.66493 0.50593,1.21663 1.17086,1.23591zM8.34297,82.7479c-0.66493,0.01446 -1.19254,0.56375 -1.1805,1.22868c0.053,2.61877 0.10359,4.84967 0.15178,6.49995c0.01927,0.65289 0.55411,1.17086 1.20459,1.17086h0.03614c0.66493,-0.01927 1.19013,-0.57338 1.17086,-1.23832c-0.04818,-1.64547 -0.09878,-3.86672 -0.15178,-6.48068c-0.01446,-0.66734 -0.51074,-1.1564 -1.23109,-1.1805zM100.00241,89.01417c-0.66493,0 -1.20459,0.53966 -1.20459,1.20459v5.7507c0,0.66493 0.53966,1.20459 1.20459,1.20459c0.66493,0 1.20459,-0.53966 1.20459,-1.20459v-5.7507c0,-0.66493 -0.53966,-1.20459 -1.20459,-1.20459zM188.29623,103.92214c0.32283,0 0.64566,-0.1301 0.88176,-0.38547c1.45755,-1.57078 2.42363,-3.66917 2.94642,-6.41563c0.12528,-0.65289 -0.30356,-1.28409 -0.95644,-1.40937c-0.66493,-0.11805 -1.28409,0.30356 -1.40937,0.95644c-0.44329,2.32003 -1.18531,3.97996 -2.34413,5.2255c-0.45292,0.48665 -0.42642,1.25036 0.06023,1.70329c0.23369,0.21923 0.52761,0.32524 0.82153,0.32524zM7.87318,97.12586c0.52279,2.74646 1.48887,4.84485 2.94883,6.41563c0.23851,0.25296 0.55893,0.38306 0.88176,0.38306c0.29392,0 0.58784,-0.106 0.82153,-0.32283c0.48665,-0.45292 0.51315,-1.21663 0.06023,-1.70329c-1.15881,-1.24554 -1.90566,-2.90546 -2.34654,-5.2255c-0.12287,-0.65289 -0.74925,-1.0769 -1.40937,-0.95644c-0.65289,0.12528 -1.08172,0.75407 -0.95644,1.40937zM130.75311,104.4377l-6.49513,-0.11082c-0.72034,0 -1.21422,0.51797 -1.22627,1.18531c-0.01205,0.66493 0.52038,1.21181 1.1829,1.22386l6.49513,0.11082h0.02168c0.6553,0 1.19254,-0.5252 1.20459,-1.18531c0.01205,-0.66252 -0.52038,-1.21181 -1.1829,-1.22386zM75.76853,104.32929h-0.01927l-6.49513,0.11082c-0.66493,0.01205 -1.19495,0.55893 -1.18531,1.22386c0.01205,0.6577 0.54929,1.18531 1.20459,1.18531h0.01927l6.49513,-0.11082c0.66493,-0.01205 1.19495,-0.55893 1.18531,-1.22386c-0.01205,-0.66011 -0.54929,-1.18531 -1.20459,-1.18531zM17.09068,106.8541c1.55392,0.34451 3.29575,0.5252 5.32668,0.5517l1.37564,0.00964h0.00482c0.66252,0 1.20218,-0.53484 1.20459,-1.19977c0.00241,-0.66493 -0.53484,-1.207 -1.19977,-1.20941l-1.35637,-0.00964c-1.8382,-0.0265 -3.46439,-0.19273 -4.83521,-0.49629c-0.66011,-0.14214 -1.29373,0.26501 -1.43828,0.91549c-0.14214,0.65289 0.26742,1.29373 0.9179,1.43828zM176.20218,107.41785h0.00482l1.37564,-0.00964c2.02852,-0.0265 3.76795,-0.20719 5.32909,-0.5517c0.65048,-0.14455 1.05763,-0.7878 0.91549,-1.43828c-0.14455,-0.64807 -0.75889,-1.05281 -1.43828,-0.91549c-1.37564,0.30356 -3.00424,0.4722 -4.83762,0.49629l-1.35637,0.00964c-0.66493,0.00241 -1.20218,0.54447 -1.19977,1.20941c0.00482,0.66493 0.54447,1.19977 1.207,1.19977zM56.28313,107.05888h0.01927l6.49513,-0.10359c0.66493,-0.00964 1.19495,-0.55893 1.18531,-1.22386c-0.00964,-0.6577 -0.54929,-1.18531 -1.20459,-1.18531h-0.01927l-6.49272,0.10359c-0.66493,0.00964 -1.19736,0.55893 -1.18531,1.22386c0.00723,0.6577 0.54447,1.18531 1.20218,1.18531zM137.20488,106.95529l6.49513,0.10359h0.01927c0.6553,0 1.19495,-0.52761 1.20459,-1.18531c0.00964,-0.66493 -0.52038,-1.21181 -1.18531,-1.22386l-6.49513,-0.10359c-0.6577,0.00482 -1.21181,0.52038 -1.22386,1.18531c-0.01205,0.66493 0.52038,1.21422 1.18531,1.22386zM43.29527,107.2468h0.01686l6.49754,-0.09155c0.66493,-0.00964 1.19736,-0.55652 1.18772,-1.22145c-0.00964,-0.66493 -0.61675,-1.18531 -1.22145,-1.18772l-6.49513,0.09155c-0.66493,0.00964 -1.19736,0.55411 -1.18772,1.22145c0.00723,0.66011 0.54447,1.18772 1.20218,1.18772zM150.19273,107.15525l6.49754,0.09155h0.01686c0.6577,0 1.19495,-0.52761 1.20459,-1.18772c0.00964,-0.66493 -0.52279,-1.21181 -1.18772,-1.22145l-6.49272,-0.09155h-0.01927c-0.6553,0 -1.19495,0.52761 -1.20459,1.18772c-0.00964,0.66493 0.52279,1.21181 1.18531,1.22145zM30.29777,107.39616h0.00964l6.50477,-0.06505c0.66493,-0.00723 1.19736,-0.5517 1.19013,-1.21904c-0.00723,-0.66493 -0.66011,-1.22868 -1.21904,-1.19013l-6.49513,0.06505c-0.66493,0.00482 -1.19977,0.54929 -1.19495,1.21422c0.00482,0.66011 0.54447,1.19495 1.20459,1.19495zM163.19023,107.33112l6.50236,0.06505h0.00964c0.66011,0 1.19977,-0.53243 1.20459,-1.19495c0.00482,-0.66493 -0.53002,-1.20941 -1.19495,-1.21422l-6.49272,-0.06505c-0.64807,-0.03855 -1.21181,0.5252 -1.21904,1.19013c-0.00723,0.66493 0.52279,1.20941 1.19013,1.21904zM99.07488,107.53831l0.69384,0.00482c0.00482,0 0.01205,0.00241 0.01686,0.00241l0.21442,-0.00241l0.21442,0.00241c0.00482,0 0.01205,-0.00241 0.01686,-0.00241l0.69384,-0.00482c2.04539,-0.02409 4.3847,-0.05059 5.2255,0.78057c0.38306,0.38065 0.5782,1.1034 0.5782,2.1538l0.00241,2.92474h-13.46969v-2.92474c0,-1.0504 0.19514,-1.77315 0.58061,-2.1538c0.83382,-0.82201 3.12422,-0.80033 5.16479,-0.7813zM185.34018,175.26983h-1.84302v-1.78279c0,-0.66493 -0.53966,-1.20459 -1.20459,-1.20459h-7.71177c-0.66493,0 -1.20459,0.53966 -1.20459,1.20459v1.78279h-146.75243v-1.78279c0,-0.66493 -0.53966,-1.20459 -1.20459,-1.20459h-7.71418c-0.66493,0 -1.20459,0.53966 -1.20459,1.20459v1.78279h-1.84302c-4.67139,0 -7.4588,-2.63323 -7.4588,-7.03961v-58.15746c3.36321,3.03556 8.18396,4.56298 14.59478,4.63525c4.40156,0.05059 13.48174,0.06746 23.634,0.06746c16.99672,0 36.99046,-0.04818 43.02062,-0.06264v8.10205c0,4.02573 3.88841,6.0663 11.5544,6.0663c7.66358,0 11.54717,-2.04057 11.54717,-6.0663v-8.10205c6.02775,0.01686 26.0239,0.06264 43.02062,0.06264c10.14985,0 19.23485,-0.01927 23.63641,-0.06746c6.4084,-0.07468 11.22916,-1.59969 14.59478,-4.63525v58.15746c0,4.40638 -2.78982,7.03961 -7.46121,7.03961zM106.74087,122.81247c-0.00723,0.01205 -0.99981,1.25036 -6.73846,1.25036c-5.74347,0 -6.73605,-1.23832 -6.73605,-1.24795v-4.60152h13.47451zM24.21461,181.8806h-5.305v-7.18898h5.305zM181.08798,181.8806h-5.30259v-7.18898h5.30259z" fill-rule="evenodd"></path></svg>