<svg width="100%" viewBox="0 0 200 200" version="1.1" xmlns="http://www.w3.org/2000/svg" xmlns:xlink="http://www.w3.org/1999/xlink"><path d="M199.81271,144.582v55.41546h-1.04002c-3.90051,0 -7.8006,0 -11.70111,-0.00042c-11.12454,-0.00042 -22.24908,-0.00127 -33.37362,0.00295c-2.73808,0.00127 -5.46139,-0.16546 -8.17499,-0.54492c-6.26294,-0.87668 -12.25785,-2.62496 -17.89609,-5.51162c-8.95585,-4.58429 -15.58094,-11.38244 -19.47175,-20.72112c-2.61821,-6.28531 -3.71184,-12.87958 -3.72028,-19.65915c-0.01477,-11.43646 -0.01182,-22.87251 -0.00886,-34.30855c0.00084,-4.6016 0.00211,-9.2032 0.00211,-13.8048v-1.24474c0.55293,-0.00042 0.95265,-0.00042 1.35195,-0.00042c3.70931,0 7.41861,-0.00084 11.12792,-0.00169c11.55169,-0.00295 23.10339,-0.00549 34.6555,0.01815c2.15434,0.00464 4.31922,0.13591 6.46132,0.37397c6.25112,0.69476 12.24307,2.36876 17.90833,5.11401c11.0283,5.3449 18.48659,13.79213 22.04395,25.58357c0.92142,3.05507 1.50263,6.15573 1.83566,9.2893zM199.81271,0.00349v55.67589c-0.50271,4.56614 -1.58156,9.02634 -3.37881,13.34134c-3.8908,9.33911 -10.51589,16.13683 -19.47175,20.72112c-5.63825,2.88666 -11.63316,4.63494 -17.89609,5.51162c-2.7136,0.37946 -5.43691,0.54618 -8.17499,0.54492c-11.02029,-0.00422 -22.04057,-0.0038 -33.06086,-0.00295c-4.00477,0 -8.00911,0.00042 -12.01388,0.00042h-1.41062l-0.00169,-47.90821c-0.00169,-5.69692 0.55547,-11.31955 2.20752,-16.79613c3.55735,-11.79144 11.01564,-20.23868 22.04395,-25.58357c5.66526,-2.74526 11.65722,-4.41968 17.90833,-5.11401c2.14167,-0.23806 4.30656,-0.36932 6.46132,-0.37397c11.55169,-0.02364 23.10381,-0.02092 34.65592,-0.01821c3.70888,0.00087 7.41819,0.00174 11.1275,0.00174zM30.57796,93.41443c5.54708,1.77783 11.26763,2.43376 17.06416,2.44304l48.3666,-0.06162v-1.2612c0,-3.76418 -0.00042,-7.52835 -0.00084,-11.29295c-0.00084,-11.29295 -0.00211,-22.58591 0.00675,-33.87928c0.00169,-2.8073 -0.17432,-5.59604 -0.57024,-8.37506c-0.88723,-6.22664 -2.64607,-12.18356 -5.5247,-17.78551c-4.2538,-8.27883 -10.4454,-14.61352 -18.91375,-18.60562c-6.71077,-3.16397 -13.84405,-4.48215 -21.21075,-4.50578c-11.47175,-0.03721 -22.94392,-0.02983 -34.41609,-0.02246c-4.66567,0.003 -9.3313,0.006 -13.99693,0.006h-1.17678v1.31438c0,3.82876 0.00054,7.65747 0.00108,11.48623c0.0016,11.29637 0.00319,22.59279 -0.0091,33.88946c-0.00295,2.77438 0.17601,5.52766 0.57235,8.27249c0.82983,5.74714 2.40379,11.27396 4.93209,16.50658c5.21109,10.78518 13.40972,18.19662 24.87616,21.87131zM194.51974,4.26235h1.3663v1.22026c0,4.17639 0.00127,8.35278 0.00211,12.52916c0.00295,10.44089 0.00549,20.88173 -0.00886,31.32236c-0.00802,5.98858 -0.93155,11.82901 -3.14666,17.42124c-3.35053,8.45821 -9.1956,14.66923 -17.19078,18.90108c-5.30058,2.80519 -10.96541,4.47877 -16.88815,5.33645c-2.74652,0.39803 -5.50402,0.52592 -8.27587,0.52381c-9.95156,-0.00802 -19.9027,-0.00718 -29.85426,-0.00591c-3.48391,0.00042 -6.96824,0.00084 -10.45216,0.00084h-1.38403v-1.23207c0,-3.93554 0.00042,-7.87151 0.00084,-11.80706c0.00084,-10.17484 0.00211,-20.35011 -0.0038,-30.52495c-0.00295,-5.25372 0.48371,-10.44203 1.98972,-15.4999c3.23868,-10.87678 10.16007,-18.54864 20.36953,-23.33385c5.07982,-2.381 10.42978,-3.85324 16.0005,-4.46653c2.10833,-0.23215 4.2386,-0.36342 6.35875,-0.36848c10.32468,-0.02414 20.64895,-0.02127 30.97363,-0.01836c3.38134,0.00097 6.76227,0.0019 10.14319,0.0019zM91.72072,90.09809v1.36503c-0.149,0.00802 -0.28533,0.01688 -0.41365,0.02533c-0.24565,0.01646 -0.46092,0.03081 -0.67661,0.03039c-3.27033,0.00042 -6.54109,0.00169 -9.81143,0.00253c-11.011,0.00338 -22.02158,0.00675 -33.03258,-0.00591c-5.38964,-0.00675 -10.71005,-0.58206 -15.87303,-2.2244c-10.13475,-3.22391 -17.44066,-9.72828 -22.14314,-19.20583c-2.67899,-5.40019 -4.29136,-11.12918 -4.938,-17.11523c-0.2313,-2.14209 -0.34569,-4.3074 -0.35075,-6.46216c-0.02317,-10.22744 -0.02034,-20.45538 -0.01747,-30.68324c0.00093,-3.37826 0.00186,-6.75653 0.00186,-10.13475v-1.34984c0.39761,-0.02744 0.69096,-0.06542 0.98431,-0.06542c4.02794,-0.00068 8.05588,-0.00409 12.08382,-0.00747c10.72609,-0.00907 21.45214,-0.01811 32.17798,0.02393c6.04894,0.02364 11.96027,0.99444 17.59768,3.3003c8.45821,3.45943 14.61436,9.40622 18.77403,17.47949c2.65113,5.14567 4.26266,10.62099 5.09375,16.33986c0.3841,2.64522 0.5504,5.29889 0.54829,7.9707c-0.00802,10.0537 -0.00718,20.10699 -0.00591,30.16069c0.00042,3.51852 0.00084,7.03747 0.00084,10.55599zM95.9952,105.46545v-1.25318c-0.59092,0 -1.02398,0 -1.45662,-0.00042c-4.13561,0 -8.27165,0 -12.40727,0c-11.02155,-0.00042 -22.0431,-0.00084 -33.06508,0.00084c-7.68706,0.00084 -15.08372,1.48828 -22.17564,4.43487c-6.52125,2.70896 -12.21268,6.60483 -16.7535,12.06833c-6.20933,7.47179 -9.07066,16.24193 -9.71603,25.78829c-0.22792,3.36995 -0.22423,6.75678 -0.22055,10.14065c0.00076,0.70193 0.00153,1.40386 0.00022,2.10537c-0.01773,10.00052 -0.01409,20.00147 -0.01045,30.00241c0.00121,3.33365 0.00243,6.66772 0.00285,10.00137c0,0.39085 0.01984,0.78171 0.03208,1.23165h1.43046c3.6985,0 7.39695,0.00084 11.09545,0.00169c11.62792,0.00253 23.25589,0.00549 34.88381,-0.01857c2.11972,-0.00464 4.25042,-0.14435 6.35748,-0.38452c6.17936,-0.70404 12.10083,-2.37129 17.707,-5.0794c10.28965,-4.97008 17.56813,-12.70315 21.40659,-23.54109c2.1193,-5.98394 2.8799,-12.192 2.88497,-18.50685c0.00929,-11.15746 0.0076,-22.31535 0.00549,-33.47281c-0.00042,-4.50621 -0.00127,-9.01241 -0.00127,-13.51862zM108.70004,122.21516c0.00084,-4.17698 0.00211,-8.35396 0.00211,-12.53094v-1.22026h1.3663c3.35686,0 6.71373,-0.00084 10.07059,-0.00169c10.34874,-0.00295 20.69749,-0.00591 31.04623,0.01815c2.12015,0.00507 4.25042,0.13633 6.35875,0.36848c5.57071,0.61329 10.92067,2.08553 16.0005,4.46653c10.20945,4.78563 17.13085,12.45707 20.36953,23.33385c1.50601,5.05788 1.99268,10.24618 1.98972,15.4999c-0.00591,10.17484 -0.00464,20.34969 -0.0038,30.52453c0.00042,3.93597 0.00084,7.87151 0.00084,11.80748v1.23207h-1.38403c-3.48391,0 -6.96824,-0.00042 -10.45216,-0.00084c-9.95156,-0.00127 -19.9027,-0.00211 -29.85426,0.00591c-2.77185,0.00211 -5.52893,-0.12578 -8.27587,-0.52381c-5.92273,-0.85768 -11.58757,-2.53126 -16.88815,-5.33645c-7.99518,-4.23185 -13.83983,-10.44287 -17.19078,-18.90108c-2.21512,-5.59224 -3.13822,-11.43266 -3.14666,-17.42124c-0.01435,-10.44034 -0.01182,-20.88067 -0.00886,-31.32059zM90.35991,108.49267h1.36081c0,0.51664 0,0.88301 -0.00042,1.2498c0,4.02292 0.00084,8.04583 0.00127,12.06875c0.00211,10.15669 0.0038,20.31339 -0.00591,30.4705c-0.00507,5.4922 -0.58628,10.91181 -2.28096,16.16807c-3.30073,10.23985 -9.95283,17.53521 -19.57558,22.18999c-5.17648,2.5034 -10.64632,4.04444 -16.35421,4.6915c-2.04037,0.23173 -4.10269,0.37355 -6.15573,0.37861c-10.42793,0.02406 -20.85611,0.0211 -31.2842,0.01857c-3.41401,-0.00127 -6.82803,-0.00211 -10.24204,-0.00211h-1.28779c-0.02617,-0.35455 -0.06627,-0.64622 -0.06669,-0.93746c-0.0008,-3.97564 -0.00414,-7.95129 -0.00747,-11.92693c-0.00907,-10.77801 -0.01811,-21.55601 0.02351,-32.33402c0.02237,-5.84085 0.92522,-11.56267 3.06436,-17.03841c3.43579,-8.79293 9.50626,-15.17743 17.86823,-19.44262c5.21827,-2.66211 10.76492,-4.25929 16.55512,-5.07265c2.51395,-0.35329 5.03593,-0.48413 7.57014,-0.48371c10.20988,0.00295 20.41933,0.00295 30.62879,0.00253c3.39612,-0.00042 6.79266,-0.00042 10.18877,-0.00042z" fill-rule="evenodd"></path></svg>