<svg width="100%" viewBox="0 0 200 200" version="1.1" xmlns="http://www.w3.org/2000/svg" xmlns:xlink="http://www.w3.org/1999/xlink"><path d="M149.53463,10.8901c-34.5256,-15.98574 -78.22199,-12.80606 -110.12973,7.94802c-31.28455,20.35042 -46.14666,58.10763 -36.48487,94.33992c9.98282,37.46922 49.72999,67.23829 89.03101,61.52101c-1.35732,19.80985 23.59855,28.54629 39.1948,22.78416c0.53585,-0.19829 0.91118,-0.53113 1.15668,-0.92298c0.53113,-0.25022 1.03157,-0.63263 1.48716,-1.18972c0.68928,-0.84036 0.07318,-2.32988 -1.13779,-1.95691c-0.3352,0.10386 -0.68692,0.09678 -1.04337,0.03305c-0.22661,-0.12983 -0.48392,-0.21481 -0.7719,-0.23842c-2.94598,-1.329 -6.17996,-6.88104 -7.09349,-8.727c-1.40454,-2.8492 -1.35024,-6.45142 -2.58482,-9.25341c18.36282,-0.29271 36.19688,-7.33663 49.61668,-19.96329c14.32626,-13.47646 22.8833,-33.54125 27.307,-52.42339c8.8946,-38.01688 -14.13978,-76.01723 -48.54735,-91.95103zM188.28564,117.48843c-3.76746,10.13154 -8.57593,20.03882 -15.50654,28.40702c-12.84855,15.51834 -32.50732,24.29964 -52.52962,24.49793c-1.94274,0.01652 -2.68632,1.89789 -2.20949,3.31423c-0.12747,0.11803 -0.24314,0.2455 -0.33284,0.41782c-2.25434,4.22305 2.56357,15.06748 7.92205,20.1238c-6.64499,1.1071 -13.34427,0.491 -19.35426,-3.16316c-6.57653,-4.00116 -9.28646,-10.32747 -11.1395,-17.4304c-0.06137,-0.24078 -0.1558,-0.43434 -0.27619,-0.59486c-0.10859,-0.53821 -0.5146,-1.03629 -1.15432,-1.04337c-33.83868,-0.35881 -67.13679,-15.37199 -81.94932,-47.40484c-14.75588,-31.91718 -6.63082,-71.11906 19.76028,-94.28327c26.89154,-23.60564 67.26662,-30.515 101.23749,-20.80601c34.21637,9.77745 62.51244,39.77077 62.38733,76.68999c-0.03541,10.81138 -3.11358,21.21911 -6.85508,31.27511zM151.00054,66.37515c-8.64438,-10.95774 -23.99277,-14.04771 -36.60526,-8.42013c-9.85771,4.40245 -16.45313,13.77625 -17.98513,24.09663c-4.48743,-10.11501 -13.552,-18.81605 -24.1344,-21.21202c-14.35223,-3.25286 -24.32561,9.50835 -25.79152,22.57407c-1.71141,15.24216 6.87396,28.89094 17.6098,38.91625c11.36139,10.60365 26.84433,20.41415 42.56804,22.17041c0.71761,0.0779 1.19681,-0.52168 1.30303,-1.16848c0.65388,0.07082 1.3526,-0.10623 1.97815,-0.6586c7.95982,-6.99199 15.92908,-13.97454 23.88182,-20.97597c6.19648,-5.45762 12.45433,-10.97898 17.21559,-17.78449c8.06841,-11.53371 8.89696,-26.2117 -0.04013,-37.53768zM138.63119,110.37841c-10.31802,9.99463 -21.54486,19.16069 -32.32556,28.65252c-0.73177,0.64679 -0.92298,1.41634 -0.78135,2.12215c-10.72876,-4.79903 -21.23091,-8.96778 -30.75578,-16.17458c-10.18347,-7.70724 -20.06715,-18.04415 -22.8597,-30.90686c-2.59662,-11.95389 3.14427,-32.04229 19.06863,-28.52977c12.90048,2.84448 20.70686,14.93529 23.60564,26.91751c0.38713,1.60754 1.7657,1.96163 2.90821,1.51312c0.92298,0.41074 2.30391,-0.12275 2.2449,-1.35732c-0.65152,-13.63225 5.88961,-27.41795 19.69654,-31.59614c13.09169,-3.96339 27.13232,2.62731 31.7543,15.63637c4.69516,13.20971 -3.4299,24.87562 -12.55584,33.72301z" fill-rule="evenodd"></path></svg>