<svg width="100%" viewBox="0 0 200 200" version="1.1" xmlns="http://www.w3.org/2000/svg" xmlns:xlink="http://www.w3.org/1999/xlink"><path d="M44.91185,125.75156c-11.15267,-16.07133 -22.76778,-30.42444 -24.688,-55.59756c-3.17867,-41.668 29.43556,-70.1622 70.21422,-70.154c40.77867,0.0082 75.39355,30.55178 75.30311,68.92955c-0.00644,2.78622 -0.84289,5.47911 -1.65289,8.08711c-1.23556,3.97844 -2.40978,7.75956 -0.48378,11.37333c2.17844,4.08711 5.13111,8.24289 7.93,12.18244c5.12756,7.21711 9.73933,13.708 8.13,17.72044c-1.69178,4.218 -5.25289,3.65289 -8.58133,3.12467c-2.51422,-0.39889 -4.89533,-0.77689 -6.238,0.94356c-1.39511,1.78822 -0.59511,4.13044 0.17089,6.37267c0.62756,1.83756 1.23222,3.60778 0.58733,4.95111c-0.72533,1.51111 -2.79556,1.38111 -4.55889,1.27044c-1.55933,-0.09778 -2.87867,-0.18067 -2.81622,0.89956c0.06644,1.15022 1.61556,1.95422 3.12933,2.73978c1.97156,1.02311 3.88356,2.01533 2.38467,3.70178c-5.98956,6.73911 -5.07178,10.35156 -4.19422,13.80578c0.73333,2.88711 1.43867,5.66356 -1.94022,10.06222c-4.60911,6.00044 -10.884,4.05133 -16.74489,2.23067c-4.82844,-1.5 -9.376,-2.91244 -12.48022,0.27822c-3.28089,3.372 -3.17356,10.90622 -3.05067,19.52311c0.05422,3.81156 0.11156,7.83489 -0.12,11.80356c-26.55933,-6.61533 -56.88778,-3.61378 -72.856,-16.34133c5.85622,-25.49244 3.77867,-41.73489 -7.44422,-57.90711zM120.01496,29.16867c-9.66,-8.29178 -21.686,-12.23867 -33.56756,-12.00178c-13.46578,0.26844 -26.77222,5.91044 -36.32467,16.68044c-16.33044,18.41178 -16.03644,45.46844 -0.41356,63.53489c-13.58156,-16.25667 -13.63178,-40.23911 0.896,-56.61867c16.18311,-18.24556 44.31467,-20.19178 62.86178,-4.27178c2.06067,1.76889 5.23244,1.62044 7.03044,-0.40689c1.79822,-2.02733 1.57844,-5.14733 -0.48244,-6.91622zM123.46141,102.53556c16.33044,-18.41178 16.03644,-45.46822 0.41356,-63.53489c13.58156,16.25667 13.63178,40.23911 -0.89622,56.61867c-16.18289,18.24556 -44.38333,20.124 -62.93044,4.204c-2.06089,-1.76889 -5.16356,-1.55267 -6.96156,0.47467c-1.79822,2.02733 -1.57844,5.14733 0.48244,6.91622c20.60778,17.68889 51.91111,15.59422 69.89222,-4.67867zM105.19563,47.40867c-5.10644,-4.38311 -11.36378,-6.67044 -17.64533,-6.84844c-0.89733,-0.02556 -1.79311,0.00778 -2.68822,0.06778c-7.16156,0.47956 -14.13844,3.684 -19.23067,9.42511c-10.18422,11.48222 -8.98378,28.90244 2.68822,38.92111c11.672,10.01867 29.38,8.83778 39.56422,-2.64444c10.18422,-11.48222 8.98378,-28.90244 -2.68822,-38.92111zM70.80096,54.46067c4.32689,-4.87844 10.44022,-7.28467 16.54244,-7.11978c4.74644,0.12822 9.51489,1.84267 13.372,5.15333c8.816,7.56733 9.69111,20.75533 1.99889,29.42822c-7.69244,8.67267 -21.02956,9.53356 -29.84556,1.96622c-8.816,-7.56733 -9.76022,-20.75533 -2.06778,-29.428zM91.41007,63.00422c-1.45844,-1.252 -3.31067,-1.81511 -5.10044,-1.69511c-1.79,0.11978 -3.55222,0.93822 -4.82489,2.37311c-2.54533,2.86978 -2.228,7.19244 0.68911,9.69644c2.91733,2.504 7.31133,2.19178 9.85667,-0.678c2.54533,-2.86978 2.29689,-7.19244 -0.62044,-9.69644z" fill-rule="evenodd"></path></svg>