<svg width="100%" viewBox="0 0 200 200" version="1.1" xmlns="http://www.w3.org/2000/svg" xmlns:xlink="http://www.w3.org/1999/xlink"><path d="M166.08268,99.88175c14.56358,0 27.21591,4.11448 33.01721,10.73626l0.90012,1.02802l-0.0555,1.36586c-0.75533,18.24851 -30.78018,46.21251 -66.34089,46.21251h-0.00241c-11.36128,0 -22.52467,-2.78964 -33.22715,-8.22414l-0.56469,0.50918l-0.42472,-0.3837c-10.63008,5.35245 -21.70902,8.09865 -32.98342,8.09865c-35.5607,0 -65.58797,-27.964 -66.34571,-46.21251l-0.0555,-1.36586l0.90012,-1.02802c5.80371,-6.62178 18.45604,-10.73626 33.01962,-10.73626c0.79152,0 1.60718,0.04826 2.41077,0.07481c-5.04356,-14.91107 -5.20765,-30.0876 0.06033,-38.27312l0.74085,-1.1535l1.32967,-0.32095c1.49135,-0.36439 3.13714,-0.54779 4.89153,-0.54779c8.4196,0 20.87647,4.46198 32.58283,13.99889c4.42337,-15.62296 13.32078,-28.66382 22.60431,-32.37771l1.26934,-0.50677l1.26934,0.50677c9.12184,3.65115 17.8624,16.31072 22.36299,31.57171c11.4023,-8.97464 23.38618,-13.19289 31.55723,-13.19289c1.75439,0 3.40018,0.18582 4.89394,0.54779l1.32967,0.32095l0.74085,1.1535c5.27522,8.19518 5.10389,23.39583 0.04344,38.3238c1.3731,-0.07481 2.73897,-0.12549 4.07587,-0.12549zM117.71278,77.83972c-3.64632,-14.76387 -11.39024,-26.03586 -17.90342,-29.60014c-6.66039,3.6415 -14.60943,15.33338 -18.14957,30.58471c2.09947,2.08258 4.15068,4.32926 6.11501,6.77623c4.11448,5.12561 8.3086,11.70154 11.39989,19.6385c3.09129,-7.93697 7.28782,-14.5129 11.4023,-19.64092c2.28046,-2.84032 4.67917,-5.40554 7.13579,-7.75839zM74.18615,81.18922c-11.71602,-10.47323 -24.95958,-15.5023 -32.73004,-14.57805c-3.19988,6.59041 -3.02372,19.99083 2.35044,33.9318c10.25363,1.33208 21.05746,4.82396 30.94669,11.02585c-2.72207,-11.97905 -1.91366,-22.85287 -0.57434,-30.3434zM156.89809,66.61116c-0.59606,-0.06998 -1.23072,-0.10618 -1.89676,-0.10618c-7.71254,0 -19.2524,4.69365 -29.76182,13.74309c0.06516,0.32819 0.14238,0.65156 0.20029,0.98217c1.34897,7.54844 2.16463,18.53085 -0.63467,30.62091c9.45003,-6.02331 19.75434,-9.52726 29.63875,-11.0355c5.47311,-14.03991 5.67581,-27.57065 2.45421,-34.20449zM115.36717,119.0328c4.89635,-12.48341 4.96875,-24.39972 3.87799,-32.98825c-1.13661,1.22831 -2.25633,2.49282 -3.33261,3.83697c-5.29453,6.59765 -10.75074,15.81602 -13.23874,27.52962c0.88564,4.64056 1.36345,9.60207 1.23796,14.92555c3.41224,-5.10389 7.27093,-9.52484 11.45539,-13.30389zM82.44166,89.8791c-0.72154,-0.90012 -1.4648,-1.76404 -2.2153,-2.61348c-0.91701,8.35686 -0.65639,19.53715 3.81525,31.25075c3.74768,3.31089 7.25645,7.10683 10.41772,11.45781c0.03861,-4.43302 0.46816,-8.62473 1.21866,-12.56304c-2.48799,-11.7136 -7.94179,-20.93439 -13.23632,-27.53204zM33.91974,106.72314c-13.05292,0 -22.59948,3.57875 -26.88771,7.41331c2.14532,13.88788 27.06388,38.24899 59.37402,38.25141c7.36263,0 14.65286,-1.29588 21.77659,-3.84662c-28.66141,-7.03202 -42.55653,-27.65752 -48.48331,-40.19161c-0.22201,-0.47057 -0.41989,-0.94597 -0.63225,-1.41895c-2.05603,-0.15927 -3.80318,-0.20753 -5.14732,-0.20753zM111.17546,148.30474c7.32884,2.70518 14.83627,4.0807 22.42573,4.0807c32.30532,0 57.22387,-24.3587 59.36919,-38.24899c-4.29064,-3.83214 -13.83721,-7.41331 -26.8853,-7.41331c-1.70371,0 -4.05657,0.07964 -6.8631,0.36198c-0.19064,0.41989 -0.36439,0.84703 -0.56227,1.26451c-5.85921,12.3893 -19.4913,32.69867 -47.48425,39.95511zM47.16813,108.00212c6.0209,11.52296 18.69736,28.23186 43.12845,34.05729c-5.63961,-6.54215 -9.56587,-13.29665 -12.23726,-19.92809c-10.33567,-8.58129 -21.82968,-12.43515 -30.89119,-14.1292zM150.98579,108.37134c-8.92396,1.89918 -19.83156,5.91472 -29.63151,14.25951c-2.60383,6.31772 -6.35633,12.73921 -11.64845,18.97247c23.08212,-6.11019 35.32662,-21.99377 41.27995,-33.23198z" fill-rule="evenodd"></path></svg>