<svg width="100%" viewBox="0 0 200 200" version="1.1" xmlns="http://www.w3.org/2000/svg" xmlns:xlink="http://www.w3.org/1999/xlink"><path d="M200,31.20667v37.12222h-28.14889v29.87111h28.14889v37.12222h-28.15111v33.5h-59.23333v-0.02889h-112.61556v-37.12h28.14889v-29.87333h-28.14889v-37.12222h28.14889v-33.5h59.23333v0.02889zM84.46889,34.81111h-53.40889v29.86h53.40889zM140.76444,34.83778h-53.38222v29.84h28.14889v0.01778h25.23333zM197.08889,34.83778h-53.38667v29.85778h53.38667zM56.29778,68.30889h-53.38889v29.85556h53.38889zM112.61778,98.16444v-29.83556h-28.15111v-0.02h-25.23333v29.85556zM168.94,98.19556v-29.86h-53.40889v29.86zM31.06,101.80444v29.85778h53.40889v-29.85778zM87.38222,101.83111v29.84222h28.14889v0.01778h25.23333v-29.86zM143.70222,131.69111h53.38667v-29.86h-53.38667zM2.90889,165.16h53.38889v-29.85556h-53.38889zM59.23333,165.16h53.38222v-29.83778h-28.14889v-0.01778h-25.23333zM115.53111,165.18889h53.40889v-29.85778h-53.40889z" fill-rule="evenodd"></path></svg>