<svg width="100%" viewBox="0 0 200 200" version="1.1" xmlns="http://www.w3.org/2000/svg" xmlns:xlink="http://www.w3.org/1999/xlink"><path d="M49.86158,181.33731c24.02971,17.44656 49.75686,21.83134 76.48337,13.02809c18.66225,7.3341 43.32704,9.54633 49.8214,-9.45502l22.50168,-52.65045c0.35044,-0.81801 0.20907,-1.76512 -0.36272,-2.44774c-22.09583,-26.31436 -46.30407,-32.19348 -71.95438,-17.48655c-9.75949,-11.40434 -27.6519,-14.78061 -41.94983,-8.49878c3.3514,-10.28217 4.3385,-20.82882 5.23019,-30.32099c1.307,-13.91978 2.45373,-26.12985 10.05169,-34.54551c0.86084,2.03244 2.13698,3.49278 3.80984,4.35991c2.3706,1.22072 5.30103,1.18074 8.90779,-0.14767c0.2796,0.75032 0.73772,1.36839 1.38036,1.85423c1.50693,1.13477 3.64989,1.22072 6.78309,0.16593c0.07084,0.42129 0.23079,0.83344 0.49528,1.233c1.53748,2.34006 4.76892,2.15555 13.9012,-0.99623c5.0356,10.16189 16.92955,8.03593 16.4349,-1.50032c-0.00315,-0.06612 -0.00567,-0.12122 -0.01102,-0.17601c-0.05101,-0.50567 -0.35831,-0.98521 -3.76167,-9.58978c1.10989,-11.50598 -2.42917,-21.8866 -10.53122,-30.86819c-0.36304,-0.4028 -0.8517,-0.66723 -1.38697,-0.75334c-32.87894,-5.1596 -54.11991,-1.46056 -64.9342,11.33998l-16.27527,19.71575c-29.65663,16.25071 -47.26931,43.19543 -52.35199,80.09328c-8.11758,15.11909 6.62012,36.00647 47.71846,67.64643zM6.47862,115.61595c0.14761,-0.26448 0.246,-0.55353 0.28596,-0.85202c4.81211,-35.71711 21.76377,-61.70559 50.38734,-77.23652c0.05353,-0.02897 0.09792,-0.05132 0.14137,-0.0762c0.5592,-0.31864 0.90649,-1.00945 17.1021,-20.54065c9.42133,-11.1555 29.51557,-14.46093 59.74116,-9.83024c6.99815,8.04069 9.85773,16.93632 8.73241,27.15993c-0.07147,0.63886 -0.00441,0.80196 0.9427,3.10833c0.57683,1.40429 1.47986,3.60266 2.87627,7.18643c-0.03463,4.47452 -5.95406,3.87785 -8.14834,-2.81362c-0.76732,-2.32589 -2.6206,-1.67318 -5.91313,-0.51354c-1.67287,0.58911 -3.71759,1.3092 -6.18013,1.83565c0.28275,-0.34131 0.6335,-0.74087 1.06392,-1.2053c0.78716,-0.84541 0.84856,-2.13698 0.14137,-3.05323c-0.70718,-0.91027 -1.97702,-1.17759 -2.98868,-0.6335c-5.09511,2.74592 -7.17352,3.06551 -7.86559,3.06551c-0.00283,-0.2182 0.02456,-0.57494 0.14452,-1.11304c0.19679,-0.89484 -0.14137,-1.82337 -0.86682,-2.38288c-0.72891,-0.55668 -1.716,-0.64893 -2.52457,-0.2245c-3.60676,1.86336 -6.3341,2.42602 -7.887,1.62658c-1.21159,-0.62406 -2.01386,-2.29063 -2.38603,-4.95342c-0.11996,-0.84572 -0.68892,-1.56518 -1.48836,-1.87281c-0.78401,-0.30731 -1.69711,-0.15995 -2.35832,0.38445c-11.61656,9.6304 -13.01896,24.57096 -14.50102,40.38496c-1.08848,11.58287 -2.21065,23.56246 -7.18265,35.02851c-0.41814,0.96537 -0.14452,2.09699 0.67034,2.76418c0.81801,0.67349 1.98017,0.71348 2.84416,0.11367c13.50479,-9.38733 33.41106,-6.65998 42.62017,5.83315c0.72261,0.98395 2.08471,1.25756 3.12722,0.61493c24.0083,-14.62098 45.84563,-9.93172 66.74246,14.32564c-24.01271,53.87117 -21.69658,57.16117 -30.68088,61.18292c-13.40309,6.00223 -35.51434,-3.16406 -35.73254,-3.25631c-0.29219,-0.1228 -0.60265,-0.18451 -0.91625,-0.18451c-0.25535,0 -0.51354,0.04314 -0.75945,0.12626c-25.48123,8.6433 -50.05535,4.57842 -72.97202,-12.05957c-38.10951,-29.33988 -53.22539,-49.6032 -46.21169,-61.93922zM174.73656,77.97691c-1.23899,-0.42129 -2.57369,0.26134 -2.9827,1.50032l-3.63446,10.98022c-0.40869,1.23615 0.26165,2.57369 1.50064,2.9827c1.2097,0.40838 2.56645,-0.24465 2.9827,-1.50064l3.63446,-10.98022c0.40901,-1.23615 -0.26134,-2.57369 -1.50064,-2.98238zM143.30568,78.55185c-1.22387,0.45813 -1.84478,1.81707 -1.38981,3.0378l4.03717,10.83884c0.45844,1.23174 1.82589,1.83911 3.03811,1.38981c1.22072,-0.45498 1.84478,-1.81424 1.38981,-3.03811l-4.03749,-10.83853c-0.45813,-1.22072 -1.82022,-1.84195 -3.0378,-1.38981zM196.35569,96.49338l-9.71038,6.29128c-1.09761,0.71002 -1.40807,2.17067 -0.70089,3.26544c0.70214,1.08407 2.15681,1.41436 3.26544,0.70089l9.71038,-6.29096c1.09761,-0.71033 1.40807,-2.17098 0.70089,-3.26544c-0.71033,-1.09163 -2.16752,-1.40523 -3.26544,-0.7012zM132.34687,130.24575c1.37154,0.7075 33.44506,17.71419 20.55835,48.91775c-1.19553,2.89328 3.17949,4.68138 4.36652,1.80165c14.55612,-35.24041 -22.38802,-54.72571 -22.76302,-54.91935c-1.15933,-0.60265 -2.58314,-0.13854 -3.17634,1.01764c-0.59667,1.15933 -0.14169,2.58282 1.01449,3.18232z" fill-rule="evenodd"></path></svg>