<svg width="100%" viewBox="0 0 200 200" version="1.1" xmlns="http://www.w3.org/2000/svg" xmlns:xlink="http://www.w3.org/1999/xlink"><path d="M194.01859,146.14163c2.62195,-0.60126 5.23566,1.01309 5.85339,3.63229c0.6095,2.61646 -1.01583,5.23566 -3.63503,5.85065l-19.19375,4.49437c-0.37339,0.08511 -0.74403,0.12629 -1.11193,0.12629c-0.5189,0 -1.0378,-0.09335 -1.54297,-0.26357c-0.19493,-0.06864 -0.36515,-0.19218 -0.5491,-0.28004c-0.25808,-0.12629 -0.52713,-0.21964 -0.76599,-0.38986c-0.02471,-0.02196 -0.04942,-0.04942 -0.08236,-0.07413c-0.05766,-0.04393 -0.10158,-0.09335 -0.15924,-0.14277c-0.35142,-0.29102 -0.64794,-0.62048 -0.89503,-0.9774c-0.03569,-0.05216 -0.07687,-0.09335 -0.10707,-0.14551c-0.2718,-0.42281 -0.45301,-0.88679 -0.58204,-1.36177c-0.00824,-0.04393 -0.04118,-0.07962 -0.05216,-0.12355l-4.50536,-19.1965c-0.61499,-2.6192 1.0076,-5.2384 3.6268,-5.85339c2.62469,-0.62597 5.24115,1.01034 5.85339,3.6268l1.83399,7.81642c19.37221,-35.33177 12.81871,-80.14648 -17.32407,-108.34545c-32.95143,-30.82641 -83.87486,-32.30898 -118.46534,-3.45383c-2.06461,1.72417 -5.13682,1.44413 -6.86099,-0.62048c-1.72417,-2.06461 -1.44413,-5.13682 0.62048,-6.85825c38.3573,-32.00148 94.82938,-30.36242 131.35544,3.81898c33.51974,31.35629 40.79805,81.27488 19.08942,120.49976zM102.78032,164.27562c0,1.79555 -1.45511,3.24792 -3.24792,3.24792c-1.79281,0 -3.24517,-1.45237 -3.25067,-3.24517v-19.97073c-18.51562,-6.80334 -29.67605,-17.44213 -33.13812,-31.66379c-8.4424,-34.70305 32.30623,-77.62886 34.04413,-79.43814c0.00824,-0.00824 0.01922,-0.01098 0.02745,-0.01922c0.01647,-0.01647 0.03295,-0.0302 0.04667,-0.04667c0.00824,-0.00824 0.01098,-0.01922 0.01922,-0.02745c0.11257,-0.10707 0.25808,-0.15375 0.38162,-0.2416c0.1208,-0.08511 0.23337,-0.17571 0.36515,-0.24435c0.08236,-0.04393 0.14551,-0.1208 0.23062,-0.15649c0.01922,-0.00824 0.04393,-0.00824 0.06315,-0.01647c0.20591,-0.08236 0.42006,-0.09335 0.63695,-0.13178c0.1812,-0.03295 0.35691,-0.10158 0.53812,-0.10433c0.01373,0 0.02471,-0.00549 0.03569,-0.00549c0.01098,0 0.01922,0.00549 0.0302,0.00549c0.20866,0.00275 0.40908,0.07413 0.61499,0.11806c0.18669,0.03844 0.38162,0.04667 0.56008,0.11806c0.02196,0.00824 0.04393,0.00824 0.06315,0.01647c0.10158,0.03844 0.17846,0.12904 0.27729,0.18395c0.12355,0.06864 0.23886,0.15375 0.35417,0.23611c0.11257,0.08511 0.24435,0.12355 0.34868,0.22239c0.00824,0.00824 0.00824,0.01647 0.01647,0.02471c0.01647,0.01647 0.03569,0.0302 0.04942,0.04667c0.01098,0.00824 0.01922,0.01098 0.0302,0.01922c1.73515,1.80928 42.48378,44.73509 34.03864,79.43814c-3.45658,14.21892 -14.61701,24.85771 -33.13537,31.66379zM158.29422,167.4851c-34.71403,30.27731 -86.29913,29.35757 -119.98635,-2.16345c-30.83465,-28.84966 -37.06967,-74.4935 -16.41257,-110.1163l1.92734,8.21727c0.52713,2.24581 2.52585,3.76133 4.73872,3.76133c0.3679,0 0.74403,-0.04393 1.11467,-0.12904c2.6192,-0.61499 4.24453,-3.23419 3.62954,-5.85339l-4.50261,-19.1965c-0.01647,-0.07687 -0.05491,-0.14277 -0.07413,-0.21964c-0.04942,-0.16748 -0.10433,-0.32946 -0.17022,-0.49144c-0.05766,-0.14002 -0.11531,-0.27455 -0.18395,-0.40359c-0.07687,-0.151 -0.16198,-0.29377 -0.25533,-0.43379c-0.07962,-0.12355 -0.16748,-0.24435 -0.25808,-0.35966c-0.10433,-0.13178 -0.21964,-0.25808 -0.34044,-0.37888c-0.10433,-0.10707 -0.2114,-0.20591 -0.32397,-0.302c-0.06864,-0.05766 -0.12629,-0.12904 -0.20042,-0.18395c-0.06864,-0.05491 -0.14551,-0.08511 -0.21689,-0.13453c-0.11806,-0.07687 -0.23611,-0.14826 -0.35966,-0.21689c-0.15924,-0.0906 -0.32122,-0.17297 -0.48595,-0.23886c-0.1208,-0.05216 -0.24435,-0.09335 -0.3679,-0.13453c-0.17297,-0.05766 -0.34593,-0.10707 -0.52439,-0.14551c-0.13178,-0.02471 -0.26906,-0.04393 -0.40359,-0.05766c-0.17571,-0.02196 -0.34868,-0.03569 -0.52439,-0.03844c-0.14002,0 -0.28004,0.00824 -0.42281,0.01922c-0.17846,0.01373 -0.35417,0.03295 -0.52988,0.06589c-0.06864,0.01098 -0.13453,0.01098 -0.20317,0.02745l-19.1965,4.49437c-2.6192,0.61225 -4.24453,3.23145 -3.63229,5.85065c0.61225,2.6192 3.23419,4.2363 5.85065,3.63229l7.31125,-1.71044c-22.69426,39.45825 -15.73168,89.88749 18.36736,121.79838c19.14159,17.90337 43.49138,26.90585 67.86863,26.90585c23.18845,0 46.40709,-8.14863 65.1753,-24.52276c2.02343,-1.76535 2.23209,-4.8458 0.46673,-6.86923c-1.7681,-2.03167 -4.8458,-2.24032 -6.87472,-0.47223zM102.78032,137.31212c14.98216,-6.01538 24.04779,-14.78998 26.82623,-26.20849c5.83967,-23.99013 -16.10233,-54.09448 -26.82623,-67.02027v37.79722l5.33175,-5.3345c1.26842,-1.26842 3.32205,-1.26842 4.59047,0c1.26842,1.26842 1.26842,3.32205 0,4.59047l-9.92222,9.92771v24.93458l12.81597,-12.81597c1.26842,-1.26842 3.32205,-1.26842 4.59047,0c1.26842,1.27116 1.26842,3.32479 0,4.59321l-17.40644,17.40644zM96.28448,44.0861c-10.72665,12.93677 -32.66315,43.06308 -26.82623,67.02576c2.78119,11.41577 11.84681,20.19037 26.82623,26.20025v-18.54856l-17.40369,-17.40369c-1.26842,-1.26842 -1.26842,-3.32205 0,-4.59047c1.26842,-1.26842 3.32205,-1.26842 4.59047,0l12.81322,12.81322v-24.93733l-9.92222,-9.92222c-1.26842,-1.26842 -1.26842,-3.32205 0,-4.59047c1.26842,-1.26842 3.32205,-1.26842 4.59047,0l5.33175,5.33175z" fill-rule="evenodd"></path></svg>