<svg width="100%" viewBox="0 0 200 200" version="1.1" xmlns="http://www.w3.org/2000/svg" xmlns:xlink="http://www.w3.org/1999/xlink"><path d="M0.0022,99.9989c0,-55.13995 44.85674,-99.9989 99.99449,-99.9989c55.13995,0 99.9989,44.85895 100.0011,99.9989c0,55.13775 -44.85895,100.0011 -99.9989,100.0011c-55.13775,0 -99.99669,-44.86336 -99.99669,-100.0011zM191.20724,95.7789c-2.21362,-48.39986 -42.27271,-87.09638 -91.21055,-87.09638c-50.24969,0 -91.1422,40.80211 -91.30535,91.01653l30.12865,-30.12865l13.52647,13.52427l49.198,-52.9594l49.69188,53.64068l13.98287,-13.98287zM102.13094,132.88135l42.96061,-42.96282l-43.55591,-47.01525l-43.0466,46.33617zM38.81999,81.84895l-29.4165,29.4165c3.63352,29.36799 21.2499,54.45646 45.97899,68.36437l40.60809,-40.60809zM63.57553,183.71752c11.16733,4.87482 23.47896,7.59555 36.42116,7.59555c47.71858,0 86.97953,-36.79598 90.9614,-83.50255l-25.73889,-25.73889z" fill-rule="evenodd"></path></svg>