<svg width="100%" viewBox="0 0 200 200" version="1.1" xmlns="http://www.w3.org/2000/svg" xmlns:xlink="http://www.w3.org/1999/xlink"><path d="M183.03094,99.82951c1.80649,6.32271 15.35515,53.83333 16.59711,58.59794c1.3097,5.14623 -0.88066,9.32599 -5.91851,11.24764c-1.64842,0.60969 -3.56781,0.42904 -5.41946,-0.4742c-2.5065,-1.24196 -4.65171,-3.72588 -5.41946,-6.30013c-0.99357,-3.25168 -4.85494,-17.13905 -7.60983,-27.5941c-1.73874,-6.77433 -3.2291,-11.42829 -4.40331,-14.5219c0,0.27097 0.02258,0.54195 0.02258,0.8355v56.83662c0,1.6281 -1.33228,2.9378 -2.93554,2.9378c-1.62584,0 -2.93554,-1.3097 -2.93554,-2.9378v-56.83662c0,-1.48809 -0.06774,-2.68489 -0.09032,-3.6333l-0.00068,-0.01468c-0.13503,-3.06403 -0.24252,-5.49805 3.00396,-7.27902c0.97099,-0.5442 2.1452,-0.58711 3.20652,-0.13549c1.37745,0.58711 4.24525,1.82907 9.82278,23.25853c2.70973,10.3873 6.5711,24.18435 7.54209,27.39087c0.51937,1.741 2.57424,3.07329 3.18393,2.96038c2.52908,-0.97325 2.75489,-2.39585 2.25811,-4.27009c-1.21938,-4.71945 -14.74546,-52.13975 -16.52936,-58.43988c-2.05488,-7.0453 -10.59053,-10.52279 -15.51321,-11.96798c-4.83235,-1.44745 -11.99056,-5.69269 -11.99056,-10.2744c0,-3.09361 1.46777,-6.79917 3.02587,-10.70344c1.5581,-3.90653 3.31942,-8.33242 3.31942,-11.71959c0,-5.013 -1.44519,-13.39059 -11.15506,-13.39059c-9.70987,0 -11.15506,8.37759 -11.15506,13.39059c0,3.38716 1.76133,7.81306 3.31942,11.71959c0.15807,0.42904 0.33872,0.8355 0.49678,1.24196c1.35487,3.45491 2.52908,6.70433 2.52908,9.46148c0,4.5817 -7.13563,8.82695 -11.96798,10.2744c-2.57424,0.74518 -4.9001,1.69358 -6.9324,2.80006c-2.80006,1.48809 -5.013,3.272 -6.52594,5.23656c0.02258,0.3613 0.02258,0.79034 0.04516,1.28712c0.04516,0.90324 0.09032,2.00972 0.09032,3.38716v13.70221c1.99843,-4.43944 3.28329,-5.00849 4.07589,-5.3472c1.05905,-0.45162 2.23327,-0.39969 3.22006,0.15129c3.24265,1.76584 3.12748,4.31299 2.99425,7.25982c-0.0429,0.95292 -0.0971,2.1452 -0.0971,3.65814v56.8321c0,1.61906 -1.31422,2.93328 -2.93328,2.93328c-1.61906,0 -2.93328,-1.31422 -2.93328,-2.93328v-56.8321c0,-0.2913 0.00226,-0.56904 0.00452,-0.83776c-1.14035,3.04167 -2.6036,7.62564 -4.3288,14.22383v42.6715c0,1.6281 -1.3097,2.93554 -2.93554,2.93554c-1.62584,0 -2.93554,-1.30745 -2.93554,-2.93554v-74.99182c0,-1.51293 -0.04516,-2.68489 -0.09032,-3.6333c-0.04516,-0.97325 -0.06774,-1.76133 -0.02258,-2.4636c0,-0.09032 0.02258,-0.20323 0.02258,-0.29355c0.02258,-0.18065 0.04516,-0.38388 0.09032,-0.56453c0.04516,-0.15807 0.13549,-0.33872 0.20323,-0.49678c0.04516,-0.11065 0.11291,-0.22355 0.18065,-0.33872c0.02258,-0.04516 0.06774,-0.09032 0.11291,-0.13549c4.1775,-6.07431 11.56152,-9.30341 17.02615,-10.90667c0.06774,-0.02032 0.13549,-0.0429 0.20323,-0.06774c3.68072,-1.15164 6.97756,-3.7033 7.56467,-4.78719c-0.06774,-1.26228 -0.58711,-3.02361 -1.3097,-4.943l-0.27097,-0.74518c-3.52265,-1.10647 -7.70015,-1.1968 -12.10347,-1.28712c-4.69687,-0.11291 -9.5518,-0.20323 -14.58739,-1.44519c-6.90982,-1.69358 -12.10347,-6.11948 -12.10347,-10.29698c0,-3.09361 1.46777,-6.79917 3.00329,-10.70344c1.5581,-3.90653 3.31942,-8.35501 3.31942,-11.74217c0,-4.99042 -1.44519,-13.39059 -11.15506,-13.39059c-9.68729,0 -11.13248,8.40017 -11.13248,13.39059c0,3.38716 1.73874,7.83564 3.29684,11.74217c1.5581,3.90427 3.02587,7.60983 3.02587,10.70344c0,4.5817 -7.15821,8.82695 -11.99056,10.24956c-8.78405,2.62167 -15.62612,6.79917 -18.74231,11.51862c-1.44519,2.19037 -3.90653,5.57753 -6.88723,9.61955c0.09032,0.04516 0.15807,0.11065 0.22581,0.15807c3.00329,2.28069 4.31299,5.60011 4.87752,8.51307c5.64527,-4.5817 11.33571,-5.8485 14.51964,-4.1075c3.24648,1.75862 3.13922,4.19241 3.00396,7.25644l-0.00068,0.01468c-0.04516,0.94841 -0.09032,2.1452 -0.09032,3.65814v70.50947c0,1.6281 -1.33228,2.93554 -2.93554,2.93554c-1.62584,0 -2.93554,-1.30745 -2.93554,-2.93554v-22.9853c-1.64842,-0.94841 -3.25168,-2.0323 -4.62912,-3.00329c0,0.36356 0.02258,0.76776 0.02258,1.17648v25.58212c0,1.6281 -1.33228,2.9378 -2.93554,2.9378c-1.62584,0 -2.93554,-1.3097 -2.93554,-2.9378v-25.58212c0,-0.88066 -0.02258,-1.62584 -0.04516,-2.23553c-0.02258,-0.15807 -0.02258,-0.2913 -0.02258,-0.42904c-0.11291,-2.34843 -0.20323,-4.5388 2.57424,-6.14206c1.06131,-0.58711 2.37102,-0.4742 3.31942,0.27097c0,0 0.22581,0.20323 0.63227,0.49678c0.79034,0.63227 2.28069,1.76133 4.01944,2.93554v-7.97113c-0.22581,-0.22581 -0.42904,-0.4742 -0.63227,-0.7226c-0.65485,-0.76776 -1.3097,-1.58068 -1.94197,-2.41618c-2.41618,-3.11619 -4.47106,-5.80108 -9.57438,-7.06788c-5.14849,-1.2397 -8.98728,-4.35589 -9.5518,-7.58725c-0.04516,-0.26872 -0.06774,-0.53969 -0.06774,-0.81066c0,-1.92165 0.70001,-4.08944 1.5581,-6.34755c0.24839,-0.63227 0.49678,-1.26454 0.74518,-1.91939c0.8355,-2.05488 1.671,-4.17524 2.12262,-6.0969c0,-0.06774 0.02258,-0.13323 0.04516,-0.18065c0.02258,-0.13323 0.06774,-0.2913 0.06774,-0.42678c0.13549,-0.65485 0.20323,-1.2668 0.20323,-1.78391c0,-1.71842 -0.29355,-5.89592 -2.95812,-7.9508c-0.04516,-0.02258 -0.09032,-0.06549 -0.13549,-0.09032c-0.79034,-0.56453 -1.73874,-0.92582 -2.84522,-1.08163c-0.51937,-0.11065 -1.06131,-0.15807 -1.64842,-0.15807c-0.76776,0 -1.44519,0.07 -2.05488,0.22581c-3.86137,0.8355 -5.17107,4.17976 -5.46463,7.42918v0.02484c-0.04516,0.53969 -0.06774,1.08389 -0.06774,1.60326c0,0.88066 0.18065,1.85165 0.42904,2.8678c0.29355,1.14938 0.7226,2.32585 1.10647,3.342c0.02258,0.04516 0.04516,0.09032 0.04516,0.13549c0.29355,0.74518 0.56453,1.47003 0.85808,2.19037c1.01615,2.59908 1.98714,5.06042 2.23553,7.27337c0.02258,0.31614 0.04516,0.63001 0.04516,0.94841c0,2.0323 -1.51293,3.86137 -3.43233,5.28398c-0.7226,0.56453 -1.49035,1.03873 -2.28069,1.46777c-1.37745,0.76776 -2.75489,1.30745 -3.77104,1.62584c-0.13549,0.04516 -0.29355,0.09032 -0.42904,0.13549c-0.67743,0.18065 -1.28712,0.40646 -1.85165,0.63227c-0.60969,0.22355 -1.17422,0.4742 -1.71616,0.7226c-3.81621,1.80649 -6.27754,4.22266 -7.06788,6.95498c-0.67743,2.32359 -2.46134,8.03661 -4.33557,14.06576c-2.16779,6.88723 -4.60654,14.70029 -5.08075,16.55194c-0.29355,1.12905 -0.22581,1.71616 1.03873,2.25811c0.45162,-0.15807 1.33228,-0.90324 1.58068,-1.671c0.33872,-1.10422 0.60969,-1.62358 1.03873,-2.21069c0.11291,-0.15807 0.4742,-0.67517 1.671,-5.23881c4.24525,-16.32387 6.43561,-17.27454 7.74532,-17.83907c1.01615,-0.44936 2.12262,-0.4042 3.04845,0.11516c2.84522,1.57842 2.75489,3.79362 2.64199,6.14206c-0.02258,0.69776 -0.06774,1.58068 -0.06774,2.68715v25.58212c0,1.6281 -1.3097,2.9378 -2.93554,2.9378c-1.60326,0 -2.93554,-1.3097 -2.93554,-2.9378v-21.69818c-0.54195,1.78391 -1.15164,3.95169 -1.82907,6.50336c-1.35487,5.19365 -1.89681,6.2098 -2.57424,7.15821c-0.09032,0.16033 -0.13549,0.29355 -0.18065,0.49678c-0.65485,2.1452 -2.34843,4.13234 -4.44848,5.14849c-1.5581,0.79034 -3.20652,0.92582 -4.62912,0.38388c-4.08718,-1.53326 -5.93883,-5.08075 -4.85494,-9.28083c0.51937,-1.98714 2.77747,-9.18825 5.17107,-16.8455c1.87423,-5.98173 3.63556,-11.64959 4.29041,-13.93254c1.21938,-4.22266 4.47106,-7.72273 9.4389,-10.22698c-0.33872,-1.49035 -0.29355,-3.11619 0.15807,-4.85494c0.4742,-1.87423 2.95812,-5.80334 6.9324,-11.49378c-0.51937,-1.741 -0.90324,-3.59039 -0.90324,-5.3743c0,-9.35083 5.14849,-15.15192 13.43575,-15.15192c0.79034,0 1.58068,0.0429 2.32585,0.15581c3.25168,-4.40106 6.11948,-8.33017 7.63241,-10.6357c5.28398,-7.99371 16.03258,-12.12605 21.97141,-13.88512c3.77104,-1.10873 7.18079,-3.72814 7.7679,-4.83461c-0.09032,-2.00746 -1.37745,-5.21398 -2.59683,-8.35275c-1.76133,-4.38073 -3.72588,-9.37115 -3.72588,-13.88737c0,-9.30567 4.47106,-19.24135 17.00357,-19.24135c12.55509,0 17.02615,9.93794 17.02615,19.24135c0,4.51622 -1.98714,9.50664 -3.72588,13.88737c-1.28712,3.24942 -2.61941,6.59368 -2.61941,8.55824c0.15807,0.53969 2.34843,3.29684 7.65499,4.60429c4.40331,1.08615 8.94211,1.17648 13.32285,1.2668c3.27426,0.07 6.41303,0.13549 9.4389,0.60969c-1.21938,-3.31942 -2.21295,-6.74949 -2.21295,-9.98084c0,-9.30341 4.44848,-19.25942 17.00357,-19.25942c12.55509,0 17.02615,9.95601 17.02615,19.25942c0,4.51622 -1.98714,9.48406 -3.72588,13.88737c-1.24196,3.11393 -2.52908,6.32045 -2.61941,8.33017c0.58711,1.10647 4.01944,3.72588 7.79048,4.85494c10.45505,3.07103 17.36486,8.76147 19.4649,15.96484zM63.57694,101.38535v-0.02258c-0.94841,-0.2913 -6.30013,0.70227 -11.9454,7.49918c-0.56453,2.12262 -1.40003,4.20008 -2.19037,6.23238c-0.88066,2.21295 -1.80649,4.51622 -1.89681,5.89367c0.33872,0.58711 2.00972,2.14295 5.14849,2.91296c5.35172,1.3097 8.42275,3.90653 10.7486,6.59368v-23.32853c0,-1.62584 0.04516,-2.89038 0.09032,-3.90653c0.04516,-0.69776 0.06774,-1.44519 0.04516,-1.87423zM24.85036,123.92354c2.41618,-0.70001 4.60654,-2.30327 5.21623,-3.09361c-0.11291,-1.06131 -0.65485,-2.62167 -1.28712,-4.26783c-2.0323,3.00329 -3.47749,5.32914 -3.74846,6.23238c-0.09032,0.38388 -0.18065,0.76776 -0.18065,1.12905z" fill-rule="evenodd"></path></svg>