<svg width="100%" viewBox="0 0 200 200" version="1.1" xmlns="http://www.w3.org/2000/svg" xmlns:xlink="http://www.w3.org/1999/xlink"><path d="M17.1875,200h165.625c5.15625,0 9.375,-4.21875 9.375,-9.375v-181.25c0,-5.15625 -4.21875,-9.375 -9.375,-9.375h-165.625c-5.15625,0 -9.375,4.21875 -9.375,9.375v181.25c0,5.15625 4.21875,9.375 9.375,9.375zM96.875,168.75h-82.8125v-159.375c0,-1.71875 1.40625,-3.125 3.125,-3.125h79.6875zM185.9375,168.75h-82.8125v-162.5h79.6875c1.71875,0 3.125,1.40625 3.125,3.125zM47.1875,56.71875c-1.09375,1.25 -2.96875,1.5625 -4.375,0.46875c-1.25,-1.09375 -1.5625,-3.125 -0.46875,-4.375l22.03125,-28.125c1.09375,-1.25 2.96875,-1.5625 4.375,-0.46875c1.25,1.09375 1.5625,2.96875 0.46875,4.375zM136.25,56.71875c-1.09375,1.25 -2.96875,1.5625 -4.375,0.46875c-1.25,-1.09375 -1.5625,-3.125 -0.46875,-4.375l22.03125,-28.125c1.09375,-1.25 2.96875,-1.5625 4.375,-0.46875c1.25,1.09375 1.5625,2.96875 0.46875,4.375zM140,31.40625l-9.375,12.5c-1.09375,1.25 -2.96875,1.5625 -4.375,0.625c-1.40625,-1.09375 -1.71875,-2.96875 -0.625,-4.375l9.375,-12.5c1.09375,-1.40625 2.96875,-1.71875 4.375,-0.625c1.40625,1.09375 1.71875,2.96875 0.625,4.375zM41.5625,43.90625c-1.09375,1.40625 -2.96875,1.71875 -4.375,0.625c-1.40625,-1.09375 -1.71875,-3.125 -0.625,-4.375l9.375,-12.5c1.09375,-1.40625 2.96875,-1.71875 4.375,-0.625c1.40625,1.09375 1.71875,2.96875 0.625,4.375zM66.5625,51.71875c-1.09375,1.40625 -2.96875,1.71875 -4.375,0.625c-1.40625,-1.09375 -1.71875,-3.125 -0.625,-4.375l9.375,-12.5c1.09375,-1.40625 2.96875,-1.71875 4.375,-0.625c1.40625,1.09375 1.71875,2.96875 0.625,4.375zM160,35.46875c1.09375,-1.40625 2.96875,-1.71875 4.375,-0.625c1.40625,0.9375 1.71875,2.96875 0.625,4.375l-9.375,12.5c-1.09375,1.40625 -2.96875,1.71875 -4.375,0.625c-1.40625,-1.09375 -1.71875,-2.96875 -0.625,-4.375zM84.375,117.1875c0,1.71875 -1.40625,3.125 -3.125,3.125c-1.71875,0 -3.125,-1.40625 -3.125,-3.125v-34.375c0,-1.71875 1.40625,-3.125 3.125,-3.125c1.71875,0 3.125,1.40625 3.125,3.125v14.0625h3.125c1.71875,0 3.125,1.40625 3.125,3.125c0,1.71875 -1.40625,3.125 -3.125,3.125h-3.125zM115.625,82.8125c0,-1.71875 1.40625,-3.125 3.125,-3.125c1.71875,0 3.125,1.40625 3.125,3.125v34.375c0,1.71875 -1.40625,3.125 -3.125,3.125c-1.71875,0 -3.125,-1.40625 -3.125,-3.125v-14.0625h-3.125c-1.71875,0 -3.125,-1.40625 -3.125,-3.125c0,-1.71875 1.40625,-3.125 3.125,-3.125h3.125zM36.71875,151.875c-1.09375,1.40625 -2.96875,1.5625 -4.375,0.46875c-1.25,-0.9375 -1.40625,-2.96875 -0.46875,-4.375l22.96875,-28.125c1.09375,-1.40625 2.96875,-1.5625 4.375,-0.46875c1.40625,1.09375 1.5625,2.96875 0.46875,4.375zM151.40625,120c1.09375,-1.40625 2.96875,-1.5625 4.375,-0.46875c1.40625,1.09375 1.5625,2.96875 0.46875,4.375l-22.96875,28.125c-1.09375,1.40625 -2.96875,1.5625 -4.375,0.46875c-1.40625,-1.09375 -1.5625,-2.96875 -0.46875,-4.375zM60,135.3125c1.09375,-1.25 2.96875,-1.5625 4.375,-0.46875c1.40625,1.09375 1.71875,2.96875 0.46875,4.375l-9.6875,12.5c-1.09375,1.25 -2.96875,1.5625 -4.375,0.46875c-1.25,-1.09375 -1.5625,-2.96875 -0.46875,-4.375zM156.5625,135.3125c1.09375,-1.25 2.96875,-1.5625 4.375,-0.46875c1.40625,1.09375 1.5625,2.96875 0.46875,4.375l-9.6875,12.5c-1.09375,1.25 -2.96875,1.5625 -4.375,0.46875c-1.25,-1.09375 -1.5625,-2.96875 -0.46875,-4.375zM96.875,193.75h-79.6875c-1.71875,0 -3.125,-1.40625 -3.125,-3.125v-15.625h82.8125zM185.9375,190.625c0,1.71875 -1.40625,3.125 -3.125,3.125h-79.6875v-18.75h82.8125zM87.5,187.5c0.1024,0 0.20448,-0.00521 0.30625,-0.01562c0.10188,-0.00938 0.20302,-0.02396 0.30344,-0.04375c0.10031,-0.02083 0.19948,-0.04583 0.2975,-0.075c0.09792,-0.03021 0.19417,-0.06458 0.28875,-0.10313c0.09448,-0.03958 0.18688,-0.08333 0.27719,-0.13125c0.09021,-0.04792 0.17786,-0.10052 0.26297,-0.15781c0.0851,-0.05729 0.16724,-0.11823 0.24641,-0.18281c0.07906,-0.06458 0.15479,-0.13333 0.22719,-0.20625c0.0724,-0.07188 0.14104,-0.1474 0.20594,-0.22656c0.065,-0.07917 0.12589,-0.16146 0.18266,-0.24688c0.05688,-0.08542 0.10943,-0.17292 0.15766,-0.2625c0.04833,-0.09062 0.09208,-0.18333 0.13125,-0.27812c0.03917,-0.09375 0.07359,-0.18958 0.10328,-0.2875c0.02969,-0.09792 0.05453,-0.1974 0.07453,-0.29844c0.0199,-0.1 0.0349,-0.20104 0.045,-0.30312c0.01,-0.10208 0.015,-0.20417 0.015,-0.30625c0,-0.10208 -0.005,-0.20417 -0.015,-0.30625c-0.0101,-0.10208 -0.0251,-0.20312 -0.045,-0.30312c-0.02,-0.10104 -0.04484,-0.20052 -0.07453,-0.29844c-0.02969,-0.09792 -0.06411,-0.19375 -0.10328,-0.2875c-0.03917,-0.09479 -0.08292,-0.1875 -0.13125,-0.27812c-0.04823,-0.08958 -0.10078,-0.17708 -0.15766,-0.2625c-0.05677,-0.08542 -0.11766,-0.16771 -0.18266,-0.24688c-0.0649,-0.07917 -0.13354,-0.15469 -0.20594,-0.22656c-0.0724,-0.07292 -0.14812,-0.14167 -0.22719,-0.20625c-0.07917,-0.06458 -0.1613,-0.12552 -0.24641,-0.18281c-0.0851,-0.05729 -0.17276,-0.1099 -0.26297,-0.15781c-0.09031,-0.04792 -0.18271,-0.09167 -0.27719,-0.13125c-0.09458,-0.03854 -0.19083,-0.07292 -0.28875,-0.10313c-0.09802,-0.02917 -0.19719,-0.05417 -0.2975,-0.075c-0.10042,-0.01979 -0.20156,-0.03437 -0.30344,-0.04375c-0.10177,-0.01042 -0.20385,-0.01562 -0.30625,-0.01562c-0.1024,0 -0.20448,0.00521 -0.30625,0.01563c-0.10188,0.00938 -0.20302,0.02396 -0.30344,0.04375c-0.10031,0.02083 -0.19948,0.04583 -0.2975,0.075c-0.09792,0.03021 -0.19417,0.06458 -0.28875,0.10313c-0.09448,0.03958 -0.18688,0.08333 -0.27719,0.13125c-0.09021,0.04792 -0.17786,0.10052 -0.26297,0.15781c-0.0851,0.05729 -0.16724,0.11823 -0.24641,0.18281c-0.07906,0.06458 -0.15479,0.13333 -0.22719,0.20625c-0.0724,0.07188 -0.14104,0.1474 -0.20594,0.22656c-0.065,0.07917 -0.12589,0.16146 -0.18266,0.24688c-0.05688,0.08542 -0.10943,0.17292 -0.15766,0.2625c-0.04833,0.09062 -0.09208,0.18333 -0.13125,0.27812c-0.03917,0.09375 -0.07359,0.18958 -0.10328,0.2875c-0.02969,0.09792 -0.05453,0.1974 -0.07453,0.29844c-0.0199,0.1 -0.0349,0.20104 -0.045,0.30312c-0.01,0.10208 -0.015,0.20417 -0.015,0.30625c0,0.10208 0.005,0.20417 0.015,0.30625c0.0101,0.10208 0.0251,0.20312 0.045,0.30312c0.02,0.10104 0.04484,0.20052 0.07453,0.29844c0.02969,0.09792 0.06411,0.19375 0.10328,0.2875c0.03917,0.09479 0.08292,0.1875 0.13125,0.27812c0.04823,0.08958 0.10078,0.17708 0.15766,0.2625c0.05677,0.08542 0.11766,0.16771 0.18266,0.24688c0.0649,0.07917 0.13354,0.15469 0.20594,0.22656c0.0724,0.07292 0.14812,0.14167 0.22719,0.20625c0.07917,0.06458 0.1613,0.12552 0.24641,0.18281c0.0851,0.05729 0.17276,0.1099 0.26297,0.15781c0.09031,0.04792 0.18271,0.09167 0.27719,0.13125c0.09458,0.03854 0.19083,0.07292 0.28875,0.10313c0.09802,0.02917 0.19719,0.05417 0.2975,0.075c0.10042,0.01979 0.20156,0.03437 0.30344,0.04375c0.10177,0.01042 0.20385,0.01563 0.30625,0.01563zM112.5,187.5c0.1024,0 0.20448,-0.00521 0.30625,-0.01562c0.10188,-0.00938 0.20302,-0.02396 0.30344,-0.04375c0.10031,-0.02083 0.19948,-0.04583 0.2975,-0.075c0.09792,-0.03021 0.19417,-0.06458 0.28875,-0.10313c0.09448,-0.03958 0.18688,-0.08333 0.27719,-0.13125c0.09021,-0.04792 0.17786,-0.10052 0.26297,-0.15781c0.0851,-0.05729 0.16724,-0.11823 0.24641,-0.18281c0.07906,-0.06458 0.15479,-0.13333 0.22719,-0.20625c0.0724,-0.07188 0.14104,-0.1474 0.20594,-0.22656c0.065,-0.07917 0.12589,-0.16146 0.18266,-0.24688c0.05688,-0.08542 0.10943,-0.17292 0.15766,-0.2625c0.04833,-0.09062 0.09208,-0.18333 0.13125,-0.27812c0.03917,-0.09375 0.07359,-0.18958 0.10328,-0.2875c0.02969,-0.09792 0.05453,-0.1974 0.07453,-0.29844c0.0199,-0.1 0.0349,-0.20104 0.045,-0.30312c0.01,-0.10208 0.015,-0.20417 0.015,-0.30625c0,-0.10208 -0.005,-0.20417 -0.015,-0.30625c-0.0101,-0.10208 -0.0251,-0.20312 -0.045,-0.30312c-0.02,-0.10104 -0.04484,-0.20052 -0.07453,-0.29844c-0.02969,-0.09792 -0.06411,-0.19375 -0.10328,-0.2875c-0.03917,-0.09479 -0.08292,-0.1875 -0.13125,-0.27812c-0.04823,-0.08958 -0.10078,-0.17708 -0.15766,-0.2625c-0.05677,-0.08542 -0.11766,-0.16771 -0.18266,-0.24688c-0.0649,-0.07917 -0.13354,-0.15469 -0.20594,-0.22656c-0.0724,-0.07292 -0.14812,-0.14167 -0.22719,-0.20625c-0.07917,-0.06458 -0.1613,-0.12552 -0.24641,-0.18281c-0.0851,-0.05729 -0.17276,-0.1099 -0.26297,-0.15781c-0.09031,-0.04792 -0.18271,-0.09167 -0.27719,-0.13125c-0.09458,-0.03854 -0.19083,-0.07292 -0.28875,-0.10313c-0.09802,-0.02917 -0.19719,-0.05417 -0.2975,-0.075c-0.10042,-0.01979 -0.20156,-0.03437 -0.30344,-0.04375c-0.10177,-0.01042 -0.20385,-0.01562 -0.30625,-0.01562c-0.1024,0 -0.20448,0.00521 -0.30625,0.01563c-0.10188,0.00938 -0.20302,0.02396 -0.30344,0.04375c-0.10031,0.02083 -0.19948,0.04583 -0.2975,0.075c-0.09792,0.03021 -0.19417,0.06458 -0.28875,0.10313c-0.09448,0.03958 -0.18688,0.08333 -0.27719,0.13125c-0.09021,0.04792 -0.17786,0.10052 -0.26297,0.15781c-0.0851,0.05729 -0.16724,0.11823 -0.24641,0.18281c-0.07906,0.06458 -0.15479,0.13333 -0.22719,0.20625c-0.0724,0.07188 -0.14104,0.1474 -0.20594,0.22656c-0.065,0.07917 -0.12589,0.16146 -0.18266,0.24688c-0.05688,0.08542 -0.10943,0.17292 -0.15766,0.2625c-0.04833,0.09062 -0.09208,0.18333 -0.13125,0.27812c-0.03917,0.09375 -0.07359,0.18958 -0.10328,0.2875c-0.02969,0.09792 -0.05453,0.1974 -0.07453,0.29844c-0.0199,0.1 -0.0349,0.20104 -0.045,0.30312c-0.01,0.10208 -0.015,0.20417 -0.015,0.30625c0,0.10208 0.005,0.20417 0.015,0.30625c0.0101,0.10208 0.0251,0.20312 0.045,0.30312c0.02,0.10104 0.04484,0.20052 0.07453,0.29844c0.02969,0.09792 0.06411,0.19375 0.10328,0.2875c0.03917,0.09479 0.08292,0.1875 0.13125,0.27812c0.04823,0.08958 0.10078,0.17708 0.15766,0.2625c0.05677,0.08542 0.11766,0.16771 0.18266,0.24688c0.0649,0.07917 0.13354,0.15469 0.20594,0.22656c0.0724,0.07292 0.14812,0.14167 0.22719,0.20625c0.07917,0.06458 0.1613,0.12552 0.24641,0.18281c0.0851,0.05729 0.17276,0.1099 0.26297,0.15781c0.09031,0.04792 0.18271,0.09167 0.27719,0.13125c0.09458,0.03854 0.19083,0.07292 0.28875,0.10313c0.09802,0.02917 0.19719,0.05417 0.2975,0.075c0.10042,0.01979 0.20156,0.03437 0.30344,0.04375c0.10177,0.01042 0.20385,0.01563 0.30625,0.01563z" fill-rule="evenodd"></path></svg>