<svg width="100%" viewBox="0 0 200 200" version="1.1" xmlns="http://www.w3.org/2000/svg" xmlns:xlink="http://www.w3.org/1999/xlink"><path d="M25.19303,67.76389c0.00873,-0.03138 0.08867,-0.31375 0.22918,-0.81085c-0.40188,-17.5751 -8.2348,-28.01626 -21.12515,-28.01626c-2.37361,0 -4.29706,-1.92072 -4.29706,-4.29433c0,-2.37907 1.92344,-4.29706 4.29706,-4.29706c12.22738,0 21.52593,6.84419 26.25842,18.43396c3.09061,-10.96636 6.61228,-23.51513 7.90249,-28.31583c2.00802,-7.55191 6.12501,-17.61384 18.58784,-17.61384h85.34636c11.76711,0 16.09691,9.34712 18.55783,17.48834c1.48937,4.9382 5.12973,17.92404 8.2318,29.07265c4.65228,-11.97228 14.07034,-19.06529 26.52389,-19.06529c2.37088,0 4.29433,1.92072 4.29433,4.29706c0,2.37634 -1.92344,4.29433 -4.29433,4.29433c-13.24585,0 -21.15516,11.01411 -21.15516,29.45189c0.00191,18.06019 -5.96022,28.71661 -18.95561,33.03468l14.33389,90.75874c0.37105,2.34633 -1.22773,4.5426 -3.57406,4.91638c-0.2319,0.0382 -0.4529,0.05184 -0.67934,0.05184c-2.07623,0 -3.90691,-1.50874 -4.24249,-3.6259l-14.25504,-90.28974c-2.4601,0.29411 -5.09617,0.43898 -7.91231,0.43898h-2.66718l11.00756,69.7078c0.37105,2.33814 -1.22773,4.53987 -3.57679,4.91092c-0.22645,0.03547 -0.45017,0.06002 -0.67389,0.06002c-2.07623,0 -3.90418,-1.51693 -4.23703,-3.62863l-11.22527,-71.05012h-53.51513l-11.21518,71.05285c-0.33285,2.10897 -2.15808,3.6259 -4.23703,3.6259c-0.22645,0 -0.44744,-0.02455 -0.67662,-0.05729c-2.3436,-0.37105 -3.94511,-2.57005 -3.57406,-4.91092l11.00292,-69.71053h-4.94884c-1.9821,0 -3.87499,-0.07175 -5.6803,-0.2169l-14.2062,90.06766c-0.33285,2.11988 -2.16081,3.6259 -4.23703,3.6259c-0.22372,0 -0.45017,-0.01637 -0.67662,-0.05457c-2.34087,-0.37378 -3.94238,-2.56732 -3.57406,-4.91638l14.21057,-90.11186c-13.86626,-3.66464 -20.53038,-13.70829 -21.08831,-31.22091c-0.4589,-0.92243 -0.58822,-2.01239 -0.28401,-3.08269zM34.03268,68.3914c0,-0.10504 -0.00027,-0.21008 -0.00082,-0.31484c2.26857,-8.01053 10.57021,-37.36584 12.72556,-45.39219c2.49093,-9.36076 5.78125,-11.24328 10.28838,-11.24328h85.34636c4.47167,0 7.43732,1.81431 10.32658,11.38515c2.63689,8.72753 12.45164,44.29406 13.22075,47.07855c-0.35795,18.54937 -7.4807,25.17748 -26.67667,25.17748h-78.53655c-19.70916,0 -26.69359,-6.98715 -26.69359,-26.69086zM58.89286,72.62298c0.75846,1.49237 2.26721,2.35451 3.83598,2.35451c0.65479,0 1.31776,-0.15006 1.93981,-0.46927c9.71271,-4.92729 22.25466,-7.64194 35.31225,-7.64194c12.87207,0 25.29124,2.64371 34.97122,7.44277c2.13352,1.06949 4.70357,0.1828 5.75942,-1.93709c1.05585,-2.12261 0.18552,-4.70357 -1.94254,-5.75669c-10.84495,-5.37746 -24.61463,-8.34311 -38.78809,-8.34311c-14.38354,0 -28.306,3.04204 -39.20279,8.57501c-2.1117,1.07222 -2.96019,3.66409 -1.88525,5.77579z" fill-rule="evenodd"></path></svg>