<svg width="100%" viewBox="0 0 200 200" version="1.1" xmlns="http://www.w3.org/2000/svg" xmlns:xlink="http://www.w3.org/1999/xlink"><path d="M176.57714,45.27117c0.5379,0 0.97401,0.43611 0.97401,0.97401c1.70451,34.09029 3.45773,70.2747 -12.029,101.54036c-12.0777,24.22846 -34.52859,44.73133 -61.11902,51.40329c-0.79674,0.68668 -1.87058,0.95745 -2.89767,0.73051c-1.02709,0.23084 -2.10288,-0.04018 -2.89767,-0.73051c-26.66348,-6.69631 -48.94392,-27.19918 -61.11902,-51.40329c-15.63283,-31.02216 -16.19289,-67.35267 -14.61012,-101.29686h-0.2435c-1.50971,0.2922 -1.72886,-2.06977 -0.36525,-2.43502c30.72996,-7.93817 55.17757,-21.16033 77.75021,-43.48947c0.77409,-0.64501 1.86571,-0.7465 2.74573,-0.25519c0.87977,0.49114 1.36605,1.47343 1.22335,2.47106c10.81149,6.47715 21.28208,13.39261 32.43448,19.30971c12.85691,6.84241 26.29822,11.46895 39.86129,16.58249c1.64729,0.48408 2.59037,2.21222 2.10629,3.85951c-0.48408,1.64753 -2.21197,2.59037 -3.85951,2.10629c-26.12777,-6.3554 -51.74419,-21.89084 -72.39316,-39.15513c-18.38441,22.32914 -48.89521,37.32887 -77.40931,40.76225c2.45937,31.87442 2.75157,65.55076 16.65554,94.96581c11.64987,25.05709 33.50199,43.90269 59.99891,51.74419c26.50471,-7.82737 48.36195,-26.67736 59.99891,-51.74419c13.78222,-29.4881 11.7855,-63.31054 14.22052,-94.96581c0,-0.5379 0.43611,-0.97401 0.97401,-0.97401zM100.7993,130.18034c13.00301,-21.86649 26.78523,-43.56252 38.61943,-66.13516c0.57832,-0.99519 0.24034,-2.27066 -0.75486,-2.84897c-0.99519,-0.57832 -2.27066,-0.24034 -2.84897,0.75486c-13.44131,20.67333 -25.27551,42.58851 -37.45062,64.04104c-8.83864,-11.57901 -19.09738,-22.00139 -30.53516,-31.02216c-3.04378,-2.43502 -7.42681,1.70451 -4.38304,4.38304c11.30775,10.22757 21.77176,21.35124 31.29002,33.26238c2.02107,2.43502 5.89275,0.21915 6.0632,-2.43502z" fill-rule="evenodd"></path></svg>