<svg width="100%" viewBox="0 0 200 200" version="1.1" xmlns="http://www.w3.org/2000/svg" xmlns:xlink="http://www.w3.org/1999/xlink"><path d="M164.40084,33.41508l-15.91931,-32.25621l-15.91931,32.25621l-35.59695,5.1746l25.75813,25.10633l-6.0827,35.45333l31.84083,-16.73903l31.83641,16.73903l-6.08049,-35.45333l25.76255,-25.10633zM0,50.15411c0,25.58358 20.81331,46.39689 46.39689,46.39689c25.58358,0 46.39689,-20.81331 46.39689,-46.39689c0,-25.58358 -20.81331,-46.39689 -46.39689,-46.39689c-25.58358,0 -46.39689,20.81331 -46.39689,46.39689zM8.83792,50.15411c0,-20.70946 16.8495,-37.55897 37.55897,-37.55897c20.70946,0 37.55897,16.8495 37.55897,37.55897c0,20.70946 -16.8495,37.55897 -37.55897,37.55897c-20.70946,0 -37.55897,-16.8495 -37.55897,-37.55897zM0.36677,152.44645c0,25.58137 20.81331,46.39468 46.39689,46.39468c25.58358,0 46.39689,-20.81331 46.39689,-46.39468c0,-25.58358 -20.81331,-46.3991 -46.39689,-46.3991c-25.58358,0 -46.39689,20.81552 -46.39689,46.3991zM101.09922,152.44645c0,25.58137 20.81552,46.39468 46.3991,46.39468c25.58137,0 46.39468,-20.81331 46.39468,-46.39468c0,-25.58358 -20.81331,-46.3991 -46.39468,-46.3991c-25.58358,0 -46.3991,20.81552 -46.3991,46.3991zM9.2047,152.44645c0,-20.71167 16.8495,-37.56118 37.55897,-37.56118c20.70946,0 37.55897,16.8495 37.55897,37.56118c0,20.70946 -16.8495,37.55676 -37.55897,37.55676c-20.70946,0 -37.55897,-16.84729 -37.55897,-37.55676zM109.93714,152.44645c0,-20.71167 16.8495,-37.56118 37.56118,-37.56118c20.70946,0 37.55676,16.8495 37.55676,37.56118c0,20.70946 -16.84729,37.55676 -37.55676,37.55676c-20.71167,0 -37.56118,-16.84729 -37.56118,-37.55676z" fill-rule="evenodd"></path></svg>