<svg width="100%" viewBox="0 0 200 200" version="1.1" xmlns="http://www.w3.org/2000/svg" xmlns:xlink="http://www.w3.org/1999/xlink"><path d="M186.85262,157.30833c-0.25,0 -0.525,-0.03333 -0.79167,-0.08333c-2.25833,-0.44167 -3.74167,-2.61667 -3.3,-4.88333c4.69167,-24.26667 3.975,-44.36667 3.53333,-56.39167l-0.1,-2.70833c0,-46.88333 -38.76667,-84.9 -86.40833,-84.9c-26.33333,0 -51.93333,12.74167 -68.49167,34.06667c-1.40833,1.81667 -4.01667,2.15833 -5.85,0.73333c-1.81667,-1.40833 -2.15,-4.025 -0.73333,-5.84167c18.11708,-23.34815 46.16729,-37.28785 75.03729,-37.3l0.07708,0c52.22375,0.02103 94.70229,41.77125 94.70229,93.09167l0.08333,2.41667c0.45833,12.51667 1.20833,33.21667 -3.66667,58.43333c-0.39167,1.98333 -2.13333,3.36667 -4.09167,3.36667zM112.08595,200c1.33333,0 2.65833,-0.63333 3.46667,-1.825c17.23333,-25.625 25.85833,-56.00833 25.65,-90.33333c-0.01667,-2.3 -2.25,-4.3 -4.18333,-4.14167c-2.3,0.00833 -4.15,1.9 -4.15,4.18333c0.21667,33.06667 -7.73333,61.08333 -24.23333,85.63333c-1.28333,1.90833 -0.775,4.5 1.13333,5.78333c0.70833,0.48333 1.51667,0.7 2.31667,0.7zM8.91095,124.725c0,2.3 1.86667,4.16667 4.16667,4.16667c9.51667,0 16.975,-7.7 16.98333,-17.53333v-17.7c0,-36.56667 31.65833,-67.46667 69.125,-67.46667c9.39167,0 19.075,1.875 27.28333,5.275c2.125,0.875 4.55833,-0.13333 5.44167,-2.25833c0.88333,-2.125 -0.125,-4.56667 -2.25833,-5.44167c-9.19167,-3.81667 -20.025,-5.91667 -30.475,-5.91667c-41.99167,0 -77.45833,34.71667 -77.45833,75.8v17.7c0,5.24167 -3.71667,9.20833 -8.64167,9.20833c-2.3,0 -4.16667,1.875 -4.16667,4.16667zM161.28595,182.44167c-0.49167,0 -0.975,-0.08333 -1.45,-0.275c-2.16667,-0.79167 -3.26667,-3.19167 -2.46667,-5.35c12.71667,-34.26667 11.6,-65.275 11.05,-80.18333l-0.04167,-1.05c-0.05,-0.95833 -0.08333,-1.79167 -0.08333,-2.5c0,-20.475 -9.44167,-39.575 -25.925,-52.39167c-1.825,-1.41667 -2.15,-4.025 -0.73333,-5.84167c1.4,-1.81667 4.03333,-2.15 5.84167,-0.73333c18.53333,14.40833 29.15,35.89167 29.15,58.96667c0,0.60833 0.03333,1.325 0.06667,2.14167l0.04167,0.89167l0.00333,0.09271c0.55958,15.68396 1.70375,47.75292 -11.55333,83.49896c-0.61667,1.69167 -2.2,2.73333 -3.9,2.73333zM135.15262,192.44167c0.61667,0.30833 1.25833,0.45833 1.88333,0.45833c1.525,0 3,-0.825 3.725,-2.28333c20.04812,-39.455 18.66812,-77.44479 18.05083,-94.4325l-0.00083,-0.02583c-0.05,-1.175 -0.09167,-2.19167 -0.09167,-3.05833c0,-31.65833 -26.44167,-57.40833 -58.93333,-57.40833c-8.99167,0 -17.7,2.04167 -25.86667,6.08333c-2.06667,1.025 -2.91667,3.51667 -1.89167,5.58333c1.025,2.05833 3.50833,2.90833 5.58333,1.89167c7.00833,-3.46667 14.475,-5.225 22.175,-5.225c27.9,0 50.6,22.00833 50.6,49.075c0,0.94167 0.04167,2.06667 0.125,4.10833l0.00229,0.06625c0.60938,16.93375 1.87271,52.04938 -17.18562,89.58375c-1.04167,2.03333 -0.21667,4.54167 1.825,5.58333zM9.21929,112.74167c-2.3,0 -4.16667,-1.875 -4.16667,-4.16667v-14.93333c0,-14.78333 3.74167,-30.48333 10.26667,-43.08333c1.05,-2.04167 3.55833,-2.84167 5.61667,-1.775c2.04167,1.05 2.84167,3.58333 1.78333,5.60833c-5.925,11.45 -9.33333,25.75833 -9.33333,39.25v14.93333c0,2.3 -1.86667,4.16667 -4.16667,4.16667zM45.01929,97.80833c-2.3,0 -4.16667,-1.86667 -4.16667,-4.16667c0,-16.13333 7.19167,-31.76667 19.74167,-42.89167c1.70833,-1.525 4.35,-1.375 5.88333,0.35c1.53333,1.725 1.375,4.35833 -0.35,5.88333c-10.75833,9.55 -16.93333,22.90833 -16.93333,36.65833c-0.00833,2.3 -1.875,4.16667 -4.175,4.16667zM24.71929,162.325c-1.80833,0 -3.475,-1.19167 -4,-2.99167c-0.64167,-2.21667 0.625,-4.525 2.83333,-5.175c22.66667,-6.59167 31.49167,-18.59167 31.49167,-42.80833v-17.7c0,-21.375 20.04167,-40.125 42.88333,-40.125c22.625,0 41.04167,17.75 41.04167,39.575c0,2.3 -1.86667,4.16667 -4.16667,4.16667c-2.3,0 -4.16667,-1.86667 -4.16667,-4.16667c0,-17.225 -14.675,-31.24167 -32.70833,-31.24167c-18.08333,0 -34.55,15.15833 -34.55,31.79167v17.7c0,27.59167 -11.56667,43.24167 -37.5,50.81667c-0.375,0.10833 -0.775,0.15833 -1.15833,0.15833zM39.71929,177.34167c-1.7,0 -3.3,-1.05 -3.91667,-2.73333c-0.79167,-2.18333 0.325,-4.56667 2.49167,-5.35833c34.51667,-12.56667 41.75833,-38.43333 41.75833,-57.925v-17.7c0,-12.49167 9.41667,-22.275 21.43333,-22.275c12.275,0 22.28333,9.75 22.28333,21.725c0,1.51667 0.13333,3.44167 0.26667,5.73333c0.29167,4.53333 0.69167,10.76667 0.41667,17.91667c-0.09167,2.29167 -2.11667,4.09167 -4.33333,4c-2.29167,-0.1 -4.09167,-2.03333 -4,-4.34167c0.25854,-6.52708 -0.08604,-12.10688 -0.36542,-16.63333l-0.02625,-0.425c-0.175,-2.5 -0.29167,-4.60833 -0.29167,-6.25833c0,-7.38333 -6.26667,-13.39167 -13.95833,-13.39167c-7.35,0 -13.1,6.125 -13.1,13.94167v17.7c0,22.15 -8.19167,51.53333 -47.24167,65.76667c-0.45833,0.18333 -0.94167,0.25833 -1.41667,0.25833zM91.59429,161.23333c-0.65,0 -1.3,-0.15 -1.90833,-0.46667c-2.05,-1.05833 -2.84167,-3.575 -1.78333,-5.61667c6.01667,-11.6 8.81667,-24.39167 8.81667,-40.26667v-14.64167c0,-2.3 1.86667,-4.16667 4.16667,-4.16667c2.3,0 4.16667,1.86667 4.16667,4.16667v14.64167c0,17.25833 -3.10833,31.28333 -9.75,44.10833c-0.74167,1.425 -2.2,2.24167 -3.70833,2.24167zM13.69429,147.48333c-1.80833,0 -3.475,-1.18333 -4,-2.98333c-0.64167,-2.225 0.625,-4.525 2.83333,-5.175l7.84167,-2.28333c15.88333,-4.63333 20.48333,-10.39167 20.48333,-25.68333c0,-2.28333 1.86667,-4.16667 4.16667,-4.16667c2.3,0 4.16667,1.88333 4.16667,4.16667c0,18.925 -7.175,28.05833 -26.48333,33.68333l-7.84167,2.275c-0.39167,0.11667 -0.78333,0.16667 -1.16667,0.16667zM87.52762,198.68333c0.775,0.625 1.70833,0.93333 2.63333,0.93333c1.20833,0 2.40833,-0.50833 3.225,-1.51667c11.875,-14.54167 20.325,-31.1 25.1,-49.225c0.59167,-2.21667 -0.73333,-4.5 -2.96667,-5.08333c-2.175,-0.6 -4.49167,0.725 -5.08333,2.95833c-4.475,16.95833 -12.38333,32.45 -23.5,46.075c-1.45833,1.78333 -1.19167,4.40833 0.59167,5.85833zM61.17762,191.575c-1.41667,0 -2.8,-0.725 -3.58333,-2.025c-1.18333,-1.98333 -0.53333,-4.53333 1.44167,-5.71667c7.125,-4.25 13.21667,-9.275 18.10833,-14.925c1.50833,-1.74167 4.15,-1.925 5.875,-0.425c1.74167,1.50833 1.925,4.13333 0.425,5.875c-5.475,6.31667 -12.25,11.925 -20.14167,16.63333c-0.66667,0.4 -1.4,0.58333 -2.125,0.58333z" fill-rule="evenodd"></path></svg>