<svg width="100%" viewBox="0 0 200 200" version="1.1" xmlns="http://www.w3.org/2000/svg" xmlns:xlink="http://www.w3.org/1999/xlink"><path d="M200,109.52143c0,-13.12857 -9.96825,-23.80952 -22.22222,-23.80952h-126.06667l7.23175,-4.60159l4.04603,1.34921c0.48413,0.15873 1.01587,0.07937 1.43016,-0.21905c0.41587,-0.29841 0.66032,-0.77778 0.66032,-1.2873v-2.56032l2.67302,0.89206c0.48254,0.15873 1.01587,0.07937 1.43016,-0.21905c0.41429,-0.29841 0.65873,-0.77778 0.65873,-1.2873v-2.56032l2.67302,0.89206c0.48254,0.15873 1.01587,0.07937 1.43016,-0.21905c0.41429,-0.29841 0.65873,-0.77778 0.65873,-1.2873v-2.56032l2.67302,0.89206c0.48413,0.15714 1.01587,0.08095 1.43016,-0.21905c0.41429,-0.29841 0.65873,-0.77778 0.65873,-1.2873v-2.56032l2.67302,0.89206c0.48413,0.16032 1.01587,0.07937 1.43016,-0.21905c0.41429,-0.29841 0.65873,-0.77778 0.65873,-1.2873v-2.56032l2.67302,0.89206c0.48254,0.15873 1.01429,0.08095 1.43016,-0.21905c0.41429,-0.29841 0.65873,-0.77778 0.65873,-1.2873v-2.56032l2.67302,0.89206c0.48254,0.15873 1.01429,0.07937 1.43016,-0.21905c0.41429,-0.29841 0.65873,-0.77778 0.65873,-1.2873v-2.56032l2.67302,0.89206c0.48413,0.15873 1.01587,0.07937 1.43016,-0.21905c0.41429,-0.29841 0.65873,-0.77778 0.65873,-1.2873v-2.56032l2.67302,0.89206c0.48413,0.15873 1.01587,0.07937 1.43016,-0.21905c0.41429,-0.29841 0.65873,-0.77778 0.65873,-1.2873v-2.56032l2.67302,0.89206c0.48254,0.15873 1.01111,0.08095 1.42381,-0.21429l11.11111,-7.93651c0.45238,-0.32381 0.70317,-0.86032 0.66032,-1.41587c-0.04286,-0.55556 -0.3746,-1.04603 -0.87302,-1.29524l-6.31429,-3.16032c-6.28571,-3.34127 -11.79206,-5.46349 -20.63492,0.05556l-46.77619,29.23492v-2.49206c0,-1.75079 -1.42381,-3.1746 -3.1746,-3.1746h-0.00159v-15.87302c0,-0.48571 -0.22222,-0.94444 -0.60317,-1.24444c-0.37937,-0.30159 -0.87937,-0.4127 -1.35079,-0.3c-4.01587,0.95238 -7.46667,0.40159 -9.97302,-1.58413c-2.55397,-2.02698 -3.95556,-5.42381 -3.94603,-9.56508c0.01746,-6.75238 5,-11.11429 12.69841,-11.11429c5.26032,0 10.77302,3.67619 12.82222,8.55238c1.16349,2.76825 3.01111,2.60952 3.55079,2.49841c1.63968,-0.34444 2.71429,-2.24444 2.6746,-4.7c0,-11.57143 -9.76032,-20.63492 -22.22222,-20.63492c-14.47778,0 -25.39683,10.23651 -25.39683,23.81111c0,11.61746 7.26984,21.92698 17.46032,25.01905v5.13651h-1.58571c-1.75079,0 -3.1746,1.42381 -3.1746,3.1746v19.04762c-12.25397,0 -22.22222,10.68095 -22.22222,23.80952c0,13.12857 9.96825,23.80952 22.22222,23.80952h77.68095c-6.76508,3.09048 -14.00317,6.39206 -21.19524,9.66667c-19.07778,8.68254 -24.4381,24.09683 -24.65714,24.74921c-0.16349,0.4873 -0.08095,1.02222 0.22063,1.43651c0.30159,0.41587 0.77143,0.59365 1.29841,0.65556c0.30794,-0.00317 0.64127,-0.00317 1,-0.00317c1.03492,0 2.27302,0.00794 3.65873,0.00794c7.48254,0 19.30794,-0.23651 27.61905,-3.2746c13.48889,-4.93175 42.76984,-20.55079 61.72698,-30.94286l-6.63333,21.00476c-3.51016,10.33016 -0.66175,20.20952 1.22397,26.74921l0.00143,0.00476l1.94762,6.00317c0.19841,0.59524 0.72857,1.01905 1.35397,1.07778c0.05079,0.00476 0.10159,0.00794 0.15238,0.00794c0.56825,0 1.09841,-0.30476 1.38254,-0.80794l31.92857,-56.60317c10.76032,-1.65079 19.06825,-11.56349 19.06825,-23.54286zM28.94286,55.59762c-9.41429,-2.2746 -16.24603,-11.6381 -16.24603,-22.26349c0,-11.76508 9.55397,-20.63651 22.22222,-20.63651c10.68095,0 19.04762,7.66984 19.04762,17.48571c0.00794,0.42222 -0.03492,0.75714 -0.09524,1.01429c-0.01111,-0.02222 -0.02063,-0.04444 -0.03016,-0.06667c-2.55556,-6.08254 -9.17937,-10.49683 -15.74921,-10.49683c-9.47302,0 -15.85079,5.73968 -15.87302,14.28254c-0.0127,5.13492 1.81746,9.41746 5.14921,12.06032c2.85873,2.26508 6.5381,3.13492 10.72381,2.55397v13.96032h-7.93651v-6.34921c0.00159,-0.73492 -0.5,-1.37302 -1.2127,-1.54444zM92.90317,42.61349c7.44444,-4.64921 11.56349,-3.08095 17.49683,0.07302l3.99206,1.99841l-8.30794,5.93492l-3.99524,-1.33175c-0.48571,-0.1619 -1.01587,-0.08095 -1.43016,0.21905c-0.41429,0.29683 -0.65873,0.77619 -0.65873,1.2873v2.56032l-2.67302,-0.89206c-0.48571,-0.1619 -1.01587,-0.08095 -1.43016,0.21905c-0.41429,0.29683 -0.65873,0.77619 -0.65873,1.2873v2.56032l-2.67302,-0.89206c-0.4873,-0.1619 -1.01587,-0.08254 -1.43016,0.21905c-0.41429,0.29683 -0.65873,0.77619 -0.65873,1.2873v2.56032l-2.67302,-0.89206c-0.48571,-0.16032 -1.01746,-0.08095 -1.43016,0.21905c-0.41429,0.29683 -0.65873,0.77619 -0.65873,1.2873v2.56032l-2.67302,-0.89206c-0.48571,-0.16032 -1.01746,-0.08095 -1.43016,0.21905c-0.41429,0.29683 -0.65873,0.77619 -0.65873,1.2873v2.56032l-2.67302,-0.89206c-0.48413,-0.16032 -1.01746,-0.08095 -1.43016,0.21905c-0.41429,0.29683 -0.65873,0.77619 -0.65873,1.2873v2.56032l-2.67302,-0.89206c-0.48571,-0.16032 -1.01587,-0.08095 -1.43016,0.21905c-0.41429,0.29683 -0.65873,0.77619 -0.65873,1.2873v2.56032l-2.67302,-0.89206c-0.48571,-0.1619 -1.01587,-0.08095 -1.43016,0.21905c-0.41429,0.29683 -0.65873,0.77619 -0.65873,1.2873v2.56032l-2.67302,-0.89206c-0.48571,-0.1619 -1.01587,-0.08095 -1.43016,0.21905c-0.41429,0.29683 -0.65873,0.77619 -0.65873,1.2873v2.56032l-2.67302,-0.89206c-0.45556,-0.15079 -0.95079,-0.09048 -1.35556,0.16667l-12.08095,7.68571h-1.35079v-12.80952zM25.39683,66.66429h15.87302v19.04762h-15.87302zM177.77778,130.15635h-155.55556c-10.50317,0 -19.04762,-9.25714 -19.04762,-20.63492c0,-11.37778 8.54444,-20.63492 19.04762,-20.63492h155.55556c10.50317,0 19.04762,9.25714 19.04762,20.63492c0,11.37778 -8.54444,20.63492 -19.04762,20.63492zM22.22222,99.99762c-5.25238,0 -9.52381,4.27143 -9.52381,9.52381c0,5.25238 4.27143,9.52381 9.52381,9.52381c5.25238,0 9.52381,-4.27143 9.52381,-9.52381c0,-5.25238 -4.27143,-9.52381 -9.52381,-9.52381zM177.77778,99.99762c-5.25238,0 -9.52381,4.27143 -9.52381,9.52381c0,5.25238 4.27143,9.52381 9.52381,9.52381c5.25238,0 9.52381,-4.27143 9.52381,-9.52381c0,-5.25238 -4.27143,-9.52381 -9.52381,-9.52381zM22.22222,115.87063c-3.50159,0 -6.34921,-2.84762 -6.34921,-6.34921c0,-3.50159 2.84762,-6.34921 6.34921,-6.34921c3.50159,0 6.34921,2.84762 6.34921,6.34921c0,3.50159 -2.84762,6.34921 -6.34921,6.34921zM177.77778,115.87063c-3.50159,0 -6.34921,-2.84762 -6.34921,-6.34921c0,-3.50159 2.84762,-6.34921 6.34921,-6.34921c3.50159,0 6.34921,2.84762 6.34921,6.34921c0,3.50159 -2.84762,6.34921 -6.34921,6.34921zM86.75556,163.58492c-7.8127,2.85714 -19.26349,3.08254 -26.5381,3.08254c-0.80635,0 -1.57302,0 -2.24762,-0.00476c2.12857,-4.36349 8.32063,-14.52857 22.05238,-20.77778c9.49206,-4.31905 19.05556,-8.68571 27.51746,-12.55556h39.61111c-16.84444,9.21746 -47.03333,25.36984 -60.39524,30.25556zM145.95714,157.61825l7.64444,-24.20635l0.14762,-0.08095h7.69683c-4.45397,8.94603 -12.21111,26.90952 -14.70952,47.48571c-1.79206,-6.3381 -3.7127,-14.5619 -0.77937,-23.19841zM177.13492,133.33095l-27.31111,48.41587c2.5,-21.49365 10.95873,-40.18571 15.17937,-48.41587z" fill-rule="evenodd"></path></svg>