<svg width="100%" viewBox="0 0 200 200" version="1.1" xmlns="http://www.w3.org/2000/svg" xmlns:xlink="http://www.w3.org/1999/xlink"><path d="M100,0c13.746,0 26.28311,7.69916 32.72333,20.09578l0.66333,-0.20467c3.55556,-1.09556 7.25778,-1.65111 11,-1.65111c9.98222,0 19.36889,3.88444 26.43111,10.94c9.81111,9.81778 13.37333,24.16 9.29778,37.43111l-0.03622,0.11778c12.29067,6.53178 19.91622,19.13911 19.91178,32.94667c0,13.83444 -7.64778,26.45178 -19.968,32.96444l0.08578,0.28222c4.07333,13.39778 0.51333,27.87333 -9.29556,37.77778c-7.06444,7.13111 -16.45333,11.05778 -26.43556,11.05778c-3.74,0 -7.44444,-0.56222 -11.00667,-1.66889l-0.646,-0.20067l-0.00956,0.01844c-6.43556,12.39333 -18.97333,20.09333 -32.71778,20.09333c-13.73556,0 -26.27333,-7.7 -32.71778,-20.09333l-0.00644,-0.01244l-0.64022,0.19689c-3.58222,1.10667 -7.28889,1.66889 -11.01111,1.66889c-9.98444,0 -19.36889,-3.92889 -26.42889,-11.05778c-9.81111,-9.9 -13.37333,-24.37556 -9.29778,-37.77778l0.08511,-0.27933c-12.32287,-6.51533 -19.97178,-19.136 -19.97178,-32.96733c0,-13.81133 7.62949,-26.41778 19.92489,-32.94689l-0.03822,-0.12422c-3.93556,-12.80444 -0.68667,-26.81778 8.47556,-36.57111c7.03111,-7.49778 16.96444,-11.79556 27.24889,-11.79556c3.73111,0 7.43111,0.55333 10.99556,1.64667l0.66956,0.20556c6.43422,-12.39453 18.968,-20.09222 32.71489,-20.09222zM108.23333,71.32889c-5.36,1.36889 -11.08222,1.37111 -16.46444,0c6.70222,-14.65333 3.45111,-32.26889 -8.21778,-43.44c-3.7,-3.53778 -7.94667,-6.20667 -12.64444,-7.94889c6.11333,-10.43111 17.10444,-16.84 29.09333,-16.84c11.98889,0 22.98,6.40889 29.09778,16.84222c-5.03111,1.87333 -9.66444,4.88222 -13.49111,8.77778c-11.11111,11.34 -13.96444,28.24222 -7.37333,42.60889zM38.12889,60.45111c15.87556,0 29.75778,9.79333 35.12222,24.56c2.7,-1.62 5.16889,-3.61556 7.36,-5.95111c1.67556,-1.78444 3.15333,-3.73556 4.40222,-5.81778c-14.76667,-5.36 -24.55556,-19.24444 -24.55556,-35.12444c0,-5.45111 1.2,-10.85778 3.48222,-15.75778c-2.71778,-0.67778 -5.50889,-1.02 -8.31556,-1.02c-9.57111,0 -18.44444,3.84222 -24.98889,10.82c-7.98444,8.49778 -11.07111,20.52 -8.26667,31.76889c4.9,-2.28 10.30889,-3.47778 15.76,-3.47778zM114.99555,73.24444c1.43111,2.38667 3.16222,4.60222 5.16,6.6c1.99778,1.99556 4.21333,3.72889 6.60667,5.16667c5.36444,-14.76889 19.24444,-24.56 35.12222,-24.56c5.44667,0 10.85556,1.2 15.76,3.48444c2.91556,-11.66222 -0.45778,-23.98889 -9.01778,-32.55778c-6.47556,-6.47111 -15.08444,-10.03333 -24.23778,-10.03333c-2.81778,0 -5.60889,0.34222 -8.32,1.02222c2.28444,4.9 3.48444,10.30889 3.48444,15.75556c0,15.87333 -9.79111,29.75778 -24.55778,35.12222zM67.52889,22.09778l0.00689,-0.01311l0.65756,0.20644c4.95333,1.55333 9.4,4.19111 13.21556,7.84c11.00044,10.53267 13.85444,27.30489 7.03156,40.97467l-0.70489,-0.21689c-14.46222,-4.44667 -24.18222,-17.61556 -24.18222,-32.76889c0,-5.59111 1.37333,-11.13111 3.97556,-16.02222zM112.26667,70.88889l-0.70111,0.216c-6.70556,-13.42022 -4.22089,-29.51444 6.25667,-40.20933c3.97333,-4.04444 8.68,-6.94 13.99111,-8.60222l0.65289,-0.20467l0.00711,0.01356c2.60222,4.89333 3.97556,10.43111 3.97556,16.01778c0,15.14667 -9.71556,28.31556 -24.18222,32.76889zM161.88222,63.54889c5.52489,0 11.00844,1.34644 15.86733,3.89489l-0.034,0.10956c-1.64667,5.30667 -4.62444,10.19556 -8.61111,14.13556c-6.55111,6.47556 -15.24889,10.04444 -24.49556,10.04444c-5.40467,0 -10.78089,-1.26311 -15.59578,-3.66156l0.10244,-0.334c4.44889,-14.46889 17.62,-24.18889 32.76667,-24.18889zM22.29555,67.56l-0.03689,-0.11911c4.85311,-2.54511 10.33556,-3.88978 15.868,-3.88978c15.14667,0 28.31556,9.72222 32.76667,24.18889l0.10267,0.33333c-4.81644,2.39533 -10.19756,3.65778 -15.60933,3.65778c-8.83333,0 -17.24889,-3.29556 -23.69333,-9.27778c-4.39333,-4.08 -7.64222,-9.23111 -9.39778,-14.89333zM3.10667,99.67556c0,-12.10889 6.40667,-23.21111 16.83556,-29.39556c2.01333,5.46889 5.32,10.43111 9.63778,14.44222c7.02,6.51778 16.18444,10.10667 25.80222,10.10667c5.5,0 10.97333,-1.2 15.94444,-3.48222c0.68222,2.71111 1.02889,5.50444 1.02889,8.32889c0,2.82444 -0.34444,5.61778 -1.02667,8.32444c-4.96222,-2.28667 -10.43111,-3.48889 -15.93556,-3.48889c-10.07556,0 -19.54667,3.88444 -26.66889,10.93556c-3.89556,3.85333 -6.90667,8.53333 -8.78222,13.62222c-10.42889,-6.18 -16.83556,-17.28 -16.83556,-29.39333zM171.27778,115.45111c-7.12667,-7.05111 -16.6,-10.93556 -26.67333,-10.93556c-5.50222,0 -10.97333,1.20222 -15.93333,3.48889c-0.68222,-2.70444 -1.02667,-5.49778 -1.02667,-8.32444c0,-2.83333 0.34444,-5.62667 1.03111,-8.32889c4.96889,2.28667 10.43778,3.48667 15.93111,3.48667c10.06667,0 19.54,-3.88444 26.67333,-10.94c3.89111,-3.84667 6.90444,-8.52444 8.78222,-13.61778c10.42889,6.18444 16.82889,17.28889 16.82444,29.4c0,12.11556 -6.4,23.21333 -16.82667,29.38889c-1.87556,-5.08667 -4.88667,-9.76444 -8.78222,-13.61778zM89.1,73.79333c3.53111,1.10667 7.19778,1.66667 10.9,1.66667c3.71111,0 7.38,-0.56 10.90667,-1.66667l0.70133,-0.22c1.69222,3.09267 3.82822,5.93644 6.35422,8.46444c2.49622,2.49422 5.30467,4.61133 8.35711,6.29978l-0.106,0.338c-1.10667,3.53778 -1.66889,7.23778 -1.66889,11.00222c0,3.75556 0.56,7.45556 1.66222,11l0.09756,0.31333c-3.05578,1.70422 -5.86533,3.84022 -8.36422,6.36c-2.63756,2.66644 -4.86022,5.69467 -6.602,9.00133l-0.44244,-0.13911c-7.04444,-2.21556 -14.77778,-2.21111 -21.79556,-0.00444l-0.43978,0.138c-1.72822,-3.28556 -3.948,-6.31267 -6.59578,-8.99356c-2.47956,-2.50889 -5.29133,-4.64578 -8.36356,-6.35933l0.09911,-0.31844c1.10222,-3.54667 1.66,-7.24667 1.66,-10.99778c0,-3.74667 -0.55778,-7.44889 -1.66,-10.99778l-0.10733,-0.34578c3.39778,-1.876 6.48133,-4.27844 9.174,-7.14756c2.16444,-2.30311 4.02089,-4.86267 5.528,-7.61444zM38.13333,136.02444c-5.556,0 -11.05933,-1.36822 -15.922,-3.96089l0.08422,-0.27022c1.64222,-5.30444 4.62,-10.19111 8.61111,-14.13778c6.54,-6.47333 15.23556,-10.03778 24.48889,-10.03778c5.41556,0 10.79644,1.26533 15.60222,3.666l-0.09333,0.30511c-4.45556,14.61556 -17.62444,24.43556 -32.77111,24.43556zM177.71333,131.78889l0.08378,0.27022c-4.88667,2.59489 -10.392,3.96311 -15.926,3.96311c-15.14667,0 -28.31778,-9.81778 -32.77556,-24.43333l-0.09244,-0.30333c4.80644,-2.402 10.18667,-3.66778 15.60356,-3.66778c9.25111,0 17.95111,3.56444 24.49556,10.03778c3.98667,3.94889 6.96667,8.83556 8.61111,14.13333zM136.04667,177.62222c2.72,0.68889 5.51333,1.03333 8.33333,1.03333c9.14889,0 17.75333,-3.6 24.23333,-10.14c8.57111,-8.65556 11.94667,-21.11778 9.02444,-32.91111c-4.91556,2.30444 -10.32667,3.51556 -15.76222,3.51556c-15.87778,0 -29.76667,-9.88667 -35.13333,-24.79778c-2.38667,1.44889 -4.6,3.19556 -6.59556,5.20889c-2.00222,2.02222 -3.74,4.27111 -5.18667,6.70222c14.77778,5.40889 24.58,19.42222 24.58,35.45333c0,5.51778 -1.20444,10.98667 -3.49333,15.93556zM22.37111,135.61111c-2.92444,11.79556 0.45111,24.25778 9.02667,32.90889c6.47333,6.54 15.07556,10.14 24.22667,10.14c2.80667,0 5.60444,-0.34889 8.33778,-1.03556c-2.28889,-4.95111 -3.48889,-10.42 -3.48889,-15.93111c0,-16.03333 9.79778,-30.04889 24.57556,-35.46c-1.44,-2.41778 -3.17778,-4.66667 -5.18667,-6.7c-1.98222,-2.00667 -4.19556,-3.75111 -6.59778,-5.20889c-5.36444,14.91556 -19.24889,24.80222 -35.12889,24.80222c-5.45778,-0.00222 -10.86667,-1.21333 -15.76444,-3.51556zM99.99778,196.89778c-11.98,0 -22.97111,-6.40667 -29.09111,-16.84c5.04,-1.87778 9.67111,-4.89111 13.49111,-8.78444c11.11333,-11.32667 13.97111,-28.22889 7.37333,-42.60222c5.34889,-1.36 11.09333,-1.36444 16.45556,0.00222c-6.58889,14.37556 -3.72889,31.27556 7.37778,42.6c3.81111,3.89333 8.44667,6.90667 13.49111,8.78444c-6.11778,10.43333 -17.10889,16.84 -29.09778,16.84zM68.19333,177.71333l-0.63444,0.19867l-0.01222,-0.02311c-2.60222,-4.94222 -3.97778,-10.54444 -3.97778,-16.19778c0,-15.30889 9.72444,-28.61556 24.19778,-33.10667l0.44622,-0.13822c6.99267,13.522 4.57289,29.85044 -6.03067,40.656c-3.90667,3.98889 -8.74444,6.96667 -13.98889,8.61111zM132.45778,177.88667l-0.014,0.02644l-0.63933,-0.19978c-5.24889,-1.64889 -10.08667,-4.62444 -13.99111,-8.61111c-10.59511,-10.80378 -13.01467,-27.13311 -6.032,-40.65333l0.452,0.14c14.47778,4.49111 24.20222,17.79111 24.20222,33.1c0,5.65778 -1.37556,11.25778 -3.97778,16.19778z" fill-rule="evenodd"></path></svg>