<svg width="100%" viewBox="0 0 200 200" version="1.1" xmlns="http://www.w3.org/2000/svg" xmlns:xlink="http://www.w3.org/1999/xlink"><path d="M180.19397,25.1796c13.64117,10.40254 20.65527,26.10374 19.72388,44.25701c-2.10748,30.51596 -43.81254,69.27955 -82.77089,103.27884c-4.65942,4.07262 -12.75473,11.04178 -15.55388,13.59123c-3.23862,-2.94397 -12.65734,-11.33393 -18.49785,-16.288c-39.10068,-33.12034 -80.95307,-70.90011 -83.0131,-100.43474c-0.93138,-18.30059 6.08521,-34.00179 19.72139,-44.40433c14.52261,-11.08673 35.18038,-14.47267 52.59702,-8.73204c11.72596,3.9228 21.39189,11.18411 27.57448,20.21579c6.23004,-9.02919 15.89597,-16.34043 27.62193,-20.21579c17.3717,-5.74063 38.02447,-2.30724 52.59702,8.73204zM185.25041,68.55266c0.834,-16.72997 -7.11648,-26.44583 -13.98575,-31.64711c-10.79208,-8.19269 -26.10125,-10.74463 -39.05574,-6.47724c-13.29658,4.41721 -32.2339,28.65569 -32.2339,28.65569c0,0 -18.88988,-24.23848 -32.2364,-28.65569c-12.90205,-4.26739 -28.25866,-1.71794 -39.05574,6.47724c-6.81684,5.20127 -14.76732,14.91714 -13.93332,31.79193c1.81533,25.71171 53.18632,69.18216 77.86676,90.08214c3.38345,2.84659 6.47724,5.49592 9.17402,7.80066c1.71794,-1.51818 3.63065,-3.18868 5.69069,-4.95407c24.633,-21.48927 75.90411,-66.23569 77.76938,-93.07356zM68.49771,71.37678c0,0.20426 -0.00499,0.40843 -0.01498,0.61252c-0.00999,0.20409 -0.02505,0.40784 -0.0452,0.61127c-0.01998,0.20326 -0.04495,0.40601 -0.07491,0.60827c-0.02996,0.20209 -0.06492,0.40335 -0.10487,0.60378c-0.03979,0.20026 -0.08448,0.39952 -0.13409,0.59778c-0.04977,0.19826 -0.10429,0.39511 -0.16355,0.59054c-0.05926,0.1956 -0.12335,0.38953 -0.19227,0.5818c-0.06875,0.19244 -0.14225,0.38304 -0.22049,0.57182c-0.07824,0.18877 -0.16106,0.37555 -0.24845,0.56033c-0.08723,0.18461 -0.17904,0.36706 -0.27542,0.54734c-0.09638,0.18012 -0.1971,0.35782 -0.30214,0.53311c-0.10504,0.17529 -0.21433,0.34792 -0.32786,0.51788c-0.11336,0.1698 -0.23097,0.33676 -0.35283,0.5009c-0.12169,0.16414 -0.24729,0.32519 -0.3768,0.48317c-0.12968,0.15781 -0.2631,0.31246 -0.40027,0.46394c-0.13734,0.15132 -0.27825,0.29923 -0.42274,0.44372c-0.14449,0.14449 -0.2924,0.28541 -0.44372,0.42274c-0.15149,0.13717 -0.30613,0.27059 -0.46394,0.40027c-0.15798,0.12951 -0.31903,0.25511 -0.48317,0.3768c-0.16414,0.12185 -0.3311,0.23946 -0.5009,0.35283c-0.16996,0.11353 -0.34259,0.22282 -0.51788,0.32786c-0.17529,0.10504 -0.35299,0.20575 -0.53311,0.30214c-0.18028,0.09638 -0.36273,0.18819 -0.54734,0.27542c-0.18478,0.0874 -0.37156,0.17021 -0.56033,0.24845c-0.18877,0.07824 -0.37938,0.15173 -0.57182,0.22049c-0.19227,0.06892 -0.3862,0.13301 -0.5818,0.19227c-0.19543,0.05926 -0.39228,0.11378 -0.59054,0.16355c-0.19826,0.04961 -0.39752,0.0943 -0.59778,0.13409c-0.20043,0.03995 -0.40169,0.07491 -0.60378,0.10487c-0.20226,0.02996 -0.40502,0.05493 -0.60827,0.07491c-0.20342,0.02014 -0.40718,0.03521 -0.61127,0.0452c-0.20409,0.00999 -0.40826,0.01498 -0.61252,0.01498c-0.20426,0 -0.40843,-0.00499 -0.61252,-0.01498c-0.20409,-0.00999 -0.40784,-0.02505 -0.61127,-0.0452c-0.20326,-0.01998 -0.40601,-0.04495 -0.60827,-0.07491c-0.20209,-0.02996 -0.40335,-0.06492 -0.60378,-0.10487c-0.20026,-0.03979 -0.39952,-0.08448 -0.59778,-0.13409c-0.19826,-0.04977 -0.39511,-0.10429 -0.59054,-0.16355c-0.1956,-0.05926 -0.38953,-0.12335 -0.5818,-0.19227c-0.19244,-0.06875 -0.38304,-0.14225 -0.57182,-0.22049c-0.18877,-0.07824 -0.37555,-0.16106 -0.56033,-0.24845c-0.18461,-0.08723 -0.36706,-0.17904 -0.54734,-0.27542c-0.18012,-0.09638 -0.35782,-0.1971 -0.53311,-0.30214c-0.17529,-0.10504 -0.34792,-0.21433 -0.51788,-0.32786c-0.1698,-0.11336 -0.33676,-0.23097 -0.5009,-0.35283c-0.16414,-0.12169 -0.32519,-0.24729 -0.48317,-0.3768c-0.15781,-0.12968 -0.31246,-0.2631 -0.46394,-0.40027c-0.15132,-0.13734 -0.29923,-0.27825 -0.44372,-0.42274c-0.14449,-0.14449 -0.28541,-0.2924 -0.42274,-0.44372c-0.13717,-0.15149 -0.27059,-0.30613 -0.40027,-0.46394c-0.12951,-0.15798 -0.25511,-0.31903 -0.3768,-0.48317c-0.12185,-0.16414 -0.23946,-0.3311 -0.35283,-0.5009c-0.11353,-0.16996 -0.22282,-0.34259 -0.32786,-0.51788c-0.10504,-0.17529 -0.20575,-0.35299 -0.30214,-0.53311c-0.09638,-0.18028 -0.18819,-0.36273 -0.27542,-0.54734c-0.0874,-0.18478 -0.17021,-0.37156 -0.24845,-0.56033c-0.07824,-0.18877 -0.15173,-0.37938 -0.22049,-0.57182c-0.06892,-0.19227 -0.13301,-0.3862 -0.19227,-0.5818c-0.05926,-0.19543 -0.11378,-0.39228 -0.16355,-0.59054c-0.04961,-0.19826 -0.0943,-0.39752 -0.13409,-0.59778c-0.03995,-0.20043 -0.07491,-0.40169 -0.10487,-0.60378c-0.02996,-0.20226 -0.05493,-0.40502 -0.07491,-0.60827c-0.02014,-0.20342 -0.03521,-0.40718 -0.0452,-0.61127c-0.00999,-0.20409 -0.01498,-0.40826 -0.01498,-0.61252c0,-0.20426 0.00499,-0.40843 0.01498,-0.61252c0.00999,-0.20409 0.02505,-0.40784 0.0452,-0.61127c0.01998,-0.20326 0.04495,-0.40601 0.07491,-0.60827c0.02996,-0.20209 0.06492,-0.40335 0.10487,-0.60378c0.03979,-0.20026 0.08448,-0.39952 0.13409,-0.59778c0.04977,-0.19826 0.10429,-0.39511 0.16355,-0.59054c0.05926,-0.1956 0.12335,-0.38953 0.19227,-0.5818c0.06875,-0.19244 0.14225,-0.38304 0.22049,-0.57182c0.07824,-0.18877 0.16106,-0.37555 0.24845,-0.56033c0.08723,-0.18461 0.17904,-0.36706 0.27542,-0.54734c0.09638,-0.18012 0.1971,-0.35782 0.30214,-0.53311c0.10504,-0.17529 0.21433,-0.34792 0.32786,-0.51788c0.11336,-0.1698 0.23097,-0.33676 0.35283,-0.5009c0.12169,-0.16414 0.24729,-0.32519 0.3768,-0.48317c0.12968,-0.15781 0.2631,-0.31246 0.40027,-0.46394c0.13734,-0.15132 0.27825,-0.29923 0.42274,-0.44372c0.14449,-0.14449 0.2924,-0.28541 0.44372,-0.42274c0.15149,-0.13717 0.30613,-0.27059 0.46394,-0.40027c0.15798,-0.12951 0.31903,-0.25511 0.48317,-0.3768c0.16414,-0.12185 0.3311,-0.23946 0.5009,-0.35283c0.16996,-0.11353 0.34259,-0.22282 0.51788,-0.32786c0.17529,-0.10504 0.35299,-0.20575 0.53311,-0.30214c0.18028,-0.09638 0.36273,-0.18819 0.54734,-0.27542c0.18478,-0.0874 0.37156,-0.17021 0.56033,-0.24845c0.18877,-0.07824 0.37938,-0.15173 0.57182,-0.22049c0.19227,-0.06892 0.3862,-0.13301 0.5818,-0.19227c0.19543,-0.05926 0.39228,-0.11378 0.59054,-0.16355c0.19826,-0.04961 0.39752,-0.0943 0.59778,-0.13409c0.20043,-0.03995 0.40169,-0.07491 0.60378,-0.10487c0.20226,-0.02996 0.40502,-0.05493 0.60827,-0.07491c0.20342,-0.02014 0.40718,-0.03521 0.61127,-0.0452c0.20409,-0.00999 0.40826,-0.01498 0.61252,-0.01498c0.20426,0 0.40843,0.00499 0.61252,0.01498c0.20409,0.00999 0.40784,0.02505 0.61127,0.0452c0.20326,0.01998 0.40601,0.04495 0.60827,0.07491c0.20209,0.02996 0.40335,0.06492 0.60378,0.10487c0.20026,0.03979 0.39952,0.08448 0.59778,0.13409c0.19826,0.04977 0.39511,0.10429 0.59054,0.16355c0.1956,0.05926 0.38953,0.12335 0.5818,0.19227c0.19244,0.06875 0.38304,0.14225 0.57182,0.22049c0.18877,0.07824 0.37555,0.16106 0.56033,0.24845c0.18461,0.08723 0.36706,0.17904 0.54734,0.27542c0.18012,0.09638 0.35782,0.1971 0.53311,0.30214c0.17529,0.10504 0.34792,0.21433 0.51788,0.32786c0.1698,0.11336 0.33676,0.23097 0.5009,0.35283c0.16414,0.12169 0.32519,0.24729 0.48317,0.3768c0.15781,0.12968 0.31246,0.2631 0.46394,0.40027c0.15132,0.13734 0.29923,0.27825 0.44372,0.42274c0.14449,0.14449 0.28541,0.2924 0.42274,0.44372c0.13717,0.15149 0.27059,0.30613 0.40027,0.46394c0.12951,0.15798 0.25511,0.31903 0.3768,0.48317c0.12185,0.16414 0.23946,0.3311 0.35283,0.5009c0.11353,0.16996 0.22282,0.34259 0.32786,0.51788c0.10504,0.17529 0.20575,0.35299 0.30214,0.53311c0.09638,0.18028 0.18819,0.36273 0.27542,0.54734c0.0874,0.18478 0.17021,0.37156 0.24845,0.56033c0.07824,0.18877 0.15173,0.37938 0.22049,0.57182c0.06892,0.19227 0.13301,0.3862 0.19227,0.5818c0.05926,0.19543 0.11378,0.39228 0.16355,0.59054c0.04961,0.19826 0.0943,0.39752 0.13409,0.59778c0.03995,0.20043 0.07491,0.40169 0.10487,0.60378c0.02996,0.20226 0.05493,0.40502 0.07491,0.60827c0.02014,0.20342 0.03521,0.40718 0.0452,0.61127c0.00999,0.20409 0.01498,0.40826 0.01498,0.61252zM154.23005,73.04229c0,0.20426 -0.00499,0.40843 -0.01498,0.61252c-0.00999,0.20409 -0.02505,0.40784 -0.0452,0.61127c-0.01998,0.20326 -0.04495,0.40601 -0.07491,0.60827c-0.02996,0.20209 -0.06492,0.40335 -0.10487,0.60378c-0.03979,0.20026 -0.08448,0.39952 -0.13409,0.59778c-0.04977,0.19826 -0.10429,0.39511 -0.16355,0.59054c-0.05926,0.1956 -0.12335,0.38953 -0.19227,0.5818c-0.06875,0.19244 -0.14225,0.38304 -0.22049,0.57182c-0.07824,0.18877 -0.16097,0.37555 -0.2482,0.56033c-0.0874,0.18461 -0.17929,0.36706 -0.27567,0.54734c-0.09638,0.18012 -0.1971,0.35782 -0.30214,0.53311c-0.10504,0.17529 -0.21433,0.34792 -0.32786,0.51788c-0.11336,0.1698 -0.23097,0.33676 -0.35283,0.5009c-0.12169,0.16414 -0.24729,0.32519 -0.3768,0.48317c-0.12968,0.15781 -0.26318,0.31246 -0.40052,0.46394c-0.13717,0.15132 -0.278,0.29923 -0.42249,0.44372c-0.14449,0.14449 -0.2924,0.28541 -0.44372,0.42274c-0.15149,0.13717 -0.30613,0.27059 -0.46394,0.40027c-0.15798,0.12951 -0.31903,0.25511 -0.48317,0.3768c-0.16414,0.12185 -0.33119,0.23946 -0.50115,0.35283c-0.1698,0.11353 -0.34234,0.22282 -0.51763,0.32786c-0.17529,0.10504 -0.35299,0.20575 -0.53311,0.30214c-0.18028,0.09638 -0.36273,0.18819 -0.54734,0.27542c-0.18478,0.0874 -0.37156,0.17021 -0.56033,0.24845c-0.18877,0.07824 -0.37938,0.15173 -0.57182,0.22049c-0.19227,0.06892 -0.3862,0.13301 -0.5818,0.19227c-0.19543,0.05926 -0.39228,0.11378 -0.59054,0.16355c-0.19826,0.04961 -0.39761,0.0943 -0.59803,0.13409c-0.20026,0.03995 -0.40144,0.07491 -0.60353,0.10487c-0.20226,0.02996 -0.40502,0.05493 -0.60827,0.07491c-0.20342,0.02014 -0.40718,0.03521 -0.61127,0.0452c-0.20409,0.00999 -0.40826,0.01498 -0.61252,0.01498c-0.20426,0 -0.40843,-0.00499 -0.61252,-0.01498c-0.20409,-0.00999 -0.40784,-0.02505 -0.61127,-0.0452c-0.20326,-0.01998 -0.40601,-0.04495 -0.60827,-0.07491c-0.20209,-0.02996 -0.40335,-0.06492 -0.60378,-0.10487c-0.20026,-0.03979 -0.39952,-0.08448 -0.59778,-0.13409c-0.19826,-0.04977 -0.39511,-0.10429 -0.59054,-0.16355c-0.1956,-0.05926 -0.38953,-0.12335 -0.5818,-0.19227c-0.19244,-0.06875 -0.38304,-0.14225 -0.57182,-0.22049c-0.18877,-0.07824 -0.37555,-0.16106 -0.56033,-0.24845c-0.18461,-0.08723 -0.36706,-0.17904 -0.54734,-0.27542c-0.18012,-0.09638 -0.35782,-0.1971 -0.53311,-0.30214c-0.17529,-0.10504 -0.34792,-0.21433 -0.51788,-0.32786c-0.1698,-0.11336 -0.33676,-0.23097 -0.5009,-0.35283c-0.16414,-0.12169 -0.32519,-0.24729 -0.48317,-0.3768c-0.15781,-0.12968 -0.31246,-0.2631 -0.46394,-0.40027c-0.15132,-0.13734 -0.29923,-0.27825 -0.44372,-0.42274c-0.14449,-0.14449 -0.28541,-0.2924 -0.42274,-0.44372c-0.13717,-0.15149 -0.27059,-0.30613 -0.40027,-0.46394c-0.12951,-0.15798 -0.25511,-0.31903 -0.3768,-0.48317c-0.12185,-0.16414 -0.23946,-0.3311 -0.35283,-0.5009c-0.11353,-0.16996 -0.22282,-0.34259 -0.32786,-0.51788c-0.10504,-0.17529 -0.20575,-0.35299 -0.30214,-0.53311c-0.09638,-0.18028 -0.18819,-0.36273 -0.27542,-0.54734c-0.0874,-0.18478 -0.17021,-0.37156 -0.24845,-0.56033c-0.07824,-0.18877 -0.15173,-0.37938 -0.22049,-0.57182c-0.06892,-0.19227 -0.13301,-0.3862 -0.19227,-0.5818c-0.05926,-0.19543 -0.11378,-0.39228 -0.16355,-0.59054c-0.04961,-0.19826 -0.0943,-0.39752 -0.13409,-0.59778c-0.03995,-0.20043 -0.07491,-0.40169 -0.10487,-0.60378c-0.02996,-0.20226 -0.05493,-0.40502 -0.07491,-0.60827c-0.02014,-0.20342 -0.03521,-0.40718 -0.0452,-0.61127c-0.00999,-0.20409 -0.01498,-0.40826 -0.01498,-0.61252c0,-0.20426 0.00499,-0.40843 0.01498,-0.61252c0.00999,-0.20409 0.02505,-0.40784 0.0452,-0.61127c0.01998,-0.20326 0.04495,-0.40601 0.07491,-0.60827c0.02996,-0.20209 0.06492,-0.40335 0.10487,-0.60378c0.03979,-0.20026 0.08448,-0.39952 0.13409,-0.59778c0.04977,-0.19826 0.10429,-0.39511 0.16355,-0.59054c0.05926,-0.1956 0.12335,-0.38953 0.19227,-0.5818c0.06875,-0.19244 0.14225,-0.38304 0.22049,-0.57182c0.07824,-0.18877 0.16106,-0.37555 0.24845,-0.56033c0.08723,-0.18461 0.17904,-0.36706 0.27542,-0.54734c0.09638,-0.18012 0.1971,-0.35782 0.30214,-0.53311c0.10504,-0.17529 0.21433,-0.34792 0.32786,-0.51788c0.11336,-0.1698 0.23097,-0.33676 0.35283,-0.5009c0.12169,-0.16414 0.24729,-0.32519 0.3768,-0.48317c0.12968,-0.15781 0.2631,-0.31246 0.40027,-0.46394c0.13734,-0.15132 0.27825,-0.29923 0.42274,-0.44372c0.14449,-0.14449 0.2924,-0.28541 0.44372,-0.42274c0.15149,-0.13717 0.30613,-0.27059 0.46394,-0.40027c0.15798,-0.12951 0.31903,-0.25511 0.48317,-0.3768c0.16414,-0.12185 0.3311,-0.23946 0.5009,-0.35283c0.16996,-0.11353 0.34259,-0.22282 0.51788,-0.32786c0.17529,-0.10504 0.35299,-0.20575 0.53311,-0.30214c0.18028,-0.09638 0.36273,-0.18819 0.54734,-0.27542c0.18478,-0.0874 0.37156,-0.17021 0.56033,-0.24845c0.18877,-0.07824 0.37938,-0.15173 0.57182,-0.22049c0.19227,-0.06892 0.3862,-0.13301 0.5818,-0.19227c0.19543,-0.05926 0.39228,-0.11378 0.59054,-0.16355c0.19826,-0.04961 0.39752,-0.0943 0.59778,-0.13409c0.20043,-0.03995 0.40169,-0.07491 0.60378,-0.10487c0.20226,-0.02996 0.40502,-0.05493 0.60827,-0.07491c0.20342,-0.02014 0.40718,-0.03521 0.61127,-0.0452c0.20409,-0.00999 0.40826,-0.01498 0.61252,-0.01498c0.20426,0 0.40843,0.00499 0.61252,0.01498c0.20409,0.00999 0.40784,0.02505 0.61127,0.0452c0.20326,0.01998 0.40601,0.04495 0.60827,0.07491c0.20209,0.02996 0.40327,0.06492 0.60353,0.10487c0.20043,0.03979 0.39977,0.08448 0.59803,0.13409c0.19826,0.04977 0.39511,0.10429 0.59054,0.16355c0.1956,0.05926 0.38953,0.12335 0.5818,0.19227c0.19244,0.06875 0.38304,0.14225 0.57182,0.22049c0.18877,0.07824 0.37555,0.16106 0.56033,0.24845c0.18461,0.08723 0.36706,0.17904 0.54734,0.27542c0.18012,0.09638 0.35782,0.1971 0.53311,0.30214c0.17529,0.10504 0.34783,0.21433 0.51763,0.32786c0.16996,0.11336 0.33701,0.23097 0.50115,0.35283c0.16414,0.12169 0.32519,0.24729 0.48317,0.3768c0.15781,0.12968 0.31246,0.2631 0.46394,0.40027c0.15132,0.13734 0.29923,0.27825 0.44372,0.42274c0.14449,0.14449 0.28533,0.2924 0.42249,0.44372c0.13734,0.15149 0.27084,0.30613 0.40052,0.46394c0.12951,0.15798 0.25511,0.31903 0.3768,0.48317c0.12185,0.16414 0.23946,0.3311 0.35283,0.5009c0.11353,0.16996 0.22282,0.34259 0.32786,0.51788c0.10504,0.17529 0.20575,0.35299 0.30214,0.53311c0.09638,0.18028 0.18827,0.36273 0.27567,0.54734c0.08723,0.18478 0.16996,0.37156 0.2482,0.56033c0.07824,0.18877 0.15173,0.37938 0.22049,0.57182c0.06892,0.19227 0.13301,0.3862 0.19227,0.5818c0.05926,0.19543 0.11378,0.39228 0.16355,0.59054c0.04961,0.19826 0.0943,0.39752 0.13409,0.59778c0.03995,0.20043 0.07491,0.40169 0.10487,0.60378c0.02996,0.20226 0.05493,0.40502 0.07491,0.60827c0.02014,0.20342 0.03521,0.40718 0.0452,0.61127c0.00999,0.20409 0.01498,0.40826 0.01498,0.61252zM59.49349,109.51362c11.83083,11.43381 24.84026,21.23707 41.77748,22.25835c16.33045,0.98632 30.65579,-11.3564 41.14324,-22.25835c5.57832,-5.80055 -3.23862,-14.63997 -8.82693,-8.82693c-8.90933,9.26391 -18.83744,18.13828 -32.31381,18.60023c-12.86959,0.44447 -24.45072,-10.38756 -32.95055,-18.60023c-5.79306,-5.5933 -14.62998,3.22364 -8.82943,8.82693z" fill-rule="evenodd"></path></svg>