<svg width="100%" viewBox="0 0 200 200" version="1.1" xmlns="http://www.w3.org/2000/svg" xmlns:xlink="http://www.w3.org/1999/xlink"><path d="M186.18772,87.96287c14.66787,-30.40061 3.19228,-83.85403 2.68872,-86.14545c-0.26333,-1.19653 -1.40673,-1.98421 -2.62636,-1.78324c-34.70164,5.63385 -58.87938,27.32382 -63.84798,32.09839c-1.4691,-0.31184 -2.92895,-0.59364 -4.3634,-0.83156c-0.00462,0 -0.00693,-0.00231 -0.01155,-0.00462h-0.01617c-6.59246,-1.09258 -12.75989,-1.45755 -18.01492,-1.45755c-5.25503,0 -11.42246,0.36727 -18.01492,1.45755h-0.01617c-0.00462,0 -0.00693,0.00231 -0.01155,0.00462c-1.43445,0.23792 -2.892,0.51973 -4.3634,0.83156c-4.96398,-4.77457 -29.14402,-26.46454 -63.84336,-32.1007c-1.20808,-0.20327 -2.36303,0.58671 -2.62636,1.78324c-0.50356,2.29142 -11.97684,55.74715 2.68872,86.14776c-3.70739,5.37745 -8.97166,12.72987 -11.46173,15.10675c-0.59595,0.57055 -0.84311,1.41135 -0.65139,2.21289c0.19172,0.80154 0.79923,1.43907 1.58921,1.67237c0.00711,0.00208 0.0167,0.00508 0.02874,0.00878c0.35182,0.10995 2.79905,0.87384 6.72773,0.13675c-2.01885,4.30104 -4.91316,9.57685 -7.41247,11.30928c-0.77151,0.53359 -1.14571,1.48296 -0.94013,2.39999c0.20327,0.91703 0.94244,1.61924 1.86871,1.77631c0.04389,0.00693 3.71663,0.65139 7.00131,2.69796c-0.9332,1.06486 -2.50855,2.39768 -4.86234,2.98439c-0.6537,0.164 -1.20346,0.60288 -1.50375,1.20346c-0.30029,0.60057 -0.32801,1.30509 -0.06699,1.92415c0.39499,0.95168 9.80322,23.3762 18.23205,32.62042c28.54807,31.31071 60.89823,35.98364 77.6404,35.98364c16.74216,0 49.09233,-4.67293 77.64502,-35.97902c8.43345,-9.24422 17.83706,-31.67105 18.23205,-32.62042c0.25871,-0.62136 0.23561,-1.32357 -0.06699,-1.92415c-0.3026,-0.60057 -0.85235,-1.04177 -1.50375,-1.20346c-2.37227,-0.59133 -3.94069,-1.91722 -4.86696,-2.97977c3.27082,-2.03502 6.96435,-2.69796 7.00824,-2.7072c0.92396,-0.15938 1.66082,-0.8639 1.86178,-1.77862c0.20096,-0.91472 -0.16862,-1.86178 -0.93782,-2.39768c-2.49931,-1.73012 -5.39131,-7.00824 -7.41016,-11.30928c3.93884,0.74032 6.38318,-0.02887 6.72713,-0.13721c0.01132,-0.00346 0.02033,-0.00624 0.02703,-0.00832c0.78999,-0.23561 1.39518,-0.87083 1.58921,-1.67237c0.19403,-0.80154 -0.05544,-1.64234 -0.65139,-2.21289c-2.64253,-2.51779 -8.05001,-10.1474 -11.46404,-15.10675zM15.19729,4.97274c28.26626,5.24579 49.39724,21.80778 56.95985,28.46722c-6.02884,1.65158 -12.20552,4.02154 -18.2205,7.32008c-4.11393,-4.62673 -18.16275,-19.40779 -33.88163,-24.48033c-0.59595,-0.19172 -1.25197,-0.13397 -1.80403,0.164c-0.55438,0.29798 -0.96323,0.81078 -1.13185,1.41597c-0.39961,1.44138 -9.5653,35.28374 0.42502,63.75327c-0.24023,0.59826 -0.48739,1.19422 -0.71607,1.7971c-10.74104,-25.9656 -3.55956,-68.40772 -1.63079,-78.43731zM184.79947,4.97274c1.93108,10.02728 9.1218,52.45785 -1.63079,78.43962c-0.22637,-0.60288 -0.47353,-1.19653 -0.71376,-1.79248c9.98801,-28.46722 0.82001,-62.31651 0.42271,-63.75789c-0.16862,-0.6075 -0.57748,-1.11799 -1.13185,-1.41597c-0.55438,-0.29798 -1.20577,-0.35803 -1.80403,-0.164c-15.71888,5.07023 -29.76539,19.85129 -33.88163,24.47802c-6.01498,-3.29854 -12.18935,-5.66619 -18.2205,-7.31777c7.56262,-6.65944 28.69359,-23.22375 56.95985,-28.46953zM34.3071,48.37116c0.48046,0.29567 1.84099,1.31895 2.67718,2.51548c-1.69316,-0.17555 -3.90604,-0.33494 -6.32682,-0.33494c-3.09758,0 -5.9018,0.26333 -8.3295,0.78537c-0.8639,0.18479 -1.54301,0.84542 -1.75783,1.7024c-0.21251,0.85697 0.08085,1.76014 0.75765,2.32607c1.75321,1.47141 4.0816,3.87832 5.44444,5.9734c-1.62155,-0.04158 -3.23155,0.10395 -4.54127,0.4435c-0.75996,0.19634 -1.36284,0.7692 -1.61,1.5153c-0.24485,0.74379 -0.09471,1.56842 0.39961,2.17824c0.60288,0.7461 2.04888,3.07217 1.88488,5.24579c-0.87545,1.48065 -1.68854,2.99825 -2.46928,4.53434c-5.82788,-21.77775 -1.20577,-46.10794 0.54283,-53.74447c12.86153,5.0633 24.59121,16.95005 28.88762,21.64146c-0.3511,0.22175 -0.70683,0.42502 -1.05793,0.6537c-1.12492,-0.36034 -2.92433,-0.74148 -5.5068,-0.74148c-2.51086,0 -5.31046,0.36496 -8.32488,1.08565c-0.9101,0.21713 -1.59614,0.96092 -1.74398,1.88257c-0.14552,0.92858 0.27719,1.85023 1.0741,2.33762zM179.38737,63.30698c-0.24254,-0.75072 -0.85466,-1.32357 -1.61693,-1.52222c-1.31202,-0.33956 -2.93357,-0.48046 -4.54127,-0.4435c1.36515,-2.09739 3.69122,-4.50431 5.44444,-5.9734c0.67449,-0.56824 0.97016,-1.47141 0.75765,-2.32607c-0.21251,-0.85697 -0.89393,-1.51761 -1.75783,-1.7024c-2.43002,-0.51973 -5.23424,-0.78306 -8.33181,-0.78306c-2.42078,0 -4.63366,0.15938 -6.32682,0.33263c0.7461,-1.07872 1.93108,-2.04888 2.67949,-2.51548c0.79692,-0.48739 1.21963,-1.40904 1.07179,-2.333c-0.14552,-0.92165 -0.83618,-1.66544 -1.74398,-1.88257c-3.01442,-0.72069 -5.81864,-1.08565 -8.32719,-1.08565c-2.58016,0 -4.37957,0.38113 -5.50449,0.74148c-0.3511,-0.23099 -0.70914,-0.43426 -1.06024,-0.65601c4.28949,-4.69141 16.00992,-16.57123 28.88762,-21.63915c1.7486,7.63422 6.37071,31.96672 0.54514,53.74678c-0.78075,-1.53839 -1.59383,-3.05831 -2.46928,-4.53665c0,-0.00462 -0.00231,-0.01155 -0.00462,-0.01617c-0.15245,-2.169 1.28892,-4.48352 1.88257,-5.22038c0.50356,-0.61212 0.66063,-1.43445 0.41578,-2.18517zM114.73555,35.47036c-1.51991,6.0196 -6.19054,22.08958 -14.73717,31.4493c-8.54663,-9.35972 -13.21725,-25.42739 -14.73717,-31.44699c5.35897,-0.7461 10.37839,-1.01405 14.73717,-1.01405c4.35878,0 9.3782,0.26564 14.73717,1.01174zM186.85297,101.12468c-0.85004,-0.47353 -1.90798,-0.36496 -2.64253,0.27488c-0.73455,0.63984 -0.98864,1.67237 -0.63522,2.58016c0.46198,1.18498 3.91297,9.87714 8.08003,15.1645c-2.0997,0.75765 -4.67986,1.97035 -6.87658,3.83444c-0.79461,0.67449 -1.03946,1.79941 -0.59364,2.74416c0.08778,0.18941 1.94032,4.02847 6.46541,6.1351c-2.60326,5.91797 -10.00187,22.01798 -16.41647,29.05163c-27.36309,29.99176 -58.25571,34.47065 -74.2356,34.47065c-15.9799,0 -46.87251,-4.4789 -74.23098,-34.47296c-6.40767,-7.02672 -13.81321,-23.13135 -16.41647,-29.04932c4.52279,-2.10663 6.37995,-5.94338 6.46772,-6.13279c0.4435,-0.94475 0.20096,-2.06967 -0.59595,-2.74416c-2.19672,-1.8664 -4.77919,-3.0791 -6.87889,-3.83444c4.16937,-5.28967 7.61805,-13.97952 8.07772,-15.16681c0.35341,-0.90779 0.09702,-1.93801 -0.63753,-2.57785c-0.73455,-0.63984 -1.79017,-0.74841 -2.64253,-0.27488c-1.5407,0.86159 -3.02597,1.29123 -4.28256,1.4922c4.54127,-5.70777 10.55163,-14.65401 11.665,-16.31945c0.17555,-0.20558 0.31877,-0.4435 0.41578,-0.70914c1.65158,-4.49969 3.74204,-8.86309 6.21594,-12.97471c0.22637,-0.3742 0.33263,-0.79461 0.32339,-1.2127c0.22637,-2.01885 -0.26333,-3.92452 -0.90086,-5.44444c1.73474,0.04158 3.15532,0.32339 3.17149,0.32801c0.68373,0.13859 1.40211,-0.04389 1.94263,-0.49432c0.53821,-0.45043 0.84311,-1.12261 0.82694,-1.82482c-0.07161,-3.00287 -2.44388,-6.28755 -4.65676,-8.71064c0.89162,-0.05544 1.82251,-0.08316 2.79036,-0.08316c4.77688,0 8.78224,0.69066 8.82151,0.69759c1.20346,0.21251 2.37689,-0.56362 2.65177,-1.76245c0.5359,-2.34917 -0.33494,-4.51355 -1.64003,-6.2529c0.98402,-0.11088 1.92415,-0.16631 2.81346,-0.16631c2.60326,0 4.0354,0.48277 4.4558,0.64908c0.01155,0.00693 0.0231,0.01617 0.03696,0.0231c0.77844,0.50818 1.78786,0.49663 2.55706,-0.02772c0.5844,-0.3973 1.17805,-0.75996 1.76938,-1.13416c3.05369,8.33874 7.18148,11.09677 7.68966,11.4086c0.78075,0.48046 1.77631,0.45043 2.52934,-0.07623c7.00824,-4.89237 14.12274,-18.07036 16.07229,-21.85628c0.75996,-0.16169 1.5153,-0.31646 2.2637,-0.45736c1.58921,6.48851 6.99438,25.55444 17.73773,35.6718c0.4435,0.41809 1.01405,0.62829 1.58459,0.62829c0.57055,0 1.13878,-0.2102 1.58459,-0.62829c10.74335,-10.11737 16.14852,-29.18329 17.73773,-35.6718c0.75072,0.1409 1.50375,0.29336 2.2637,0.45736c1.94956,3.78593 9.06405,16.96391 16.07229,21.85628c0.75303,0.52897 1.74398,0.55669 2.52934,0.07623c0.50818,-0.31184 4.64059,-3.06986 7.69197,-11.4086c0.59133,0.37651 1.18498,0.73686 1.77169,1.13647c0.76458,0.52204 1.75321,0.52204 2.52241,0.03465c0.39499,-0.16631 1.83637,-0.68142 4.5251,-0.68142c0.89162,0 1.82944,0.05544 2.81577,0.16631c-1.30509,1.73705 -2.17593,3.90142 -1.64465,6.25059c0.27257,1.20115 1.44369,1.97728 2.65177,1.76476c0.04158,-0.00693 4.04464,-0.69759 8.82382,-0.69759c0.96785,0 1.90105,0.02772 2.79267,0.08316c-2.21289,2.42309 -4.58515,5.70546 -4.65676,8.71064c-0.01617,0.70221 0.28874,1.37439 0.82694,1.82482c0.53821,0.45043 1.2589,0.6306 1.94494,0.49432c0.01386,-0.00231 1.43214,-0.28643 3.16918,-0.32801c-0.63522,1.51761 -1.12492,3.41403 -0.90548,5.42365c-0.00693,0.42502 0.10164,0.85235 0.33032,1.23349c2.46697,4.09776 4.55743,8.46348 6.21132,12.97471c0.09702,0.26102 0.23561,0.49432 0.40885,0.69759c1.09258,1.63541 7.12143,10.60938 11.67193,16.331c-1.2589,-0.20327 -2.74185,-0.63522 -4.28256,-1.49451zM72.33962,38.19605c-2.61943,4.65445 -6.97821,11.70427 -11.24691,15.44862c-1.24966,-1.31664 -3.27775,-4.03078 -4.9224,-8.84923c5.32432,-2.91972 10.79417,-5.05637 16.16931,-6.59939zM143.82644,44.79312c-1.64465,4.82769 -3.67736,7.54183 -4.92009,8.85385c-4.26639,-3.74204 -8.62517,-10.79417 -11.24691,-15.45093c5.37283,1.54301 10.84268,3.67736 16.167,6.59708zM115.01274,92.5896c0,-10.82651 8.80765,-19.63416 19.63416,-19.63416c10.82651,0 19.63416,8.80765 19.63416,19.63416c0,10.82651 -8.80765,19.63416 -19.63416,19.63416c-10.82651,0 -19.63416,-8.80765 -19.63416,-19.63416zM119.63254,92.5896c0,8.27869 6.73567,15.01436 15.01436,15.01436c8.27869,0 15.01436,-6.73567 15.01436,-15.01436c0,-8.27869 -6.73567,-15.01436 -15.01436,-15.01436c-8.27869,0 -15.01436,6.73567 -15.01436,15.01436zM90.75877,104.1391c0,2.08122 -0.2795,4.22019 -0.83156,6.35223c-0.26333,1.02098 -1.18267,1.73243 -2.23598,1.73243h-44.68273c-1.05331,0 -1.97266,-0.71376 -2.23598,-1.73243c-0.55207,-2.13204 -0.83156,-4.27101 -0.83156,-6.35223c0,-14.00955 11.39936,-25.40891 25.40891,-25.40891c14.00955,0 25.40891,11.39936 25.40891,25.40891zM140.42165,92.5896c0.1891,0 0.37775,-0.00924 0.56593,-0.02772c0.18833,-0.01863 0.3752,-0.04635 0.56061,-0.08316c0.18556,-0.03696 0.36881,-0.08285 0.54976,-0.13767c0.18094,-0.05498 0.3588,-0.11865 0.53359,-0.19103c0.17478,-0.07238 0.34556,-0.15315 0.51234,-0.24231c0.16677,-0.08916 0.32878,-0.18626 0.486,-0.29128c0.15723,-0.10518 0.30899,-0.21775 0.45528,-0.33771c0.14614,-0.11996 0.28612,-0.24677 0.41994,-0.38044c0.13367,-0.13382 0.26048,-0.2738 0.38044,-0.41994c0.11996,-0.14629 0.23253,-0.29805 0.33771,-0.45528c0.10502,-0.15723 0.20212,-0.31923 0.29128,-0.486c0.08916,-0.16677 0.16993,-0.33755 0.24231,-0.51234c0.07238,-0.17478 0.13605,-0.35264 0.19103,-0.53359c0.05482,-0.18094 0.10071,-0.36419 0.13767,-0.54976c0.0368,-0.18541 0.06452,-0.37228 0.08316,-0.56061c0.01848,-0.18818 0.02772,-0.37682 0.02772,-0.56593c0,-0.1891 -0.00924,-0.37775 -0.02772,-0.56593c-0.01863,-0.18833 -0.04635,-0.3752 -0.08316,-0.56061c-0.03696,-0.18556 -0.08285,-0.36881 -0.13767,-0.54976c-0.05498,-0.18094 -0.11865,-0.3588 -0.19103,-0.53359c-0.07238,-0.17478 -0.15315,-0.34556 -0.24231,-0.51234c-0.08916,-0.16677 -0.18626,-0.32878 -0.29128,-0.486c-0.10518,-0.15723 -0.21775,-0.30899 -0.33771,-0.45528c-0.11996,-0.14614 -0.24677,-0.28612 -0.38044,-0.41994c-0.13382,-0.13367 -0.2738,-0.26048 -0.41994,-0.38044c-0.14629,-0.11996 -0.29805,-0.23253 -0.45528,-0.33771c-0.15723,-0.10502 -0.31923,-0.20212 -0.486,-0.29128c-0.16677,-0.08916 -0.33755,-0.16993 -0.51234,-0.24231c-0.17478,-0.07238 -0.35264,-0.13605 -0.53359,-0.19103c-0.18094,-0.05482 -0.36419,-0.10071 -0.54976,-0.13767c-0.18541,-0.0368 -0.37228,-0.06452 -0.56061,-0.08316c-0.18818,-0.01848 -0.37682,-0.02772 -0.56593,-0.02772c-0.1891,0 -0.37775,0.00924 -0.56593,0.02772c-0.18833,0.01863 -0.3752,0.04635 -0.56061,0.08316c-0.18556,0.03696 -0.36881,0.08285 -0.54976,0.13767c-0.18094,0.05498 -0.3588,0.11865 -0.53359,0.19103c-0.17478,0.07238 -0.34556,0.15315 -0.51234,0.24231c-0.16677,0.08916 -0.32878,0.18626 -0.486,0.29128c-0.15723,0.10518 -0.30899,0.21775 -0.45528,0.33771c-0.14614,0.11996 -0.28612,0.24677 -0.41994,0.38044c-0.13367,0.13382 -0.26048,0.2738 -0.38044,0.41994c-0.11996,0.14629 -0.23253,0.29805 -0.33771,0.45528c-0.10502,0.15723 -0.20212,0.31923 -0.29128,0.486c-0.08916,0.16677 -0.16993,0.33755 -0.24231,0.51234c-0.07238,0.17478 -0.13605,0.35264 -0.19103,0.53359c-0.05482,0.18094 -0.10071,0.36419 -0.13767,0.54976c-0.0368,0.18541 -0.06452,0.37228 -0.08316,0.56061c-0.01848,0.18818 -0.02772,0.37682 -0.02772,0.56593c0,0.1891 0.00924,0.37775 0.02772,0.56593c0.01863,0.18833 0.04635,0.3752 0.08316,0.56061c0.03696,0.18556 0.08285,0.36881 0.13767,0.54976c0.05498,0.18094 0.11865,0.3588 0.19103,0.53359c0.07238,0.17478 0.15315,0.34556 0.24231,0.51234c0.08916,0.16677 0.18626,0.32878 0.29128,0.486c0.10518,0.15723 0.21775,0.30899 0.33771,0.45528c0.11996,0.14614 0.24677,0.28612 0.38044,0.41994c0.13382,0.13367 0.2738,0.26048 0.41994,0.38044c0.14629,0.11996 0.29805,0.23253 0.45528,0.33771c0.15723,0.10502 0.31923,0.20212 0.486,0.29128c0.16677,0.08916 0.33755,0.16993 0.51234,0.24231c0.17478,0.07238 0.35264,0.13605 0.53359,0.19103c0.18094,0.05482 0.36419,0.10071 0.54976,0.13767c0.18541,0.0368 0.37228,0.06452 0.56061,0.08316c0.18818,0.01848 0.37682,0.02772 0.56593,0.02772zM70.54483,107.60395h15.28462c0.20558,-1.17112 0.30953,-2.33069 0.30953,-3.46485c0,-11.46173 -9.32738,-20.78911 -20.78911,-20.78911c-11.46173,0 -20.78911,9.32738 -20.78911,20.78911c0,1.13416 0.10395,2.29373 0.30953,3.46485h3.73511c-0.36034,-1.09489 -0.57979,-2.24984 -0.57979,-3.46485c0,-6.37995 5.16956,-11.54951 11.54951,-11.54951c6.37995,0 11.54951,5.16956 11.54951,11.54951c0,1.21501 -0.21944,2.36996 -0.57979,3.46485zM35.44357,124.68567l-11.54951,-5.77475c-1.14109,-0.57286 -1.60538,-1.9588 -1.03253,-3.1022c0.57055,-1.14109 1.95418,-1.60307 3.09989,-1.03253l11.54951,5.77475c1.14109,0.57055 1.60307,1.9588 1.03253,3.09989c-0.40654,0.81078 -1.22194,1.27738 -2.06967,1.27738c-0.34649,0 -0.6999,-0.07854 -1.03022,-0.24254zM164.55318,124.68567c-0.33032,0.164 -0.68373,0.24254 -1.03022,0.24254c-0.84773,0 -1.66313,-0.4666 -2.06967,-1.27507c-0.57055,-1.14109 -0.10857,-2.52934 1.03253,-3.09989l11.54951,-5.77475c1.1434,-0.57055 2.52934,-0.10857 3.09989,1.03253c0.57055,1.14109 0.10857,2.52934 -1.03253,3.09989zM151.97115,124.92821c1.27507,0 2.3099,1.03484 2.3099,2.3099c0,15.96835 -6.93432,30.34748 -17.94331,40.2893c-0.07161,0.07623 -0.15245,0.13166 -0.23099,0.19865c-5.16032,4.60594 -11.20071,8.24404 -17.83937,10.62324c-0.05082,0.0231 -0.10395,0.03465 -0.15476,0.05313c-5.6685,2.01192 -11.76433,3.11837 -18.11424,3.11837c-6.34992,0 -12.44575,-1.10644 -18.11424,-3.11837c-0.05313,-0.01848 -0.10626,-0.03003 -0.15476,-0.05313c-6.63173,-2.3792 -12.6675,-6.01267 -17.82551,-10.614c-0.08547,-0.0693 -0.17093,-0.13166 -0.24485,-0.21251c-11.0113,-9.94181 -17.94331,-24.31633 -17.94331,-40.28468c0,-1.27507 1.03484,-2.3099 2.3099,-2.3099zM24.92659,126.08316h11.54951c1.27507,0 2.3099,1.03484 2.3099,2.3099c0,1.27507 -1.03484,2.3099 -2.3099,2.3099h-11.54951c-1.27507,0 -2.3099,-1.03484 -2.3099,-2.3099c0,-1.27507 1.03484,-2.3099 2.3099,-2.3099zM163.52066,126.08316h11.54951c1.27507,0 2.3099,1.03484 2.3099,2.3099c0,1.27507 -1.03484,2.3099 -2.3099,2.3099h-11.54951c-1.27507,0 -2.3099,-1.03484 -2.3099,-2.3099c0,-1.27507 1.03484,-2.3099 2.3099,-2.3099zM63.03996,144.80953v-15.26383h-12.65133c0.2102,4.56205 1.0741,8.94856 2.43926,13.111c1.71164,0.43657 5.23655,1.26583 10.21207,2.15283zM67.65976,145.5718c3.71894,0.57055 7.96916,1.11799 12.70446,1.55225v-17.57604h-12.70446zM84.98402,147.50057c3.97534,0.27719 8.23942,0.45043 12.70446,0.49894v-18.45149h-12.70446zM115.01274,129.54802h-12.70446v18.44918c4.46504,-0.04851 8.72912,-0.22175 12.70446,-0.49894zM119.63254,129.54802v17.57604c4.7353,-0.43195 8.98552,-0.98171 12.70446,-1.54994v-16.02609zM136.9568,144.81184c4.97553,-0.887 8.50044,-1.71857 10.21207,-2.15283c1.36515,-4.16244 2.22905,-8.54894 2.43926,-13.111h-12.65133zM164.55318,132.10046l11.54951,5.77475c1.14109,0.57286 1.60538,1.9588 1.03253,3.09758c-0.40654,0.81078 -1.22194,1.27738 -2.06967,1.27738c-0.34649,0 -0.69759,-0.07623 -1.03022,-0.24254l-11.54951,-5.77475c-1.14109,-0.57055 -1.60307,-1.9588 -1.03253,-3.09989c0.57055,-1.13878 1.95649,-1.60307 3.09989,-1.03253zM23.89407,137.87521l11.54951,-5.77475c1.1434,-0.57055 2.52934,-0.10626 3.09989,1.03484c0.57055,1.14109 0.10857,2.52934 -1.03253,3.09989l-11.54951,5.77475c-0.33032,0.164 -0.68373,0.24254 -1.03022,0.24254c-0.85004,0 -1.66544,-0.4666 -2.06967,-1.27738c-0.57055,-1.14109 -0.10857,-2.52934 1.03253,-3.09989zM63.03996,149.52404c-3.34936,-0.5844 -6.11431,-1.15264 -8.19091,-1.62386c2.09508,4.56205 4.87851,8.73605 8.19091,12.43189zM136.9568,149.52404v10.80803c3.3124,-3.69584 6.09583,-7.86983 8.19091,-12.43189c-2.0766,0.47122 -4.84155,1.04177 -8.19091,1.62386zM80.36422,151.7785c-4.7122,-0.41809 -8.96473,-0.94706 -12.70446,-1.50606v14.55931c3.78824,3.26389 8.05463,5.9734 12.70446,7.98533zM119.63254,172.81708c4.64983,-2.01192 8.91622,-4.72144 12.70446,-7.98533v-14.55931c-3.73973,0.559 -7.99226,1.08796 -12.70446,1.50606zM97.68848,152.61931c-4.46966,-0.0462 -8.73143,-0.21251 -12.70446,-0.48046v22.41066c4.03771,1.28431 8.29716,2.03271 12.70446,2.23598zM115.01274,152.13885c-3.97303,0.26795 -8.2348,0.43195 -12.70446,0.48046v24.1685c4.40729,-0.20558 8.66675,-0.95168 12.70446,-2.23598z" fill-rule="evenodd"></path></svg>