<svg width="100%" viewBox="0 0 200 200" version="1.1" xmlns="http://www.w3.org/2000/svg" xmlns:xlink="http://www.w3.org/1999/xlink"><path d="M10.66503,163.94462c-0.57373,0 -1.15257,-0.05865 -1.7365,-0.18105c-2.41988,-0.66043 -4.14109,-1.96345 -5.21716,-3.89884c-1.13472,-1.96345 -1.37186,-4.08499 -0.66808,-6.11983c0.44624,-2.12409 1.7059,-3.79685 3.6617,-4.86782l0.14025,-0.14025c0.1326,-0.14025 0.28559,-0.25754 0.46154,-0.35189l4.43943,-2.48108l-5.6532,-1.53761c-2.01955,-0.52784 -3.68465,-1.80025 -4.93412,-3.779c-0.42839,-0.64003 -0.72418,-1.34126 -0.86188,-2.05269c-0.40799,-1.39736 -0.39524,-2.81257 0.0357,-4.20739c0.19634,-0.69868 0.47174,-1.35146 0.80578,-1.9048c0.62728,-1.15512 1.67275,-2.15979 3.07012,-2.91202c1.9099,-1.05822 3.8861,-1.32086 5.85209,-0.77773l2.38929,0.66043c-1.62686,-3.25626 -2.25924,-6.80067 -1.88695,-10.59241c0.44114,-4.39608 1.7773,-8.49382 3.97789,-12.19122l17.50018,-29.6659c0.33404,-0.56863 0.94347,-0.91543 1.60391,-0.91543h0.00255c0.66043,0 1.27242,0.35189 1.60391,0.92053l15.60048,26.60088l43.53498,-66.6195c0.12495,-0.20399 0.29324,-0.38249 0.49724,-0.53039h0.00255c0.0255,-0.0204 0.05355,-0.03825 0.0816,-0.0561h0.00255c0.31619,-0.19889 0.62728,-0.28559 1.01997,-0.28814h43.30038c0.62473,0 1.20612,0.31109 1.55291,0.83128l58.84476,88.51576c0.37739,0.57118 0.41564,1.30046 0.0918,1.90735c-0.31874,0.60178 -0.94602,0.98172 -1.63196,0.98682l-14.46321,0.0969c1.19337,1.62941 1.78495,3.46536 1.78495,5.49c0,0.47939 -0.05865,0.96387 -0.1785,1.44071c-0.39014,1.762 -1.21122,3.34806 -2.41988,4.65872c-1.85125,1.7518 -3.95239,2.58818 -6.33658,2.58818h-87.76863c-1.50701,0 -2.75648,0.48449 -3.8147,1.48151c-1.01232,1.01232 -1.52486,2.24904 -1.52486,3.73565c0,1.46366 0.49724,2.64428 1.52486,3.6107c1.12707,1.18572 2.34849,1.7263 3.8147,1.7263h52.51583c1.02762,0 1.86145,0.83383 1.86145,1.86145c0,1.02762 -0.83383,1.86145 -1.86145,1.86145h-52.51583c-2.50913,0 -4.67657,-0.94857 -6.44368,-2.81512c-1.711,-1.60646 -2.61878,-3.7331 -2.61878,-6.24478c0,-2.49128 0.89248,-4.64597 2.65448,-6.40798c1.7977,-1.69315 3.93964,-2.53208 6.40798,-2.53208h87.77373c1.42796,0 2.63153,-0.48449 3.68975,-1.47896c0.68083,-0.74458 1.18062,-1.7263 1.44326,-2.89927c0.0561,-0.22949 0.07905,-0.40799 0.07905,-0.58648c0,-1.50701 -0.52529,-2.79472 -1.60136,-3.93709c-0.79813,-0.79813 -1.7263,-1.30811 -2.80237,-1.52486l-83.61734,-0.1275h-30.53033c0.06885,0.34934 0.102,0.68593 0.1122,1.02507c0.18105,0.91543 0.1173,1.94815 -0.18614,3.06502c-0.64003,1.9303 -1.7977,3.43476 -3.47046,4.55928l-0.1173,0.1173c-0.30089,0.30344 -0.69613,0.48704 -1.11687,0.53294l-4.92137,2.77688l5.25541,1.46111c0.32129,0.01785 0.62728,0.0612 0.91288,0.13515c0.102,0.0102 0.20399,0.02805 0.27539,0.0459c2.04249,0.54059 3.6719,1.7773 4.83722,3.68465c1.10157,1.97365 1.36931,4.01869 0.83893,6.14278c-0.53549,2.25159 -1.85635,3.95494 -3.91669,5.04121c-1.7314,1.12707 -3.83,1.41776 -6.09944,0.76498c-0.15555,-0.04335 -0.30089,-0.1071 -0.43604,-0.18614c-0.10455,-0.01275 -0.20654,-0.0306 -0.30854,-0.05865l-21.07518,-5.6277l-17.89032,10.30427c-0.34169,0.30854 -0.73183,0.57373 -1.15767,0.78538c-1.28517,0.71398 -2.65958,1.08117 -4.07224,1.08117zM177.53763,124.69608l17.15084,-0.102l-56.39173,-84.81581h-38.8584l56.25913,84.79541zM135.58361,124.56859h15.63873l-55.24171,-83.268l-43.07344,65.90807c1.72375,3.77135 2.79982,7.65999 3.20016,11.58434c0.10455,1.16787 0.1173,2.29749 0.0408,3.37866c0.38504,0.051 0.77518,0.1224 1.16787,0.21929c0.41819,0.0918 0.82363,0.22439 1.20357,0.39014l36.13508,-55.59105c0.34424,-0.53039 0.92563,-0.77518 1.56056,-0.84913c0.62473,0 1.20867,0.31619 1.55546,0.83893zM61.80135,124.56859h69.31988l-34.89326,-52.96207zM94.38947,81.14326c0.0051,-0.49979 0.18105,-0.92817 0.54569,-1.28772c0.34934,-0.35699 0.78028,-0.53804 1.28007,-0.53804c0.49979,0 0.93072,0.1836 1.28007,0.53804c0.35954,0.35954 0.54059,0.78793 0.54569,1.28772v9.1517c-0.0051,0.49979 -0.18614,0.92308 -0.54569,1.27242c-0.35189,0.36719 -0.78028,0.55079 -1.28007,0.55843c-0.50234,-0.00765 -0.93072,-0.19124 -1.28007,-0.55843c-0.36719,-0.34934 -0.54059,-0.77263 -0.54569,-1.27242zM27.83882,137.2443c0.07395,0.00765 0.14535,0.0153 0.19379,0.02295c3.11857,0.59413 7.04291,0.64768 10.61791,-0.00255c3.39906,-0.87463 6.48193,-2.70293 9.03441,-5.40585c1.11432,-1.03782 1.966,-2.07309 2.61113,-3.15171c0.60943,-0.99702 1.10412,-1.9762 1.47386,-2.94007c0.17595,-0.53294 0.31364,-1.18572 0.37994,-1.864c0.00255,-0.02295 0.0051,-0.04335 0.00765,-0.06375c0.00765,-0.05355 0.01785,-0.10965 0.0306,-0.16575c0.28559,-1.37696 0.35699,-2.89672 0.21164,-4.51593c-0.38759,-3.79685 -1.49681,-7.59625 -3.29451,-11.2605c-0.28559,-0.57118 -0.60943,-1.11177 -0.96132,-1.60646l-14.50401,-24.72158l-15.89372,26.94512c-1.92265,3.23331 -3.09052,6.81852 -3.47556,10.66126c-0.44114,4.49043 0.79048,8.40712 3.76115,11.96173c0.26519,0.19634 0.52784,0.42584 0.79048,0.68848c0.87208,0.94602 1.7671,1.7314 2.72588,2.39184c1.8742,1.42031 3.97024,2.42498 6.29068,3.02677zM94.38947,95.78496c0.0051,-0.50234 0.18105,-0.93072 0.54569,-1.28007c0.34934,-0.36719 0.78028,-0.55079 1.28007,-0.55079c0.49979,0 0.93072,0.1836 1.28007,0.55079c0.35954,0.34934 0.54059,0.78028 0.54569,1.28007v9.1415c-0.0051,0.50744 -0.18614,0.93072 -0.54569,1.28262c-0.35189,0.36209 -0.78028,0.54569 -1.28007,0.54569c-0.49979,0 -0.93072,-0.1836 -1.28007,-0.54569c-0.36719,-0.35189 -0.54059,-0.77518 -0.54569,-1.28262zM33.39767,134.62552c-3.6923,0 -6.85677,-1.15512 -9.40925,-3.43986c-0.43859,-0.26009 -0.80578,-0.57883 -1.08882,-0.95367c-2.55758,-2.70293 -3.65915,-5.88524 -3.27156,-9.46279c0.17595,-2.58563 0.87718,-5.05396 2.07564,-7.26985l10.22012,-17.07689c0.33659,-0.56098 0.94347,-0.90523 1.59881,-0.90523h0.00255c0.65533,0 1.26222,0.34679 1.59626,0.90778l9.31235,15.64383c0.75733,1.41521 1.34381,2.81767 1.79005,4.24564c0.44624,1.42796 0.76243,2.91712 0.94092,4.43178c0.29579,2.37144 -0.1122,4.58478 -1.20867,6.57882c-0.54314,0.99447 -1.22652,1.95835 -2.0323,2.86867c-0.25754,0.35699 -0.56863,0.66553 -0.92563,0.92308c-2.64428,2.33319 -5.87504,3.50871 -9.60049,3.50871zM33.51751,101.01487l-8.57797,14.33061c-0.90268,1.67275 -1.45601,3.63365 -1.60391,5.75519c-0.27539,2.58053 0.48959,4.73012 2.33829,6.64767c0.07395,0.0765 0.14535,0.16065 0.20399,0.25499c0.15555,0.0765 0.33659,0.1734 0.46409,0.29069c1.89715,1.75435 4.20229,2.60858 7.05311,2.60858c2.86357,0 5.21971,-0.86188 7.20356,-2.63153c0.0612,-0.05355 0.1275,-0.1071 0.19634,-0.153c0.04845,-0.0714 0.22184,-0.25754 0.27794,-0.32384c0.64513,-0.71908 1.19082,-1.47896 1.61156,-2.25669c0.72928,-1.32086 0.98172,-2.73353 0.78028,-4.33743v-0.01275c-0.153,-1.28772 -0.42074,-2.55248 -0.79813,-3.76115c-0.37739,-1.20612 -0.87463,-2.39184 -1.47896,-3.5291zM94.93516,109.14405c0.34934,-0.36719 0.78028,-0.55079 1.28007,-0.55589c0.50234,0.0051 0.93072,0.18869 1.28007,0.55589c0.35954,0.35444 0.54059,0.78028 0.54569,1.27497v9.1568c-0.0051,0.49469 -0.18614,0.92053 -0.54569,1.27242c-0.35189,0.36719 -0.78028,0.54569 -1.28007,0.56098c-0.50234,-0.0153 -0.93072,-0.19379 -1.28007,-0.56098c-0.36719,-0.35189 -0.54059,-0.77773 -0.54569,-1.27242v-9.1568c0.0051,-0.49469 0.18105,-0.92053 0.54569,-1.27497zM14.65567,148.54304c0.22694,0.11475 0.44879,0.22949 0.66808,0.35699c0.0765,0.04335 0.153,0.0918 0.22184,0.1479c0.92563,0.72163 1.7059,1.60391 2.31789,2.62643c0.53294,0.95622 0.89503,1.9303 1.09647,2.94517c0.0255,0.1224 0.0357,0.24224 0.0357,0.36719c0,0.33659 -0.01275,0.68338 -0.04335,1.03017l28.77342,-16.6638c0.0102,-0.0051 0.0204,-0.01275 0.0306,-0.0153l8.81511,-4.96727c0.22949,-0.15555 0.49979,-0.28049 0.79048,-0.36719c0.0357,-0.02295 0.06885,-0.051 0.1071,-0.0714c1.05057,-0.68083 1.7365,-1.53761 2.09859,-2.62388c0.1734,-0.64258 0.14535,-1.08372 0.0867,-1.32086c-0.03825,-0.15045 -0.0561,-0.29834 -0.0561,-0.45134c0,-0.25754 -0.02295,-0.48194 -0.0663,-0.65788c-0.08415,-0.23714 -0.23459,-0.57373 -0.41309,-0.86953c-0.09945,-0.14535 -0.19379,-0.29834 -0.27794,-0.44369c-0.29834,-0.28814 -0.59413,-0.55334 -0.89503,-0.79048c-0.01785,-0.01275 -0.03315,-0.02805 -0.051,-0.0408c-0.00255,-0.0051 -0.00765,-0.00765 -0.0102,-0.0102c-0.1224,-0.0612 -0.23714,-0.1377 -0.34424,-0.22694c-0.26774,-0.22184 -0.63238,-0.38249 -1.07607,-0.48194c-0.30089,-0.07395 -0.58648,-0.1275 -0.85933,-0.1581c-0.08925,0.39524 -0.19889,0.78538 -0.32384,1.16022c-0.47939,1.25457 -1.07352,2.44283 -1.79515,3.6158c-0.81853,1.36421 -1.8895,2.67233 -3.17466,3.8657c-2.95792,3.13642 -6.64257,5.31916 -10.86271,6.40033c-4.05949,0.74458 -8.07818,0.69868 -11.51804,0.13005l-10.37312,5.89544c-0.0051,0.00255 -0.0102,0.0051 -0.01785,0.0102zM8.07685,132.18778c-0.68338,0 -1.36931,0.19634 -2.08329,0.59158c-0.77773,0.41819 -1.30556,0.90268 -1.62686,1.49426c-0.20399,0.34424 -0.34424,0.69103 -0.46664,1.10922c-0.23204,0.75733 -0.23204,1.45346 -0.0102,2.17254c0.02295,0.07905 0.04335,0.16065 0.0561,0.24224c0.0408,0.23459 0.153,0.48959 0.33404,0.76498c0.76498,1.20867 1.66001,1.91755 2.76923,2.20824l9.33275,2.53718l6.71907,-3.8198c-1.33361,-0.62218 -2.58563,-1.37951 -3.74585,-2.26434c-1.11942,-0.77008 -2.22864,-1.73905 -3.22821,-2.82787c-0.051,-0.051 -0.1173,-0.1122 -0.19379,-0.1734l-6.86951,-1.89715c-0.32639,-0.0918 -0.65533,-0.1377 -0.98682,-0.1377zM38.33178,149.12952l11.57414,3.09052c-0.1071,-0.32129 -0.1785,-0.63238 -0.22439,-0.94347c-0.20144,-1.09647 -0.153,-2.32044 0.16065,-3.56735c0.23459,-0.81853 0.56608,-1.53761 1.00212,-2.19294c0.37994,-0.59668 0.82873,-1.14747 1.34381,-1.64471l-3.26136,-0.90523zM56.91823,154.14014c1.09392,0.26009 2.0221,0.102 2.90692,-0.46919c1.23927,-0.66298 1.88695,-1.49936 2.17764,-2.71313c0.30344,-1.21377 0.16065,-2.31024 -0.43604,-3.38376c-0.58903,-0.96132 -1.39481,-1.60901 -2.42498,-1.91755c-0.1377,-0.01785 -0.27794,-0.0408 -0.38249,-0.07395c-0.01275,-0.0051 -0.102,-0.02295 -0.28049,-0.0306c-0.0969,0 -0.19379,-0.00765 -0.29069,-0.02295v-0.00255c-0.0102,0 -0.02295,-0.00255 -0.0357,-0.00255c-0.97407,-0.1785 -1.8232,-0.03825 -2.59838,0.40289c-0.60943,0.39014 -1.15257,0.93327 -1.58606,1.61666c-0.24989,0.37484 -0.41564,0.73438 -0.52784,1.12707c-0.1683,0.67063 -0.20144,1.36676 -0.08415,2.00935c0.0561,0.38249 0.22184,0.77773 0.49214,1.21122c0.54824,0.82108 1.22397,1.45346 2.0374,1.8895c0.41819,0.06375 0.76243,0.19889 1.03272,0.35954zM9.23197,151.61826l-0.0306,0.0306c-0.1428,0.1428 -0.36719,0.32129 -0.54569,0.41054c-1.13217,0.56608 -1.762,1.36931 -1.98385,2.52953c-0.01785,0.09945 -0.0459,0.19634 -0.0816,0.29324c-0.38504,1.05057 -0.27029,2.05014 0.36209,3.14152c0.59413,1.07097 1.52231,1.75435 2.85082,2.11644c1.03017,0.21164 2.10624,0.03315 3.19761,-0.57883c0.21674,-0.1071 0.33659,-0.19124 0.43604,-0.28814c0.0663,-0.06885 0.14025,-0.13515 0.21929,-0.19379c0.67063,-0.49979 1.13982,-1.23927 1.44071,-2.26434c0.0918,-0.48704 0.1581,-1.07862 0.17085,-1.64471c-0.1326,-0.57628 -0.34424,-1.12452 -0.63238,-1.63961c-0.32894,-0.55079 -0.75478,-1.04292 -1.27497,-1.46621c-0.42584,-0.23714 -0.87463,-0.44624 -1.34891,-0.62983c-0.95622,-0.18614 -1.87165,-0.12495 -2.77943,0.1836z" fill-rule="evenodd"></path></svg>