<svg width="100%" viewBox="0 0 200 200" version="1.1" xmlns="http://www.w3.org/2000/svg" xmlns:xlink="http://www.w3.org/1999/xlink"><path d="M35.34566,121.76563c-0.44297,1.37359 0.1125,2.87203 1.34375,3.625c0.34422,0.21203 0.72625,0.35531 1.125,0.42188c5.65531,1.87797 11.505,3.10969 17.4375,3.67188c0,18.75 8.01562,44.75 42.82813,69.625l0.45313,0.3125c0.54,0.37813 1.1675,0.57031 1.79688,0.57813h0.07813c0.62937,-0.00781 1.25688,-0.2 1.79688,-0.57812c24.375,-17.29687 38.4375,-37.03125 41.8125,-58.64062c0.57609,-3.73687 0.82703,-7.51672 0.75,-11.29687c5.84531,-0.55312 11.61094,-1.75859 17.1875,-3.59375c0.95469,-0.08406 1.81719,-0.60094 2.34063,-1.4025c0.525,-0.80156 0.65156,-1.79922 0.34687,-2.70687c-5.75,-16.96875 -13.75,-26.5625 -22.39062,-32.09375c3.65844,-6.75219 6.54125,-13.89656 8.59375,-21.29687c1.49203,-5.24094 2.26484,-10.66031 2.29688,-16.10937c0,-28.84375 -23.82812,-52.28125 -53.125,-52.28125h-0.35484c-13.59016,0.04517 -26.65562,5.27953 -36.52016,14.64063c-10.39734,9.75391 -16.28187,23.38438 -16.25,37.64063c0.22609,13.15078 3.43141,26.07922 9.375,37.8125c-8,5.54688 -15.32812,15.15625 -20.92187,31.67188zM53.14253,52.28125c-0.01672,-12.54156 5.16531,-24.52922 14.3125,-33.10937c8.78859,-8.33441 20.45047,-12.96223 32.5625,-12.92187c25.84375,0 46.875,20.65625 46.875,46.03125c-0.01297,4.87031 -0.68578,9.71656 -2,14.40625c-1.93188,6.96656 -4.64719,13.69172 -8.09375,20.04688c-8.90625,-3.92187 -18.10937,-4.09375 -26.03125,-3.92187c0.50422,-1.40984 -0.0625,-2.97937 -1.35109,-3.74187c-1.28859,-0.7625 -2.93703,-0.50375 -3.93016,0.61687l-5.46875,6.25l-5.46875,-6.25c-0.99312,-1.12063 -2.64156,-1.37938 -3.93016,-0.61687c-1.28859,0.7625 -1.85531,2.33203 -1.35109,3.74187c-8.85937,-0.3125 -18.48437,-0.17187 -27.54688,4.0625c-5.41328,-10.74359 -8.34484,-22.56562 -8.57812,-34.59375zM113.58003,50.5625c0.70281,-0.00297 1.4,-0.12453 2.0625,-0.35937c0.91859,-0.35422 1.89078,-0.54969 2.875,-0.57813c0.85828,-0.06906 1.70203,0.25234 2.29688,0.875c1.50781,1.78875 3.72313,2.82781 6.0625,2.84375c4.07359,-0.08141 7.46219,-3.15656 7.9375,-7.20312c0.51563,-3.92187 -1.5625,-9.25 -9.375,-11.3125c-1.64437,-0.45344 -3.34109,-0.68984 -5.04687,-0.70312c-5.34172,-0.10797 -10.25359,2.91609 -12.5625,7.73438c-0.82406,1.93094 -0.62359,4.14672 0.53375,5.89844c1.15453,1.74719 3.10703,2.8 5.20063,2.80469zM73.14253,53.35938c2.33937,-0.01594 4.55469,-1.055 6.0625,-2.84375c0.59484,-0.62266 1.43859,-0.94406 2.29688,-0.875c0.98422,0.02844 1.95641,0.22391 2.875,0.57813c2.33516,0.81516 4.93141,0.17641 6.62203,-1.62906c1.69047,-1.80547 2.15719,-4.43812 1.19047,-6.71469c-2.32969,-4.84891 -7.29453,-7.87313 -12.67187,-7.71875c-1.70578,0.01328 -3.4025,0.24969 -5.04687,0.70313c-7.6875,2.0625 -9.82812,7.375 -9.375,11.3125c0.48812,4.08109 3.93672,7.16141 8.04688,7.1875zM76.12691,40.85938c1.11453,-0.31016 2.265,-0.47297 3.42188,-0.48437c2.87687,-0.16391 5.58391,1.36984 6.92188,3.92188c-1.59031,-0.595 -3.27094,-0.91203 -4.96875,-0.9375c-2.67234,-0.07984 -5.24219,1.03063 -7.01562,3.03125c-0.32703,0.42359 -0.82469,0.68094 -1.35937,0.70313c-2.0625,0.01563 -3.54687,-4.45312 3,-6.21875zM120.48628,40.39063c1.15688,0.01141 2.30734,0.17422 3.42188,0.48438c6.53125,1.75 5.0625,6.25 2.98438,6.25c-0.53469,-0.02219 -1.03234,-0.27953 -1.35937,-0.70312c-1.77344,-2.00062 -4.34328,-3.11109 -7.01562,-3.03125c-1.69781,0.02547 -3.37844,0.3425 -4.96875,0.9375c1.33594,-2.56359 4.05156,-4.10484 6.9375,-3.9375zM81.86128,55.67188c-1.07469,-0.00359 -2.13844,0.21437 -3.125,0.64062c1.13297,-0.24516 2.2975,0.25094 2.90578,1.23766c0.60828,0.98688 0.52828,2.25 -0.19984,3.15219c-0.72797,0.90203 -1.94578,1.24703 -3.03875,0.86094c-1.09297,-0.38625 -1.82375,-1.41969 -1.82344,-2.57891c0.00344,-0.67766 0.25969,-1.32969 0.71875,-1.82812c-3.07422,2.30672 -4.01406,6.50688 -2.21594,9.90391c1.79812,3.39687 5.79984,4.98141 9.43594,3.73609c3.63625,-1.24516 5.82656,-4.95031 5.16469,-8.73641c-0.66187,-3.78594 -3.97922,-6.52828 -7.82219,-6.46609zM117.79878,55.67188c-1.07469,-0.00359 -2.13844,0.21437 -3.125,0.64062c1.13297,-0.24516 2.2975,0.25094 2.90578,1.23766c0.60828,0.98688 0.52828,2.25 -0.19984,3.15219c-0.72797,0.90203 -1.94578,1.24703 -3.03875,0.86094c-1.09297,-0.38625 -1.82375,-1.41969 -1.82344,-2.57891c0.00344,-0.67766 0.25969,-1.32969 0.71875,-1.82812c-3.07422,2.30672 -4.01406,6.50688 -2.21594,9.90391c1.79813,3.39687 5.79984,4.98141 9.43594,3.73609c3.63625,-1.24516 5.82656,-4.95031 5.16469,-8.73641c-0.66188,-3.78594 -3.97922,-6.52828 -7.82219,-6.46609zM92.37691,89.28125h2.26563l3.01563,3.4375c0.59328,0.67266 1.44687,1.05797 2.34375,1.05797c0.89687,0 1.75047,-0.38531 2.34375,-1.05797l3.03125,-3.45312h1.5625l0.02109,-0.00094c17.10562,-0.73422 38.24969,-1.64172 50.69766,31.37594c-36.0625,10.42188 -50.29687,-10.9375 -54.8125,-20.84375c-0.50766,-1.11422 -1.61937,-1.82937 -2.84375,-1.82937c-1.22438,0 -2.33609,0.71516 -2.84375,1.82937c-4.5,9.89063 -18.75,31.25 -54.8125,20.84375c12.35063,-32.88312 31.4575,-32.11047 49.99219,-31.36094zM137.84566,139.875c-3.03125,19.42188 -15.625,37.34375 -37.5,53.32813c-25.8125,-18.85937 -38.79687,-40.23437 -38.78125,-63.51562c15.79016,-0.04766 30.39313,-8.39062 38.45313,-21.96875c8.06625,13.59484 22.69234,21.94063 38.5,21.96875c0.07156,3.40891 -0.15312,6.8175 -0.67187,10.1875z" fill-rule="evenodd"></path></svg>