<svg width="100%" viewBox="0 0 200 200" version="1.1" xmlns="http://www.w3.org/2000/svg" xmlns:xlink="http://www.w3.org/1999/xlink"><path d="M157.60191,74.57726l-61.40217,-2.42079c-1.87061,0.02246 -12.05677,0.71186 -12.05677,12.20274c0,2.40057 0,9.7056 11.71768,9.7056c1.39229,0 2.33096,-0.128 2.33994,-0.13025l0.53221,-0.03818h41.13539c0.31439,-0.02246 0.96562,-0.06288 1.86162,-0.06288c11.29999,0 23.37473,5.76677 23.37473,21.951c0,7.1119 -4.32732,16.68501 -24.95116,21.9016c-10.54097,2.66107 -20.90454,3.10795 -22.68757,3.16633c-1.07566,0.21558 -10.41746,2.64759 -10.41746,21.80054v3.77714h-10.0402v33.56987h-75.84604v-33.56987h-9.01844v-84.20202c-0.0539,-0.98808 -1.2059,-28.81139 17.82803,-48.81319c7.5498,-7.93155 17.16108,-13.44681 28.70135,-16.52108c0.08309,-9.34854 5.03469,-16.89385 11.14055,-16.89385c5.4681,0 10.00876,6.05646 10.95866,14.03517c0.57713,-0.00898 1.14302,-0.03144 1.72464,-0.03144h9.8089c0.95888,-7.96299 5.4928,-14.00148 10.95192,-14.00148c5.45912,0 9.99753,6.03849 10.9609,14.00148h43.38551c16.69848,0 30.28228,13.58604 30.28228,30.28677c0,16.70073 -13.5838,30.28677 -30.28452,30.28677zM98.9686,101.45067c-0.51874,0.06063 -1.63706,0.16618 -3.10795,0.16618c-12.06575,0 -19.26972,-6.45169 -19.26523,-17.25764c0,-15.62732 12.92358,-19.75478 19.75702,-19.75478l40.66605,1.60338c-9.61128,-13.67811 -12.99544,-25.34639 -10.01549,-34.72188c1.39903,-4.40367 3.98823,-7.61717 6.65604,-9.92792h-51.15762c-0.66246,0 -1.27776,0.05839 -1.93124,0.06961c-1.28674,7.28032 -5.60733,12.64288 -10.75206,12.64288c-4.44185,0 -8.26391,-4.00171 -10.05816,-9.77521c-9.76174,2.75538 -17.91112,7.4218 -24.264,14.07783c-16.80627,17.60571 -15.8137,43.21708 -15.80247,43.47533l0.00449,76.82738h11.85017v-15.8384h7.55429v15.8384h16.04949v-15.8384h7.55204v15.8384h15.10408v-15.8384h7.55429v15.8384h14.24626c1.45966,-23.44883 16.40879,-25.46541 17.07574,-25.54176l0.34358,-0.02695c1.55397,-0.03818 3.5436,-0.15495 5.79147,-0.36828c-1.44843,-1.1318 -2.64759,-2.51735 -3.57279,-4.17237c-4.60353,-8.2392 -1.46639,-20.75184 0.73432,-27.3158zM157.74788,67.02746c12.38463,-0.00225 22.58427,-10.19964 22.58427,-22.73697c0,-12.53509 -10.19964,-22.73248 -22.73472,-22.73023h-20.21513c-3.11244,2.11313 -6.63134,5.50628 -8.25268,10.6308c-2.84296,8.98924 0.77025,20.46215 10.71388,34.13128zM140.38469,101.43271l-0.3593,0.01797h-17.65287c-2.07047,6.01828 -5.46586,18.52193 -1.16099,26.22218c1.19467,2.13784 2.94177,3.75918 5.20536,4.86627c13.01341,-1.65727 31.13337,-6.27428 31.13337,-16.75462c0,-12.52835 -9.9122,-14.39896 -15.82269,-14.39896c-0.7725,0 -1.26429,0.04042 -1.34288,0.04716z" fill-rule="evenodd"></path></svg>