<svg width="100%" viewBox="0 0 200 200" version="1.1" xmlns="http://www.w3.org/2000/svg" xmlns:xlink="http://www.w3.org/1999/xlink"><path d="M192.68913,129.45839c-0.08448,-0.06912 -0.1664,-0.12288 -0.26624,-0.17408c-0.04352,-0.02048 -0.0768,-0.06144 -0.11776,-0.07936c-0.05888,-0.02048 -0.12032,-0.01792 -0.18176,-0.03328c-0.05376,-0.01536 -0.09728,-0.04864 -0.1536,-0.05888l-33.40085,-5.51689h-0.00256c-37.53019,-6.66635 -71.70673,-37.11035 -98.83804,-88.03723c-0.28416,-0.53249 -0.83201,-0.81409 -1.39266,-0.81665v-0.01792c-0.02816,0 -0.05376,0.0128 -0.07936,0.0128c-0.05376,0.00256 -0.10752,0.0128 -0.16128,0.02304c-4.96392,0.34305 -7.33964,11.01073 -7.52396,21.41218c-0.9677,0.28672 -1.97379,0.61185 -3.05157,0.99842c-0.0384,0.01024 -0.05888,0.0384 -0.09472,0.05376c-0.03584,0.01536 -0.0768,0.01536 -0.11264,0.03328c-13.29941,7.04011 -31.09425,4.95624 -33.66453,3.45861c-0.00768,-0.02048 -0.03584,-0.03072 -0.04352,-0.0512c-0.12032,-0.2176 -0.2816,-0.40193 -0.48641,-0.54017c-0.05376,-0.04096 -0.12288,-0.05376 -0.18432,-0.0896c-0.1792,-0.09472 -0.37121,-0.14592 -0.57345,-0.1664c-0.04864,-0.00256 -0.07936,-0.0384 -0.13056,-0.0384c-0.04096,0 -0.07424,0.01792 -0.11008,0.02048c-0.01818,0.00102 -0.03482,-0.00128 -0.0512,-0.00358c-0.02048,-0.00307 -0.04019,-0.00589 -0.06144,-0.00154c-0.07168,0.01024 -0.12544,0.0512 -0.19456,0.06912c-0.1024,0.03072 -0.19968,0.05888 -0.29184,0.10496c-0.09216,0.04608 -0.17152,0.10496 -0.25088,0.16896c-0.0768,0.06144 -0.15104,0.12288 -0.21504,0.19712c-0.06912,0.0768 -0.11776,0.16128 -0.16896,0.24832c-0.04864,0.08704 -0.09472,0.16896 -0.13056,0.2688c-0.03328,0.09984 -0.04864,0.2048 -0.06144,0.31232c-0.00768,0.064 -0.04096,0.12544 -0.04096,0.19456c0,0.04864 0.01536,0.11008 0.01792,0.16384c0.00128,0.01024 0,0.02048 -0.00128,0.03072c-0.00128,0.01024 -0.00256,0.02048 -0.00128,0.03072c3.36645,23.47813 -0.72961,40.76096 -3.11301,45.04135c-0.01024,0.01792 -0.01024,0.03584 -0.01792,0.05376c-0.01024,0.02048 -0.03072,0.03328 -0.04096,0.05632c-5.80361,12.70548 -5.79593,17.30843 -4.25223,35.29784c-0.87041,0.54273 -1.74339,1.62563 -2.36036,3.70182c-0.56833,1.90467 -0.88321,4.48519 -0.88321,7.26795c0,2.04291 0.23808,12.22163 4.9204,12.22163h113.24851c4.40327,0 11.40498,-0.0896 19.48959,-0.51201c0.1792,0.07168 0.37377,0.11008 0.57345,0.11008c0.06656,0 0.13568,-0.00256 0.20224,-0.0128c0.1792,-0.0256 0.34049,-0.09216 0.49409,-0.1664c23.40645,-1.3005 55.09207,-5.41961 60.30175,-18.05085c2.08387,-5.0484 -0.06656,-10.80081 -6.39754,-17.09339c-0.04608,-0.0384 -0.09984,-0.05888 -0.14336,-0.09216zM48.63565,60.11713c13.53237,-4.80008 16.02073,-1.32354 22.50276,11.47154c0.2816,0.54785 0.83713,0.86785 1.41058,0.86785c0.24064,0 0.48385,-0.05632 0.71169,-0.16896c0.77825,-0.39425 1.09058,-1.34402 0.69633,-2.12227c-6.04682,-11.93747 -9.78447,-16.90907 -20.18336,-14.79191c0.28672,-9.77167 2.4218,-15.55225 3.86822,-17.05499c8.44557,15.68025 17.4262,29.35342 26.92651,40.96577c-5.47337,0.44801 -10.67281,1.98915 -13.29429,4.51847c-0.82689,-0.30976 -1.67427,-0.31488 -2.38596,0.11008c-1.51042,0.92161 -1.70755,3.17189 -0.46081,5.23784c0.89089,1.46946 2.24516,2.37828 3.5303,2.37828c0.47105,0 0.92673,-0.12288 1.3261,-0.36097c1.50786,-0.91905 1.70755,-3.16677 0.46081,-5.23528c-0.01536,-0.0256 -0.03328,-0.0384 -0.04864,-0.06144c1.99427,-1.72035 6.83019,-3.41253 13.47605,-3.53542c2.78788,3.26917 5.61417,6.37706 8.48909,9.29807c-6.20298,0.43521 -11.92467,1.94307 -14.61015,4.45959c-1.53602,-0.35841 -3.02341,0.0384 -3.68646,1.14434c-0.89601,1.52578 -0.00256,3.60198 2.07107,4.82056c0.86529,0.51713 1.82019,0.79617 2.68548,0.79617c1.1213,0 2.05059,-0.47617 2.54724,-1.30818c0.66305,-1.12386 0.33793,-2.55492 -0.71681,-3.72486c2.24004,-1.4669 7.28076,-3.04133 14.79703,-3.13861c2.24516,2.16067 4.52103,4.21383 6.81483,6.16714c-5.41705,0.88321 -9.63343,3.49958 -11.33074,6.95051c-1.2493,-0.0896 -2.39108,0.27648 -2.94405,1.20322c-0.89345,1.52578 -0.00256,3.60454 2.07619,4.82568c0.86273,0.50945 1.81507,0.79361 2.68292,0.79361c1.1213,0 2.04803,-0.47617 2.5498,-1.31074c0.78593,-1.33634 0.13312,-3.07205 -1.43106,-4.31367c1.60259,-2.93381 6.29002,-5.14312 11.78899,-5.30696c2.66244,2.12227 5.3556,4.1063 8.07949,5.95721c-3.85542,1.04194 -6.87883,3.36133 -8.22029,6.30282c-1.2749,-0.05888 -2.41668,0.35329 -2.94917,1.32098c-0.83201,1.55906 0.14336,3.59942 2.26308,4.74119c0.82433,0.44289 1.73315,0.69121 2.55236,0.69121c1.1981,0 2.16579,-0.51201 2.65476,-1.41314c0.73473,-1.36194 0.02304,-3.06437 -1.57954,-4.24711c1.32098,-2.71108 4.93064,-4.68487 9.26735,-4.82824c2.86981,1.78691 5.76009,3.47909 8.69646,4.96392c-1.5437,1.00866 -2.76228,2.51908 -3.44069,4.34439c-1.19554,-0.01024 -2.26052,0.40449 -2.7674,1.32354c-0.83201,1.55906 0.1408,3.59942 2.26564,4.74119c0.82433,0.44289 1.73315,0.69121 2.5498,0.69121c1.1981,0 2.16835,-0.51201 2.65988,-1.41314c0.75265,-1.4029 -0.0128,-3.16421 -1.71523,-4.34439c0.76545,-1.97123 2.473,-3.35621 4.47495,-3.47397c3.7095,1.68963 7.46508,3.16933 11.27954,4.39047c-0.72705,0.37889 -1.4157,0.81665 -2.00963,1.33634c-1.71523,-0.49665 -3.40485,-0.12288 -4.09094,1.1341c-0.82945,1.55906 0.14592,3.5943 2.26308,4.73607c0.82689,0.44289 1.73315,0.69121 2.5498,0.69121c1.1981,0 2.16835,-0.51201 2.65988,-1.41314c0.55553,-1.03682 0.25088,-2.26564 -0.59393,-3.32293c1.53858,-0.9805 3.71462,-1.56418 4.9332,-1.4669c2.26052,0.57857 4.54151,1.06498 6.83531,1.4797c-0.2304,2.68036 -1.1341,4.9076 -2.73156,6.44874c-1.43362,1.37986 -3.33829,2.13251 -5.55017,2.20931c-57.97468,-4.28295 -83.44708,-38.14972 -102.03553,-74.49718c0.46337,-0.2176 0.93185,-0.41985 1.37986,-0.65793zM10.36304,108.09997c0.00256,-0.00256 0,-0.00768 0.00256,-0.01536c2.54724,-4.70535 6.53066,-21.12033 3.80678,-43.86117c2.44484,0.67073 6.16458,1.13666 10.50641,1.13666c6.01866,0 13.17909,-0.91393 19.66111,-3.35621c18.00476,35.24408 44.53702,71.39953 103.30787,76.28153c0.19456,0.09984 0.40705,0.16128 0.64001,0.16896c0.18432,0.00512 0.36865,0.00768 0.55553,0.00768c0.13824,0 0.26624,-0.03072 0.40449,-0.03328c0.08704,0.00512 0.1664,0.01536 0.25344,0.02304l0.00256,-0.04352c2.94661,-0.14336 5.54249,-1.16994 7.52652,-3.07973c2.10691,-2.02755 3.31269,-4.85128 3.65318,-8.18445l1.32354,0.2176c0.192,4.63879 1.3645,9.25199 3.42277,11.92467c-7.10923,1.33122 -15.53177,2.217 -25.21896,2.217c-0.15104,0 -0.29184,0.04608 -0.42753,0.08448h-133.41651c-1.54626,-18.15325 -1.30306,-21.88835 3.99622,-33.48789zM52.47827,102.80836c0,10.59089 -7.79276,19.21054 -17.36731,19.21054c-9.57199,0 -17.36475,-8.61966 -17.36731,-19.21054c0,-10.59601 7.79276,-19.21822 17.36731,-19.21822c9.57455,0 17.36731,8.62222 17.36731,19.21822zM49.32174,102.8058c0,-8.85518 -6.3745,-16.05913 -14.21078,-16.05913c-7.83372,0 -14.20822,7.20395 -14.20822,16.05913c0,8.85262 6.37194,16.05401 14.20822,16.05401c7.83628,0 14.21078,-7.20139 14.21078,-16.05401zM29.1179,110.36816l0.73473,-4.9076l-3.08229,-3.44581c-0.38401,-0.43009 -0.50689,-1.03426 -0.31488,-1.57954c0.192,-0.54273 0.66305,-0.93953 1.23138,-1.0317l4.10886,-0.68353l1.87395,-4.34439c0.49921,-1.15458 2.39876,-1.1597 2.89797,0l1.87651,4.34439l4.1063,0.68353c0.56577,0.09216 1.03938,0.48897 1.22882,1.0317c0.192,0.54785 0.06912,1.15202 -0.31488,1.57954l-3.09253,3.44581l0.73729,4.9076c0.09216,0.60161 -0.17408,1.20578 -0.68097,1.54626c-0.26624,0.17664 -0.57345,0.26624 -0.87809,0.26624c-0.2816,0 -0.56065,-0.07424 -0.81409,-0.22528l-3.62246,-2.17859l-3.6199,2.17859c-0.52737,0.30976 -1.18274,0.2944 -1.69219,-0.04096c-0.50689,-0.33793 -0.77569,-0.94209 -0.68353,-1.54626zM187.86857,131.63442c-3.6711,2.31172 -9.88432,4.87432 -18.38621,6.81483c-1.62819,-0.05376 -3.88614,-4.1063 -4.26759,-10.55505zM196.30646,145.44072c-4.03462,9.76911 -29.24334,14.54103 -56.71258,16.08729l-2.13763,-16.77851h3.35877c0.18432,0 0.35841,-0.04608 0.51969,-0.10496c11.06449,-0.08192 20.57249,-1.30562 28.36269,-3.06437c0.16384,-0.01792 0.32257,-0.04352 0.46849,-0.10752c10.53713,-2.42948 17.85628,-5.81897 21.44034,-8.61966c4.53639,4.85384 6.1441,9.08814 4.70023,12.58772zM68.61932,139.99039l-0.37889,-0.0128c-2.40388,-0.14592 -4.14471,-1.58467 -4.04998,-3.35109c0.11264,-1.66915 1.81251,-2.86469 4.05254,-2.86469l0.36865,0.0128c2.41412,0.1536 4.15239,1.59747 4.04742,3.35877c-0.1024,1.65635 -1.79971,2.85701 -4.03974,2.85701zM88.75916,139.99039l-0.37889,-0.0128c-2.40644,-0.14592 -4.14471,-1.58467 -4.04742,-3.35109c0.11008,-1.66915 1.81251,-2.86469 4.05254,-2.86469l0.36609,0.0128c2.41668,0.1536 4.15239,1.59747 4.04742,3.35877c-0.09984,1.65635 -1.79971,2.85701 -4.03974,2.85701zM68.61932,138.41085v-1.46434c-0.05376,-0.00768 -0.1152,-0.0128 -0.17664,-0.02048zM88.75916,138.41085v-1.46434c-0.05632,-0.00768 -0.1152,-0.0128 -0.17664,-0.02048zM118.16123,162.11682h-113.15635c-0.91649,-0.55041 -2.24004,-5.64745 -1.75363,-11.62002c0.35585,-4.37511 1.4285,-5.66537 1.66147,-5.74729h129.35884l2.16067,16.94235c-6.08266,0.28672 -12.23699,0.42497 -18.27101,0.42497z" fill-rule="evenodd"></path></svg>